<svg xmlns="http://www.w3.org/2000/svg" viewBox="0 0 311.74 189.45"><defs><style>.cls-1{fill:#d52d24;}.cls-2{fill:#b53225;}.cls-3{fill:#f1866e;}.cls-4{fill:#ef674b;}.cls-5{fill:#e34e30;}.cls-6{fill:#c1bebd;}.cls-7{fill:#e45d42;}.cls-8{fill:#852f22;}.cls-9{fill:#9a3223;}.cls-10{fill:#4c2018;}.cls-11{fill:#62271c;}.cls-12{fill:#cc4730;}.cls-13{fill:#f5a28f;}.cls-14{fill:#57241a;}.cls-15{fill:#e32b25;}.cls-16{fill:#fefdfd;}</style></defs><g id="Layer_2" data-name="Layer 2"><g id="Layer_1-2" data-name="Layer 1"><g id="Artboard_1" data-name="Artboard 1"><path class="cls-1" d="M127.52,125.28c-.22-2.14,1.59-3.39,2.27-5.12,5-4.27,10.74-7.62,14.63-13.08a14.52,14.52,0,0,0,8.29-6,2.16,2.16,0,0,0,2.13-2A2.37,2.37,0,0,0,157,97.19c2.27,0,3.22-2,4.72-3.15A9.13,9.13,0,0,0,164,93.1Q181.34,79.6,198.63,66c5.14.73,8.35,5.59,13.6,6.21-3.91-4.78-10.11-6.26-14.59-10.16l1-4c4,.82,7,4,11,5,1.34,2.33,4,2.69,6,3.94q5.51,4,11,8l-3,3c-2.9-.84-4.77-4.11-8.92-3.71l13,10.68c-4.55-.34-8,1.13-11.41,4.57-4.48,4.54-9.51,9-15.15,11.82-6.81,3.4-11,9.82-17.4,13.29-5.68,3-8.83,9-14.69,11.93-2.79,1.4-6.81,3.57-4.34,8.36-6.07-.14-11.92-2.31-18-1.87l-3-.25c-2.92-2.88-6.6-1.63-10-1.85C130.37,130.4,128,128.89,127.52,125.28Z"/><path class="cls-2" d="M198.65,58.06c-.34,1.34-.68,2.68-1,4l-9.23-3.77c2.82,3.56,7.28,4.55,10.22,7.72Q181.32,79.58,164,93.1a9.13,9.13,0,0,1-2.24.94c-1.06-2-3.05-3.05-4.9-4.05-5.31-2.86-10.74-5.52-16.12-8.25l-4-2.74c2.73-6.38,9-9,13.93-13,12.91-10.38,15.59-9.27,22.74-23a7.26,7.26,0,0,1,2.21-1.95c11.28-8.67,22.59-17.29,33.83-26,1.64-1.27,3.16-2.36,5.33-2,5.5.74,10,3.9,14.86,6.2.25,3-2,4.3-4,5.82C216.31,32.2,206.77,39,197.8,46.58,190.75,52.5,191.07,52.89,198.65,58.06Z"/><path class="cls-3" d="M299.78,73.77A15.86,15.86,0,0,1,302,81.28c1.11,11,5.23,21.43,5.67,32.51l.64,1.22.3,5c-1.49-.09-2.35.95-3.41,1.76-4,3.11-7.44,7.1-12.08,9.35s-5.49,5.38-2.27,9.26c2.1,2.54,1.13,4.13-1,5.66-2.79,2-5.9,3.72-8.4,6.06-2.7,2.53-7.28,3.78-6.88,8.79L246.55,152c0-1.67,1.17-2.7,2.26-3.73,5.78-5.47,12.25-10.08,18.68-14.74,2.51-1.83,6.26-2.77,5.46-7.19-.16-.88.54-1,1.28-1,6.37-.12,2.37-3,1.38-5.16.58-4.56-1.62-6.44-6-6.2-1.48-1.19-1.12-4.19-4-4-.84-1.79-3-2.73-3.13-5a45,45,0,0,1,4.48-4.57q15.08-11.7,30.31-23.16A5.54,5.54,0,0,0,299.78,73.77Z"/><path class="cls-4" d="M299.78,73.77a5.54,5.54,0,0,1-2.48,3.49Q282,88.71,267,100.42a45,45,0,0,0-4.48,4.57l-8.92-7.94c-2.07-1.08-3.17-3.2-4.78-4.75-4.37-4.17-9.67-7.33-13.37-12.21C248,68.64,261.86,58.85,275.11,48.26c4.79-3.83,11-6.18,13.59-12.43C293.33,48.2,297.49,60.71,299.78,73.77Z"/><path class="cls-5" d="M3.69,100.77c2.17-10.64,8.14-18.91,16.11-26,4.84-4.27,10.47-7.35,16-10.66,3.17,1.27,5.75-1.8,8.84-1.19a7.11,7.11,0,0,0,6.09-1.62l2-.12c4.71,4,9.51,7.8,14.09,11.9,4,3.57,8.62,6.62,10.87,11.82-4.07,0-8.15,0-12.23.09-2,0-4.35-.58-5.69,1.78A21.17,21.17,0,0,0,49,90.15c-10.65,2.1-17.66,9-23.28,17.7-2.9,2.37-3.5,6-5,9.13-2.27.42-3.88-1.06-5.31-2.28-3.28-2.79-6.12-6.11-9.46-8.82A5.55,5.55,0,0,1,3.69,100.77Z"/><path class="cls-6" d="M49,90.15a21.17,21.17,0,0,1,10.8-3.34,141.42,141.42,0,0,1,24.86-.57c2.26,1.39,4.72.6,7.1.65,8.06,1.35,15.68,4.35,23.6,6.26,9.53,4.41,19.41,8.1,28.38,13.69a1.09,1.09,0,0,0,.73.24c-3.89,5.46-9.67,8.81-14.63,13.08-2.26-3-5.93-3.32-9.07-4.57-18.91-7.52-38.3-12.36-58.92-11.73-8.71.27-16.32,3.69-24.38,5.91.06-2.33,1.69-3.94,2.7-5.81C42.73,99.15,46.71,95.2,49,90.15Z"/><path class="cls-7" d="M288.7,35.83c-2.59,6.25-8.8,8.6-13.59,12.43C261.86,58.85,248,68.64,235.44,80.09c-3.66-.43-5.51-4-8.82-5q-5.49-4-11-8a26.94,26.94,0,0,1,3.27-3.69c9.95-7.85,20-15.6,30-23.41q15.92-12.45,31.79-25c3.55,5.77,4.45,12.55,7.09,18.66l.69,1.4A.79.79,0,0,1,288.7,35.83Z"/><path class="cls-8" d="M144.42,107.08a1.09,1.09,0,0,1-.73-.24c.45-2.84-1.12-4.7-3.09-6.38-5.17-4.41-10.4-8.73-15.47-13.25-8.21-7.31-16.31-14.74-24.45-22.12a11.56,11.56,0,0,0,8.64-2.71c7.43-6,14.74-12.17,22.6-17.68,3-2.08,4.31-6.34,8.17-7.84.31-.12.48-.87.51-1.34.19-3.27,2.78-4.9,4.89-6.57,7.89-6.24,16.28-11.89,23.82-18.5,2.87-2.52,8.21-2.91,8.35-8.24a1.68,1.68,0,0,1,2,0c.6.94,1.26.95,2,.15,5.59,2.32,12,1.44,17.38,4.6a9.85,9.85,0,0,0-7.2,2.53c-7.21,5.78-14.64,11.29-21.87,17-4.39,3.49-9.84,6.5-12.49,11.07-2.77,4.77-6.58,8.17-10.32,11.51-7,6.21-14.14,12.27-22.14,17.25-1.9,1.18-3.69,3-3.34,5.71-5,.36-2.06,2.36-.67,3.68,8.29,7.85,17.61,14.56,25.43,22.94a7.11,7.11,0,0,0,6.29,2.36A14.52,14.52,0,0,1,144.42,107.08Z"/><path class="cls-9" d="M121.66,72.08c-.35-2.75,1.44-4.53,3.34-5.71,8-5,15.18-11,22.14-17.25,3.74-3.34,7.55-6.74,10.32-11.51C160.11,33,165.56,30,170,26.54c7.23-5.75,14.66-11.26,21.87-17A9.85,9.85,0,0,1,199,7c5.08,2.42,11.09,2.48,15.71,6.11-2.17-.33-3.69.76-5.33,2-11.24,8.73-22.55,17.35-33.83,26a7.26,7.26,0,0,0-2.21,1.95c-7.15,13.7-9.83,12.59-22.74,23-5,4-11.2,6.57-13.93,13l-6-2C128.31,74.23,124.17,74.64,121.66,72.08Z"/><path class="cls-10" d="M44.59,63c-3.09-.61-5.67,2.46-8.84,1.19,4.89-5,11-8.22,16.68-12.16,19.07-13.3,38.1-26.65,57.43-39.57A67,67,0,0,1,142.67,1.18c.16,3.6-2.63,5.1-5,6.89-4.84,3.72-9.62,7.53-14.6,11.05C113,26.29,104.87,35.77,95,43.26c-5.11,3.9-10.58,7.46-15.17,11.91-3.77,3.65-7.8,4-12.49,4-3.88,0-7.92-1.15-11.66.88l-1,.16-2,1-2,.12A9,9,0,0,0,44.59,63Z"/><path class="cls-11" d="M177.66,2.21c-.14,5.33-5.48,5.72-8.35,8.24-7.54,6.61-15.93,12.26-23.82,18.5-2.11,1.67-4.7,3.3-4.89,6.57,0,.47-.2,1.22-.51,1.34-3.86,1.5-5.22,5.76-8.17,7.84-7.86,5.51-15.17,11.67-22.6,17.68a11.56,11.56,0,0,1-8.64,2.71c-4.6,1.11-8.46-2.63-13-2a6.29,6.29,0,0,1-4.1-1.94c7.31-3.8,13.21-9.56,19.82-14.33,10.34-7.46,18.54-17.4,28.87-24.91,4-2.91,7.74-6.22,11.63-9.26C150.23,7.68,155.73,1,164.63.31,169.21-.66,173.17,2.53,177.66,2.21Z"/><path class="cls-12" d="M198.65,58.06c-7.58-5.17-7.9-5.56-.85-11.48,9-7.54,18.51-14.38,27.84-21.48,2-1.52,4.2-2.82,4-5.82,2.63,1.31,5.6,2.22,7.81,4,3,2.52,5.2,2.19,8-.3,6.27-5.57,12.74-10.93,19.23-16.25,4.92-4,9.58-3.16,13.17,2.3-1.46,0-2.4.87-3.45,1.73-4.34,3.54-8.71,7.07-13.15,10.48-16,12.26-32,24.45-47.93,36.75-1.63,1.26-3.56,2.58-3.67,5.07C205.66,62.06,202.7,58.88,198.65,58.06Z"/><path class="cls-13" d="M274.63,160.88c-.4-5,4.18-6.25,6.88-8.78,2.5-2.34,5.61-4,8.4-6.06,2.1-1.53,3.07-3.12,1-5.66-3.22-3.88-2.44-7,2.27-9.26s8-6.24,12.08-9.35c1.06-.81,1.92-1.85,3.41-1.76,1.66,3.89,1.51,8.18,1.68,12.16.44,10,1.82,20.05,1.31,30.14-.3,5.78-3.36,9.21-9,9.62-2.37-2.93-6.49-1.8-9.2-3.94-2.68-1.83-5.85-2.31-8.88-3.14C281.63,162.6,278,162.17,274.63,160.88Z"/><path class="cls-6" d="M284.59,175.11c-7.86,8-16.2,1.9-23.94.23-22.42-4.85-44.94-8.78-67.72-11.47-18.53-2.18-37.07-4.05-55.7-5-5-.27-8.1-4.26-12.06-6.48-10.47-5.86-10.34-6.15-2.47-15.76.78-1,.94-2.62,2.64-2.72.72,3.53-.5,6.92-1,10.32-.64,4.52,1.39,6.77,5.35,7.35a101.53,101.53,0,0,0,10.91.47l0,0c2.31,1.07,4.74.62,7.14.51l4.91.23c5.59.58,11.16,1.44,16.81,1.22A105.63,105.63,0,0,0,187.62,156l17.09,2.46c3.9.72,7.78,1.86,11.72,2.07,5.95.31,11.49,2.65,17.39,3,.56.34,1.1.94,1.68,1,12.88,1.15,25.1,5.22,37.58,8.18,3.44.82,6.66,3.33,10.53,2Z"/><path class="cls-14" d="M164.63.31c-8.9.71-14.4,7.37-20.72,12.32-3.89,3-7.63,6.35-11.63,9.26C122,29.4,113.75,39.34,103.41,46.8,96.8,51.57,90.9,57.33,83.59,61.13L73.79,61c-5.93-2.14-12.06-.43-18.07-1,3.74-2,7.78-.88,11.66-.88,4.69,0,8.72-.33,12.49-4,4.59-4.45,10.06-8,15.17-11.91,9.83-7.49,17.95-17,28.07-24.14,5-3.52,9.76-7.33,14.6-11,2.33-1.79,5.12-3.29,5-6.89C149.93-.62,157.29.12,164.63.31Z"/><path class="cls-5" d="M209.61,63.1c.11-2.49,2-3.81,3.67-5.07,15.94-12.3,32-24.49,47.93-36.75,4.44-3.41,8.81-6.94,13.15-10.48,1.05-.86,2-1.76,3.45-1.73,1.88,1.52,2.16,3.81,2.84,5.91q-15.88,12.48-31.79,25c-10,7.81-20,15.56-30,23.41A26.94,26.94,0,0,0,215.63,67C213.58,65.79,211,65.43,209.61,63.1Z"/><path class="cls-9" d="M3.73,155C1.05,147.88.63,140.44.12,133c2.28-.38,3.81,1.25,5.24,2.42a67.52,67.52,0,0,0,8.7,6.48c2.9,1.69,2.55-.3,2.72-1.95L23,140Q20.37,151,17.74,162c-3.23-.51-5.67-2.53-7.93-4.58C8,155.72,6.22,154.61,3.73,155Z"/><path class="cls-12" d="M3.69,100.77a5.55,5.55,0,0,0,2.23,5.11c3.34,2.71,6.18,6,9.46,8.82,1.43,1.22,3,2.7,5.31,2.28l-1.14,6.9c-2.34,2.6-1,6.32-2.79,9.09-2.62-.27-4.22-2.19-6.22-3.6C7,126.91,4.74,122.68,0,122A55.16,55.16,0,0,1,3.69,100.77Z"/><path class="cls-10" d="M140.62,152a101.53,101.53,0,0,1-10.91-.47c-4-.58-6-2.83-5.35-7.35.48-3.4,1.7-6.79,1-10.32l2.19-8.61c.44,3.62,2.84,5.13,6.11,5.74,2.05,1.66,4.54,1.85,7,2.06.1,4.64.3,9.33-1.49,13.71C138.24,149.1,139.15,150.55,140.62,152Z"/><path class="cls-14" d="M49,90.15c-2.24,5-6.22,9-8.83,13.81-1,1.87-2.64,3.48-2.7,5.81a3.73,3.73,0,0,1-.88.19A13.39,13.39,0,0,0,30.25,111c-3.33,1.5-4.61.14-4.58-3.16C31.29,99.13,38.3,92.25,49,90.15Z"/><path class="cls-8" d="M3.73,155c2.49-.35,4.25.76,6.08,2.42,2.26,2.05,4.7,4.07,7.93,4.58l-.18,2c-1.39,1.55-.66,3.4-.75,5.13-.32,6.43-.64,12.86-1,20.35a61.46,61.46,0,0,1-5.34-12.4c1.74-.09,3.74,4.2,5.16-.1,1.09-3.3-3.32-6.68-7.09-5.64a43.16,43.16,0,0,1-3.82-12.26A2.13,2.13,0,0,0,4,157Z"/><path class="cls-2" d="M0,122c4.73.68,7,4.91,10.53,7.37,2,1.41,3.6,3.33,6.22,3.6q0,3.5,0,7c-.17,1.65.18,3.64-2.72,1.95a67.52,67.52,0,0,1-8.7-6.48c-1.43-1.17-3-2.8-5.24-2.42Z"/><path class="cls-11" d="M25.67,107.85c0,3.3,1.25,4.66,4.58,3.16A13.39,13.39,0,0,1,36.54,110c-3.11,3.91-4.65,8.67-7,13a9.49,9.49,0,0,0-5.13,1.18c-1.64.89-3.32,1.47-4.85-.25l1.14-6.9C22.17,113.84,22.77,110.22,25.67,107.85Z"/><path class="cls-8" d="M19.55,123.88c1.53,1.72,3.21,1.14,4.85.25A9.49,9.49,0,0,1,29.53,123Q26.28,131.48,23,140L16.78,140q0-3.5,0-7C18.52,130.2,17.21,126.48,19.55,123.88Z"/><path class="cls-12" d="M284.59,175.11l-1-.36c.32-3.3.65-6.6,1-9.9,3,.83,6.2,1.31,8.88,3.14-3,.7-1.47,3.16-1.86,4.87l-1,.12c-1.11-.06-1.9.31-2.08,1.52Z"/><path class="cls-2" d="M291.6,172.86c.39-1.71-1.19-4.17,1.86-4.87,2.71,2.14,6.83,1,9.2,3.94C299,173,295.44,174.38,291.6,172.86Z"/><path class="cls-11" d="M8.53,171.31c3.77-1,8.18,2.34,7.09,5.64-1.42,4.3-3.42,0-5.16.1A14.22,14.22,0,0,1,8.53,171.31Z"/><path class="cls-9" d="M16.81,169.1c.09-1.73-.64-3.58.75-5.13C17.69,165.74,17.9,167.52,16.81,169.1Z"/><path class="cls-5" d="M288.56,174.5c.18-1.21,1-1.58,2.08-1.52C290.08,173.67,289.88,174.85,288.56,174.5Z"/><path class="cls-9" d="M4,157a2.13,2.13,0,0,1,.73,2.06A1.93,1.93,0,0,1,4,157Z"/><path class="cls-11" d="M181.64,2.37c-.73.8-1.39.79-2-.15Z"/><path class="cls-13" d="M308.34,115l-.64-1.22Z"/><path class="cls-4" d="M288.43,35l-.69-1.4Z"/><path class="cls-15" d="M164.66,135c-2.47-4.79,1.55-7,4.34-8.36,5.86-2.94,9-8.88,14.69-11.93,6.45-3.47,10.59-9.89,17.4-13.29,5.64-2.82,10.67-7.28,15.15-11.82,3.4-3.44,6.86-4.91,11.41-4.57,7.52,3.14,12.52,9.57,18.71,14.43,2.52,2,1.06,3.88-1.12,5.57-10.31,8-20.71,15.83-30.7,24.18-4.45,3.72-10.27,6.07-12.9,11.8-4.6,1.07-8.6-1.9-13-1.94a80.33,80.33,0,0,1-14-2C171.56,135.16,167.76,136.72,164.66,135Z"/><path class="cls-5" d="M201.64,141c2.63-5.73,8.45-8.08,12.9-11.8,10-8.35,20.39-16.22,30.7-24.18,2.18-1.69,3.64-3.6,1.12-5.57-6.19-4.86-11.19-11.29-18.71-14.43l-13-10.68c4.15-.4,6,2.87,8.92,3.71,8.63,6.85,17.39,13.54,25.55,21,1,.88,2.17,1.94,3.48,1.51,1.65-.54.74-2.26,1-3.47l8.92,7.94c.1,2.26,2.29,3.2,3.13,5-2.33,4.43-4.69-.17-7,0-.11-.73-.1-1.58-1.2-1.52a.47.47,0,0,0-.31.32c-.08,1.1.78,1.08,1.51,1.21-.14,1.73,1.43,2.61,2,4-8.44,6.62-17,13.06-25.26,19.93-4.48,3.74-10.56,5.89-12.75,12.07l-15-3C205.33,143.22,203.57,141.84,201.64,141ZM253,105.28l.82.36c.12-.28.39-.61.32-.81s-.51-.26-.78-.38Z"/><path class="cls-8" d="M164.66,135c3.1,1.74,6.9.18,10,2.1.43,4.44-1.75,8.72-1.41,12.92.3,3.78-.94,4.16-3.78,4-5.65.22-11.22-.64-16.81-1.22-.29-3.34.7-6.48,1.47-9.65,1.8-7.38,1.17-8.19-6.39-8.19l-.05,0-1-.95c0-.29,0-.58-.07-.88C152.74,132.67,158.59,134.84,164.66,135Z"/><path class="cls-15" d="M253.59,97.05c-.21,1.21.7,2.93-1,3.47-1.31.43-2.51-.63-3.48-1.51-8.16-7.43-16.92-14.12-25.55-21l3-3c3.31,1,5.16,4.62,8.82,5,3.7,4.88,9,8,13.37,12.21C250.42,93.85,251.52,96,253.59,97.05Z"/><path class="cls-11" d="M121.66,72.08c2.51,2.56,6.65,2.15,9,4.94-2.32.47-1.82,1.16-.37,2.41,5,4.32,9.72,9.06,15,13.06,3.05,2.32,4.79,6.72,9.53,6.62a2.16,2.16,0,0,1-2.13,2,7.11,7.11,0,0,1-6.29-2.36C138.6,90.32,129.28,83.61,121,75.76,119.6,74.44,116.7,72.44,121.66,72.08Z"/><path class="cls-14" d="M146.61,133.11c0,.3,0,.59.07.88l1,.95.05,0c-.12,2.3-.64,4.67-.64,6.85,0,3.3-3.49,7,.58,10l-7.07.21,0,0c-1.47-1.47-2.38-2.92-1.44-5.24,1.79-4.38,1.59-9.07,1.49-13.72l3-.2Z"/><path class="cls-10" d="M140.72,81.74c5.38,2.73,10.81,5.39,16.12,8.25,1.85,1,3.84,2,4.9,4.05-1.5,1.16-2.45,3.14-4.72,3.15-7.2-2.35-11.26-8.47-16.2-13.52C140.48,83.32,140.74,82.39,140.72,81.74Z"/><path class="cls-14" d="M140.72,81.74c0,.65-.24,1.58.1,1.93,4.94,5,9,11.17,16.2,13.52a2.37,2.37,0,0,1-2.18,1.92c-4.74.1-6.48-4.3-9.53-6.62-5.26-4-10-8.74-15-13.06-1.45-1.25-2-1.94.37-2.41l6,2Z"/><path class="cls-12" d="M198.63,66c-2.94-3.17-7.4-4.16-10.22-7.72l9.23,3.77c4.48,3.9,10.68,5.38,14.59,10.16C207,71.61,203.77,66.75,198.63,66Z"/><path class="cls-2" d="M143.65,132.86l-3,.2c-2.49-.2-5-.39-7-2.05C137.05,131.23,140.73,130,143.65,132.86Z"/><path class="cls-5" d="M284.58,164.85c-.32,3.3-.65,6.6-1,9.9-3.87,1.29-7.09-1.22-10.53-2-12.48-3-24.7-7-37.58-8.18-.58-.06-1.12-.66-1.68-1,2.78-4.07,2.8-8.91,3.77-13.48l9,1.95,28.08,8.89C278,162.17,281.63,162.6,284.58,164.85Z"/><path class="cls-4" d="M246.55,152l-9-1.95-4-1.08a4.6,4.6,0,0,1,1.92-4.33c9.16-7.09,18.25-14.27,27.47-21.27,4.3-3.27,4.44-3.71.31-7.2-.88-.75-1.8-1.45-2.71-2.17-.57-1.38-2.14-2.26-2-4h0c2.35-.19,4.71,4.41,7,0,2.85-.17,2.49,2.83,4,4,0,4,2.17,5.9,6,6.2,1,2.11,5,5-1.38,5.16-.74,0-1.44.1-1.28,1,.8,4.42-2.95,5.36-5.46,7.19-6.43,4.66-12.9,9.27-18.68,14.74C247.72,149.3,246.59,150.33,246.55,152Z"/><path class="cls-16" d="M275.61,120.2c-3.83-.3-6-2.21-6-6.2C274,113.76,276.19,115.64,275.61,120.2Z"/><path class="cls-12" d="M52.71,61.22l2-1c3.9,1.77,8,.39,12,.88.29.76.35,1.83.89,2.22C74.88,68.54,80,76.23,87.65,81a8.35,8.35,0,0,1,4.06,5.92c-2.38,0-4.84.74-7.1-.65-2-2.28-4.66-.68-6.94-1.3-2.25-5.2-6.88-8.25-10.87-11.82C62.22,69,57.42,65.17,52.71,61.22Z"/><path class="cls-7" d="M77.67,84.94c2.28.62,5-1,6.94,1.3a141.42,141.42,0,0,0-24.86.57c1.34-2.36,3.65-1.74,5.69-1.78C69.52,85,73.6,85,77.67,84.94Z"/><path class="cls-12" d="M44.59,63a9,9,0,0,1,6.09-1.62A7.11,7.11,0,0,1,44.59,63Z"/><path class="cls-2" d="M91.71,86.89A8.35,8.35,0,0,0,87.65,81c-7.67-4.74-12.77-12.43-20-17.68-.54-.39-.6-1.46-.89-2.22L73.79,61l9.8.14a6.29,6.29,0,0,0,4.1,1.94c1.4,4.41,5.24,6.78,8.41,9.55,6.25,5.45,12.78,10.59,18.37,16.76.88,1,3.46,1.89.84,3.77C107.39,91.24,99.77,88.24,91.71,86.89Z"/><path class="cls-9" d="M115.31,93.15c2.62-1.88,0-2.8-.84-3.77-5.59-6.17-12.12-11.31-18.37-16.76-3.17-2.77-7-5.14-8.41-9.55,4.53-.61,8.39,3.13,13,2,8.14,7.38,16.24,14.81,24.45,22.12,5.07,4.52,10.3,8.84,15.47,13.25,2,1.68,3.54,3.54,3.09,6.38C134.72,101.25,124.84,97.56,115.31,93.15Z"/><path class="cls-9" d="M73.79,61l-7.06.08c-4-.49-8.13.89-12-.88l1-.16C61.73,60.56,67.86,58.85,73.79,61Z"/><path class="cls-12" d="M233.61,149l4,1.08c-1,4.57-1,9.41-3.77,13.48-5.9-.38-11.44-2.72-17.39-3-3.94-.21-7.82-1.35-11.72-2.07A30.51,30.51,0,0,0,207.63,143l15,3C226,148,230.12,147.29,233.61,149Z"/><path class="cls-2" d="M207.63,143a30.51,30.51,0,0,1-2.92,15.45L187.62,156h3.89c-3.1-.93-2.79-2.72-2.4-5.31.57-3.81,2.54-7.89-.5-11.61,4.43,0,8.43,3,13,1.94C203.57,141.84,205.33,143.22,207.63,143Z"/><path class="cls-9" d="M188.61,139.05c3,3.72,1.07,7.8.5,11.61-.39,2.59-.7,4.38,2.4,5.31h-3.89A105.63,105.63,0,0,1,169.44,154c2.84.13,4.08-.25,3.78-4-.34-4.2,1.84-8.48,1.41-12.92A80.33,80.33,0,0,0,188.61,139.05Z"/><path class="cls-11" d="M147.65,151.86c-4.07-3.05-.57-6.74-.58-10,0-2.18.52-4.55.64-6.85,7.56,0,8.19.81,6.39,8.19-.77,3.17-1.76,6.31-1.47,9.65l-4.91-.23A5.85,5.85,0,0,0,147.65,151.86Z"/><path class="cls-8" d="M147.65,151.86a5.85,5.85,0,0,1,.07.72c-2.4.11-4.83.56-7.14-.51Z"/><path class="cls-7" d="M233.61,149c-3.49-1.68-7.61-1-11-3,2.19-6.18,8.27-8.33,12.75-12.07,8.23-6.87,16.82-13.31,25.26-19.93.91.72,1.83,1.42,2.71,2.17,4.13,3.49,4,3.93-.31,7.2-9.22,7-18.31,14.18-27.47,21.27A4.6,4.6,0,0,0,233.61,149Z"/><path class="cls-4" d="M258.6,110c-.73-.13-1.59-.11-1.51-1.21a.47.47,0,0,1,.31-.32c1.1-.06,1.09.79,1.2,1.52Z"/><path class="cls-4" d="M253,105.27l.36-.82c.27.12.7.18.78.38s-.2.53-.32.81Z"/><path class="cls-11" d="M147.66,134.94l-1-.95Z"/></g></g></g></svg>