<svg xmlns="http://www.w3.org/2000/svg" viewBox="0 0 228 167.03"><defs><style>.cls-1{fill:#d52d24;}.cls-2{fill:#b53225;}.cls-3{fill:#f1866e;}.cls-4{fill:#ef674b;}.cls-5{fill:#e34e30;}.cls-6{fill:#e45d42;}.cls-7{fill:#852f22;}.cls-8{fill:#9a3223;}.cls-9{fill:#4c2018;}.cls-10{fill:#62271c;}.cls-11{fill:#cc4730;}.cls-12{fill:#f5a28f;}.cls-13{fill:#57241a;}.cls-14{fill:#e32b25;}.cls-15{fill:#fefdfd;}</style></defs><g id="Layer_2" data-name="Layer 2"><g id="Layer_1-2" data-name="Layer 1"><g id="Artboard_1" data-name="Artboard 1"><path class="cls-1" d="M94.52,98.42c.26-1.77,1.8-2.46,2.63-3.75,4.38-2.59,9.16-4.29,13-8a10.81,10.81,0,0,0,7.1-3.43,1.68,1.68,0,0,0,1.9-1.21,1.82,1.82,0,0,0,1.94-1.17c1.62.39,2.69-1,4-1.73a6.26,6.26,0,0,0,1.78-.36q15-7.9,30.07-15.88c3.51,1.49,4.83,6,8.45,7.4-1.83-4.55-6-6.83-8.38-10.77l1.52-3.07c2.72,1.37,4.2,4.46,6.81,6,.49,2.12,2.3,2.87,3.51,4.24l6.24,8.4L172.36,77c-1.9-1.19-2.59-4.16-5.63-4.57l7.12,10.92c-3.18-1.07-5.93-.49-9,1.7-4.09,2.9-8.56,5.63-13.13,6.93-5.53,1.56-9.76,6-15,7.72-4.66,1.48-8.08,5.74-12.84,7.1-2.27.65-5.56,1.7-4.75,6-4.3-1.18-8-4-12.49-4.67l-2.06-.72c-1.51-2.84-4.38-2.47-6.76-3.25C95.53,103.07,94.12,101.42,94.52,98.42Z"/><path class="cls-2" d="M158.54,56.42c-.51,1-1,2-1.52,3.07l-5.82-4.67c1.3,3.37,4.28,5,5.75,8q-15,8-30.07,15.88a6.26,6.26,0,0,1-1.78.36A8.13,8.13,0,0,0,122.41,75c-3.21-3.25-6.55-6.35-9.84-9.5l-2.33-2.92c3.21-4.69,8.16-5.7,12.49-8.06,11.27-6.14,13-4.78,20.76-14.62a5.7,5.7,0,0,1,2-1.2c9.76-5.05,19.53-10,29.27-15.16,1.42-.74,2.72-1.36,4.2-.71,3.77,1.56,6.35,4.91,9.36,7.62-.42,2.47-2.25,3.13-4,4-8.06,4.12-16.22,8-24.1,12.53C154,50.54,154.17,50.9,158.54,56.42Z"/><path class="cls-3" d="M227.48,86.8a14.61,14.61,0,0,1,.1,6.48c-1.39,9.09-.53,18.27-2.42,27.32.08.37.15.74.22,1.1l-.78,4.1c-1-.33-1.86.36-2.77.83-3.5,1.81-6.72,4.45-10.47,5.46s-5,3.4-3.46,7.11c1,2.42,0,3.54-1.81,4.41-2.39,1.17-4.94,2-7.19,3.44-2.43,1.57-5.94,1.79-6.65,5.91L174,140.86a4.57,4.57,0,0,1,2.34-2.62,136.44,136.44,0,0,1,16.24-8.68c2.15-1,5-1.15,5.32-4.87.06-.74.57-.68,1.1-.57,4.57,1,2.29-2.05,2-3.93,1.32-3.59.13-5.5-3-6.08-.82-1.22,0-3.59-2-4-.25-1.59-1.62-2.74-1.25-4.58a37.58,37.58,0,0,1,4.11-2.92Q211.87,95.82,225,89.2A4.64,4.64,0,0,0,227.48,86.8Z"/><path class="cls-4" d="M227.48,86.8A4.64,4.64,0,0,1,225,89.2q-13.14,6.6-26.19,13.46a36.54,36.54,0,0,0-4.1,2.92q-2.4-4-4.78-8c-1.26-1.23-1.62-3.15-2.47-4.68-2.28-4.15-5.43-7.63-7.1-12.22,11.22-7.09,23-12.59,34.59-18.85,4.17-2.26,9.07-3.08,12.15-7.69C228,65,228.43,75.83,227.48,86.8Z"/><path class="cls-5" d="M11.16,56.94C14.82,48.7,20.71,43,27.79,38.73c4.3-2.61,8.92-4.12,13.48-5.84,2,1.58,4.46-.45,6.53.58a4.82,4.82,0,0,0,4.66-.25l1.48.25c2.56,4,5.22,8,7.67,12.1,2.14,3.6,4.83,6.87,5.4,11.47-2.91-.69-5.81-1.41-8.73-2-1.47-.33-3-1.24-4.41.44a14.27,14.27,0,0,0-8.36.82c-8-.16-14.37,4.18-20.1,10.26C22.87,67.92,21.73,70.75,20,73c-1.69-.06-2.55-1.54-3.32-2.78-1.79-2.83-3.15-6-5-8.79A5,5,0,0,1,11.16,56.94Z"/><path class="cls-6" d="M227.11,54.15c-3.08,4.61-8,5.43-12.15,7.69-11.54,6.26-23.37,11.76-34.59,18.85-2.51-1-3.12-4.22-5.27-5.64l-6.24-8.4a22.17,22.17,0,0,1,3.06-2.41c8.65-4.62,17.33-9.14,26-13.72q13.82-7.31,27.61-14.66c1.39,5.29.68,10.93,1.34,16.34.08.42.15.84.22,1.26A.73.73,0,0,1,227.11,54.15Z"/><path class="cls-7" d="M110.17,86.64a.74.74,0,0,1-.47-.32c.88-2.23.13-4-.94-5.71-2.8-4.47-5.68-8.89-8.39-13.43C96,59.83,91.68,52.39,87.34,45a7.83,7.83,0,0,0,6.7-.68C100.52,40.73,107,37,113.65,33.93,116.17,32.77,118,29.56,121,29c.24-.05.52-.63.63-1,.78-2.62,3-3.48,4.79-4.47,6.86-3.67,14-6.78,20.64-10.82,2.54-1.53,6.43-.92,7.58-5.21a1.15,1.15,0,0,1,1.43.35c.23.87.7,1,1.38.48C161,11.2,165.76,11.61,169,15.1a6.7,6.7,0,0,0-5.63.8c-6.29,3.42-12.67,6.58-19,10-3.82,2.05-8.3,3.54-11.1,6.77-2.91,3.39-6.31,5.47-9.64,7.52a122.58,122.58,0,0,1-19.19,10.1,5,5,0,0,0-3.52,4c-3.6-.57-1.94,1.56-1.2,2.87,4.34,7.81,9.65,14.87,13.56,23a4.89,4.89,0,0,0,4,3A10.81,10.81,0,0,1,110.17,86.64Z"/><path class="cls-8" d="M100.9,54.31a5,5,0,0,1,3.52-4,122.58,122.58,0,0,0,19.19-10.1c3.33-2.05,6.73-4.13,9.64-7.52,2.8-3.23,7.28-4.72,11.1-6.77,6.3-3.4,12.68-6.56,19-10a6.7,6.7,0,0,1,5.63-.8c3.14,2.85,7.41,4,10,7.7-1.48-.65-2.78,0-4.2.71-9.74,5.11-19.51,10.11-29.27,15.16a5.7,5.7,0,0,0-2,1.2c-7.81,9.84-9.49,8.48-20.76,14.62-4.33,2.36-9.28,3.37-12.49,8.06l-3.88-2.65C105.21,57.22,102.18,56.83,100.9,54.31Z"/><path class="cls-9" d="M47.8,33.47c-2.07-1-4.53,1-6.53-.58,4.47-3.18,9.5-4.73,14.3-6.94C71.8,18.51,88,11,104.34,3.94A45.39,45.39,0,0,1,130,.58c-.6,2.94-2.88,3.67-4.9,4.71-4.19,2.17-8.35,4.41-12.6,6.39-8.63,4-16.29,10.3-24.79,14.65-4.42,2.26-9,4.19-13.17,7-3.41,2.3-6.35,1.86-9.69,1C62,33.68,59.39,32.05,56.32,33l-.76,0-1.62.48-1.48-.25A6,6,0,0,0,47.8,33.47Z"/><path class="cls-10" d="M154.67,7.52c-1.15,4.29-5,3.68-7.58,5.21-6.68,4-13.78,7.15-20.64,10.82-1.84,1-4,1.85-4.79,4.47-.11.37-.39.95-.63,1-3,.54-4.86,3.75-7.38,4.91C107,37,100.52,40.73,94,44.31a7.81,7.81,0,0,1-6.69.68c-3.51.09-5.51-3.61-8.86-3.9A4.43,4.43,0,0,1,76,38.8c6-1.8,11.3-5.43,17-8.14,8.85-4.24,16.67-10.85,25.52-15.13,3.42-1.66,6.75-3.69,10.12-5.47,5.49-2.9,10.73-7.33,17.21-6.36C149.23,3.71,151.42,7,154.67,7.52Z"/><path class="cls-11" d="M158.54,56.42c-4.37-5.52-4.52-5.88,1.68-9.45,7.88-4.54,16-8.41,24.1-12.53,1.72-.89,3.55-1.55,4-4,1.61,1.52,3.54,2.77,4.76,4.63,1.67,2.57,3.27,2.69,5.76,1.16,5.58-3.42,11.25-6.62,16.93-9.8,4.31-2.42,7.46-.88,8.93,4.16-1-.28-1.88.29-2.8.8-3.8,2.11-7.61,4.2-11.46,6.19C196.6,44.7,182.77,51.77,169,58.94c-1.41.74-3.05,1.47-3.62,3.47C162.74,60.88,161.26,57.79,158.54,56.42Z"/><path class="cls-12" d="M192.25,153c.71-4.12,4.22-4.34,6.65-5.91,2.25-1.46,4.8-2.27,7.19-3.44,1.8-.87,2.8-2,1.81-4.41-1.52-3.71-.35-6.07,3.46-7.11s7-3.65,10.47-5.46c.91-.47,1.73-1.16,2.77-.83.41,3.44-.55,6.89-1.22,10.14-1.68,8.21-2.68,16.56-5,24.64-1.36,4.63-4.22,6.87-8.3,6.22-1.11-2.78-4.27-2.59-5.77-4.8-1.55-1.95-3.71-2.89-5.7-4.09C196.9,155.57,194.37,154.58,192.25,153Z"/><path class="cls-13" d="M145.77,3.7c-6.48-1-11.72,3.46-17.21,6.36-3.37,1.78-6.7,3.81-10.12,5.47-8.85,4.28-16.67,10.89-25.52,15.13-5.66,2.71-11,6.34-17,8.14L69,37C65.2,34.2,60.49,34.52,56.32,33c3.07-1,5.72.64,8.48,1.32,3.34.82,6.28,1.26,9.69-1,4.15-2.8,8.75-4.73,13.17-7,8.5-4.35,16.16-10.61,24.79-14.65,4.25-2,8.41-4.22,12.6-6.39,2-1,4.3-1.77,4.9-4.71C135.48.39,140.58,2.27,145.77,3.7Z"/><path class="cls-5" d="M165.35,62.41c.57-2,2.21-2.73,3.62-3.47,13.8-7.17,27.63-14.24,41.44-21.38,3.85-2,7.66-4.08,11.46-6.19.92-.51,1.77-1.08,2.8-.8,1,1.56.78,3.47.85,5.29q-13.8,7.32-27.61,14.66c-8.66,4.58-17.34,9.1-26,13.72a22.17,22.17,0,0,0-3.06,2.41C167.65,65.28,165.84,64.53,165.35,62.41Z"/><path class="cls-8" d="M.42,100.83c-.5-6.2.68-12.3,1.79-18.41,1.7.1,2.47,1.68,3.25,2.88a51,51,0,0,0,4.91,6.76c1.74,1.89,1.88.21,2.33-1.1l4.42,1.16L9,109c-2.2-1-3.53-3-4.74-5.1C3.3,102.19,2.27,101,.42,100.83Z"/><path class="cls-11" d="M11.16,56.94a5,5,0,0,0,.57,4.53c1.84,2.77,3.2,6,5,8.79C17.49,71.5,18.35,73,20,73c-.72,1.8-1.45,3.59-2.17,5.39-2.19,1.69-2,4.93-3.8,6.87-1.81-.68-2.57-2.52-3.71-4-2-2.61-2.8-6.43-6-7.81A51.64,51.64,0,0,1,11.16,56.94Z"/><path class="cls-9" d="M98.54,122.37a64.67,64.67,0,0,1-7.68-2.29c-2.71-1.16-3.71-3.34-2.36-6.88,1-2.67,2.56-5.2,2.75-8.19l3.27-6.59c-.4,3,1,4.65,3.22,5.71,1.13,1.71,2.87,2.29,4.59,2.89-.84,3.78-1.63,7.61-3.78,10.86C97.42,119.59,97.78,120.92,98.54,122.37Z"/><path class="cls-13" d="M45.51,56.25c-2.6,3.69-6.22,6.2-9,9.64-1.09,1.34-2.57,2.36-3.08,4.23a2.43,2.43,0,0,1-.66,0,8.82,8.82,0,0,0-4.7-.25c-2.67.64-3.31-.69-2.63-3.36C31.14,60.43,37.51,56.09,45.51,56.25Z"/><path class="cls-7" d="M.42,100.83c1.85.15,2.88,1.36,3.85,3C5.48,105.91,6.81,108,9,109l-.53,1.6c-1.29,1-1.14,2.63-1.55,4l-4.76,16.3a55.24,55.24,0,0,1-1.34-11c1.26.22,1.83,4,3.69.82,1.44-2.49-1-6-3.93-5.81a39.89,39.89,0,0,1-.28-10.59,2,2,0,0,0-.11-1.81Z"/><path class="cls-2" d="M4.31,73.49c3.25,1.38,4,5.2,6.05,7.81,1.14,1.48,1.9,3.32,3.71,4-.46,1.89-.92,3.77-1.37,5.66-.45,1.31-.59,3-2.33,1.1A51,51,0,0,1,5.46,85.3c-.78-1.2-1.55-2.78-3.25-2.88Z"/><path class="cls-10" d="M25.41,66.51c-.68,2.67,0,4,2.63,3.36a8.82,8.82,0,0,1,4.7.25c-3,2.62-5,6.2-7.58,9.29a6.31,6.31,0,0,0-3.89.07c-1.35.43-2.65.6-3.4-1,.72-1.8,1.45-3.59,2.17-5.39C21.73,70.75,22.87,67.92,25.41,66.51Z"/><path class="cls-7" d="M17.87,78.43c.75,1.65,2.05,1.48,3.4,1a6.31,6.31,0,0,1,3.89-.07l-8,12.71L12.7,91c.45-1.89.91-3.77,1.37-5.66C15.88,83.36,15.68,80.12,17.87,78.43Z"/><path class="cls-11" d="M196.52,166.22l-.62-.46q1.32-3.93,2.66-7.85c2,1.2,4.15,2.14,5.7,4.09-2.31,0-1.68,2.3-2.29,3.62l-.71-.07a1.28,1.28,0,0,0-1.78.87Z"/><path class="cls-2" d="M202,165.62c.61-1.32,0-3.58,2.29-3.62,1.5,2.21,4.66,2,5.77,4.8C207.24,167,204.4,167.53,202,165.62Z"/><path class="cls-10" d="M.59,114.91c2.89-.18,5.37,3.32,3.93,5.81-1.86,3.23-2.43-.6-3.69-.82A13.06,13.06,0,0,1,.59,114.91Z"/><path class="cls-8" d="M6.93,114.57c.41-1.39.26-3,1.55-4C8.23,112,8,113.47,6.93,114.57Z"/><path class="cls-5" d="M199.48,166.42a1.28,1.28,0,0,1,1.78-.87C200.72,166,200.35,166.93,199.48,166.42Z"/><path class="cls-8" d="M.2,102.51a2,2,0,0,1,.11,1.81A1.75,1.75,0,0,1,.2,102.51Z"/><path class="cls-10" d="M157.48,8.35c-.68.52-1.15.39-1.38-.48Z"/><path class="cls-12" d="M225.38,121.7c-.07-.36-.14-.73-.22-1.1C225.24,121,225.31,121.33,225.38,121.7Z"/><path class="cls-4" d="M227.08,53.46c-.07-.42-.14-.84-.22-1.26C226.94,52.62,227,53,227.08,53.46Z"/><path class="cls-14" d="M119.05,112.77c-.81-4.31,2.48-5.36,4.75-6,4.76-1.36,8.18-5.62,12.84-7.1,5.28-1.68,9.51-6.16,15-7.72,4.57-1.3,9-4,13.13-6.93,3.11-2.19,5.86-2.77,9-1.7,4.74,3.85,7,9.93,10.46,15,1.41,2,0,3.33-1.9,4.31-8.93,4.65-17.9,9.21-26.68,14.22-3.9,2.24-8.52,3.13-11.53,7.31-3.49.06-5.75-3-8.9-3.85a52.5,52.5,0,0,1-9.57-4C123.93,114.12,120.91,114.72,119.05,112.77Z"/><path class="cls-5" d="M144.2,124.1c3-4.18,7.63-5.07,11.53-7.31,8.78-5,17.75-9.57,26.68-14.22,1.89-1,3.31-2.27,1.9-4.31-3.44-5-5.72-11.1-10.46-15l-7.12-10.92c3,.41,3.73,3.38,5.63,4.57,4.78,7.05,9.7,14,14,21.44.52.89,1.17,1.95,2.18,1.83,1.29-.15,1-1.7,1.37-2.64q2.38,4,4.78,8c-.38,1.84,1,3,1.24,4.58-2.54,3.18-3.31-1-5-1.21.06-.61.24-1.29-.56-1.44a.38.38,0,0,0-.28.2c-.27.89.34,1,.84,1.25-.45,1.38.5,2.36.63,3.58-7.33,3.89-14.73,7.61-22,11.73-3.93,2.24-8.69,2.92-11.48,7.54l-10.06-5.06C146.39,126.55,145.41,125.12,144.2,124.1Zm43.69-19.95.51.43c.14-.2.4-.42.38-.59s-.3-.3-.47-.45Z"/><path class="cls-7" d="M119.05,112.77c1.86,2,4.88,1.35,6.68,3.44-.57,3.67-3,6.76-3.57,10.22-.53,3.11-1.49,3.2-3.49,2.6-4.07-.81-7.87-2.48-11.74-3.93.46-2.75,1.79-5.12,3-7.55,2.75-5.66,2.46-6.43-2.92-7.75l0,0-.51-.93.12-.73C111,108.81,114.75,111.59,119.05,112.77Z"/><path class="cls-14" d="M189.94,97.59c-.39.94-.08,2.49-1.37,2.64-1,.12-1.66-.94-2.18-1.83C182.06,91,177.14,84,172.36,77l2.74-1.91c2.15,1.42,2.76,4.65,5.27,5.64,1.67,4.59,4.82,8.07,7.1,12.22C188.32,94.44,188.68,96.36,189.94,97.59Z"/><path class="cls-10" d="M100.9,54.31c1.28,2.52,4.31,2.91,5.46,5.59-1.74,0-1.53.62-.74,1.88,2.72,4.38,5.12,9,8.08,13.2,1.71,2.41,2.08,6.28,5.48,7a1.7,1.7,0,0,1-1.91,1.2,4.89,4.89,0,0,1-4-3C109.35,72.05,104,65,99.7,57.18,99,55.87,97.3,53.74,100.9,54.31Z"/><path class="cls-13" d="M106.56,108.1l-.12.73.51.93,0,0c-.54,1.84-1.38,3.67-1.81,5.43-.65,2.68-3.88,5.06-1.58,8.24L98.5,122.4l0,0c-.76-1.45-1.12-2.78,0-4.49,2.15-3.25,2.94-7.08,3.78-10.86l2.17.36Z"/><path class="cls-9" d="M112.57,65.47c3.29,3.15,6.63,6.25,9.84,9.5a8.13,8.13,0,0,1,2.69,4.13c-1.3.68-2.37,2.12-4,1.73-4.66-3.16-6.34-8.83-8.86-13.78C112.08,66.71,112.45,66,112.57,65.47Z"/><path class="cls-13" d="M112.57,65.47c-.12.53-.49,1.24-.32,1.58,2.52,5,4.2,10.62,8.86,13.78A1.82,1.82,0,0,1,119.17,82c-3.39-.74-3.76-4.61-5.47-7-3-4.16-5.36-8.82-8.08-13.2-.79-1.26-1-1.9.74-1.88l3.88,2.65Z"/><path class="cls-11" d="M157,62.86c-1.47-3.08-4.45-4.67-5.75-8L157,59.49c2.42,3.94,6.55,6.22,8.38,10.77C161.78,68.84,160.46,64.35,157,62.86Z"/><path class="cls-2" d="M104.5,107.38l-2.17-.36c-1.72-.6-3.46-1.18-4.59-2.89C100.12,104.91,103,104.54,104.5,107.38Z"/><path class="cls-5" d="M198.56,157.91q-1.34,3.92-2.66,7.85c-3,.37-4.81-2.23-7.1-3.49-8.3-4.58-16.2-10-25.15-13.2-.4-.14-.67-.72-1-1.1,2.79-2.8,3.77-6.72,5.37-10.26l6,3.15L192.25,153C194.37,154.58,196.9,155.57,198.56,157.91Z"/><path class="cls-4" d="M174,140.86l-6-3.15-2.63-1.56a4.09,4.09,0,0,1,2.23-3.18c7.94-4.14,15.84-8.37,23.8-12.42,3.71-1.9,3.9-2.23,1.65-5.78-.48-.76-1-1.49-1.5-2.23-.13-1.22-1.08-2.2-.63-3.58h0c1.71.26,2.48,4.39,5,1.21,2.07.36,1.21,2.73,2,4-.79,3.24.37,5.16,3,6.08.28,1.88,2.56,4.94-2,3.93-.53-.11-1-.17-1.1.57-.31,3.72-3.17,3.83-5.32,4.87a136.44,136.44,0,0,0-16.24,8.68A4.57,4.57,0,0,0,174,140.86Z"/><path class="cls-15" d="M201,120.19c-2.67-.92-3.83-2.84-3-6.08C201.16,114.69,202.35,116.6,201,120.19Z"/><path class="cls-11" d="M53.94,33.47,55.56,33C58,35.1,61.2,34.71,64,35.81c.06.66-.11,1.53.2,1.95,4.13,5.52,6.23,12.63,10.76,17.82a7,7,0,0,1,1.71,5.5c-1.68-.46-3.59-.25-4.92-1.77C70.75,57.12,68.51,58,67,57c-.57-4.6-3.26-7.87-5.4-11.47C59.16,41.46,56.5,37.5,53.94,33.47Z"/><path class="cls-6" d="M67,57c1.5.91,3.74.08,4.69,2.27a91.19,91.19,0,0,0-17.83-3.88c1.43-1.68,2.94-.77,4.41-.44C61.2,55.63,64.1,56.35,67,57Z"/><path class="cls-11" d="M47.8,33.47a6,6,0,0,1,4.66-.25A4.82,4.82,0,0,1,47.8,33.47Z"/><path class="cls-2" d="M76.62,61.08a7,7,0,0,0-1.71-5.5c-4.53-5.19-6.63-12.3-10.76-17.82-.31-.42-.14-1.29-.2-1.95L69,37l7,1.83a4.43,4.43,0,0,0,2.53,2.29c.12,3.81,2.38,6.4,4.1,9.2,3.37,5.51,7,10.81,9.75,16.78.44.94,2.09,2.13-.14,3.2C86.93,67.34,82.1,63.58,76.62,61.08Z"/><path class="cls-8" d="M92.2,70.27c2.23-1.07.58-2.26.14-3.2-2.75-6-6.38-11.27-9.75-16.78-1.72-2.8-4-5.39-4.1-9.2,3.35.29,5.35,4,8.86,3.9,4.33,7.4,8.62,14.84,13,22.19,2.71,4.54,5.59,9,8.39,13.43,1.07,1.7,1.82,3.48.94,5.71C104.42,80.23,98.11,75.5,92.2,70.27Z"/><path class="cls-8" d="M69,37l-5-1.16c-2.75-1.1-6-.71-8.39-2.82l.76,0C60.49,34.52,65.2,34.2,69,37Z"/><path class="cls-11" d="M165.39,136.15l2.63,1.56c-1.6,3.54-2.58,7.46-5.37,10.26-4.12-1.34-7.61-4.2-11.79-5.5-2.76-.85-5.3-2.45-7.94-3.71a28.44,28.44,0,0,0,5.15-12l10.07,5.06C160.17,134,163.24,134.18,165.39,136.15Z"/><path class="cls-2" d="M148.07,126.75a28.44,28.44,0,0,1-5.15,12l-11.68-5,2.77.68c-2-1.3-1.45-2.69-.66-4.72,1.17-3,3.38-5.94,2-9.49,3.15.81,5.41,3.91,8.9,3.85C145.41,125.12,146.39,126.55,148.07,126.75Z"/><path class="cls-8" d="M135.3,120.25c1.43,3.55-.78,6.5-2,9.49-.79,2-1.36,3.42.66,4.72l-2.77-.68A69.38,69.38,0,0,1,118.67,129c2,.6,3,.51,3.49-2.6.6-3.46,3-6.55,3.57-10.22A52.5,52.5,0,0,0,135.3,120.25Z"/><path class="cls-10" d="M103.58,123.47c-2.3-3.18.93-5.56,1.58-8.24.43-1.76,1.27-3.59,1.81-5.43,5.39,1.32,5.68,2.09,2.93,7.75-1.18,2.43-2.51,4.8-3,7.55l-3.45-1A3.83,3.83,0,0,0,103.58,123.47Z"/><path class="cls-7" d="M103.58,123.47a3.83,3.83,0,0,1-.1.59c-1.73-.33-3.55-.39-5-1.66Z"/><path class="cls-6" d="M165.39,136.15c-2.15-2-5.22-2.15-7.25-4.34,2.78-4.62,7.54-5.3,11.47-7.54,7.23-4.12,14.63-7.84,22-11.73.5.74,1,1.47,1.5,2.23,2.25,3.55,2.06,3.88-1.65,5.78-8,4-15.86,8.28-23.8,12.42A4.09,4.09,0,0,0,165.39,136.15Z"/><path class="cls-4" d="M190.94,109c-.5-.24-1.11-.36-.84-1.25a.38.38,0,0,1,.28-.2c.8.15.62.83.56,1.44Z"/><path class="cls-4" d="M187.89,104.15l.42-.61c.17.15.46.27.47.45s-.24.39-.38.59Z"/><path class="cls-10" d="M107,109.76l-.51-.93Z"/></g></g></g></svg>