<svg xmlns="http://www.w3.org/2000/svg" viewBox="0 0 467.46 189.45"><defs><style>.cls-1{fill:#d52d24;}.cls-2{fill:#b53225;}.cls-3{fill:#f1866e;}.cls-4{fill:#ef674b;}.cls-5{fill:#e34e30;}.cls-6{fill:#e45d42;}.cls-7{fill:#852f22;}.cls-8{fill:#9a3223;}.cls-9{fill:#4c2018;}.cls-10{fill:#62271c;}.cls-11{fill:#cc4730;}.cls-12{fill:#f5a28f;}.cls-13{fill:#57241a;}.cls-14{fill:#e32b25;}.cls-15{fill:#fefdfd;}</style></defs><g id="Layer_2" data-name="Layer 2"><g id="Layer_1-2" data-name="Layer 1"><g id="Artboard_1" data-name="Artboard 1"><path class="cls-1" d="M191.22,125.28c-.33-2.14,2.38-3.39,3.41-5.12,7.43-4.27,16.1-7.62,21.93-13.08a23.41,23.41,0,0,0,12.43-6c1.81-.11,2.88-.76,3.19-2a3.39,3.39,0,0,0,3.27-1.92c3.41,0,4.83-2,7.08-3.15a17.57,17.57,0,0,0,3.35-.94q26-13.5,52-27.08c7.7.73,12.51,5.59,20.39,6.21-5.86-4.78-15.16-6.26-21.88-10.16.5-1.33,1-2.67,1.51-4,6.07.82,10.52,4,16.44,5,2,2.33,6,2.69,9,3.94l16.48,8-4.52,3c-4.34-.84-7.15-4.11-13.38-3.71L341.37,85a26.28,26.28,0,0,0-17.12,4.57c-6.71,4.54-14.26,9-22.71,11.82-10.21,3.4-16.43,9.82-26.1,13.29-8.52,3-13.24,9-22,11.93-4.19,1.4-10.22,3.57-6.51,8.36-9.1-.14-17.88-2.31-27.07-1.87l-4.43-.25c-4.38-2.88-9.9-1.63-15-1.85C195.5,130.4,191.89,128.89,191.22,125.28Z"/><path class="cls-2" d="M297.87,58.06c-.5,1.34-1,2.68-1.51,4L282.52,58.3c4.22,3.56,10.92,4.55,15.33,7.72q-26,13.56-52,27.08a17.57,17.57,0,0,1-3.35.94C240.93,92,238,91,235.18,90c-8-2.86-16.1-5.52-24.17-8.25L205,79c4.09-6.38,13.44-9,20.88-13,19.37-10.38,23.38-9.27,34.1-23,.64-.81,2.14-1.35,3.31-1.95,16.92-8.67,33.89-17.29,50.73-26,2.46-1.27,4.75-2.36,8-2,8.26.74,15,3.9,22.29,6.2.37,3-2.93,4.3-5.92,5.82-14,7.1-28.3,13.94-41.74,21.48C286,52.5,286.52,52.89,297.87,58.06Z"/><path class="cls-3" d="M449.52,73.77a12.32,12.32,0,0,1,3.37,7.51c1.66,11,7.84,21.43,8.5,32.51l1,1.22c.15,1.67.3,3.34.44,5-2.23-.09-3.52.95-5.1,1.76-6.06,3.11-11.17,7.1-18.11,9.35s-8.25,5.38-3.42,9.26c3.15,2.54,1.7,4.13-1.44,5.66-4.19,2-8.86,3.72-12.61,6.06-4.05,2.53-10.91,3.78-10.31,8.79L369.71,152c.06-1.67,1.75-2.7,3.38-3.73,8.67-5.47,18.37-10.08,28-14.74,3.78-1.83,9.4-2.77,8.2-7.19-.24-.88.81-1,1.92-1,9.55-.12,3.55-3,2.07-5.16.86-4.56-2.43-6.44-9-6.2-2.21-1.19-1.67-4.19-5.95-4-1.27-1.79-4.55-2.73-4.7-5a61.92,61.92,0,0,1,6.72-4.57Q423,88.72,445.8,77.26C447.76,76.28,449.09,75.31,449.52,73.77Z"/><path class="cls-4" d="M449.52,73.77c-.43,1.54-1.76,2.51-3.72,3.49q-22.87,11.44-45.45,23.16a61.92,61.92,0,0,0-6.72,4.57l-13.37-7.94c-3.11-1.08-4.75-3.2-7.18-4.75-6.54-4.17-14.49-7.33-20-12.21,18.81-11.45,39.62-21.24,59.49-31.83,7.18-3.83,16.49-6.18,20.38-12.43C439.85,48.2,446.09,60.71,449.52,73.77Z"/><path class="cls-5" d="M5.53,100.77c3.26-10.64,12.21-18.91,24.17-26C37,70.54,45.39,67.46,53.61,64.15c4.75,1.27,8.63-1.8,13.25-1.19A14.67,14.67,0,0,0,76,61.34L79,61.22c7,4,14.26,7.8,21.12,11.9,6,3.57,12.93,6.62,16.31,11.82-6.11,0-12.22,0-18.34.09-3.06,0-6.52-.58-8.53,1.78a43.68,43.68,0,0,0-16.19,3.34c-16,2.1-26.5,9-34.92,17.7-4.35,2.37-5.25,6-7.47,9.13-3.4.42-5.82-1.06-8-2.28-4.92-2.79-9.17-6.11-14.18-8.82C6.15,104.41,5.39,102.84,5.53,100.77Z"/><path class="cls-6" d="M432.91,35.83c-3.89,6.25-13.2,8.6-20.38,12.43C392.66,58.85,371.85,68.64,353,80.09c-5.48-.43-8.26-4-13.22-5l-16.48-8a34.89,34.89,0,0,1,4.9-3.69c14.92-7.85,30-15.6,44.93-23.41Q397,27.49,420.84,15c5.33,5.77,6.66,12.55,10.63,18.66l1,1.4A.68.68,0,0,1,432.91,35.83Z"/><path class="cls-7" d="M216.56,107.08a2.22,2.22,0,0,1-1.1-.24c.67-2.84-1.67-4.7-4.63-6.38-7.75-4.41-15.6-8.73-23.2-13.25C175.32,79.9,163.18,72.47,151,65.09a23.56,23.56,0,0,0,12.95-2.71c11.14-6,22.11-12.17,33.89-17.68,4.44-2.08,6.46-6.34,12.26-7.84.46-.12.72-.87.76-1.34.28-3.27,4.17-4.9,7.33-6.57,11.83-6.24,24.41-11.89,35.72-18.5,4.3-2.52,12.31-2.91,12.51-8.24a3.61,3.61,0,0,1,3,0,2,2,0,0,0,3,.15c8.38,2.32,18,1.44,26.06,4.6A19.73,19.73,0,0,0,287.64,9.5c-10.81,5.78-22,11.29-32.81,17C248.26,30,240.08,33,236.11,37.61c-4.14,4.77-9.87,8.17-15.48,11.51-10.43,6.21-21.2,12.27-33.19,17.25-2.86,1.18-5.53,3-5,5.71-7.43.36-3.09,2.36-1,3.68,12.43,7.85,26.4,14.56,38.13,22.94a13.89,13.89,0,0,0,9.43,2.36A23.41,23.41,0,0,1,216.56,107.08Z"/><path class="cls-8" d="M182.42,72.08c-.51-2.75,2.16-4.53,5-5.71,12-5,22.76-11,33.19-17.25,5.61-3.34,11.34-6.74,15.48-11.51,4-4.57,12.15-7.58,18.72-11.07,10.85-5.75,22-11.26,32.81-17A19.73,19.73,0,0,1,298.43,7c7.62,2.42,16.63,2.48,23.55,6.11-3.24-.33-5.53.76-8,2-16.84,8.73-33.81,17.35-50.73,26-1.17.6-2.67,1.14-3.31,1.95-10.72,13.7-14.73,12.59-34.1,23-7.44,4-16.79,6.57-20.88,13l-9-2C192.39,74.23,186.19,74.64,182.42,72.08Z"/><path class="cls-9" d="M66.86,63c-4.62-.61-8.5,2.46-13.25,1.19,7.33-5,16.56-8.22,25-12.16,28.59-13.3,57.14-26.65,86.12-39.57a136.27,136.27,0,0,1,49.2-11.24c.24,3.6-3.95,5.1-7.44,6.89-7.26,3.72-14.43,7.53-21.9,11.05-15.17,7.17-27.34,16.65-42.08,24.14-7.68,3.9-15.87,7.46-22.76,11.91-5.64,3.65-11.7,4-18.73,4-5.81,0-11.87-1.15-17.48.88L82,60.19l-3,1L76,61.34A18.88,18.88,0,0,0,66.86,63Z"/><path class="cls-10" d="M266.39,2.21c-.2,5.33-8.21,5.72-12.51,8.24C242.57,17.06,230,22.71,218.16,29c-3.16,1.67-7,3.3-7.33,6.57,0,.47-.3,1.22-.76,1.34-5.8,1.5-7.82,5.76-12.26,7.84C186,50.21,175.06,56.37,163.92,62.38A23.56,23.56,0,0,1,151,65.09c-6.9,1.11-12.68-2.63-19.47-2a11.86,11.86,0,0,1-6.15-1.94c11-3.8,19.8-9.56,29.71-14.33,15.5-7.46,27.81-17.4,43.29-24.91,6-2.91,11.61-6.22,17.45-9.26C225.28,7.68,233.52,1,246.86.31,253.73-.66,259.67,2.53,266.39,2.21Z"/><path class="cls-11" d="M297.87,58.06c-11.35-5.17-11.84-5.56-1.26-11.48C310.05,39,324.36,32.2,338.35,25.1c3-1.52,6.29-2.82,5.92-5.82,4,1.31,8.4,2.22,11.71,4,4.57,2.52,7.8,2.19,12-.3,9.41-5.57,19.11-10.93,28.83-16.25,7.38-4,14.38-3.16,19.75,2.3-2.18,0-3.59.87-5.16,1.73-6.52,3.54-13.06,7.07-19.73,10.48-23.94,12.26-48,24.45-71.86,36.75-2.45,1.26-5.34,2.58-5.51,5.07C308.39,62.06,303.94,58.88,297.87,58.06Z"/><path class="cls-12" d="M411.81,160.88c-.6-5,6.26-6.25,10.31-8.78,3.75-2.34,8.42-4,12.61-6.06,3.14-1.53,4.59-3.12,1.44-5.66-4.83-3.88-3.65-7,3.42-9.26s12.05-6.24,18.11-9.35c1.58-.81,2.87-1.85,5.1-1.76,2.49,3.89,2.26,8.18,2.52,12.16.66,10,2.74,20.05,2,30.14-.44,5.78-5,9.21-13.44,9.62-3.57-2.93-9.74-1.8-13.81-3.94-4-1.83-8.76-2.31-13.31-3.14C422.31,162.6,416.8,162.17,411.81,160.88Z"/><path class="cls-13" d="M246.86.31C233.52,1,225.28,7.68,215.8,12.63c-5.84,3-11.45,6.35-17.45,9.26-15.48,7.51-27.79,17.45-43.29,24.91-9.91,4.77-18.75,10.53-29.71,14.33L110.65,61c-8.89-2.14-18.08-.43-27.1-1,5.61-2,11.67-.88,17.48-.88,7,0,13.09-.33,18.73-4,6.89-4.45,15.08-8,22.76-11.91,14.74-7.49,26.91-17,42.08-24.14,7.47-3.52,14.64-7.33,21.9-11,3.49-1.79,7.68-3.29,7.44-6.89C224.82-.62,235.86.12,246.86.31Z"/><path class="cls-5" d="M314.31,63.1c.17-2.49,3.06-3.81,5.51-5.07,23.89-12.3,47.92-24.49,71.86-36.75,6.67-3.41,13.21-6.94,19.73-10.48,1.57-.86,3-1.76,5.16-1.73,2.83,1.52,3.25,3.81,4.27,5.91q-23.83,12.48-47.67,25c-15,7.81-30,15.56-44.93,23.41a34.89,34.89,0,0,0-4.9,3.69C320.27,65.79,316.33,65.43,314.31,63.1Z"/><path class="cls-8" d="M5.59,155c-4-7.08-4.65-14.52-5.4-22,3.42-.38,5.7,1.25,7.84,2.42a110.12,110.12,0,0,0,13.05,6.48c4.36,1.69,3.82-.3,4.07-1.95l9.35.08Q30.56,151,26.6,162c-4.84-.51-8.5-2.53-11.9-4.58A13.85,13.85,0,0,0,5.59,155Z"/><path class="cls-11" d="M5.53,100.77c-.14,2.07.62,3.64,3.35,5.11,5,2.71,9.26,6,14.18,8.82,2.14,1.22,4.56,2.7,8,2.28q-.86,3.45-1.7,6.9c-3.51,2.6-1.55,6.32-4.19,9.09-3.93-.27-6.33-2.19-9.32-3.6-5.26-2.46-8.7-6.69-15.8-7.37A39.33,39.33,0,0,1,5.53,100.77Z"/><path class="cls-9" d="M210.86,152c-5.46-.13-11,0-16.35-.47-5.95-.58-9-2.83-8-7.35.72-3.4,2.55-6.79,1.47-10.32,1.09-2.87,2.19-5.74,3.27-8.61.67,3.62,4.28,5.13,9.17,5.74,3.08,1.66,6.82,1.85,10.54,2.06.16,4.64.45,9.33-2.23,13.71C207.29,149.1,208.65,150.55,210.86,152Z"/><path class="cls-13" d="M73.41,90.15c-3.37,5-9.34,9-13.25,13.81-1.52,1.87-3.95,3.48-4,5.81a8.23,8.23,0,0,1-1.32.19A29.28,29.28,0,0,0,45.35,111c-5,1.5-6.91.14-6.86-3.16C46.91,99.13,57.44,92.25,73.41,90.15Z"/><path class="cls-7" d="M5.59,155a13.85,13.85,0,0,1,9.11,2.42c3.4,2.05,7.06,4.07,11.9,4.58l-.27,2c-2.09,1.55-1,3.4-1.12,5.13-.48,6.43-1,12.86-1.51,20.35a53.41,53.41,0,0,1-8-12.4c2.61-.09,5.61,4.2,7.74-.1,1.63-3.3-5-6.68-10.63-5.64a33.62,33.62,0,0,1-5.72-12.26A1.82,1.82,0,0,0,6,157Z"/><path class="cls-2" d="M0,122c7.1.68,10.54,4.91,15.8,7.37,3,1.41,5.39,3.33,9.32,3.6l0,7c-.26,1.65.28,3.64-4.08,1.95a110.12,110.12,0,0,1-13-6.48c-2.14-1.17-4.42-2.8-7.84-2.42Z"/><path class="cls-10" d="M38.49,107.85c-.05,3.3,1.88,4.66,6.86,3.16A29.28,29.28,0,0,1,54.79,110c-4.66,3.91-7,8.67-10.51,13a20.26,20.26,0,0,0-7.7,1.18c-2.45.89-5,1.47-7.26-.25q.84-3.45,1.7-6.9C33.24,113.84,34.14,110.22,38.49,107.85Z"/><path class="cls-7" d="M29.32,123.88c2.29,1.72,4.81,1.14,7.26.25a20.26,20.26,0,0,1,7.7-1.18L34.5,140,25.15,140q0-3.5,0-7C27.77,130.2,25.81,126.48,29.32,123.88Z"/><path class="cls-11" d="M426.74,175.11l-1.47-.36c.49-3.3,1-6.6,1.46-9.9,4.55.83,9.29,1.31,13.31,3.14-4.57.7-2.2,3.16-2.78,4.87l-1.44.12c-1.66-.06-2.85.31-3.12,1.52Z"/><path class="cls-2" d="M437.26,172.86c.58-1.71-1.79-4.17,2.78-4.87,4.07,2.14,10.24,1,13.81,3.94C448.41,173,443,174.38,437.26,172.86Z"/><path class="cls-10" d="M12.79,171.31c5.65-1,12.26,2.34,10.63,5.64-2.13,4.3-5.13,0-7.74.1A11.5,11.5,0,0,1,12.79,171.31Z"/><path class="cls-8" d="M25.21,169.1c.13-1.73-1-3.58,1.12-5.13C26.53,165.74,26.84,167.52,25.21,169.1Z"/><path class="cls-5" d="M432.7,174.5c.27-1.21,1.46-1.58,3.12-1.52C435,173.67,434.67,174.85,432.7,174.5Z"/><path class="cls-8" d="M6,157a1.82,1.82,0,0,1,1.1,2.06C6.06,158.52,5.7,157.83,6,157Z"/><path class="cls-10" d="M272.37,2.37a2,2,0,0,1-3-.15Z"/><path class="cls-12" d="M462.36,115l-1-1.22Z"/><path class="cls-4" d="M432.5,35l-1-1.4Z"/><path class="cls-14" d="M246.91,135c-3.71-4.79,2.32-7,6.51-8.36,8.78-2.94,13.5-8.88,22-11.93,9.67-3.47,15.89-9.89,26.1-13.29,8.45-2.82,16-7.28,22.71-11.82A26.28,26.28,0,0,1,341.37,85c11.27,3.14,18.76,9.57,28.05,14.43,3.77,2,1.59,3.88-1.68,5.57-15.46,8-31.06,15.83-46,24.18-6.67,3.72-15.39,6.07-19.34,11.8-6.9,1.07-12.89-1.9-19.54-1.94a177.82,177.82,0,0,1-21-2C257.26,135.16,251.56,136.72,246.91,135Z"/><path class="cls-5" d="M302.36,141c3.95-5.73,12.67-8.08,19.34-11.8,15-8.35,30.58-16.22,46-24.18,3.27-1.69,5.45-3.6,1.68-5.57-9.29-4.86-16.78-11.29-28.05-14.43L321.92,74.33c6.23-.4,9,2.87,13.38,3.71,12.95,6.85,26.08,13.54,38.31,21,1.46.88,3.26,1.94,5.22,1.51,2.48-.54,1.12-2.26,1.43-3.47L393.63,105c.15,2.26,3.43,3.2,4.7,5-3.5,4.43-7-.17-10.56,0-.17-.73-.15-1.58-1.8-1.52-.17,0-.45.2-.47.32-.11,1.1,1.18,1.08,2.27,1.21-.21,1.73,2.15,2.61,3,4-12.66,6.62-25.54,13.06-37.89,19.93-6.71,3.74-15.83,5.89-19.11,12.07l-22.44-3C307.9,143.22,305.26,141.84,302.36,141Zm77-35.71,1.24.36c.17-.28.58-.61.47-.81s-.76-.26-1.17-.38Z"/><path class="cls-7" d="M246.91,135c4.65,1.74,10.35.18,14.94,2.1.66,4.44-2.62,8.72-2.11,12.92.46,3.78-1.41,4.16-5.67,4-8.47.22-16.82-.64-25.21-1.22-.42-3.34,1.06-6.48,2.22-9.65,2.69-7.38,1.75-8.19-9.58-8.19l-.08,0L220,134c0-.29-.06-.58-.11-.88C229,132.67,237.81,134.84,246.91,135Z"/><path class="cls-14" d="M380.26,97.05c-.31,1.21,1.05,2.93-1.43,3.47-2,.43-3.76-.63-5.22-1.51-12.23-7.43-25.36-14.12-38.31-21l4.52-3c5,1,7.74,4.62,13.22,5,5.55,4.88,13.5,8,20,12.21C375.51,93.85,377.15,96,380.26,97.05Z"/><path class="cls-10" d="M182.42,72.08c3.77,2.56,10,2.15,13.56,4.94-3.48.47-2.73,1.16-.55,2.41C203,83.75,210,88.49,217.89,92.49c4.58,2.32,7.19,6.72,14.29,6.62-.31,1.19-1.38,1.84-3.19,2a13.89,13.89,0,0,1-9.43-2.36c-11.73-8.38-25.7-15.09-38.13-22.94C179.33,74.44,175,72.44,182.42,72.08Z"/><path class="cls-13" d="M219.84,133.11c0,.3.08.59.11.88l1.47.95.08,0c-.19,2.3-1,4.67-1,6.85,0,3.3-5.24,7,.86,10l-10.6.21.06,0c-2.21-1.47-3.57-2.92-2.16-5.24,2.68-4.38,2.39-9.07,2.23-13.72l4.48-.2Z"/><path class="cls-9" d="M211,81.74c8.07,2.73,16.21,5.39,24.17,8.25,2.77,1,5.75,2,7.35,4.05-2.25,1.16-3.67,3.14-7.08,3.15-10.79-2.35-16.89-8.47-24.29-13.52C210.65,83.32,211,82.39,211,81.74Z"/><path class="cls-13" d="M211,81.74c0,.65-.36,1.58.15,1.93,7.4,5,13.5,11.17,24.29,13.52a3.39,3.39,0,0,1-3.27,1.92c-7.1.1-9.71-4.3-14.29-6.62-7.89-4-14.93-8.74-22.46-13.06-2.18-1.25-2.93-1.94.55-2.41l9,2Z"/><path class="cls-11" d="M297.85,66c-4.41-3.17-11.11-4.16-15.33-7.72l13.84,3.77c6.72,3.9,16,5.38,21.88,10.16C310.36,71.61,305.55,66.75,297.85,66Z"/><path class="cls-2" d="M215.41,132.86l-4.48.2c-3.72-.2-7.46-.39-10.54-2.05C205.51,131.23,211,130,215.41,132.86Z"/><path class="cls-5" d="M426.73,164.85c-.49,3.3-1,6.6-1.46,9.9-5.8,1.29-10.63-1.22-15.79-2-18.71-3-37-7-56.34-8.18a9,9,0,0,1-2.52-1c4.17-4.07,4.19-8.91,5.65-13.48L369.71,152l42.1,8.89C416.8,162.17,422.31,162.6,426.73,164.85Z"/><path class="cls-4" d="M369.71,152l-13.44-1.95-6-1.08c-.26-1.8.72-3.22,2.88-4.33,13.73-7.09,27.36-14.27,41.18-21.27,6.46-3.27,6.67-3.71.48-7.2-1.32-.75-2.71-1.45-4.06-2.17-.86-1.38-3.22-2.26-3-4h0c3.52-.19,7.06,4.41,10.56,0,4.28-.17,3.74,2.83,5.95,4,0,4,3.26,5.9,9,6.2,1.48,2.11,7.48,5-2.07,5.16-1.11,0-2.16.1-1.92,1,1.2,4.42-4.42,5.36-8.2,7.19-9.63,4.66-19.33,9.27-28,14.74C371.46,149.3,369.77,150.33,369.71,152Z"/><path class="cls-15" d="M413.28,120.2c-5.74-.3-9-2.21-9-6.2C410.85,113.76,414.14,115.64,413.28,120.2Z"/><path class="cls-11" d="M79,61.22l3-1c5.85,1.77,12,.39,18,.88.43.76.52,1.83,1.34,2.22,10.88,5.25,18.53,12.94,30,17.68,3.42,1.41,5.39,3.34,6.07,5.92-3.56,0-7.25.74-10.63-.65-2.95-2.28-7-.68-10.41-1.3-3.38-5.2-10.32-8.25-16.31-11.82C93.3,69,86.09,65.17,79,61.22Z"/><path class="cls-6" d="M116.47,84.94c3.42.62,7.46-1,10.41,1.3a317.52,317.52,0,0,0-37.28.57c2-2.36,5.47-1.74,8.53-1.78C104.25,85,110.36,85,116.47,84.94Z"/><path class="cls-11" d="M66.86,63A18.88,18.88,0,0,1,76,61.34,14.67,14.67,0,0,1,66.86,63Z"/><path class="cls-2" d="M137.51,86.89c-.68-2.58-2.65-4.51-6.07-5.92-11.51-4.74-19.16-12.43-30-17.68-.82-.39-.91-1.46-1.34-2.22L110.65,61l14.7.14a11.86,11.86,0,0,0,6.15,1.94c2.09,4.41,7.84,6.78,12.6,9.55,9.38,5.45,19.17,10.59,27.55,16.76,1.31,1,5.18,1.89,1.26,3.77C161,91.24,149.61,88.24,137.51,86.89Z"/><path class="cls-8" d="M172.91,93.15c3.92-1.88.05-2.8-1.26-3.77-8.38-6.17-18.17-11.31-27.55-16.76-4.76-2.77-10.51-5.14-12.6-9.55,6.79-.61,12.57,3.13,19.47,2,12.21,7.38,24.35,14.81,36.66,22.12,7.6,4.52,15.45,8.84,23.2,13.25,3,1.68,5.3,3.54,4.63,6.38C202,101.25,187.2,97.56,172.91,93.15Z"/><path class="cls-8" d="M110.65,61l-10.59.08c-6-.49-12.19.89-18-.88L83.55,60C92.57,60.56,101.76,58.85,110.65,61Z"/><path class="cls-11" d="M350.3,149l6,1.08c-1.46,4.57-1.48,9.41-5.65,13.48-8.85-.38-17.16-2.72-26.09-3-5.89-.21-11.72-1.35-17.57-2.07A22,22,0,0,0,311.34,143l22.44,3C338.89,148,345.07,147.29,350.3,149Z"/><path class="cls-2" d="M311.34,143A22,22,0,0,1,307,158.43L281.33,156h5.83c-4.63-.93-4.17-2.72-3.59-5.31.86-3.81,3.81-7.89-.75-11.61,6.65,0,12.64,3,19.54,1.94C305.26,141.84,307.9,143.22,311.34,143Z"/><path class="cls-8" d="M282.82,139.05c4.56,3.72,1.61,7.8.75,11.61-.58,2.59-1,4.38,3.59,5.31h-5.83A235.35,235.35,0,0,1,254.07,154c4.26.13,6.13-.25,5.67-4-.51-4.2,2.77-8.48,2.11-12.92A177.82,177.82,0,0,0,282.82,139.05Z"/><path class="cls-10" d="M221.4,151.86c-6.1-3.05-.85-6.74-.86-10,0-2.18.77-4.55,1-6.85,11.33,0,12.27.81,9.58,8.19-1.16,3.17-2.64,6.31-2.22,9.65l-7.36-.23A3.57,3.57,0,0,0,221.4,151.86Z"/><path class="cls-7" d="M221.4,151.86a3.57,3.57,0,0,1,.1.72c-3.6.11-7.23.56-10.7-.51Z"/><path class="cls-6" d="M350.3,149c-5.23-1.68-11.41-1-16.52-3,3.28-6.18,12.4-8.33,19.11-12.07,12.35-6.87,25.23-13.31,37.89-19.93,1.35.72,2.74,1.42,4.06,2.17,6.19,3.49,6,3.93-.48,7.2-13.82,7-27.45,14.18-41.18,21.27C351,145.75,350,147.17,350.3,149Z"/><path class="cls-4" d="M387.77,110c-1.09-.13-2.38-.11-2.27-1.21,0-.12.3-.31.47-.32,1.65-.06,1.63.79,1.8,1.52Z"/><path class="cls-4" d="M379.37,105.27l.54-.82c.41.12,1,.18,1.17.38s-.3.53-.47.81Z"/><path class="cls-10" d="M221.42,134.94,220,134Z"/></g></g></g></svg>