<svg xmlns="http://www.w3.org/2000/svg" viewBox="0 0 407.58 422.39"><defs><style>.cls-1{fill:#e57c34;}.cls-2{fill:#d16429;}.cls-3{fill:#825138;}.cls-4{fill:#995a35;}.cls-5{fill:#905434;}</style></defs><g id="Layer_2" data-name="Layer 2"><g id="Layer_1-2" data-name="Layer 1"><path class="cls-1" d="M231.39,1.86c2.32,1.57,2.18,4,2,6.29a11.53,11.53,0,0,0,3.23,9.1,14.84,14.84,0,0,1,3.92,7.37c.17.91.77,2.33,1.41,2.48,5.58,1.3,4.39,5.84,4.8,9.61a27.28,27.28,0,0,1,0,3c0,4-.85,8.33.88,11.84,2,4,7,2.69,10.67,3.7,4.54,1.26,5.46,2.83,4.12,7.46-2.06,7.13-2.93,14.59-4.48,21.88-.73,3.4,1.88,2.06,3,2.11a227.09,227.09,0,0,0,32.88-1.22c9.39-1,18.74-2.25,28.6-3.46-1.68,2.82-4.31,4.08-6.21,6-2.4,2.48-5.25,4.53-4.94,8.72.18,2.49-2.31,3.48-4.15,4.53-2.88,1.65-4.95,3.43-4.94,7.3,0,3.66-2.73,6.3-5.3,8.72s-4.91,4.48-7.4,6.69c-1.57,1.4-2.83,2.7-1.44,5.09s-.7,3.51-2.25,4.76c-11,8.93-22.24,17.49-31.51,28.3-7.33,8.55-13.2,17.84-15.52,29.08,14.85,1.89,28.13-1,40.06-10.15a130.87,130.87,0,0,1,30.6-17.55c2.78-1.12,3.76-.91,4.08,2.31.35,3.42,1.42,6.77,2.25,10.48,9.37-7.2,20.61-10.75,30.43-16.92,3.7-2.33,6.52-1.93,8.15,2.39,1.47,3.89,3.84,4.08,7.39,2.57,5.55-2.36,11.14-5.65,17.48-2a3.47,3.47,0,0,0,2.36-.21c9.46-3.14,13.27-3.36,26-1.27-5.47,8.84-9.27,18.57-18.27,24.55-2.93,1.95-4.83,4.54-5,8.15-.31,5.48-3.45,9-7.75,12-3.95,2.74-7.67,5.84-11.5,8.77-2.1,1.61-3,3.34-1.18,5.83,3,4.09,1.37,7-2.45,9.44-8.1,5.23-16,10.77-24.21,15.8-3.12,1.91-2.87,3.21-.82,5.59,3.38,3.91,6.65,7.9,10.82,11,5.73,4.28,9.52,10.14,13.24,16.08,1.14,1.83,1.44,3.25-1.23,3.33-14,.4-27.47,4.24-41.24,6.13A29.21,29.21,0,0,1,301,284.67c-1.88-.89-3.42-1.43-5.38.27-1.75,1.52-4.28,1.56-6.65,1.65-5.86.22-11.62-.71-17.36-1.53-7-1-9.08,1.11-7.84,8.25,1.89,10.88,6,21,10.45,31,5.19,11.59,10.62,23.08,16.39,35.58-8.92-3.89-17.08-7.32-25.11-11-3-1.37-5.61-1.71-8.37.27-2.49,1.78-4.8,1.51-7.2-.48-4.6-3.83-9.42-7.39-14-11.2-5.18-4.27-6.74-4.52-10.51.69-3.11,4.31-5.08,4.23-8.81.58-7.26-7.09-14.87-13.83-20.76-22.17-1.59-2.25-2.64-1.92-4,0-.48.67-1.08,1.26-1.62,1.9-5.38,6.33-5.38,6.33-10.58-.4q-14-18.15-28-36.3c-.27-2.15,1.28-3.72,1.79-5.61.68-2.53,2.37-3,4.61-2.22,10.66,3.66,21.38,7.17,31.71,11.74a7.9,7.9,0,0,1,4.21,4.55,67.54,67.54,0,0,0,11,17.65c-.91-5.81-5-10.4-5.61-16.25l.06-.06c9.91,8.37,23.06,13.62,27,27.83,0,.16.51.21.76.3,1.22-2.84-1.41-5.62-.28-9,4.12,2.7,7.74,5.3,11.58,7.52,7.26,4.2,13.71,9.82,21.87,12.44l1.05.94.95.76.3-.52-1.25-.24-1-1c-8-7.46-17.25-13.44-26-19.93-6.61-4.89-6.69-4.77.3-8.65a9,9,0,0,0,1.31-1.21c-3.06-.31-5.44,1.08-8,1.48-2.76.44-5.63,1.29-8.15-.73-7-5.62-13.93-11.3-20.9-16.94-1.71-1.39-1.85-2.62.18-3.85,2.29-1.4,4.54-2.87,6.82-4.31-3.33.28-6.11,1.62-8.92,2.87-2.09.94-4.17,2.45-6.56,1.79-9.27-2.56-17.8-7-27.3-10.59a16.24,16.24,0,0,1,2.35-1.42c18.07-6.15,35.94-12.93,54.43-17.81a32,32,0,0,1,16.62-.24c12.68,3.23,25.57,5.62,38.26,8.8,8.08,2,16.84,2.81,22.73,10.11a4.77,4.77,0,0,0,4.81,2.11L298,264.59c13,2.82,24.9,6.91,37.6,6.93l-35.34-10.85c3.43-2.21,7-2.16,9.5-4.81-2.4-.59-4.27.13-6.23.51-6,1.17-11.73,2.85-18.14,1.62-12.06-2.3-24-5.14-35.85-8.18-3.19-.81-6.55-1.12-10.37-3.14,15.71-5.87,29.85-12.87,44.3-19.15a10,10,0,0,1,6.29-.4c5.76,1.15,10.93,3.94,16.49,5.61a7.24,7.24,0,0,0,5,2.05,2.26,2.26,0,0,0,2.09.9l.59.43-.47-.55a2.24,2.24,0,0,0-1.93-1.1,4.19,4.19,0,0,0-3.81-2c-2.95-3.09-7.88-3.88-10.1-8.32,11.66.41,22.88,2.44,34.15,1,0-.42.06-.84.1-1.26L300,221l-.17-1.08,71.24-41.28c-12.53,2.79-23,9.85-34.06,16-1.66-5,1.48-9.52,0-14.37-4.57,5.67-4,13.89-9.36,18.49-5.18,4.44-11.35,7.75-18.41,10.85.48-7.22,1.89-13.54.85-20.75-2.94,4.63-5.15,9-5.41,13.45-.48,8.57-6.11,11.42-13.11,14,.16-4.48,1.73-8.62.4-13.28-4.48,5.85-3.42,13.91-8.31,18.61s-12.13,6.36-19.74,9.36l15.72-33.35-1.13-.56c-4.92,6.23-8.89,13.08-12.83,20-2.7,4.74-4.45,10.16-8.83,13.77-8.76,7.2-19.66,9.6-30.64,14.12,2.24-9.23,4.22-17.36,6.24-25.65-2.11.23-2.17,1.83-2.78,2.89-3.16,5.43-4,11.59-5,17.62-.72,4.29-2.69,6.57-7,7a35.83,35.83,0,0,0-4.35,1.07c-2.05.49-4.51,2.55-6,1.19-2.1-1.9.13-4.67.58-7,.75-3.81,2.71-7.39,2.05-11.48-2.23,4.34-3.87,8.84-5.65,13.28-1.91,4.77-4.68,9-9.77,10.74-10.84,3.73-21.76,7.2-32.66,10.75-.94.3-2.11.65-2.79-.24s.2-1.88.56-2.76c2.37-5.85,4.89-11.64,7.14-17.54a14.94,14.94,0,0,1,4.49-6.43c5.74-4.79,11.62-9.44,17.15-14.45,5.13-4.64,11.09-8.38,15.25-14,.44-.19,1.44-.06,1.06-.79s-1,0-1.32.48c-2.21.43-3.72,2.08-5.55,3.19-7.89,4.79-15,10.81-23.38,14.87l0,0a12.46,12.46,0,0,1,.45-2.9c3.5-8.79,6.81-17.66,10.7-26.27,3-6.61,4.18-14.13,9.12-19.75,8.23-9.36,17.7-17.43,27.18-25.49,5.29-4.51,10.59-8.1,18.14-8a60.89,60.89,0,0,0,12.61-1.12c-6.17-2.14-11.66-1.68-17-3,8.22-10.08,21.24-7.67,31.47-13-4-1.47-7.49,1.74-11.05,0,.46-1.66,1.81-2.08,2.88-2.8,7.71-5.19,15.5-10.27,23.1-15.62,5.5-3.87,11.46-7.25,15.42-13l1.22-.4-.37-.51c-.34.24-.67.49-1,.74-4.19,1.26-7.65,3.94-11.35,6.1-7.3,4.25-7.23,4.37-11.6-2.8-.09-.16-.5-.13-1.06-.25.27,1.25.48,2.36.75,3.46,1,4.24.45,7.36-4,9.89a291.31,291.31,0,0,0-31.67,20.75c-3.61,2.75-4.27.84-4.85-2.21-.51-2.68.68-5.71-1.9-8.36-.49,2.73-.83,5.17-1.37,7.57-1,4.59-.83,9.46-5.31,12.92-5.89,4.57-11.25,9.82-16.88,14.74-4.25,3.72-8.55,7.39-12.83,11.08,1.41-9.89,4-19,5.67-28.22,1.62-9.07,5.84-16,13.37-21.2,6.92-4.83,13.52-10.12,20.25-15.21.45-.2,1.47-.06,1.09-.8s-1,0-1.35.49c-9.82,3.08-18,9.48-27.26,13.62-.71-.87-.21-1.44,0-2,3.66-10.39,10.7-18,19.29-24.67,4.56-3.55,9.89-6.68,12.32-12.48.59-.43,1.2-.85,1.79-1.27l.93-1.08a1.26,1.26,0,0,0,.33-.16c.06,0,.05-.16.07-.24l-.35.46-1.12.88a2,2,0,0,0-2,1L212.08,97.73c-1.23-2.91.24-4.88.46-7,1.07-10.52,4.07-20.17,13-26.93a4.88,4.88,0,0,0,2.12-3.8l1.78-1.29.44-.56-.54.46a2.12,2.12,0,0,0-2.07.91c-3.26.55-5.29,3.64-9.1,4.52,3.87-13.58,8-26.61,8.42-40.39C229.62,16.71,229.89,9.15,231.39,1.86Zm-3.56,320.41a1.31,1.31,0,0,0-.11.42c0,.05.19.09.3.14a1.31,1.31,0,0,0,.11-.42C228.13,322.36,227.94,322.31,227.83,322.27Z"/><path class="cls-2" d="M231.39,1.86c-1.5,7.29-1.77,14.85-4.77,21.81-2.16,2-2.27,5-3.17,7.57-2.89,8.24-5.6,16.54-8.5,25.2-2.64-2.68-2.81-6.09-5.43-7.84-.17-.43-.34-.86-.52-1.29-.12.1-.36.27-.34.3.2.4.44.77.67,1.16.14,6,3.72,11.76,1.76,18-1.71.66-2.08-2.74-4.05-1.48.73,3,3.79,5.34,3.07,8.33-2.06,8.52-4.67,16.9-7.29,26.14-5.17-9-9.79-17-14.41-25.1-1.19-2.11-1.69-4.65-3.87-6.13l-.58-.39.35.61a11.88,11.88,0,0,0,3.06,7c3.15,6.57,5.91,13.37,9.57,19.66,4.26,7.31,5.51,14.74,3.39,22.86-.76,2.87-1.32,5.8-1.87,8.72-.21,1.13,0,2.66-1.28,3s-1.83-1.15-2.56-2c-4.07-4.77-7.28-10.26-12.12-14.38-.38-.23-.76-.48-1.16-.69,0,0-.2.23-.3.36l1.31.51c2.36,7.24,7.61,12.72,11.72,18.87,1.89,2.83,3.11,5.49,1.9,8.79-4.35,11.85-6.89,24.22-10.55,36.27-.5,1.64-.26,4.26-2.27,4.44-1.62.15-2.05-2.33-2.8-3.76-12.53-23.83-24.65-47.87-38.53-71-5.66-9.43-11.56-18.7-19-26.93,1.25,4.68,4.27,8.41,6.52,12.54,3.95,7.26,9.62,13.56,12.08,21.65l0,0c-2.11.49-4-1.78-6.2-.6,10.93,7.15,11,7.11,17.14,19.65,7.65,15.69,14.84,31.62,22.79,47.15,4.4,8.6,6.39,16.52,1.55,25.77-4.43,8.46-7.55,17.6-11.74,27.62-6.48-22-12.58-42.7-18.67-63.38l-1.53.46c4.41,22.19,8.93,44.37,13.13,66.6.71,3.75,2.67,7.57.55,11.64a120.43,120.43,0,0,0-5.31,11.82c-1.23,3.16-1.9,3.63-4.24.56-12.09-15.82-24.48-31.41-36.61-47.2-2.29-3-5.31-5.92-5.69-9.81-1-10.46-3.67-20.55-6.25-30.65-2.54-9.89-5.42-19.69-8.14-29.53,0,17.72,6.53,34.44,6.81,52.07-12.2-16.6-23.78-33.39-35.59-50A15.62,15.62,0,0,1,61,133.61c1-4.6.38-9.21-.21-13.85L55.21,133c-2.92-5.08-5.2-9.31-7.74-13.38-4.11-6.6-7-13.9-11.91-20l-.48-1.32c-.12.1-.37.27-.35.29.22.38.47.75.72,1.12A10.24,10.24,0,0,0,36.64,105c3.6,8.29,7.15,16.61,11.14,25.89-4.73-2.07-8.46-3.7-12.2-5.32a2.18,2.18,0,0,0-2-.94c-.38-.25-.75-.5-1.14-.73a3.64,3.64,0,0,0-.27.37l1.34.43a2,2,0,0,0,1.89,1.12c.19,2.27,2.17,2.76,3.71,3.64,6.6,3.77,12.26,8.43,16.14,15.19,2.31,4,5.44,7.55,7.89,11.5,2.26,3.64,5.41,6.82,6.89,11.45-11-3.87-20.26-10.21-31.09-13.87.7,2.11,2.17,2.6,3.47,3.29l18.06,9.61c6.32,3.37,12.3,7,16.69,13,6.24,8.59,13,16.83,19.5,25.2q5.39,6.9,10.8,13.77C82.37,211.23,58.55,201,32.73,197.9c19.83,7.23,39.7,14.31,59.86,20.44,11.15,3.39,20.83,8,27.93,17.69,5.7,7.73,12.62,14.51,18,22.55l0,0c-1.93.31-3.62-.62-5.26-1.3-7.37-3-14.68-6.22-22-9.35-1.85-.79-3.63-2-6.1-.82l32.72,18.33c-32,.87-62.75-1.61-93.31,2.79,4.69-.3,9.14,1.3,13.8,1.29,25.63,0,51.26,0,76.89.16,3.67,0,9.17-2.07,10.61,1.22,1.59,3.61-1.85,8-4.33,11.55-5.22,1.44-9.2,5.18-13.94,7.54a143.38,143.38,0,0,1-17.4,7.49c-1.49-2.13,0-3.92.31-5.74.75-5.37.16-6.08-5-4.72-5.77,1.53-11.48,3.33-17.23,5a19.52,19.52,0,0,1-9.39.34c-1.8-.37-3.8-.65-3.4-3.76s-2.83-3.47-4.9-3.87c-8.15-1.59-16.42-2.59-24.54-4.29-9.57-2-19.37-3.25-29.52-7.7,19.43-11,39.75-18.81,58.2-31.56l-33.13-13c3.33-2.5,3.27-4.35-.55-6.09a44.64,44.64,0,0,1-9.38-5.65c-1.5-1.2-6.65-.8-3.35-5.42.46-.64-1.61-1.35-2.65-1.65C13.52,206,8.5,195,0,186.42c10.56-1.92,19.77-5.45,29.82-4.48,5.17.5,6.64-2,4.51-6.84-2.25-5.09-5.91-9.23-9.42-13.44a27.72,27.72,0,0,1-5.37-9.48c-.86-2.73-.84-5.29,1.22-7.47,3.38-3.58,3.42-7.88,2.37-12.18-1.23-5-2.89-9.89-4.44-14.8-1.75-5.57-1.78-5.56,4.24-4.35V73.65c6.24,6.69,12.19,13,18.1,19.4q6.6,7.14,13.12,14.38c1.56,1.73,3,3.19,5.35,1.12s3.8-.68,5.26,1.35c3.38,4.74,7,9.28,10.31,14.1,1.81,2.68,3.4,3.45,5.69.81,3.18-3.67,5.33-3.1,8.28.81,11.61,15.41,23.6,30.53,36.41,47-.26-11.39-.09-21.38-5.77-30.3a68.56,68.56,0,0,0-4.94-6.26c-4.85-5.93-4.9-6,2.35-8.78,2.27-.87,2.09-1.78,1.18-3.54a166,166,0,0,0-15.5-24.8c.29-.47.4-.88.62-1,7.92-2.69,7.93-2.69,3.21-9.84-1.18-1.8-2.13-3.51.19-5.14s2.15-3.77,1.24-6.18c-1.7-4.49-3.23-9-5-14.18,6,.12,10.88,2.05,15.65,4.27,8.76,4.09,16.78,9.48,24.85,14.77,4.73,3.1,9.58,6,15.2,7.31,5.13,1.18,8-1.13,6.14-6-3.48-8.83-.85-18-2.74-27-1.15-5.49,2-11.93,3.45-17.91.62-2.67,2.31-1,3.46-.44,5.44,2.49,10.94,4.87,16.22,7.67,3.64,1.93,6.57,1.35,8.64-1.84,6-9.2,15.07-15.92,20.09-25.94,3.23-6.45,9.23-10.88,13.8-16.37C229.58-1.07,230.43.36,231.39,1.86Z"/><path class="cls-3" d="M209.52,48.6c2.62,1.75,2.79,5.16,5.43,7.84,2.9-8.66,5.61-17,8.5-25.2.9-2.57,1-5.52,3.17-7.57-.39,13.77-4.55,26.8-8.42,40.38,3.81-.88,5.84-4,9.1-4.52l.4.48a4.92,4.92,0,0,1-2.13,3.8c-9,6.76-12,16.41-13,26.93-.22,2.11-1.69,4.08-.46,7l26.23-19.19.37.45c-2.43,5.8-7.76,8.93-12.32,12.48-8.59,6.68-15.63,14.28-19.29,24.67-.21.59-.71,1.16,0,2,9.25-4.14,17.44-10.54,27.26-13.62l.27.31c-6.74,5.09-13.34,10.38-20.26,15.21-7.53,5.25-11.75,12.13-13.37,21.2-1.64,9.26-4.26,18.33-5.67,28.22,4.28-3.69,8.58-7.36,12.83-11.08,5.63-4.92,11-10.17,16.88-14.74,4.48-3.46,4.28-8.33,5.31-12.92.54-2.4.88-4.84,1.37-7.57,2.58,2.65,1.39,5.68,1.9,8.36.58,3.05,1.24,5,4.85,2.21A291.31,291.31,0,0,1,270.11,113c4.42-2.53,5-5.65,4-9.89-.27-1.1-.48-2.21-.75-3.46.56.12,1,.09,1.06.25,4.37,7.17,4.3,7,11.6,2.8,3.7-2.16,7.16-4.84,11.35-6.1l.16.17c-4,5.72-9.93,9.1-15.43,13-7.6,5.35-15.39,10.43-23.1,15.62-1.07.72-2.42,1.14-2.88,2.8,3.56,1.69,7-1.52,11.05,0-10.23,5.32-23.25,2.91-31.47,13,5.35,1.33,10.84.87,17,3a60.89,60.89,0,0,1-12.61,1.12c-7.55-.11-12.85,3.48-18.14,8-9.48,8.06-19,16.13-27.18,25.49-4.94,5.62-6.14,13.14-9.12,19.75-3.89,8.61-7.2,17.48-10.7,26.27a12.46,12.46,0,0,0-.45,2.9l-.28.36.23-.41c8.37-4.06,15.49-10.08,23.38-14.87,1.83-1.11,3.34-2.76,5.55-3.19l.26.31c-4.16,5.67-10.12,9.41-15.25,14-5.53,5-11.41,9.66-17.15,14.45a14.94,14.94,0,0,0-4.49,6.43c-2.25,5.9-4.77,11.69-7.14,17.54-.36.88-1.26,1.85-.56,2.76s1.85.54,2.79.24c10.9-3.55,21.82-7,32.66-10.75,5.09-1.74,7.86-6,9.77-10.74,1.78-4.44,3.42-8.94,5.65-13.28.66,4.09-1.3,7.67-2.05,11.48-.45,2.32-2.68,5.09-.58,7,1.52,1.36,4-.7,6-1.19a35.83,35.83,0,0,1,4.35-1.07c4.3-.45,6.27-2.73,7-7,1-6,1.85-12.19,5-17.62.61-1.06.67-2.66,2.78-2.89-2,8.29-4,16.42-6.24,25.65,11-4.52,21.88-6.92,30.64-14.12,4.38-3.61,6.13-9,8.83-13.77,3.94-6.9,7.91-13.75,12.83-20l1.13.56L263.9,230.9c7.61-3,14.73-4.53,19.74-9.36s3.83-12.76,8.31-18.61c1.33,4.66-.24,8.8-.4,13.28,7-2.53,12.63-5.38,13.11-14,.26-4.48,2.47-8.82,5.41-13.45,1,7.21-.37,13.53-.85,20.75,7.06-3.1,13.23-6.41,18.41-10.85,5.35-4.6,4.79-12.82,9.36-18.49,1.48,4.85-1.66,9.33,0,14.37,11.1-6.11,21.53-13.17,34.06-16l-71.24,41.28L300,221l31.88,2.94c0,.42-.07.84-.1,1.26-11.27,1.43-22.49-.6-34.15-1,2.22,4.44,7.15,5.23,10.1,8.32l-1.47.23c-5.56-1.67-10.73-4.46-16.49-5.61a10,10,0,0,0-6.29.4c-14.45,6.28-28.59,13.28-44.3,19.15,3.82,2,7.18,2.33,10.37,3.14,11.88,3,23.79,5.88,35.85,8.18,6.41,1.23,12.17-.45,18.14-1.62,2-.38,3.83-1.1,6.23-.51-2.5,2.65-6.07,2.6-9.5,4.81l35.34,10.85c-12.7,0-24.59-4.11-37.6-6.93l4.43,7.41a4.77,4.77,0,0,1-4.81-2.11c-5.89-7.3-14.65-8.08-22.73-10.11-12.69-3.18-25.58-5.57-38.26-8.8a32,32,0,0,0-16.62.24c-18.49,4.88-36.36,11.66-54.43,17.81a16.24,16.24,0,0,0-2.35,1.42c9.5,3.64,18,8,27.3,10.59,2.39.66,4.47-.85,6.56-1.79,2.81-1.25,5.59-2.59,8.92-2.87-2.28,1.44-4.53,2.91-6.82,4.31-2,1.23-1.89,2.46-.18,3.85,7,5.64,13.92,11.32,20.9,16.94,2.52,2,5.39,1.17,8.15.73,2.54-.4,4.92-1.79,8-1.48a9,9,0,0,1-1.31,1.21c-7,3.88-6.91,3.76-.3,8.65,8.79,6.49,18,12.47,26,19.93l-.1.11c-8.16-2.63-14.61-8.25-21.87-12.45-3.84-2.22-7.46-4.82-11.58-7.52-1.13,3.41,1.5,6.19.28,9-.25-.09-.71-.14-.76-.3-3.91-14.21-17.06-19.46-27-27.83l-.53-.42.47.48c.56,5.85,4.7,10.44,5.61,16.25a67.54,67.54,0,0,1-11-17.65,7.9,7.9,0,0,0-4.21-4.55c-10.33-4.57-21-8.08-31.71-11.74-2.24-.77-3.93-.31-4.61,2.22-.51,1.89-2.06,3.46-1.79,5.61q-17.09,50.73-34.2,101.46c-4.1,12.1-8.45,24.12-12.48,36.25-1,2.94-2,3.65-4.86,2.16a123.77,123.77,0,0,0-11.87-5.17c-2.39-.94-2.79-1.82-1.47-4.26C109,371,124,326.73,141.46,283.47a2.53,2.53,0,0,0,0-1c2.48-3.55,5.92-7.94,4.33-11.55-1.44-3.29-6.94-1.19-10.61-1.22-25.63-.19-51.26-.2-76.89-.16-4.66,0-9.11-1.59-13.8-1.29,30.56-4.4,61.3-1.92,93.31-2.79l-32.72-18.33c2.47-1.22,4.25,0,6.1.82,7.33,3.13,14.64,6.32,22,9.35,1.64.68,3.33,1.61,5.26,1.3a1.37,1.37,0,0,0,.15.37c.05.06.19,0,.29.07l-.41-.47c-5.34-8-12.26-14.82-18-22.55-7.1-9.64-16.78-14.3-27.93-17.69-20.16-6.13-40-13.21-59.86-20.44,25.82,3.13,49.64,13.33,74.7,20.74q-5.4-6.88-10.8-13.77c-6.53-8.37-13.26-16.61-19.5-25.2-4.39-6-10.37-9.68-16.69-13L42.38,157c-1.3-.69-2.77-1.18-3.47-3.29,10.83,3.66,20.09,10,31.09,13.87-1.48-4.63-4.63-7.81-6.89-11.45-2.45-3.95-5.58-7.49-7.89-11.5-3.88-6.76-9.54-11.42-16.14-15.19-1.54-.88-3.52-1.37-3.71-3.64l.22-.26,12.19,5.33c-4-9.28-7.54-17.6-11.14-25.89a10.24,10.24,0,0,1-1.19-5.28l.11-.1c4.88,6.14,7.8,13.44,11.91,20C50,123.72,52.29,128,55.21,133l5.56-13.27c.59,4.64,1.21,9.25.21,13.85a15.62,15.62,0,0,0,2.49,13.19c11.81,16.63,23.39,33.42,35.59,50-.28-17.63-6.86-34.35-6.81-52.07,2.72,9.84,5.6,19.64,8.14,29.53,2.58,10.1,5.24,20.19,6.25,30.65.38,3.89,3.4,6.82,5.69,9.81,12.13,15.79,24.52,31.38,36.61,47.2,2.34,3.07,3,2.6,4.24-.56a120.43,120.43,0,0,1,5.31-11.82c2.12-4.07.16-7.89-.55-11.64-4.2-22.23-8.72-44.41-13.13-66.6l1.53-.46c6.09,20.68,12.19,41.35,18.67,63.38,4.19-10,7.31-19.16,11.74-27.62,4.84-9.25,2.85-17.17-1.55-25.77-7.95-15.53-15.14-31.46-22.79-47.15-6.12-12.54-6.21-12.5-17.14-19.65,2.23-1.18,4.09,1.09,6.2.6l.41.22-.43-.2c-2.46-8.09-8.13-14.39-12.08-21.65-2.25-4.13-5.27-7.86-6.52-12.54,7.41,8.23,13.31,17.5,19,26.93,13.88,23.09,26,47.13,38.53,71,.75,1.43,1.18,3.91,2.8,3.76,2-.18,1.77-2.8,2.27-4.44,3.66-12.05,6.2-24.42,10.55-36.27,1.21-3.3,0-6-1.9-8.79-4.11-6.15-9.36-11.63-11.72-18.87l.15-.18c4.84,4.12,8.05,9.61,12.12,14.38.73.86,1.31,2.31,2.56,2s1.07-1.84,1.28-3c.55-2.92,1.11-5.85,1.87-8.72,2.12-8.12.87-15.55-3.39-22.86-3.66-6.29-6.42-13.09-9.57-19.66.34-.36.69-.71,1-1.06,4.62,8,9.24,16.11,14.41,25.1,2.62-9.24,5.23-17.62,7.29-26.14.72-3-2.34-5.35-3.07-8.33,2-1.26,2.34,2.14,4.05,1.48,2-6.28-1.62-12-1.76-18Z"/><path class="cls-4" d="M306.24,232.73l1.47-.23a4.19,4.19,0,0,1,3.81,2l-.28.32A7.24,7.24,0,0,1,306.24,232.73Z"/><path class="cls-3" d="M261.41,331.56l1.25.24-.3.52-.95-.76Z"/><path class="cls-3" d="M240.48,77.72c-.6.42-1.21.84-1.8,1.27l-.37-.45a2,2,0,0,1,2-1Z"/><path class="cls-3" d="M297.34,96.6c.33-.25.66-.5,1-.74l.37.51-1.22.4Z"/><path class="cls-3" d="M234.33,104.55c.36-.5,1-1.09,1.35-.49s-.64.6-1.09.8Z"/><path class="cls-3" d="M203.36,209.52c.34-.51,1-1.07,1.32-.48s-.62.6-1.06.79Z"/><path class="cls-3" d="M227.3,59.53a2.12,2.12,0,0,1,2.07-.91l.1.1L227.69,60Q227.51,59.77,227.3,59.53Z"/><path class="cls-4" d="M311.52,234.46a2.24,2.24,0,0,1,1.93,1.1l-.12.12a2.26,2.26,0,0,1-2.09-.9Z"/><path class="cls-3" d="M227.83,322.27c.11,0,.3.09.3.14a1.31,1.31,0,0,1-.11.42c-.11-.05-.3-.09-.3-.14A1.31,1.31,0,0,1,227.83,322.27Z"/><path class="cls-3" d="M241.45,76.7l.35-.46c0,.08,0,.19-.07.24a1.26,1.26,0,0,1-.33.16Z"/><path class="cls-3" d="M240.33,77.58l1.12-.88,0-.06-.93,1.08Z"/><path class="cls-4" d="M313.45,235.56l.47.55-.59-.43Z"/><path class="cls-3" d="M229.37,58.62l.54-.46-.44.56Z"/><path class="cls-3" d="M260.46,330.52l1,1h0l-1.05-.94Z"/><path class="cls-5" d="M188.41,74.7c-.35.35-.7.7-1,1.06a11.88,11.88,0,0,1-3.06-7l.23-.22C186.72,70.05,187.22,72.59,188.41,74.7Z"/><path class="cls-3" d="M35.45,99.71c-.25-.37-.5-.74-.72-1.12,0,0,.23-.19.35-.29l.48,1.32Z"/><path class="cls-3" d="M182.35,113.76l-1.31-.51c.1-.13.27-.37.3-.36.4.21.78.46,1.16.69Z"/><path class="cls-3" d="M33.48,124.69l-1.34-.43a3.64,3.64,0,0,1,.27-.37c.39.23.76.48,1.14.73Z"/><path class="cls-3" d="M33.55,124.62a2.18,2.18,0,0,1,2,.94l-.21.25a2,2,0,0,1-1.89-1.12Z"/><path class="cls-3" d="M209.33,48.77c-.23-.39-.47-.76-.67-1.16,0,0,.22-.2.34-.3.18.43.35.86.52,1.29Z"/><path class="cls-5" d="M184.31,68.79l-.35-.61.58.39Z"/><path class="cls-1" d="M174.43,227.58l-.23.41.28-.36Z"/><path class="cls-2" d="M138.48,258.58l.41.47c-.1,0-.24,0-.29-.07a1.37,1.37,0,0,1-.15-.37Z"/><path class="cls-1" d="M199.4,291.62l-.47-.48.53.42Z"/><path class="cls-2" d="M141.45,114.67l.43.2-.41-.22Z"/></g></g></svg>