<svg xmlns="http://www.w3.org/2000/svg" viewBox="0 0 131.92 93.12"><defs><style>.cls-1{fill:#c2beb1;}.cls-2{fill:#47697e;}.cls-3{fill:#567588;}.cls-4{fill:#99823a;}.cls-5{fill:#bfa14b;}.cls-6{fill:#95958d;}.cls-7{fill:#494a38;}.cls-8{fill:#b1b3aa;}.cls-9{fill:#b4ada3;}.cls-10{fill:#a4a59a;}.cls-11{fill:#3d4c55;}.cls-12{fill:#a0a69f;}.cls-13{fill:#ceb050;}.cls-14{fill:#394833;}.cls-15{fill:#78672c;}.cls-16{fill:#d6b95e;}.cls-17{fill:#393f3b;}.cls-18{fill:#9d8d4f;}.cls-19{fill:#1d3f57;}.cls-20{fill:#95aaac;}.cls-21{fill:#454f46;}.cls-22{fill:#bc9b3f;}.cls-23{fill:#2a2d26;}.cls-24{fill:#393e2e;}.cls-25{fill:#848778;}.cls-26{fill:#4e5245;}.cls-27{fill:#cdb671;}.cls-28{fill:#333420;}.cls-29{fill:#887945;}.cls-30{fill:#999885;}.cls-31{fill:#d0c4a3;}.cls-32{fill:#6d5e26;}.cls-33{fill:#826e2a;}.cls-34{fill:#b9ae83;}.cls-35{fill:#9d8033;}.cls-36{fill:#beb9a4;}.cls-37{fill:#70653e;}.cls-38{fill:#987e33;}.cls-39{fill:#ddcb90;}.cls-40{fill:#8f7f30;}.cls-41{fill:#cfcba8;}.cls-42{fill:#444f4a;}.cls-43{fill:#d2c7a6;}.cls-44{fill:#cfb76c;}.cls-45{fill:#747c65;}.cls-46{fill:#5e695a;}.cls-47{fill:#47411f;}.cls-48{fill:#b3b19d;}</style></defs><g id="Layer_2" data-name="Layer 2"><g id="Layer_1-2" data-name="Layer 1"><path class="cls-1" d="M131.64,73.42a6.11,6.11,0,0,1-.87-.19c-5,0-6-3.39-5.8-7.26a13.15,13.15,0,0,0-2.14-7.9c-2.39-3.79-1.18-7.43,1.27-10.79,1.58,1.76,3.76,2.78,1.86,6.27-1.12,2.06,2.92,4.17,3.87,6.73C132.47,64.38,132,68.91,131.64,73.42Z"/><path class="cls-2" d="M124.1,47.28c-.29,4.35-2.94,9,2,12.68.65.48,1.3,2.69.67,4.47-1.47,4.07,0,7.07,4,8.8A6.33,6.33,0,0,0,126,75.4c-.89,1.13-1.87,2-3.43,1.14a4,4,0,0,1-1.41-4.46c.76-2.2.31-1.16-1.21-1.09s-1.7-2.44-1.6-4.15-.12-3.34.07-5c1.07-9.76.33-19.54.52-29.32a50.18,50.18,0,0,0-1.23-9.85c-.5-2.8-1.55-5.5-4.91-6.19-7.32-4.57-15.22-4.15-23.49-3.69-10.21.55-20.44.86-30.66,1.49-2.13.13-4.28-.21-5.7-2.05.72-2.32,2.51-1,3.71-1.42-1.47.13-3-.22-4.39.56a4.6,4.6,0,0,1-1.9.52c-5.62.72-11.11-2.1-16.75-.56-5.22,0-10.47.39-15.65-.7a15,15,0,0,0-7.11-.57C7,10.17,4.5,6.26.58,6.38c2-3.91,3.66-8.31,9.47-5.14,6.14-4,12.6,3.46,18.78-.51a2.23,2.23,0,0,1,2,0c8,4.91,17,1.92,25.46,3.1,3.46.48,7.19,1.43,9.88-2.18A1.9,1.9,0,0,1,68,1.32c4.55,3,9-.9,13.12-.21,6,1,12.3-.48,18,2.47,1.19.62,2.73,1.58,3.73.63,3.46-3.31,7-1.8,10.7-.76,2.93.83,4.47-3.28,7.51-2.14,2.82,1.82.39,5,1.82,7.14.26,2,2.35,2.44,3.27,3.87,2.51,4.08-1.42,6.83-2.12,10.24-.27.16-.73.27-.77.47-.5,2.56-.39,4.88,2.71,5.77a4.31,4.31,0,0,0-2.78,5.42C124.61,38.56,124,42.92,124.1,47.28Z"/><path class="cls-3" d="M1.51,80.19a3.59,3.59,0,0,1,1.35-1.13c11.07-4,22.36-1.9,33.53-.93,7.42.65,14.89.64,22.28,1.68,6.92,1,13.85.23,20.78.06a30.89,30.89,0,0,0,9.8-1.47A4.92,4.92,0,0,1,93.18,78c3,1.58,6.53.21,9.49,1.88-.32-.23-.79-.22-1-.63,0-1.22.85-1.71,1.8-2.09a5.92,5.92,0,0,1,3.07,0,12.85,12.85,0,0,1,2.06.87c2.29,1.52,5,1.85,7.57,2.28a17.54,17.54,0,0,1,8.38,4.19c.34,2.57,4.27,5,.29,7.75-2.67.27-5.61-2.93-8,.6a.88.88,0,0,1-.84.14c-4.82-3.76-10.72-2.52-16.13-3.51C97,88,95.34,83.57,91.05,86.15c-2,.87-3.65,2.83-6.2,2.3-3.18-2.64-6.32-4.47-9.4.18a2,2,0,0,1-1.75.7C67.11,86,59.15,93.15,53,86.6c-1.89-.08-3.32,1.43-5.16,1.5-2.35.29-3.42-1.74-5-2.8-2.71-1.78-5.15-1.07-5.82,2-.25,1.14-.73.81-1,.65-1.45-.85-3.41-.24-4.62-1.62-2.75-3.16-5.15-4.63-8.82-.6-2.11,2.31-5.47.07-6.84-1.8-1.82-2.49-3.82-.49-5.62-1-1.57-.41-2.33,1.85-.2,3.3-.68.29-1,.54-1.22.5-6.11-1-6.06-6.66-6.62-.41"/><path class="cls-4" d="M.94,29.47A59.12,59.12,0,0,1,.78,9.39c1.18,1.87.61,3.79.49,5.59.85-1.71-.8-4.16,1-5.84C7.5,12.29,10.43,20.82,8,25.93c-.35.73-1.13,1.93-1.71,1.37-4-3.75-2.12,2.6-4,2.24A1.38,1.38,0,0,1,.94,29.47Z"/><path class="cls-5" d="M.94,29.47l1-.07c3.47,3.88,2,8.53,1.75,12.85-.44,7.48-.11,14.94-.24,22.41A5.47,5.47,0,0,0,4.56,67.9,14,14,0,0,1,6,70.08a11.5,11.5,0,0,1,0,6.37C5,78,3.12,78.61,2.19,80.2H1.85l-.34,0C.59,65.79.89,51.36.82,37,.81,34.45.89,32,.94,29.47Z"/><path class="cls-6" d="M124.81,92.21c2.06-3-1.53-5.33-1.07-8.16-1.29-2.41-3.37-4.75-.75-7.54l3-1.11c-.11,1.48,1,2.36,1.68,3.45,1.09,1.64,4,3.22-.55,4.87-2.58.94.49,3.22.66,5,.14,1.41,1.85,2.86.65,4.12C127.47,93.81,126.1,92.13,124.81,92.21Z"/><path class="cls-7" d="M3,9.61c-2.09,1.77-.14,4.49-1.7,6.8-.19-2.57-.35-4.79-.51-7-.07-1-.13-2-.2-3C2.5,5,4.22,3.53,6.08,6.74c.57,1,2.59,1.14,3.95,1.67C10,11,7.7,10.63,6.18,11.28A3.31,3.31,0,0,1,3,9.61Z"/><path class="cls-8" d="M123.94,22.56c-.62-3.68,1.77-6.75,2.12-10.24,3.29,2.23,5.65,4.57.48,7.3-1.44.75-.73,2.44-1.79,3.25a.56.56,0,0,1-.46,0C124.15,22.84,124.05,22.68,123.94,22.56Z"/><path class="cls-9" d="M84.85,88.45c2-1.16,3.25-3.84,6.17-3.38,2.06-.65,4.21-1.47,4,2.11-1.62-.55-3.16-.81-4.25,1C89,91.16,86.94,90.27,84.85,88.45Z"/><path class="cls-10" d="M122.79,8.45c-1.89-.06-2.87-1-2.14-2.83A10.87,10.87,0,0,0,121,1.31c1.21-.26,3-1.14,3.53-.66,1.11,1.12.24,2.76-.29,4.14C123.73,6,123.26,7.23,122.79,8.45Z"/><path class="cls-11" d="M95.07,87.18c-.59-2.16-2.6-1.6-4-2.11.7-.91,1.6-2.29,2.7-1.56,2.36,1.56,5.33,2.66,6.07,5.93Z"/><path class="cls-12" d="M47.87,88.1c1-3.11,2.93-2.75,5.16-1.5C51.49,87.72,50.57,91,47.87,88.1Z"/><path class="cls-13" d="M3,9.61c1,.22,1.83,1,2.93.55,6.29.84,8.13,6.58,12.56,11.34-2-2.92-2.67-5.22-4.45-6.87-1.24-1.16-2.53-2.28-1.94-4.2.7-2.24,2.67-1.41,4.21-1.56a6.67,6.67,0,0,0,1.93-.37c5.22,1.66,10.62.43,15.91.91A2.94,2.94,0,0,0,36,9.86c8.7.29,8.7.29,11.62,8-2-4.58-1.72-5.53,2.24-7.15a36.7,36.7,0,0,1,11.77.47l-7.24.34,0-.62c11.84,0,23.68.14,35.52-.05,7-.11,14.11-1.51,20.8,2.14a8.64,8.64,0,0,1,2.91,2.46c3.79,4.28,3.62,9.79,4.39,14.91a44.43,44.43,0,0,1,0,15.26c-.85,4.25,1.75,8.5-.26,12.69A7.5,7.5,0,0,1,115,61c-3,.75-4.93-.84-6.63-3-1.15-2-.91-4.6-3-6.08-1-1-2-2.07-2-3.67.9-2,1-4.16,1.61-6.22,4.32-5.24,2.29-10.3-.48-15.31-1.15-1.66-3.62-2-4.22-4.21-.4-2.87-2.88-2.4-4.6-2.56-5.55-.49-10.68,1.17-15.55,3.7-2.35.3-5,3.88-6.85-.73.29-2.71,2.71-3.73,4.27-5.4.15-.24.37-.77.3-.79-1.05-.45-1.59.57-2.38.9a41.89,41.89,0,0,0-19.34,17c-1.51,1.43-1.72,3.57-2.84,5.19-1.76,2.55-3.82,4.27-7,1.95-2.57-3.65-1-8.22-2.69-12.08-.07-2-1.06-2.86-3.12-2.86-4.67,0-9.17.49-13.1,3.32-2.83.47-4.92,3.13-8,2.78-1.66-1.55-2.73-.6-4.07.92,1.24,0,1.72-.87,2.55-.85,2.11.59,3.71,2.33,6,2.61,1.31.44,2.82.13,4,1.12-1.13,2.24,1.16,1.71,2,2.39.87,3.35,4.16,6.07,2.65,10-1,2.17.94,5.2-2,6.78-4.73.24-7.81-2.73-10.92-5.64-1.74-2.09-2.05-5.63-5.81-5.67-2.68,0-5,1.66-8.23,1.2,2.65,6.5.15,12.79,1,19A4,4,0,0,1,3.92,69.3C1.35,68.64,2,66.53,2,64.81,1.94,53,2,41.2,2,29.4A22,22,0,0,0,2.17,27c0-2.17-1.52-5.42,1.24-6,2.21-.44,1.67,3.38,3.14,5.24C8.4,19.85,5.66,14.73,3,9.61Z"/><path class="cls-14" d="M116.67,58.24a17.38,17.38,0,0,0-.69-7.86c-1-3.43.84-6.76.87-10.26.09-8.41-2-16.47-3.19-24.66,3.86.34,5.42,3.14,6,6.32,2.13,12.35,1.58,24.83.91,37.25-.2,3.63-.42,7.24-.42,11,1.65-1.46-.22-3.7,1.82-5.38l1,11.82c-1.78,2.71,3.15,4.77.75,7.54L122,85.58c-2.94-5-8.5-3.54-12.76-5.29a5.21,5.21,0,0,1-1.12-.84c1.3-2,3.13-1.32,4.83-1,.68-4.53-1.41-9.38,2.4-13.68C116.44,63.59,115.43,60.34,116.67,58.24Z"/><path class="cls-4" d="M18.23,8.5c-1.11.29-2.24.52-3.31.9-2.3.84-1.8.62-.27,3,2.31,3.56,6.1,6.68,5,12.77-5.47-4.75-8-11.44-13.69-15C7.08,9.08,9.06,9.93,10,8.41Z"/><path class="cls-15" d="M49.87,10.72c-3.07,2.11-1.08,5.51-2.27,8.55a15.31,15.31,0,0,1-1.86-3c-1.42-4.38-4.33-6.32-8.91-5.93a2.91,2.91,0,0,1-2.69-.93A74.13,74.13,0,0,1,49.87,10.72Z"/><path class="cls-16" d="M107.05,78.38l-2.93-.28A32.87,32.87,0,0,0,95,79.6,2.31,2.31,0,0,1,93,79.42c-.69,0-1.17-1.14-2-.38a1.1,1.1,0,0,1-1.55.46c-17.1,1.2-34.13-.91-51.2-1-2.85-1.7-3.08-4.58-3.33-7.46,2.2-2.15,5.22-1.32,7.78-2.14a8.19,8.19,0,0,1,8.77-1.44c1.71.66,3.6.49,5.4.73,2.46.93,5,.62,7.58.63,6.19,0,11.5-2.5,16.53-5.82,6.76-4.46,7.38-4.55,13.93,0,2.19,1.54,4.54,1.78,7,2a16.07,16.07,0,0,1,6.79,5.83C109.91,73.77,107.07,75.78,107.05,78.38Z"/><path class="cls-17" d="M89.9,79l1,0c-2.13,1.88-4.84,1.94-7.42,2.18-19,1.7-37.79-.66-56.59-2.38-8.42-.77-16.52.31-24.73,1.36-.07-1.43-.55-3,.9-4,.26-.17,1.25.72,1.9,1.12a8.35,8.35,0,0,1,1.41-1.1c10.11-3.23,20-1.47,29.93,1.14,16.85,1,33.67,2.94,50.6,1.49A9,9,0,0,1,89.9,79Z"/><path class="cls-18" d="M107.05,78.38c-.22-2.41-.92-4.89.9-7,0-2.86,2.18-4.76,3.14-7.2.9-1.51,2.48-2.4,3.51-3.79a2.27,2.27,0,0,1,2.07-2.11c2,6.06-2.94,11.33-2,17.35.2,1.33-.25,2.86,1,4.48l-7.5-.62Z"/><path class="cls-18" d="M94.74,79.12c2.81-3.19,6.11-2,9.38-1-.75.39-1.5.78-2.24,1.18A9.53,9.53,0,0,1,94.74,79.12Z"/><path class="cls-19" d="M110.19,87.28,104,86.61c.16-.6.14-1.55.5-1.73C106.47,83.94,107.84,85.08,110.19,87.28Z"/><path class="cls-20" d="M94.74,79.12l7.14.16,2.44.33c-3.8.45-7.61,1.47-11.37-.19Z"/><path class="cls-21" d="M6.18,77.11,5,77.32C5,75,5,72.61,5,70.26c1-3-1.1-8.3,5.33-7.52a25.25,25.25,0,0,1,11.31-.11c1.94.37,3.93.7,5.86-.12C31.44,61.14,30,58,29.85,55.32c2.58-1.5-1.28-4.19,1-5.74,3-5.49,2.58-7.74-1.95-10.35l-2.24-.37,1.22-1.37c.37-.68,1-.64,1.65-.64-.43,0-.86,0-1.29,0a10.59,10.59,0,0,0-5.18.41,5.52,5.52,0,0,1-5.41-3.74c-.07-1,.37-1.45,1.37-1.36,2.84-.33,4.49-3.67,7.71-3.06,3.72-1.08,7.27-2.72,11.38-2.36,3.22.29,4.39,1.73,4.11,4.75,1.89,3.93.6,8.06.81,12.11.12,2.27.24,4.3,2.67,5.89,2.75,1.79,3.38,7.27,1.79,10.91A80.37,80.37,0,0,0,43.91,70c-2.69,2-5.9,1-8.84,1.5a4.44,4.44,0,0,1-4.56,1.37c-6.76-1.28-13.18,1.45-19.81,1.55C8.68,74.41,7.33,75.61,6.18,77.11Z"/><path class="cls-22" d="M10.05,64.07c-1.16.43-4.58-1.91-2.76,2.38C7.53,67,5.35,68.67,5,70.26l-1.08-1c.52-7.56,2.25-15.15-.3-22.67-.3-.9-.72-2.65.32-2.36,3.57,1,6.55-1.9,10-1.09a1.33,1.33,0,0,1,.47,1.18c-.44,1.45-2.39,2.66-.71,4.45A15.06,15.06,0,0,0,15.83,52a2.88,2.88,0,0,1,.34,2.61C12.55,56.75,11.4,60.47,10.05,64.07Z"/><path class="cls-23" d="M43.91,70c-1.5-2.91-.31-5.56,1.1-8a10.73,10.73,0,0,0,1.12-9.23c-.47-1.64-1.28-1.63-2.21-2.28-3.42-2.41-2.79-6.16-2.18-9.36.67-3.44-1.19-6.46-.72-9.73,1-1.18,1.88-2.64,3.83-2,2.65,3.57.74,7.86,1.86,11.67a3.66,3.66,0,0,0,3.46,3.58c2.08.14,1.61-2.12,2.26-3.31.39-.72.5-1.57.9-2.3,2.83-3.07,4.93-2.72,6.24,1.33a3.19,3.19,0,0,1-.44,1.3c-1.27,1.13-1.74,2.38-.61,3.9A8.16,8.16,0,0,1,59,46.88a9.84,9.84,0,0,0,.47,1.42c3.32,7.22,2.41,8.59-5.43,8.19,2.92,2.83,3.8,6.77,5.18,10.39.68,1.78.1,3.41-2.48,2.66A7.76,7.76,0,0,1,50.67,69C48,67.45,46,68.26,43.91,70Z"/><path class="cls-24" d="M101.6,66.14c-3.26.68-7,.58-8.74-2.08-3.7-5.6-7.41-2.27-10.23-.09C77,68.34,71,71,63.8,70.32c-.84-4.18.89-6.88,5.64-7.82,6.5-1.29,10.56-6.35,15.76-9.64a3.62,3.62,0,0,0,1.74-2.33c.22-6.92,4.81-5.34,8.93-4.75a46.22,46.22,0,0,0,6.71,4.54,4.34,4.34,0,0,1,1.93,2.9c-.35,3.13-1.71,4.13-4.55,2.2-.8-.54-1.83-1.16-2.54.06s.09,1.86,1,2.39c2.08,1.19,3.16,2.83,2.57,5.39,1.19-2.3,3.5-3.76,4.21-6.32.48-2.18-.46-4.64,1.31-6.55,2.07,1.89,2.29,4.43,2.48,7v.72C108.2,63.68,106.66,65.36,101.6,66.14Z"/><path class="cls-25" d="M74.1,22.46c1.86,3.56,3.52-.8,5.31-.14A3.69,3.69,0,0,1,80.76,22a7.33,7.33,0,0,1,.77,5.86c5.75-1.3,10.56-4.87,15.89-7.19,4.17,1.24,1.5,4.21,1.65,6.47a3.22,3.22,0,0,1-1.5,1.65,10.84,10.84,0,0,0-10.39,5.14c-1.7,2.57-4.75,3.37-7.3,4.77A71.78,71.78,0,0,0,73,43.36c-4.15,1.68-8.75,1.82-12.86,3.69a2,2,0,0,1-2.22-.71v0c-1.22-1.94-2-3.82.81-5.11l.07-.06C62,33,69.87,33.31,76.24,31.33c-1.88-.39-5.27,2.79-5.85-1.21C70,27.53,69.59,23.39,74.1,22.46Z"/><path class="cls-26" d="M74.1,22.46c-3.25,1.47.37,5.63-2.88,7.38-.56.3,1,1,2,.93,2.06-.08,4.13,0,7.27,0-4.17,1.55-7.33,2.91-10.6,3.89s-6.92.87-8.07,5.21c-.18.66-2,.88-3.08,1.3-.61-3.15-2.37-3.22-4.7-1.78-1.68-2.35.25-4.07,1-6,4.46-8.13,10.9-13.93,19.74-17,.54.23.49,1.54,1.75.6.75-.56,2.67-.77,2.33,1.48Z"/><path class="cls-27" d="M97,28.17l.92-.4c1.15-1.66-.36-4.86,3-5.24,1.52,1.26,4.25.5,5,3,.42,2,1.6,4-.24,5.89-1.35,1.06-2.76.59-4.16.15-5.35,1.57-7.1,6.5-9.83,10.51-5.07,1.85-9,5.24-12.79,9-2.24,2.24-4.76,4.16-8,4.48-2.41.24-4.9.06-4.11-3.6,4.48-6.11,8.29-13,16.41-15.1,1.87-.49,2.46-2,3.42-3.35C89.15,30,92.06,27.14,97,28.17Z"/><path class="cls-28" d="M15.85,54.18,15,52.35c0-3.75.92-4.3,5-3.07l9.87,6c2.61,1.06,3,3.16,2.21,5.47-.65,2-1.86,3.51-4.37,2.64-3.81-1.12-6.77-3.8-10.2-5.62C16.26,57.17,15.08,56,15.85,54.18Z"/><path class="cls-29" d="M44.85,29.43a3.47,3.47,0,0,1-3.83,2c-1.7-5.6-5.91-3.33-9.4-2.86-1.61.22-3.17.86-4.84.54,4-4.16,9.29-3,14.15-3.89C45.43,24.33,45.74,26,44.85,29.43Z"/><path class="cls-30" d="M102,29.56c.94.66,1.52,1.94,3,1.73,3.42,1.65,2.44,4.62,2.11,7.33-.16,1.27-1.34,2.3-1.11,3.73-.29,2.2.53,4.74-1.91,6.28a2.85,2.85,0,0,1-1.67-2.2C98.77,40.89,98.79,35.26,102,29.56Z"/><path class="cls-31" d="M55.12,33.38c0,2.06-1.56,3.84-1,6a29.42,29.42,0,0,1-.48,3.39c-.47,1.89.41,5.25-3.22,4.33-2.68-.68-6-1.85-3.68-6,3,1.43,4.45-.4,5.64-2.76C53.2,36.65,53.25,34.5,55.12,33.38Z"/><path class="cls-32" d="M106,42.35c-.71-.64-2.48-.72-1.27-2.38,2.08-2.83,1.43-5.75.27-8.68a11.2,11.2,0,0,0,1-5.76,19.88,19.88,0,0,1,2.77,12.54C108.47,39.84,107.92,41.6,106,42.35Z"/><path class="cls-33" d="M100.89,22.53c-2,1.15-1.51,3.78-3,5.24-1.39-2,2.6-4.64-.83-6.34-.43-.08-.85-.17-1.27-.28-2.5-.63-4.72.75-7.09,1-2.57.2-5,2-7.69.47l-1.58-.3a29.94,29.94,0,0,1,20.44-3.51C103.37,19.45,102.19,20.84,100.89,22.53Z"/><path class="cls-34" d="M29,39.23c3-2,4.49-1,4.79,2.37s.56,6.43-2.1,8.94c-.06.06-.36,0-.41-.08a9.32,9.32,0,0,1-.33-.88C32.4,45.73,29.71,42.66,29,39.23Z"/><path class="cls-35" d="M51.47,15.27C52,21,58.09,24.18,54.26,29.82,51.07,25.78,50.06,21.47,51.47,15.27Z"/><path class="cls-36" d="M103.83,45.13c.07,1.17.14,2.33.2,3.5a3.27,3.27,0,0,0,2.5,1.76c.09,2.65.18,5.29.28,7.94-4.37.37-3.58-2.42-3.1-5l-1.83-2C101.93,49.08,98.24,45.64,103.83,45.13Z"/><path class="cls-37" d="M20,49.28c-2.19.19-4.59,0-5,3.07-1.94-.1-2-1.54-2.13-3a29.55,29.55,0,0,1,1-5.19c0-.34.05-.68.08-1C18.2,43,19.1,46.11,20,49.28Z"/><path class="cls-16" d="M114.6,60.35c.48,2.26-.31,3.66-2.7,4-3.06,1.53-4.47.09-3.91-2.78.26-1.32-.21-3,.94-4.1l.07-.08C110.77,58.54,112.43,59.93,114.6,60.35Z"/><path class="cls-38" d="M11.73,32.13C7.44,28.94,7.66,25.3,8.39,21.51,9.6,24.75,12.39,27.44,11.73,32.13Z"/><path class="cls-39" d="M19.07,32.13c-.45.45-.91.9-1.36,1.36-1.61.65,1.14,2.89-1,3.06A3.69,3.69,0,0,1,12.88,34c-.42-1.89,1.85-2,3.07-2.53C16.85,31.06,18.9,28.39,19.07,32.13Z"/><path class="cls-40" d="M78.94,18.51c-.66-2.07-4.51,2.13-4.08-2.08,1.56-2,3.65-2.36,6.25-2C81,16.24,79.78,17.28,78.94,18.51Z"/><path class="cls-41" d="M23.11,37.23c3-2.35,6.16-.46,9.27-.14l-4.45.4Z"/><path class="cls-42" d="M67.84,52.19c-.51,1.46-.21,2.13,1.55,2,3.77-.2,6.44-2.15,8.86-4.85,3.64-4.07,7.27-8.28,13.48-8.13,3.19.23,4.09,2.34,4.18,5.11-2.17,2.32-4.5,0-6.74.23.35,2.15.31,4.12-1.22,6-3.85,4.79-10,6.66-14.06,11.12a2.39,2.39,0,0,1-1.87.44c-4.94-.83-7.1,2-8.22,6.16-2.53,1.26-4.78.07-7.07-.78.8-.27,1.94-.84,1.3-1.61-2.58-3.1-1.27-8.62-6.42-10.12-1.77-.52-.5-1.39.06-2.08,1.5-1.81,3.34-.68,5-.53,1.36.12,2.72.29,3.51-1.1s-.43-2-1.22-2.83c-1.35-1.39-2-3-1.1-4.93,5-1.44,9.6-4.07,14.94-4.16,1,1.55-.25,2.51-1,3.39-3.4,3.77-8.1,6.41-9.16,11.49C65.27,57.15,62.57,49.86,67.84,52.19Z"/><path class="cls-5" d="M6.18,77.11c-.81-2.69.36-4.57,3-4.63,8.65-.19,17.19-3.26,25.92-1,2.79,1.22,3.59,3.09,1.88,5.77a1.17,1.17,0,0,1-1,.83c-3.88.74-7.62-.49-11.35-1C18.4,76.16,12.31,77.17,6.18,77.11Z"/><path class="cls-43" d="M35.93,78.06l1-.83q25.05.55,50.11,1.12A13.38,13.38,0,0,1,89.9,79C71.85,82,53.9,79.55,35.93,78.06Z"/><path class="cls-13" d="M108.93,57.45c-1,1.39,1.56,2.38.13,4.38-1.32,1.84,1.13,2.42,2.84,2.5.36,3.28-1.84,5.12-4,7a23.9,23.9,0,0,1-6.34-5.2C105.29,64.29,107.13,60.89,108.93,57.45Z"/><path class="cls-44" d="M15.85,54.18c3.1,4.16,9.55,4,11.84,9.25,0,2.71-2.22,1.68-3.16,1.49a50.67,50.67,0,0,0-14.48-.85,4.43,4.43,0,0,0,0-1C8.47,57.84,10.6,55,15.85,54.18Z"/><path class="cls-28" d="M13.83,44.2c.76,1.94,3,4.16-1,5.19C8.6,46.78,12.18,45.67,13.83,44.2Z"/><path class="cls-26" d="M58.72,41.21c-1.49,1.51-.62,3.4-.81,5.11A3.56,3.56,0,0,1,56,41.94C56.36,40.16,57.77,41.37,58.72,41.21Z"/><path class="cls-45" d="M95.91,46.36c-2.21-1-3-3.24-4.18-5.11C91.4,36.87,97.44,30,102,29.56c1.78,3.22,0,6.7-.28,9.71s1.23,4,2.13,5.86c-3.57,1.15.48,4.7-2,6.2C99.67,49.94,95.83,50.5,95.91,46.36Z"/><path class="cls-46" d="M103.71,53.3c-.24,2.46,1.31,3.81,3.1,5-2.2,2.89-3.68,6.67-8.58,6.87.56-2.37,4.62-6-1.84-5.68-1.57.07-1.45-1.9-1.4-3.22.05-1.52.2-3.1,1.9-3.67,1.41-.46,3.18-.75,4,.9C102.17,56.35,102.85,54.56,103.71,53.3Z"/><path class="cls-47" d="M67.84,52.19c-2,0-2.79,1.29-3.4,3-.89,2.49-2.64,3.66-4.85,3.09,4.18-5.47,7.77-11.59,13.25-16.08a20.11,20.11,0,0,1,6.67-5c3.41-1.6,6.57-3.49,8.8-6.82,2-3.06,5.14-3.88,8.63-2.18a11.83,11.83,0,0,0-10.48,7.22c-.6,1.25-.78,2.86-2.88,2.87-4.71,0-7.52,3.1-9.75,6.71C72.16,47.68,69.89,49.83,67.84,52.19Z"/><path class="cls-48" d="M96.66,20.28c.12.38.25.76.38,1.15-3.88,5.09-14.32,8.79-20.1,7.08-.11-1.53,1.37-1,2-1.55.81-.63,3.81-.54.19-2.05-1.37-.57,2.31-.6,1.83-2.29,2.74-.6,5.13-2.51,8.13-2.11C91.67,21.69,94.11,19.25,96.66,20.28Z"/><path class="cls-25" d="M96.66,20.28c-2.5.64-5,1.9-7.54.23C91.63,20.41,94.08,18.27,96.66,20.28Z"/></g></g></svg>