<svg xmlns="http://www.w3.org/2000/svg" viewBox="0 0 119.32 95.06"><defs><style>.cls-1{fill:#bc4340;}.cls-2{fill:#ba3935;}.cls-3{fill:#9b2f2d;}.cls-4{fill:#942d2a;}.cls-5{fill:#6c4032;}.cls-6{fill:#993a37;}.cls-7{fill:#b23632;}.cls-8{fill:#802724;}.cls-9{fill:#7b271f;}.cls-10{fill:#5c1d14;}.cls-11{fill:#c24845;}.cls-12{fill:#d3bdac;}.cls-13{fill:#982522;}.cls-14{fill:#ae9889;}.cls-15{fill:#887163;}.cls-16{fill:#78312b;}.cls-17{fill:#d3b2a3;}.cls-18{fill:#ddc7b9;}.cls-19{fill:#968373;}.cls-20{fill:#594b43;}.cls-21{fill:#dbb8a8;}.cls-22{fill:#9f7a75;}.cls-23{fill:#7a6a5a;}.cls-24{fill:#d1beb2;}.cls-25{fill:#d4c7b8;}</style></defs><g id="Layer_2" data-name="Layer 2"><g id="Layer_1-2" data-name="Layer 1"><path class="cls-1" d="M3.18,70.47C1.08,60.87,2,51.06,1.24,41.37.48,31.22-.33,21,.14,10.79A15,15,0,0,1,.77,5.92l.39,5.68.51.08L2.86,5.75c2.62-3.26,6.47-1.5,9.62-2,8.46-1.27,17.06-2.06,25.63-.23a53.06,53.06,0,0,1,5.32,1.17c3.57,1.17,4.76,3.35,4,7.24-.78,4.17-2.1,8.4-1,12.75A2.57,2.57,0,0,1,45.79,27,5.18,5.18,0,0,1,43,28.06a21.3,21.3,0,0,0-5.82,3.46A4.4,4.4,0,0,0,36,35.58c.84,4.35.36,8.77.69,13.15-.1,1.19,0,2.37-.09,3.56.5,3.22.8,6.39-2.28,8.66-.73.65-1.69,1.25-1.83,2.22-.24,1.72-3.56,2.35-2,4.22,1.25,1.51,3.32-.19,5-.47a10.13,10.13,0,0,0,1.81-.71,6.72,6.72,0,0,1,2.87-.49c1.23.26,2.44.57,3.1,1.81-.53,3.1-3.3,3.38-5.51,4.13-4.47,1.52-9.1,2.54-13.57,4.09-2-4.4-1.14-9-.38-13.38C25.24,54,23,45.55,25.37,37.31c-1.61,6.56-.82,13.56-4.45,19.66a3.65,3.65,0,0,0-.52,2.87A15.82,15.82,0,0,1,16.2,75c-3.64,3.39-3,10.48-9.59,10.86a1.86,1.86,0,0,1-1.2-.7C4.61,80.3,4.2,75.34,3.18,70.47Z"/><path class="cls-2" d="M50.1,6.59,53,7.75c4.75,1.16,9.19-.65,13.72-1.52a19.38,19.38,0,0,1,4.39-.5c15.19.55,12.08.83,12.68,14.61.23,5.5-1.64,11-.43,16.65a15.11,15.11,0,0,1-1.12,9.69c-2.14,4.7.31,9.8-.63,14.73-.32,1.73.05,3.59-.9,5.28-1.67,3-1.21,6.1-.72,9.24C80.87,81.49,77.16,86,71.63,85c-4.18-.76-7,.47-9.84,3.06a60.67,60.67,0,0,1-8.9,2.33c-2.41.26-4.61-.39-4.77-3-.35-6.06-.68-12.16,1.06-18.1A4.31,4.31,0,0,1,51,67c1.41-1,3.34-1,4.64-2.23A5.87,5.87,0,0,1,57,64.25c2.46-.34,4.95-.17,7.42-.31,1.93-.11,3.75-.56,3.18-3.23-.93-3.31-5.41-4.73-4.75-8.88a14.18,14.18,0,0,1,.46-2c-.06-5.56.3-11.12.17-16.67-.11-4.81-1.11-5.55-5.36-4.82a5.3,5.3,0,0,1-1.37-.22,10.07,10.07,0,0,1-7.31-6.65,91.92,91.92,0,0,1-1-9.63C48.37,9.92,48.09,7.85,50.1,6.59Z"/><path class="cls-3" d="M61.92,87.34c1.84-3.22,3.27-6.93,8.31-4,2.39,1.37,4.35-.72,6.6-1.6,4-1.58,1.46-3.34,1.33-5.28-.25-3.86-.76-7.48,1.33-11.48,1.6-3.06.72-7.52.54-11.34-.12-2.72-1.08-5.18.85-7.93A8,8,0,0,0,82,39.1c-2.42-8.88.62-17.79.26-26.76C82.05,7,79.1,7,76,6.6c-4.81-.67-9.55.43-14.25,1.48-2.91.66-5.87,1.09-8.73-.33,6.86,0,13.18-3.33,20.06-3.25,4,0,8,2.3,11.89-.21,1.65.7,3.69-.3,5.18,1.15a5.83,5.83,0,0,1-1.43,2.37c-2.31,2.36-3.12,5-1.78,8.19a7.5,7.5,0,0,1,.19,4.43c-1.25,6.11-.79,12.22-.32,18.38a117.3,117.3,0,0,1-1.7,30.5c-.21,1.14.56,2.29-.17,3.74a4.41,4.41,0,0,1,4.34.6c1.57,1.4,1.92,3.17.73,4.82A13.24,13.24,0,0,0,87.83,85,43.83,43.83,0,0,1,96,86.48,44.91,44.91,0,0,1,104.18,90c2.7,1.45,3.26,3.19-.1,4.68-1.47,0-3,.25-4.14-1-10-4.65-20.46-7.32-31.63-6.34A22.43,22.43,0,0,1,61.92,87.34Z"/><path class="cls-4" d="M50.1,6.59c-.05,4.18-.41,8.39,1,12.44.44,1.22-.69,1.67-1.16,2.45a4.59,4.59,0,0,1-1.52,3.65,2.23,2.23,0,0,1-2.52.54c-4.41-4.89-.91-10.12-.11-14.95.48-2.91-.11-3.55-2.29-4C35.28,4.91,27,3.72,18.48,5.19A37.44,37.44,0,0,1,7.1,5.3c-1.52-.2-2.91-.58-4.24.45-1.09-1.84.27-2.14,1.56-2.31C6,3.23,7.59,3.42,9,2.53c1.8-3.34,4.28-2.94,7-1.27,8.26-1.18,16.48.18,24.72.27C45.07,1.58,47.32,4.3,50.1,6.59Z"/><path class="cls-5" d="M49.18,91.58c-10.59,3.23-21.31,1.2-32,.8-3.86-.88-7.69-1.85-11.57-2.61-1.85-.37-1.85-1-.66-2.11-.54-1.13-.8-2.12,1-2.14H6c2.67,1.45,5.76,1.39,8.56,2.38,7.46.88,14.9,2.25,22.46,1.2,3.07.21,6.15-1.16,9.21.05C47.32,89.8,48.62,90.24,49.18,91.58Z"/><path class="cls-6" d="M6,85.52c-.34.71-.67,1.43-1,2.14C1.8,82.2,1.82,76.4,3.18,70.47,6.75,75,6.33,80.26,6,85.52Z"/><path class="cls-7" d="M104.08,94.64c1.08-1.47,2.06-2.56-.87-3.4s-5.38-2.53-8-3.85c-1.13-2.61,0-4.82,1.3-6.94.9-1.47,1.82-3.09,1.19-4.67C95.38,70,98.66,64,97.58,58.9c-1.73-8.09,1.46-15.66,0-23.49-.74-3.89,1.76-8.08-.21-12.16-1.75-3.64,1-7.2.34-10.91-.28-1.57,1.7-1.63,3-2,.9-.26,2.83.78,2.38-1.58,3.13-.2,6.25-.45,9.38-.58,3.28-.15,5.51,1.37,5.55,4.73.06,4.9.57,9.85-.75,14.69-1.15-.7-.81.23-.91.79-2,12-1.45,24,0,36,.92,7.32,2.24,14.67,1.61,22.13-.11,1.33,0,2.67-1,3.74C113.42,93.93,109.34,96,104.08,94.64Z"/><path class="cls-8" d="M103,8.75l3.2,1.35c-2.65.94-4.61,2.7-7.11,1.87-2,1.33,3.35.89.22,3.42-2.51,2-.8,6.62.26,9.82.85,2.57,1,5-.17,7.16-.9,1.73-1.53,2.84.34,4.14.32.23.65,1,.5,1.26-2.71,4.68.45,10.17-1.53,14.45-1.71,3.68-.94,4.67,2.8,5.64-3.27,1.26-3.18,3.57-3.22,5.93,0,1.91,2.65,4.54-1.39,5.54-.76.19-.08.64.21,1,3.2,3.93,2.73,7,.22,11.55a21.57,21.57,0,0,0-2.2,5.51c-2.07.42-4-.27-6-.77-3.31-.85-3.86-4.06-1.68-7.06,1-1.37,3.07-2.84,1.42-5.11a4.15,4.15,0,0,0,.69-2.14c2.06-3.1-1.87-5.93-.4-9,3.07-7,.31-14.34,1.24-21.5,1-7.52-.24-15.19,1.63-22.73C93.29,14.32,91.48,10,88,6.49l2.16-1C95,4.43,98.3,9.34,103,8.75Z"/><path class="cls-9" d="M116.94,90.24c.07-9.41-1.47-18.58-2.76-27.88C112.46,50,111.27,37,116.59,24.06c.26,1.53.44,2.53.62,3.54,1.92,4.6-.45,9.12-.42,13.72,0,10.63.66,21.19,1.64,31.75.42,4.56,1.4,9.07.56,13.7C118.72,88.24,118.85,89.8,116.94,90.24Z"/><path class="cls-10" d="M49.18,91.58l-2.89-.93c1.81-2.81,4.61.42,6.64-1.09l9-2.22C75,84.93,87.64,86.22,99.59,92.42c.26.13.24.81.35,1.23-4.15-1.05-8.38-1.84-12.42-3.19-10.91-3.63-21.73-3.27-32.54.22A12.71,12.71,0,0,1,49.18,91.58Z"/><path class="cls-11" d="M37,90.38c-1,1.51-2.5,1.14-4,1.08a88.57,88.57,0,0,1-18.85-2.2A2.53,2.53,0,0,1,14.32,85C18.73,82.59,17,75.32,23,74.46c.4,0,.75.59,1,1,2.11-4.88,7.29-3,10.87-4.72,2.54-1.2,5.5-1.86,8.12-3.16,1.41-1.86,3.23-1.85,4.63-.35s-.44,2.65-1.19,3.78a8,8,0,0,0-1.55,5.52C45.66,83.89,43.56,87.43,37,90.38Z"/><path class="cls-6" d="M24,75.47l-4.18,4.61c-.63,3.84-5.66,5-5.65,9.18C11.55,87.76,7,90.59,6,85.52c2.66-2.38,7.18-3.84,4.4-8.94-.55-1,.21-1.31,1.17-1.59,5.39-1.59,8.85-9.55,6.58-15.4A2.05,2.05,0,0,1,18.54,57c3-3.25,3-7.21,3.58-11.33a83.87,83.87,0,0,0,1-11.48c0-.87.39-1.78,1.3-1.88s1.31.79,1.61,1.61c1.44,4,.76,8.16.06,12.13-.35,2-1.1,3.71,0,5.66s.67,4.35.35,6.28c-.59,3.62-2.2,6.92-.78,10.85C26.4,70.91,23.69,73,24,75.47Z"/><path class="cls-12" d="M48,24.46c-.06-1.48,1-2.25,2-3,2.31,2,4,4.7,7.08,5.82.58,2-1.29,4.39,1.16,6a3.07,3.07,0,0,1,.55,1.22c-.2,2.45-1.63,4.63-1.36,7.23S56.6,47.3,61.3,47.4c3,.06,1.45,3.46,2,5.34a1.63,1.63,0,0,1-1.37,1.37c-4.51,1.41-4.47,1.4-5.71-2.63-.26-.84-1.26-.17-1.89-.43s-.48-.08.11.09c1.91.56,0,3.86,2.89,3.88a19.44,19.44,0,0,0,5.32-.77c1.84,1.29,1.93,3,1,4.82-4,1.32-7.48-1.15-11.17-1.86-4.23-.8-10.46.56-12.69,4.27-1.89,3.12-3.74,3.3-6.27,1.06a1.79,1.79,0,0,1-.51-2.07c3.29-1.89,1.86-5.07,2.13-7.79,1.16-2,3.16-2,4.82-1.44,3.74,1.28,3.46-.79,3.61-3.39.2-3.26-1.52-7,1.79-9.71,1.13-.93-.39-.53-.58-.76a3.55,3.55,0,0,1-.09-4.93c.17-.23,1,.35.58-.59C44.05,29,44.1,29,47.68,27.36c1.21.05,2.43-.77,3.62.09,1.8,4.85,1,9.9,1.17,14.87-.14,1.32-2,1.86-1.59,3.58-.06-1.44.9-2.2,1.55-3.14.26-4.22-.18-8.43,0-12.64a2.94,2.94,0,0,0-1.88-3.07C49,26.87,46.73,27.39,48,24.46Z"/><path class="cls-13" d="M37,90.38c2.1-2.8,5.23-4.76,6.27-8.49.36-1.3,1-2.67.37-3.66-2.92-4.8.76-7.39,3.38-10.64H43c-1.06-.15-2.23,0-3-.93a2.84,2.84,0,0,1,2.34-1.61c1.54-.59,3.33.19,4.78-.89,2.8-.64,5.58-1.24,4.81,3.31-2.57,4.3-1.82,9.11-2.1,13.76-.08,1.46.31,3-.09,4.38-.93,3.14.77,3.78,3.24,4-2,1.54-4.46.55-6.65,1.09C43.23,89.47,40.09,90.9,37,90.38Z"/><path class="cls-14" d="M42.92,66.42l-3,.23-2,1a4.72,4.72,0,0,1-2.4.35c-1.68,0-4.14,1.38-4.73-1-.53-2.05.05-4.58,2.9-5.33,2.41.84,4.2,1.42,5.4-2.14s6.43-4.72,8.48-4.48c5.16.61,11.24-.2,15.41,4.42,1.21-1.95,2.73-1.75,4-.26,1,1.22.74,2.41-1,2.68,1.35.33,1.89-1.54,3.25-1.4,1.37,1.91,1.25,3.33-1.26,4.08a22.86,22.86,0,0,1-10.76.94c-1.66-2.22-2.7-5-5.88-5.73C46.38,58.68,43.11,61.23,42.92,66.42Z"/><path class="cls-15" d="M48.05,28.47C47.39,30,45.5,28.9,44.66,30c.46,2.31,2.81,1,4.12,2.21-3.15-.17-4.43,1.07-3.45,4.1.4-.69.62-1.58,1.18-1.93s1.28.25,1.32,1c.07,1.27.76,3.5-.4,3.61-4.69.46-1.74,3.68-2.34,5.56-.85,2.68,2.14,5.68-1.2,8.4-1.37,1.13-1,1.95-2.55.18-1.37-1.52-4-1-6.16-.45-.07-1.33-.15-2.66-.23-4,.5-3,.95-6,5.25-4.31.53,1.39.24,2.82.25,4.24,0,.94-.27,2.1,1.18,2,1.26-.07,1.27-1.19,1.34-2.15,0-2.77,0-5.55,0-7.79-.39,2.77.71,6.17-.63,9.42-1.92,1-1.79-.37-1.88-1.57-.38-4.92-1.22-9.8-1.2-14.75a4,4,0,0,1-.14-1.54c.31-2.27,2.43-3.6,3-5.76l3.16.07C46.23,27.16,47.59,27.15,48.05,28.47Z"/><path class="cls-16" d="M39.8,31.7a4.74,4.74,0,0,1,.05.65c-.3,1.19-1.54,1.62-2.07,2.62a5.28,5.28,0,0,0,1.69,6,3.73,3.73,0,0,1,.3,3.36c-1.13,2-4.4,1.56-4.82,4.33.88-5.92-1.51-11.79-.23-17.73.38-1.76.89-.8,1.5-.3C37.46,30.83,39,30,39.8,31.7Z"/><path class="cls-6" d="M33.69,61.68C31.91,63,30.55,65.41,31.56,67c1.3,2,4.21,0,6.36.67a15.86,15.86,0,0,1-7.49,1.8c-1.61,0-2.27-1-2.7-2.35S27.4,64.6,29,64.52c2.69-.13,1.48-4,4.09-4C33.26,60.88,33.48,61.28,33.69,61.68Z"/><path class="cls-17" d="M39.8,31.7c-1.24-.2-2.7.4-3.58-1,1.91-1.46,3.38-3.54,5.89-4.16C43.43,29.16,42.51,30.83,39.8,31.7Z"/><path class="cls-18" d="M48.05,28.47c-1.11-.37-3.3.85-2.79-1.9q.36-.45.69-.9l2-1.21c.16,1.88,1.44,2.11,2.94,2,.61.38.59.72-.06,1Z"/><path class="cls-19" d="M63,52.59C62,50.33,61.12,48.23,57.91,49c-1.47.37-1.94-.78-1.91-2.14.11-4.5-.75-9.14,2.16-13.17,1.19-1.11,2.87-1.07,3,.37.26,2.39,1.6,5.26-1.17,7.21-.63.44-1.65.2-2.14,1-.61.27.28.79-.12.26-.08-.1,0-.28.3-.32,4.7-.78,3.39-4.43,3.37-7.31,0-2.67-2-2-3.57-1.61-3.64-.48-3.77-1.47-.79-6l0,.09c.41.51.9,1.4,1.42,1.27,6-1.51,5.45,2.51,5.49,6.23.07,5.19-1.06,10.44.79,15.54-.24.37-.49.74-.73,1.12C63.65,51.85,63.53,52.46,63,52.59Z"/><path class="cls-20" d="M42.92,66.42c-3.33-1.55-3.44-3.6-.6-5.66,3.25-2.35,6.71-4.21,10.94-2.25,3.05,1.41,4.53,3.59,3.88,7-.27,0-.55,0-.82,0a5.69,5.69,0,0,1-5-.94c-1-.64-2.92-2-3.41.84C46.49,67,44.65,66.42,42.92,66.42Z"/><path class="cls-12" d="M64.79,50.44c-2.86-.56-1.7-2.89-1.75-4.44-.16-5.55-.06-11.1-.72-16.84-1.1,1.9-2.35,2.61-4,2.07-2.08-.67-1-2.5-1.18-3.83,2.37.9,2.37-3.75,4.62-2.2,2.48,1.7,3,4.63,3.06,7.52C64.82,38.62,64.79,44.53,64.79,50.44Z"/><path class="cls-21" d="M63,52.59l1.09-1c-.47,4.21,4.42,5.37,5.09,8.94-2,2.85-4.67,1.77-7.87,1.83,1.83-2.19,3.85,0,5.09-1.78-.64-1.82-1.88-1.8-3.39-1.07-.08-1.67.27-3.39-.54-5-.65.13-.9-.12-.77-.77Z"/><path class="cls-22" d="M47.93,65.45c-1.72,0-2.57-1.25-2.12-2.52.68-1.93,1.72-.09,2.63.14,2.68.66,5.66.33,7.87,2.48-.78,2.22-2.69,1.87-4.43,1.92C51.1,65.74,50.53,63.61,47.93,65.45Z"/><path class="cls-2" d="M88,6.49c5.2,1.64,7.92,7.92,5.76,14-2.36,6.63-1,13.48-1.28,20.2-.11,2.42-.46,5-.59,7.44a12.14,12.14,0,0,0,.56,5.1c1,2.61-.22,7.92-2.48,10.22-.9,3.34-.22,6.68,0,10,.7,1.37-.6.7-1,1-1.88-.34-4-1.55-5,1.91-.12-2.61,1.21-5-1.19-6.75-.52-.38-.57-1,.36-1.46,2.65-1.37,2.34-4.23,1.8-6.18a14.12,14.12,0,0,1-.27-7.26c2.34-8.3-.3-16.47,0-24.68.11-3.26-.32-6.54.86-9.71A4.52,4.52,0,0,0,85.33,16C82.37,11.74,85.17,9.12,88,6.49Z"/><path class="cls-3" d="M89.94,73.49c-2.28-.24-3.62-.88-1.68-3.33,1.54-2-1.86-5.21,1.7-6.7.23,1.12.07,2.71.76,3.29C94,69.54,92.13,71.48,89.94,73.49Z"/><path class="cls-19" d="M61.67,53.72l.77.77c-3,.78-6.23,3.08-7.91-2-.52-1.58-2.72-.61-4.7-1.67H59.7c-.73,1.41-4.25,0-3.24,2.46C57.37,55.47,59.83,54.42,61.67,53.72Z"/><path class="cls-15" d="M50.85,27.49l.06-1c3,1.71,1.92,4.57,1.81,7-.15,3.32,1.29,6.78-.76,9.94l.07.09C51.65,38.19,52.61,32.74,50.85,27.49Z"/><path class="cls-23" d="M52,43.45a5.41,5.41,0,0,1,.38,1.91c-.27,1.41.92,3.48-1.49,4-1.28.28-1.61-.7-1.68-1.8-.14-2.14-.45-4.36,2.86-4Z"/><path class="cls-23" d="M46.88,44c1,2.15,1.22,4.15-.06,6.11C45.43,48.08,46,46,46.88,44Z"/><path class="cls-15" d="M50.93,40.26c-2-2.56-1.94-4.12-1-6.26C51.93,35.76,51.09,37.51,50.93,40.26Z"/><path class="cls-24" d="M39.77,44.36l-1.05-2.71c-2.62-2.12.23-6-2.63-8.06.7-2.09,2.53-.76,3.76-1.24,2.57,3,.78,6.52,1.12,9.78.24,2.4.16,4.84.24,7.26,0,.08.22.22.34.23a1.33,1.33,0,0,0,.46-.13,1.06,1.06,0,0,1,1.72,0c-.6,4.37-3.49-.14-5,1.72C40.36,48.77,40.05,46.56,39.77,44.36Z"/><path class="cls-25" d="M43.73,49.48H42V33.1h1.62A98.31,98.31,0,0,1,43.73,49.48Z"/><path class="cls-15" d="M36.09,33.59c4.21,0,3.27,3.21,3,5.51a6,6,0,0,0-.34,2.55C33.88,40.25,36.77,36.34,36.09,33.59Z"/><path class="cls-12" d="M57.86,33.34c3-1.26,4.55-.25,4,3-.4,2.65,2.05,6.91-3.59,7-.28,0-.54,1.36-1,2C57.55,43.27,55,40,60,39.94c1.61,0,1-2.17,1-3.4.06-1.9-.46-3.35-2.86-2.84Z"/></g></g></svg>