<svg id="Layer_1" data-name="Layer 1" xmlns="http://www.w3.org/2000/svg" viewBox="0 0 220 352"><defs><style>.cls-1{fill:#fff;}</style></defs><path d="M220,41.64c-1.54.24-3.25,1-4.6.64A277,277,0,0,0,159.2,32c-37.91-3.17-74.95.42-110.2,15.79A159,159,0,0,0,33,56.4c-4.82,2.79-7.26,2.28-9.6-2.77-1.27-2.74-2.74-3.75-5.54-1.39L56.32,154.48l3.4-1.62c-1.46-4.9-3.09-9.64-4.28-14.5-3.86-15.79-2-31.13,4-46.09,2-5,4.08-9.94,6-15A43.3,43.3,0,0,1,82,56.58c3.07-2.08,6.4-3.85,9.16-6.27s5.27-5.67,8.3-9c3.59,4.4,7.28,8.9,11,13.4l1.34-1.25-1.85.67C122,59.55,129.4,69,134.62,80.6L125.86,73l-.47.5c2.93,3,6.08,5.82,8.75,9,15.84,19.07,25.9,40,19,65.52a47.34,47.34,0,0,1-17.64,25.61c-3.12,2.37-6,5-9,7.61-5.09,4.44-6.22,9.93-4,16.13.95,2.62,2.34,5.09,3.47,7.64,2.84,6.42,1.74,11.32-3.6,16-1.27,1.11-2.69,2-3.92,3.18a3.42,3.42,0,0,0-1,2.51c5.08-2.19,10.73-3.46,13.94-8.13a11.39,11.39,0,0,0,1.67-8.13,124.11,124.11,0,0,0-5.79-17.16c-1.81-4.57-1-8,2.55-11.47,5.66-5.44,11-11.2,16.39-16.94,1.57-1.67,2.88-2.2,5.24-1.53,10.22,2.91,19.12,7.75,25.73,16.26a27.85,27.85,0,0,1,1.84,2.82,20.28,20.28,0,0,1,.86,1.86c-5,.51-9.72,1-14.44,1.49a23.65,23.65,0,0,0-2.64.51c-13.51,3.06-17.38,8-17,21.83.08,3.26.16,6.52.46,9.75,1.53,16.44-5.69,28.66-19.18,37-8.62,5.31-18.18,9.1-27.53,13.67q13.2,34.74,27,71l-7.35,3.05c-12.37-32.85-24.62-65.41-36.88-98l-1.22.18a14.39,14.39,0,0,0,.41,3.25q10.29,27.54,20.66,55.05,7,18.56,14,37.11c.37,1,.66,2,1,3l-1.28.47c-7.91-20.9-15.81-41.79-24-63.37-4.13,10.89-5.56,22.38-14.8,29.85-1,.84-2.51,1.18-4.24,2,8.24-9.77,10.08-20.35,7.85-32-1.13-5.89-.79-11.56,3.19-16.6.72-.91.42-2.63.2-4-5.67,7.37-7.09,15.27-5,24.29a28.47,28.47,0,0,1-4.27,22.52,8.09,8.09,0,0,1-7.64,4,29.15,29.15,0,0,0-3.37,0c-9.57.61-12.39-5.18-11.57-13.13A69.2,69.2,0,0,1,54.55,284c2.75-9.06.12-17.47-2.22-26-1.65-6-3.54-12.09-4.32-18.26-1.31-10.41,1.43-14.51,10.86-19.07,1.19-.57,2-2,3.23-3.42-8.75-1.25-17.44,5-18.7,13.65-.68,4.61,0,9.58,1,14.22,1.49,7.34,4,14.46,5.47,21.81.77,3.92.14,8.1.14,12.16l-1.33.11a31.2,31.2,0,0,0-1.16-4.57c-3.12-7.42-6.2-14.87-9.59-22.18-3.72-8-6.75-16.07-6.17-25.16.82-12.78,7.85-21.41,19.9-23.73,3.38-.65,6.86-.8,11.27-1.29-1.36-.65-1.86-1.1-2.34-1.08-4.71.2-9.46.16-14.11.8-9.37,1.29-14.61,6.69-16.07,15.93a12.24,12.24,0,0,1-1.57,4.66c-.78-1.38-2.23-2.78-2.21-4.15a125.88,125.88,0,0,1,1.19-16.7c.88-5.64,4.7-8.61,10.46-9.2,3.22-.32,6.39-1,9.8-1.58-4.46-2.33-17.44-.9-21.93,2.33-2.52-1.49-2.83-3.15-1.12-5.72a20.06,20.06,0,0,0,2.82-6.75c2.05-9.59,7.08-16.84,16-21.29a13.08,13.08,0,0,0,1.67-1.11c.08-.05.12-.18.29-.48-5.59-14.94-11.23-30-16.89-45.11Q18.67,85.69,8.47,58.65c-.54-1.44-.73-3.13-3.11-2.58-.43.1-1.43-1.21-1.78-2-1.28-3-2.4-6-3.58-9V43.66c.67-.7,1.62-1.29,2-2.12,1-2.4,6.74-6.14,9-5s3.25.06,4.7-.84C52.07,13.19,91.58,4.14,134.11,8.86c29.64,3.29,57,13.51,82.77,28.27A25.42,25.42,0,0,1,220,39.62ZM61.92,98.07a52,52,0,0,0-5.53,33.15c2.92,19.25,11.41,35.94,24.18,50.54,2,2.26,4,4.5,6,6.75-3.29-7-7.18-13.55-11-20.09-6.49-11-13.17-22-14.46-35.13-.85-8.63-1.74-17.21,3.8-24.94,7-9.83,16.6-16.7,26.87-22.52a15.07,15.07,0,0,1,15.52.19,116.58,116.58,0,0,1,13.35,9.08c14.5,11.76,27.22,35.45,14.86,59.67l-3.27,6.4a4.68,4.68,0,0,0,2.17-1.73c8.55-11.54,10.31-24.46,6.92-38-4.45-17.75-15.89-29.94-31.88-38.36-7.61-4-14.8-3.32-21.48,1.51-6.35,4.61-12.4,9.66-18.38,14.75-6.91,5.86-10.94,13.23-11,22.52,0,2.66-.42,5.32-.69,8.53-.21-.87-.32-1.19-.36-1.52-.06-.67,0-1.34-.11-2a58.41,58.41,0,0,1,4.88-28.48c3.39-6.22,6.8-12.42,8.29-19.42C67.65,84.71,65,90.6,62.42,96.49A12.09,12.09,0,0,0,61.92,98.07Zm152.52-59C154.7,2.64,77.58-1.47,16.07,38.76,17,41.33,17.88,44,19,46.53a2.91,2.91,0,0,0,1.83,1.66c2.7.19,3.79,1.9,4.78,4.08,1.76,3.89,2.34,4,6,2,.59-.32,1.19-.64,1.76-1C59.46,37.21,88.5,31,118.59,29.1c12.74-.79,25.61-.11,38.38.56a261.09,261.09,0,0,1,29.1,3.25C195.76,34.52,205.3,37,214.44,39.07Zm-126.76,92c-.25,5.55,2.33,7.18,6.56,8.39a21.4,21.4,0,0,0,16.33-1.6c1.07-.54,2.28-3,1.87-3.8-1.54-2.88.83-3.54,2.22-3.68,6.28-.66,8.92-5.27,11.14-10.06,1.09-2.37,2.25-6.67,1.16-7.67-2.4-2.19-.54-5.12-2.74-7.23-3.18-3.05-6.09-5.39-10.71-3.59,1.44-.55,2.87-1.11,4.37-1.7-13.24-12.78-27.7-12.84-35.71-.26l5.7,2c-4.07-.09-7.44-2.39-10.38.68-2.65,2.78-1.95,6.17-1.79,9.23-.94.69-1.92,1.55-2,2.48-.43,5.41,6.34,14.32,11.67,15.63,2.34.58,4.46,1.42,4.52,4.56ZM93.4,235.88c-.46,0-.8-.16-.86-.08-3.14,4.64-7.65,5.83-12.91,5.2a1.55,1.55,0,0,0-1,.1c-2.86,2-2.69-.14-3.08-2-.26-1.25-1.08-2.39-2-4.26a4.41,4.41,0,0,1,.88-1.15c3.23-3,9.12-.5,11.43-5.45,3.39-.07,3.11-2.5,3.17-4.78,0-1.56.34-3.11.32-4.66a10.67,10.67,0,0,0-.64-2.59c-.77.66-1.86,1.18-2.26,2a13.69,13.69,0,0,0-.83,3.92c-.36,2.63-1.52,4.52-4.25,5.31-4.15,1.21-8.22,2.68-12.4,3.79-2.83.75-5.78,1.07-8.67,1.59l-.45-1.66c2.34-.95,4.7-1.89,7-2.86.92-.38,1.84-.79,2.72-1.25,3.48-1.84,6.87-3.87,10.45-5.47,1.7-.75,2.18-1.37,1.17-2.89-.59-.88-1.22-1.73-1.49-2.1L63,225.06c1.16-3,2.09-5.38,3.3-8.51-.89-.14-2.89-.71-3-.44-1.4,3.12-2.51,6.38-4.09,10.66-5.07,3.34-1.31,7.21,2.26,11.59l-2.94-1.6c.64,2-.07,5.52,3.84,3.47.26-.13,1.08.71,1.58,1.16s.91,1.3,1.52,1.53c7.22,2.67,14.42,1.59,21.51-.51A8.73,8.73,0,0,0,93.4,235.88ZM10.9,54.76l-1.39,0a14.43,14.43,0,0,0,.43,3.19q24.2,64.43,48.45,128.83Q64.12,202,69.91,217.2a10,10,0,0,0,1.75,2.25l.93-.75Q41.74,136.73,10.9,54.76Zm108.34,76.61c-4.46.23-4,3.13-3.91,5.65.1,5.22-1.14,10.37-6.65,11.47a37.54,37.54,0,0,1-16.14-.22c-6.16-1.58-6.37-7.69-6.45-13.07,0-3.09-.1-3.28-2.55-3.48.3,5.34.59,10.81.95,16.28a3.64,3.64,0,0,0,.69,1.84c1.54,2.07,2.89,4.4,4.83,6a10,10,0,0,0,5.41,1.72,79.6,79.6,0,0,0,10.7,0c1.76-.11,4.08-.35,5.12-1.47,3.13-3.42,7.18-6.57,5.17-12.43-.57-1.66.49-3.92,1-5.87S118.54,133.74,119.24,131.37Zm-52.21-9a74.74,74.74,0,0,0,3.44,26.79c6.44,20.3,18.33,37.28,32.67,52.69,1.4,1.51,3.86,2.05,5.83,3l.67-.85C88,180.65,70.39,155.22,67,122.37Zm70,25.4c-2.37,2.59-4.5,5.52-7.22,7.75a66.46,66.46,0,0,1-9.37,5.92c-11.54,6.62-16.5,19.57-11.74,31.9-.1-2.21-.16-3.88-.26-5.55-.58-10.5,3.51-18.47,12.76-23.74a57.67,57.67,0,0,0,7.84-5.21C132.69,155.87,136,152.5,137,147.77ZM90.87,220.86c-1,5.15-1.87,9.59-2.82,14.48-3.12.27-6.31.49-9.5.84a3.21,3.21,0,0,0-2.13,1,2.1,2.1,0,0,0,.64,2,3.81,3.81,0,0,0,2.42.07c2.24-.45,4.49-.93,6.67-1.59,1.06-.32,2.49-.83,2.9-1.67A21.89,21.89,0,0,0,90.87,220.86Zm9.63-44.28c-2-2.26-5.4-5.86-8.52-9.68a118.76,118.76,0,0,1-8.84-11.82c-2.53-4-4.43-8.4-7-13.33C79,154,92.82,172.67,100.5,176.58ZM81.79,206l-.93-.2c-.41.8-1.21,1.63-1.15,2.4a57,57,0,0,0,1.14,7.92c.16.72,1.18,1.25,1.81,1.87.71-.87,2.17-1.91,2-2.59C84,212.16,82.79,209.07,81.79,206ZM56,229.28c-1.89.72-3.64,2.45-3.08,4.8.31,1.29,2.5,2.14,4.51,3.7ZM5.92,42.27l-1.59.59L8.55,53.73l1.5-.58ZM84.46,209.51l-.66.58a49,49,0,0,0,2.65,4.49c.29.42,1.26.35,1.92.5,0-.59.22-1.4-.08-1.75C87.11,212,85.75,210.78,84.46,209.51Z"/><path class="cls-1" d="M214.44,39.07c-9.14-2-18.68-4.55-28.37-6.16A261.09,261.09,0,0,0,157,29.66c-12.77-.67-25.64-1.35-38.38-.56C88.5,31,59.46,37.21,33.32,53.29c-.57.35-1.17.67-1.76,1-3.65,2-4.23,1.88-6-2-1-2.18-2.08-3.89-4.78-4.08A2.91,2.91,0,0,1,19,46.53C17.88,44,17,41.33,16.07,38.76,77.58-1.47,154.7,2.64,214.44,39.07ZM166.66,22.13C114.61,5.68,65.49,12.73,18.53,40l2.23,4.44C66.45,17.59,115.12,10.28,166.66,22.13Z"/><path class="cls-1" d="M87.68,131.05l2.22,3.38c-.06-3.14-2.18-4-4.52-4.56-5.33-1.31-12.1-10.22-11.67-15.63.07-.93,1.05-1.79,2-2.48-.16-3.06-.86-6.45,1.79-9.23,2.94-3.07,6.31-.77,10.38-.68l-5.7-2c8-12.58,22.47-12.52,35.71.26-1.5.59-2.93,1.15-4.37,1.7,4.62-1.8,7.53.54,10.71,3.59,2.2,2.11.34,5,2.74,7.23,1.09,1-.07,5.3-1.16,7.67-2.22,4.79-4.86,9.4-11.14,10.06-1.39.14-3.76.8-2.22,3.68.41.77-.8,3.26-1.87,3.8a21.4,21.4,0,0,1-16.33,1.6C90,138.23,87.43,136.6,87.68,131.05Zm16-18.53c1,2.46,1.2,4.93,2.55,6.11a10.67,10.67,0,0,0,17.16-5.15c1.43-5-1.67-8.25-6.71-6.77-3.08.9-5.92,2.56-8.94,3.71a53.26,53.26,0,0,1-5.46,1.5Zm-5.57-.43c-2-.83-4.28-1.91-6.66-2.77a55.43,55.43,0,0,0-8.6-2.66c-2.61-.47-4.59.89-5.05,3.72-.82,5.06,2.22,9.05,7.34,9.55a49.66,49.66,0,0,0,6.34,0c3.93-.13,5.11-1.34,5.66-5.35A10.45,10.45,0,0,1,98.13,112.09Zm3.28,18.34c-.18-.28,0,.21.3.46,1,.79,2.15,1.5,3.23,2.24.56-1.22,1.61-2.45,1.58-3.66a10.5,10.5,0,0,0-4.32-8.28l-1.37,3.21-1.71-3.84c-1.42,2.51-3,4.39-3.53,6.52-.43,1.81.42,3.92.7,5.9Z"/><path class="cls-1" d="M62.24,98.36a58.41,58.41,0,0,0-4.88,28.48c.06.67,0,1.34.11,2,0,.33.15.65.36,1.52.27-3.21.67-5.87.69-8.53.07-9.29,4.1-16.66,11-22.52,6-5.09,12-10.14,18.38-14.75,6.68-4.83,13.87-5.52,21.48-1.51,16,8.42,27.43,20.61,31.88,38.36,3.39,13.56,1.63,26.48-6.92,38a4.68,4.68,0,0,1-2.17,1.73l3.27-6.4c12.36-24.22-.36-47.91-14.86-59.67A116.58,116.58,0,0,0,107.24,86a15.07,15.07,0,0,0-15.52-.19c-10.27,5.82-19.83,12.69-26.87,22.52-5.54,7.73-4.65,16.31-3.8,24.94,1.29,13.15,8,24.11,14.46,35.13,3.86,6.54,7.75,13.06,11,20.09-2-2.25-4-4.49-6-6.75-12.77-14.6-21.26-31.29-24.18-50.54a52,52,0,0,1,5.53-33.15Z"/><path class="cls-1" d="M93.4,235.88A8.73,8.73,0,0,1,87,242.41c-7.09,2.1-14.29,3.18-21.51.51-.61-.23-1-1-1.52-1.53s-1.32-1.29-1.58-1.16c-3.91,2.05-3.2-1.49-3.84-3.47l2.94,1.6c-3.57-4.38-7.33-8.25-2.26-11.59,1.58-4.28,2.69-7.54,4.09-10.66.11-.27,2.11.3,3,.44-1.21,3.13-2.14,5.54-3.3,8.51l16.78-8.46c.27.37.9,1.22,1.49,2.1,1,1.52.53,2.14-1.17,2.89-3.58,1.6-7,3.63-10.45,5.47-.88.46-1.8.87-2.72,1.25-2.34,1-4.7,1.91-7,2.86l.45,1.66c2.89-.52,5.84-.84,8.67-1.59,4.18-1.11,8.25-2.58,12.4-3.79,2.73-.79,3.89-2.68,4.25-5.31a13.69,13.69,0,0,1,.83-3.92c.4-.85,1.49-1.37,2.26-2a10.67,10.67,0,0,1,.64,2.59c0,1.55-.29,3.1-.32,4.66-.06,2.28.22,4.71-3.17,4.78-2.31,4.95-8.2,2.44-11.43,5.45a4.41,4.41,0,0,0-.88,1.15c.91,1.87,1.73,3,2,4.26.39,1.88.22,4.06,3.08,2a1.55,1.55,0,0,1,1-.1c5.26.63,9.77-.56,12.91-5.2C92.6,235.72,92.94,235.83,93.4,235.88Zm-30.55-.74-.09,1.3,7.93.57.07-1.24Z"/><path class="cls-1" d="M10.9,54.76q30.84,82,61.69,163.94l-.93.75a10,10,0,0,1-1.75-2.25Q64.09,202,58.39,186.75,34.15,122.34,9.94,57.92a14.43,14.43,0,0,1-.43-3.19Z"/><path class="cls-1" d="M119.24,131.37c-.7,2.37-1.38,4.37-1.87,6.42s-1.53,4.21-1,5.87c2,5.86-2,9-5.17,12.43-1,1.12-3.36,1.36-5.12,1.47a79.6,79.6,0,0,1-10.7,0A10,10,0,0,1,90,155.84c-1.94-1.6-3.29-3.93-4.83-6a3.64,3.64,0,0,1-.69-1.84c-.36-5.47-.65-10.94-.95-16.28,2.45.2,2.5.39,2.55,3.48.08,5.38.29,11.49,6.45,13.07a37.54,37.54,0,0,0,16.14.22c5.51-1.1,6.75-6.25,6.65-11.47C115.28,134.5,114.78,131.6,119.24,131.37Z"/><path class="cls-1" d="M67,122.37c3.36,32.85,21,58.28,42.61,81.67l-.67.85c-2-1-4.43-1.53-5.83-3-14.34-15.41-26.23-32.39-32.67-52.69A74.74,74.74,0,0,1,67,122.37Z"/><path class="cls-1" d="M137,147.77c-1.07,4.73-4.34,8.1-8,11.07a57.67,57.67,0,0,1-7.84,5.21c-9.25,5.27-13.34,13.24-12.76,23.74.1,1.67.16,3.34.26,5.55-4.76-12.33.2-25.28,11.74-31.9a66.46,66.46,0,0,0,9.37-5.92C132.53,153.29,134.66,150.36,137,147.77Z"/><path class="cls-1" d="M90.87,220.86a21.89,21.89,0,0,1-1.82,15.07c-.41.84-1.84,1.35-2.9,1.67-2.18.66-4.43,1.14-6.67,1.59a3.81,3.81,0,0,1-2.42-.07,2.1,2.1,0,0,1-.64-2,3.21,3.21,0,0,1,2.13-1c3.19-.35,6.38-.57,9.5-.84C89,230.45,89.87,226,90.87,220.86Z"/><path class="cls-1" d="M100.5,176.58C92.82,172.67,79,154,76.18,141.75c2.53,4.93,4.43,9.32,7,13.33A118.76,118.76,0,0,0,92,166.9C95.1,170.72,98.5,174.32,100.5,176.58Z"/><path class="cls-1" d="M81.79,206c1,3.12,2.17,6.21,2.89,9.4.15.68-1.31,1.72-2,2.59-.63-.62-1.65-1.15-1.81-1.87a57,57,0,0,1-1.14-7.92c-.06-.77.74-1.6,1.15-2.4Z"/><path class="cls-1" d="M56,229.28l1.43,8.5c-2-1.56-4.2-2.41-4.51-3.7C52.36,231.73,54.11,230,56,229.28Z"/><path class="cls-1" d="M61.92,98.07a12.09,12.09,0,0,1,.5-1.58c2.6-5.89,5.23-11.78,8.11-17.55-1.49,7-4.9,13.2-8.29,19.42Z"/><path class="cls-1" d="M5.92,42.27l4.13,10.88-1.5.58L4.33,42.86Z"/><path class="cls-1" d="M84.46,209.51c1.29,1.27,2.65,2.47,3.83,3.82.3.35.07,1.16.08,1.75-.66-.15-1.63-.08-1.92-.5a49,49,0,0,1-2.65-4.49Z"/><path d="M166.66,22.13C115.12,10.28,66.45,17.59,20.76,44.47L18.53,40C65.49,12.73,114.61,5.68,166.66,22.13Z"/><path d="M103.7,112.52l-1.4-.6a53.26,53.26,0,0,0,5.46-1.5c3-1.15,5.86-2.81,8.94-3.71,5-1.48,8.14,1.8,6.71,6.77a10.67,10.67,0,0,1-17.16,5.15C104.9,117.45,104.68,115,103.7,112.52Zm12.68-1.37-.11-1c-.81-.24-1.74-.84-2.39-.62a16.39,16.39,0,0,0-3.25,2c.76.51,1.62,1.56,2.25,1.43A13.53,13.53,0,0,0,116.38,111.15Z"/><path d="M98.13,112.09a10.45,10.45,0,0,0-1,2.54c-.55,4-1.73,5.22-5.66,5.35a49.66,49.66,0,0,1-6.34,0c-5.12-.5-8.16-4.49-7.34-9.55.46-2.83,2.44-4.19,5.05-3.72a55.43,55.43,0,0,1,8.6,2.66C93.85,110.18,96.15,111.26,98.13,112.09ZM85,111.73l5.24.73c0-.74.36-1.9,0-2.15C88.64,109.06,86.81,108.3,85,111.73Z"/><path d="M101.41,130.43,96.29,133c-.28-2-1.13-4.09-.7-5.9.5-2.13,2.11-4,3.53-6.52l1.71,3.84,1.37-3.21a10.5,10.5,0,0,1,4.32,8.28c0,1.21-1,2.44-1.58,3.66-1.08-.74-2.19-1.45-3.23-2.24C101.38,130.64,101.23,130.15,101.41,130.43Z"/><path d="M62.85,235.14l7.91.63L70.69,237l-7.93-.57Z"/><path class="cls-1" d="M116.38,111.15a13.53,13.53,0,0,1-3.5,1.76c-.63.13-1.49-.92-2.25-1.43a16.39,16.39,0,0,1,3.25-2c.65-.22,1.58.38,2.39.62Z"/><path class="cls-1" d="M85,111.73c1.77-3.43,3.6-2.67,5.26-1.42.34.25,0,1.41,0,2.15Z"/></svg>