<svg id="Layer_1" data-name="Layer 1" xmlns="http://www.w3.org/2000/svg" viewBox="0 0 220 352"><defs><style>.cls-1{fill:#333;}.cls-2{fill:#6d6d6d;}.cls-3{fill:#040404;}.cls-4{fill:#2e2e2e;}.cls-5{fill:#0d0d0d;}.cls-6{fill:#242424;}.cls-7{fill:#303030;}.cls-8{fill:#2d2d2d;}.cls-9{fill:#222;}.cls-10{fill:#232323;}.cls-11{fill:#1d1d1d;}.cls-12{fill:#171717;}.cls-13{fill:#2a2a2a;}.cls-14{fill:#282828;}.cls-15{fill:#111;}.cls-16{fill:#020202;}.cls-17{fill:#292929;}.cls-18{fill:#202020;}.cls-19{fill:#262626;}.cls-20{fill:#161616;}.cls-21{fill:#212121;}.cls-22{fill:#252525;}.cls-23{fill:#414141;}.cls-24{fill:#101010;}.cls-25{fill:#4a4a4a;}.cls-26{fill:#2b2b2b;}.cls-27{fill:#919191;}.cls-28{fill:#1f1f1f;}.cls-29{fill:#b3b3b3;}.cls-30{fill:#1e1e1e;}.cls-31{fill:#898989;}.cls-32{fill:#dedede;}.cls-33{fill:#141414;}.cls-34{fill:#4c4c4c;}.cls-35{fill:#272727;}.cls-36{fill:#aaa;}.cls-37{fill:#131313;}.cls-38{fill:#3b3b3b;}.cls-39{fill:#6f6f6f;}.cls-40{fill:#191919;}.cls-41{fill:#4e4e4e;}.cls-42{fill:#010101;}.cls-43{fill:#070707;}.cls-44{fill:#323232;}.cls-45{fill:#060606;}.cls-46{fill:#090909;}.cls-47{fill:#030303;}.cls-48{fill:#1c1c1c;}.cls-49{fill:#151515;}.cls-50{fill:#1a1a1a;}.cls-51{fill:#0f0f0f;}.cls-52{fill:#050505;}.cls-53{fill:#080808;}.cls-54{fill:#0b0b0b;}.cls-55{fill:#4b4b4b;}.cls-56{fill:#4d4d4d;}.cls-57{fill:#0c0c0c;}.cls-58{fill:#0e0e0e;}.cls-59{fill:#181818;}.cls-60{fill:#1b1b1b;}.cls-61{fill:#0a0a0a;}.cls-62{fill:#121212;}.cls-63{fill:#3e3e3e;}.cls-64{fill:#6e6e6e;}.cls-65{fill:#525252;}.cls-66{fill:#6a6a6a;}.cls-67{fill:#5c5c5c;}.cls-68{fill:#424242;}.cls-69{fill:#2c2c2c;}.cls-70{fill:#515151;}.cls-71{fill:#363636;}.cls-72{fill:#606060;}.cls-73{fill:#5f5f5f;}.cls-74{fill:#696969;}.cls-75{fill:#6b6b6b;}.cls-76{fill:#2f2f2f;}.cls-77{fill:#636363;}.cls-78{fill:#646464;}.cls-79{fill:#595959;}.cls-80{fill:#505050;}.cls-81{fill:#353535;}.cls-82{fill:#666;}.cls-83{fill:#f7f7f7;}.cls-84{fill:#6c6c6c;}.cls-85{fill:#f1f1f1;}.cls-86{fill:#efefef;}.cls-87{fill:#3f3f3f;}.cls-88{fill:#313131;}.cls-89{fill:#626262;}.cls-90{fill:#686868;}.cls-91{fill:#3d3d3d;}.cls-92{fill:#373737;}.cls-93{fill:#5e5e5e;}.cls-94{fill:#434343;}.cls-95{fill:#616161;}.cls-96{fill:#454545;}.cls-97{fill:#343434;}.cls-98{fill:#ededed;}.cls-99{fill:#f5f5f5;}.cls-100{fill:#555;}.cls-101{fill:#3a3a3a;}.cls-102{fill:#535353;}.cls-103{fill:#383838;}.cls-104{fill:#565656;}.cls-105{fill:#e3e3e3;}.cls-106{fill:#e6e6e6;}.cls-107{fill:#f9f9f9;}.cls-108{fill:#dadada;}.cls-109{fill:#484848;}.cls-110{fill:#444;}</style></defs><path class="cls-1" d="M46.16,292.37a9.54,9.54,0,0,1-.62-4.26c.29-1.87.64-3.74-.22-5.56L44,275.61c-1.14-.8-.9-2.21-1.46-3.26-.2-.32-.12-.84-.67-.92q-.86-7-1.72-14c-3,6.92-3.48,14.65-7.91,20.92-1.68,1.07-1.21,2.62-.91,4.13.31,2.7-1.34,5-1.4,7.65-.41.51-.8.52-1.19,0-.52-4.07.86-8.23-.42-12.48-1.77.42-1.84,2.22-3,2.88-2,.26-1.9-1.21-1.87-2.41,0-1.58.53-3.12.57-4.69,0-.38-.16-.75-.23-1.14a5.49,5.49,0,0,1,.18,2.45,8.18,8.18,0,0,0-.36,2.3c-.59,1.87,0,3.83-.48,5.71l-.11.47c-1.79,3.82-1.47,8.12-2.79,12-.77.83-.4,1.75-.22,2.66-.18,1-.35,1.93-.52,2.89-.5.37-.95.39-1.33-.17-1-9.12-2.19-18.21-5-27a69.36,69.36,0,0,1-1.86-7.15l-.87,4.25a10.24,10.24,0,0,0-.14,6.15c-1.07,1.9-3.38,1.68-4.89,2.83-.71-.82-.16-1.77-.28-2.25a2.92,2.92,0,0,0,.28,2.24c-1.92,3.52-1.47,7.6-2.71,11.28-1.54.09-1.05-1.09-1.15-1.86-.28-2.21.54-4.5-.45-6.66a9.61,9.61,0,0,1,.11-4.88,4.73,4.73,0,0,0,.11-3.47,25,25,0,0,1,.47-7.27,1.25,1.25,0,0,1,.53.4,2.37,2.37,0,0,1,.3,1c0-.34,0-.68,0-1a15.37,15.37,0,0,0-.83-6.31C1.3,255-.19,249.16-.1,243.17a7.54,7.54,0,0,0,0-4.16c-.33-6.22,1.48-12,3.83-17.62,1.06-.55.9-1.56.92-2.5a2.63,2.63,0,0,1,1-1.56c.6-.4,1.29-.72,1.35-1.58a21,21,0,0,0,.18-3.45c-.41-2.93.58-5.79.35-8.71,1.6-3.52,1.62-7.49,3.19-11,1.4-3.16,3.16-5.73,7-6.07,2.16,1,4.31,2.12,6.53,1.3-1.78.7-2.77.17-2.26-2.19,3.46-3.55,8-5.12,12.48-6.77,2.88.15,5-2,7.66-2.51,2.5-.38,4.74,1,6.88,1-.72-.2-1.93-.14-2.28-1.5,0-2.73,2.28-4,3.68-5.84,4.13-2,7.17-5.41,10.74-8.13,1.6-1.23,1.39-3.61,1.76-5.56.75-3.95,3.28-5.53,7-4.51,2.82.74,5.3-.57,7.85-1.35,0,0,.24-.29.2-.3a.64.64,0,0,1,.26-.31c-.06,0-.34.14-.37.18-2.56,1.48-5.18,2.54-8.19,1.62-1.5-1-2.66-2.18-2.63-4.13.85-2.67,0-6,3-7.82a2.82,2.82,0,0,1,1.71-.51,2.69,2.69,0,0,1,.75,0c1.61-1.1,2.66-2.75,4-4.06a11.05,11.05,0,0,1,2-.72h0l-.41.12a6.3,6.3,0,0,1-2,.23c-3.41.78-4.1-2.15-5.55-4-.42-.83-.71-1.7-1-2.56a24.24,24.24,0,0,1-2-9.2,4.72,4.72,0,0,1,.27-1.67c.53-.82,1.06-1.63,2.25-1.27.75.87.75,2,1.14,3s.64,2.3,1,3.44c.18,1,1,1.74,1.55,3.17-.57-1.55-1.5-2.34-1.51-3.54-.8-2-1.16-4.18-2.13-6.14-1.93-.72-2-2.33-1.88-4,.11-1.82.47-3.65,0-5.48a14.32,14.32,0,0,1,.72-4.72c1.48-3.7,2.31-4.09,6.21-2.82a2.83,2.83,0,0,1,1,.53c.81,1.3,1.37,2.76,2.56,3.81,2.13,2.31,3.2,5.26,4.77,7.91a10.74,10.74,0,0,0,1.28,3.38,5.74,5.74,0,0,1,.4.83,25.8,25.8,0,0,0,2.55,4.41A17.6,17.6,0,0,1,90,123.44a12.27,12.27,0,0,0,1.89,2.74c.53,1.18,1.49,2.15,1.72,3.47A12.6,12.6,0,0,0,95.4,133c.43.86,1.23,1.47,1.61,2.36a17.48,17.48,0,0,0,3.42,5,16,16,0,0,1,1.47,1.82,10.22,10.22,0,0,0,2,2.5,4.34,4.34,0,0,1,.83,1.13,12.2,12.2,0,0,0,3.18,4c1.74,3.54,5.56,4.49,8.35,6.71a14.92,14.92,0,0,0,6.8.49c2.54-.15,4.89-1.89,7.56-.89a3.66,3.66,0,0,1,1.08,3,2.63,2.63,0,0,1-.19,1.73c.47-1.25.17-3,1.15-4.34a1.8,1.8,0,0,1,1.38-.45,1.82,1.82,0,0,1,.84.4c.71.54,1.05,1.4,1.71,1.94-.71-.71-1.2-1.56-1.88-2.25a1.92,1.92,0,0,1-.34-1.43,4,4,0,0,1,.63-1.35,9.4,9.4,0,0,1,2.06-2,9.68,9.68,0,0,0,1.76-2c.36-.51.37-1.15.68-1.68a11,11,0,0,0,1-2.2c1-1.47,1-3.69,3.26-4.1,2,.07,2.71,1.66,3.31,3.16a18.15,18.15,0,0,1,1.75,6.35c-.86,1.32-2.12,2.43-2.27,4.14a57.92,57.92,0,0,0-4.69,10.85c-1.59,3.48-2.12,7.29-3.33,10.89,1.23-3.63,1.76-7.46,3.36-11,1.22-4.58,3.82-8.58,5.4-13a5.4,5.4,0,0,1,2.35-1.61c4.37.93,4.48,4.77,5.39,8a6.89,6.89,0,0,1-.19,3.45c-.3,1-1.13,1.39-1.91,1.86a21.46,21.46,0,0,0-2.11,1.14,3.79,3.79,0,0,0-1.72,1.47c-.46.39-.8.9-1.21,1.22l.09-.05a16.8,16.8,0,0,0,1.52-1.69,3.4,3.4,0,0,1,1.18-.84,4.94,4.94,0,0,1,3.42-.84,4.3,4.3,0,0,1,1.07.14,13,13,0,0,1,3.95,6.39,71.22,71.22,0,0,1,.36,9c-2.82,6.82-8.07,9.95-14.33,10.06,4.7-.21,9.61-1.86,12.73-7.05a5.5,5.5,0,0,1,2.05-2.31c1.06-.35,1.76-1.29,2.78-1.71a6.9,6.9,0,0,1,6.74.84,7,7,0,0,0,.74-.33c.72-.33,1.51-.44,2.21-.83,3.08,0,5.91,1.18,8.83,1.92,1.12.29,2.16.89,3.38.5,4.82.19,9.27,1.88,13.71,3.56a5.78,5.78,0,0,1,3.32,3.34c1.78,4,3.39,8.14,4.76,12.33a7.64,7.64,0,0,0,2.18,3.44c.19,4.08,1.61,7.88,2.85,11.7a15,15,0,0,1,.41,7.62c.29,3,1,6.07.58,9.15-.31,1.18-.58,2.35.18,3.47,1,2.56.22,5.13,0,7.69-.84,3.31-.33,6.65-.3,10,.61,2.47,1.5,4.94-.07,7.38.45,2.16.08,4.41.58,6.3-.56-1.49,0-3.35-.47-5.13-.17-.66-.36-1.39.4-1.77.55-.27,1,.12,1.49.5.72.6.4,1.75,1.25,2.25a61.18,61.18,0,0,1,2.75,14.73c.57,1.38.16,2.73-.09,4.08,0,1.34-1.46,2.35-.83,3.82-.19,1.13-1.27,1.47-2,2.16-.67-.77-.24-1.69-.38-2.53.14.84-.29,1.76.38,2.52a66.76,66.76,0,0,1-4,13.08c-.95-3.94-1.28-7.82-3.61-11,.41-3.52.48-7-.91-10.36-2.5-5.38-1.78-11.31-2.9-16.92-.64-.65.66-2.45-1.35-2.3-1.68-2.64-1.39-5.85-2.41-8.79-2.11,2,.23,5.27-2.34,6.92-1.89-.39-.4.92-.67,1.34a12.22,12.22,0,0,0-2.28,7.77c.08.89.5,2.25-1.3,2.05-1,.47-1,1.43-1.1,2.3a4.89,4.89,0,0,0-.15,2.68c-1,2.22-.29,4.65-.93,6.91a2.22,2.22,0,0,0-.77,2.09l-.45,11.24c.15.18.19.32.09.44s-.15.16-.23.16c-1.06-.26-.68-1.13-.76-1.8-.82-1.08.5-2.76-1-3.65l-.24-.78a6.62,6.62,0,0,0,0-4.15l-.78-4.92c-1.55-.72-1.9-.09-1.52,1.35l-.66,5.61c-.39.47-.77.45-1.15,0-.41-1.2-1.73-2-1.46-3.49a6.35,6.35,0,0,0-.75-4.87c-1.92-.32-1.28,1.33-1.4,2.07-1.41,8.44-3.61,16.74-4.43,25.91-.64-1.61-1-2.63-1.51-3.8-1.88,4.32-.25,9.27-3.21,13.11-.23.08-.33.19-.3.34s.07.26.13.26c-1.31,4.16-.28,8.48-1,12.77-2.21-4.52-4.78-8.88-4.42-14.18.31-1.18.6-2.35-.2-3.46-.94-7.51-3.56-14.66-4.86-22.1a26.21,26.21,0,0,0-1.33-3.95,2.12,2.12,0,0,1-.88-2.16c.89-.93.18-2.23.74-3.24.14-.44,0,.15.21-.26a5.72,5.72,0,0,0,.26-2.24c-.07.73.15,1.5-.27,2.2-.76.85-.24,1.95-.57,2.88a.52.52,0,0,1-.83,0c0-1.87,0-3.74,0-5.6.07-1,1.18-2.28-.77-2.67l-.15,2.74c-.62,2,.17,4-.54,6a23.21,23.21,0,0,0-.78,2.26c-.51,2.12.09,4.76-2.76,5.76-1.49.31-.9-.87-.9-.87.77,1.47-.81,3.7.19,5.79,1.63,3.44-.19,6.67-.6,10-.83.8-.44,1.72-.26,2.62a4.63,4.63,0,0,1-.5,2.92c-.78,1.58-.42,3.19-.17,4.81.48,3.85-1.59,7.08-2.6,10.57-.82,1.83-.47,3.7-.22,5.57a2.47,2.47,0,0,0,.07,2.81c-.32.42-.49,1.16-1.29.68-1.22-8-2.28-15.87-6.18-23.2-1.25-2.34-.62-5.72-.71-8.63-.16-5.14-.51-10.24-2.3-15.13-1.33-.18-1.11.56-.81,1.35.51,2.86-.69,5.58-.71,8.4-.79.76.69,2.51-1.22,2.79q-1.73-9.75-3.47-19.5c.22-.69.65-1.49-.69-1.41-2,14.17-5,28.21-5.61,42.57a7.71,7.71,0,0,1-.73,3.74,1,1,0,0,1-1.39-.07c-.23-1.65-.46-3.29-.7-4.93.65-2.37-.4-4.59-.61-6.86a3.36,3.36,0,0,0-.39-.54,1.71,1.71,0,0,1-.3-.09h-.32c-2.83-5.6-3.49-11.69-4-17.8.26-1.18.64-2.37-.28-3.45l-.46-1.47a2,2,0,0,0-.79-2.06c-2.24-2.81-1.83-6.39-2.77-9.57-.29-1-.09-2.11-.9-2.94,0-1.53.3-3,.17-4.56v-.13a14.66,14.66,0,0,1-.49,4.72l-3.18,16a.66.66,0,0,1-1.12,0c.19-5.52-1.63-10.66-3-15.89-.67-1.09-1.33-1.07-2,0-.94,4.78.38,9.8-1.46,14.49-1.2.4-1.31-.57-1.63-1.25a.82.82,0,0,1-.08-.29c0-.39-.06-.44,0-.16A10.52,10.52,0,0,1,99,294l-.08.47c-1.75,7.22-1.26,14.87-4.2,21.86-1.07.64-1,1.69-1,2.72l-.67,4.9c-.29.42-.43,1.12-1.2.65a54.31,54.31,0,0,0-4.07-15.48c-1.9,6.53-.85,12.78-3.15,18.4a17,17,0,0,0-.06,6.27,7.48,7.48,0,0,1-.52,3.53c-.27.48-.56.5-.86,0-.56-6.21-2.57-12.21-2.55-18.51a46.35,46.35,0,0,0-1.1-10.21c-1.63,1.23-1,3.3-2,4.65-2-1.5-.23-3.79-1.18-5.51q-2.1-9.48-4.19-18.95a1.28,1.28,0,0,0-.11-1.6,1.19,1.19,0,0,0-1.2.39c-.38.54-.72,1.11-1.45,1.24A1.93,1.93,0,0,1,68,288.3a12.77,12.77,0,0,1-1.31-2.77c-1.13-4.84-.8-9.82-1.41-14.69-.69-5.44-.5-10.88-.74-16.32-.15-3.38-.48-6.73-.8-10.08-.51-2.79.08-5.69-.84-8.43-.48-1.76-.11-3.56-.22-5.34-.91-6-1.51-12.12-2.07-18.12,0,.09-.07.06-.07.13.81,6,1.13,12,2.14,17.87.25,2-.6,4.06.59,5.95,0,2.77.34,5.52.47,8.29.3,2.45.6,4.89.68,7.36-.32,5.27-1.41,10.44-2.18,15.66a29,29,0,0,1-2.37,8.35c-1,4.51-1.08,9.15-1.84,12.18.68-3,.88-7.63,1.84-12.13.06-.67-.08-1.5.93-1.54s1.43.58,1.78,1.39A27.18,27.18,0,0,1,65,287.17a12.87,12.87,0,0,0,1.3,6.38c0,1.29-.14,2.59-.1,3.89v1.07c.16,2.61-.32,5.25.21,7.86l-1.13,5.15c-.8,2.13-2.13,4-3,6.12a23.12,23.12,0,0,1-1.35,9.92c-.9-.08-1-1.07-1.56-1.47-1-4.39-.26-9.13-2.68-13.23-.7-1,.18-1.36.68-1.85a1,1,0,0,0,.21-.31c-.45-.14.26.16-.23.18-1.49.32-1,1.65-1.38,2.55a7.86,7.86,0,0,1-.59,3.52c-.87,1.83-.51,3.7-.22,5.57l0,2.16c-.76.76.65,2.46-1.19,2.76a65.42,65.42,0,0,1-3.1-11.74c-.69-4.74-2.85-9.19-3.52-14.07-.16-1.18-1.17-2.77-1.08-4.4A9,9,0,0,0,46.16,292.37Z"/><path d="M75.53,99.86c-4.47-.49-5.37.68-5.5,7.1a24.22,24.22,0,0,0-1.4,10.57l0,1.38a1.84,1.84,0,0,1-2,0c-1.28-1.23-1.43-2.9-1.61-4.5-.12-1-.25-1.85-1.51-1.88-9.28,2.93-18.83,4.44-28.43,5.72a43.22,43.22,0,0,1-11.19.08c-5.87-.74-7.45-4.53-4-9.34,3.8-5.32,9-9.13,14.37-12.62A12.62,12.62,0,0,1,37,95a4.14,4.14,0,0,1,1-.2,5.09,5.09,0,0,0,2.78-.25c1.36-.54,2.55-1.43,3.91-2,7.08-3.09,13.78-6.95,20.91-10,7.61-3.21,15.17-6.52,22.79-9.71,1.32-.43,2.57-1.05,3.87-1.55,5.07-1.56,9.9-3.8,14.95-5.43,25.69-8.56,51.33-17.34,78.63-19.36a2,2,0,0,1,.35,0c2.82.39,5.45,1.59,6.16,4.37s-1.65,4.57-3.66,6.19c-.25,2.35-1.72,3.81-3.54,5.13a93.92,93.92,0,0,1-9.7,6.34c-6.65,3.68-13.17,7.62-20.28,10.4a7.56,7.56,0,0,1-3.35.91c-.62,0-1.23-.13-1.85-.14a3.05,3.05,0,0,1-.8,0,6.68,6.68,0,0,1-1.46-.38l-.69,0a2.9,2.9,0,0,1-.72,0c-.13,0-.25,0-.38,0-1.13-.07-2.39.45-3.25-.75a2.46,2.46,0,0,1-.82-1.21c-.35-2,0-4.27-2.68-5-2.11-.84-4.35-.79-6.55-1-4.58-1.24-9.07-3.07-14-2.07-4.78-.39-9.06,2-13.69,2.48-1.81.19-2.68,1.79-3.51,3.25a5.64,5.64,0,0,1-2.84,1.34c-3.2,0-4.14,2.45-5.2,4.78a4,4,0,0,1-.67.75c-3.39,1.67-6,4.65-9.72,5.79-1.35,1.09-1.49,2.83-2.31,4.2-1.21,1.12-3.31,1.19-3.78,3.2-.27.58-.44,1.24-1.06,1.59a1.69,1.69,0,0,1-1,.08A19.74,19.74,0,0,1,72.16,94a3.56,3.56,0,0,0-3.74-2.44c2.15-.19,3.19,1.15,4,2.83a16.15,16.15,0,0,1,2.2,2.4,7.56,7.56,0,0,1,1.17,1.41C76,98.8,76.13,99.38,75.53,99.86Z"/><path class="cls-1" d="M106.38,15.58a27.33,27.33,0,0,1,10.69-.68c1.34.78,2.94.35,4.32.9a2.25,2.25,0,0,1,1,.8,2.88,2.88,0,0,1,.45.59,7.27,7.27,0,0,0,.56.55c3.06.94,6.32,1.13,9,3.12,3.34,2.43,5.2,5.77,6.46,9.56l.68,2.67-.2.38a1.73,1.73,0,0,1-.64.26c.05,0-.15.11-.15.11s.13.16.18.17c3,5.12-.42,13.15-7,13.47-2.47.12-4.85-.57-7.31-.59-12.84,0-24.88,3.45-36.62,8.22a100.46,100.46,0,0,0-16.52,8.37,11,11,0,0,1-3.91,1.46c-1.81,0-2.17-1.49-2.83-2.66-1.76-3.13-3-6.55-5.31-9.36-1.95-3.44-4.4-6.58-6.26-10.09.29-1.66,1.5-2.87,2.15-4.36,11.15-9.58,24-15.93,37.95-20.33.88-.27,1.81-.4,2.72-.6,2.65.33,5.07-.76,7.58-1.24C104.3,15.59,105.59,16.62,106.38,15.58Z"/><path class="cls-2" d="M147.19,50.85c1.74,1.28,3.57,1.08,5.55.55a167.18,167.18,0,0,1,19.82-4.12,23,23,0,0,1,13.31-.72c.57.58.94,1.34-.23,1.4C158.3,49.29,133,58.83,107.27,67c-1.19.17-2.22,0-2.41-1.44a3,3,0,0,1,2.52-1.74c1.29,0,2.22-.91,3.33-1.37,2.61-.87,5.34-1.48,7.45-3.44,7.87-2,15.61-4.44,23.36-6.85C143.15,50.57,145.6,52.58,147.19,50.85Z"/><path class="cls-3" d="M138.92,30.42c-4.14-6.15-9.5-10.54-17-11.85-.43-.29-.42-.56,0-.81h0c1-.61-1.32-2,.57-2.42a4.91,4.91,0,0,1,2.43.28c1.55.33,3.14.54,4.65,1C136.8,18.9,138.45,21.38,138.92,30.42Z"/><path class="cls-1" d="M67.83,300.76l-1.29,4.31c-1.45-.78-1-2.17-1.1-3.39s.36-2.53-.35-3.71v0c-.69-1.17-.21-2.45-.36-3.67A20.23,20.23,0,0,1,65,288.2c.31-1.44.68-3.84,2.79-1.07C70.25,291.67,68,296.22,67.83,300.76Z"/><path class="cls-4" d="M44.09,50.83l2.78-4.63,4.84-4.61c1.83.52,1.42,2.14,1.7,3.42a4.3,4.3,0,0,1-2,3.16c-1,1-2.1,2-3.07,3.06a2.81,2.81,0,0,1-.79.66,4.14,4.14,0,0,1-2.58.17A1.42,1.42,0,0,1,44.09,50.83Z"/><path class="cls-5" d="M211.9,262.14c0-2.79,0-5.59,0-8.38.22-.5.47-.52.76-.06,2,2.92,2.24,6.36,2.87,9.68-1.35.5-1.07-3-2.95-1.22A.38.38,0,0,1,211.9,262.14Z"/><path class="cls-6" d="M67.83,300.76a6.65,6.65,0,0,1-.49-4.76,20.79,20.79,0,0,0-.11-8.64c.49-.31.1-1.09.71-1.34l.67,2.12c1.85,2,.82,4.35.71,6.58,0,1.36-.95,2.57-.64,4C68.39,299.39,68.11,300.08,67.83,300.76Z"/><path class="cls-7" d="M62.28,317.64c-.93-1.31.93-2.9-.5-4.23-.53-.49.08-.84.55-.63,1.48.66,1.74-1.3,2.9-1.26A6,6,0,0,1,62.28,317.64Z"/><path class="cls-8" d="M206.87,279.85a1,1,0,0,1,1.26.83c.55,2.65-.23,5.45.93,8.07.11.25-.83,1-1.28,1.46C207.48,286.76,207.18,283.3,206.87,279.85Z"/><path class="cls-8" d="M120.47,315l.78-1.62c.57.3.18,1.11.74,1.41a10.73,10.73,0,0,1,.1,7.69Z"/><path class="cls-9" d="M1.1,282.48c1.7,2.62-.12,5.9,1.6,8.52l-.2,4.11c-.76.42-.92-.2-1.17-.68C1.15,290.45.66,286.47,1.1,282.48Z"/><path class="cls-10" d="M24.34,272c.36,2.86-.75,5.88,1,8.58l-.93,2c-1.51.12-1.27-1.05-1.41-1.94q0-.86,0-1.71a17.05,17.05,0,0,1,.61-3.89c.18-1.49-.83-3,0-4.47C24.22,270.83,23.85,271.62,24.34,272Z"/><path class="cls-11" d="M152.18,296.58c-1.31-2.91-.52-5.94-.45-8.95.7,1.26.2,2.86,1.16,4C152.65,293.3,152.42,294.94,152.18,296.58Z"/><path class="cls-12" d="M101.68,277.89l1.09-5.89c1.27,2.53.81,4.23.88,5.85Z"/><path class="cls-13" d="M103.72,16.37c-2.55.88-5,2.55-7.87,1.17l7.88-1.74C104.22,16,104.22,16.19,103.72,16.37Z"/><path class="cls-1" d="M68.59,295.16q0-3.51,0-7H70c.47.37.34.86.3,1.34-.47,1.26.49,2.6-.23,3.84-.07.61-.13,1.23-.2,1.85A.82.82,0,0,1,68.59,295.16Z"/><path class="cls-14" d="M58.06,311.3l-1.37,1.56-.72.57c-.82-1.65-.62-3.27.26-5.17l1.13,2.35C57.79,310.64,57.8,311.09,58.06,311.3Z"/><path class="cls-15" d="M112.11,272.71c0,1.72.34,3.51-.84,5l-.32,0c-1-1.66,0-3.39-.18-5.07A.86.86,0,0,1,112.11,272.71Z"/><path class="cls-16" d="M1.77,260.94c.31,0,.38-1.59.72-.27A47.34,47.34,0,0,1,3.28,267c-1.4.53-.74-1.09-1.4-1.34Z"/><path class="cls-17" d="M59.37,326.09l1.56,1.47-.84,4.94-.72-.07Z"/><path class="cls-18" d="M212.64,253.7l-.76.06c.24-3.3-.72-6.69.75-9.9Q212.65,248.78,212.64,253.7Z"/><path class="cls-19" d="M185.73,281.79c-.62-1.39-.16-2.62.58-4.05a1.76,1.76,0,0,1,.94,2.7C186.19,280.27,186,281,185.73,281.79Z"/><path class="cls-20" d="M124.93,15.62l-2.91.07c-.2.3-.31.69-.76.71a12.31,12.31,0,0,1-4.19-1.5C119.71,15,122.39,14.59,124.93,15.62Z"/><path class="cls-21" d="M65.09,298c1.31,2.2.19,4.89,1.45,7.1l-.18,1.3C64.41,303.8,65.31,300.8,65.09,298Z"/><path class="cls-19" d="M197.2,260.1a5.57,5.57,0,0,1-.94-.94c-.45-.73-.56-1.83.19-2.08,1.31-.45,1,1,1.42,1.68C198,259.36,197.85,259.87,197.2,260.1Z"/><path class="cls-22" d="M55.18,38.47a8.05,8.05,0,0,1-1.24,4.58,1.38,1.38,0,0,1-.75-.48,3.82,3.82,0,0,1-.79-1.63Z"/><path class="cls-23" d="M54,327.44l1.19-2.76v6.71A5.71,5.71,0,0,1,54,327.44Z"/><path class="cls-13" d="M1.88,265.67,3.28,267v4.08l-.57.11c-.31-1.45-.62-2.89-.92-4.34Z"/><path class="cls-24" d="M181.71,279c2.48,1.28,1.13,3.15.75,4.87C182.15,282.28,181.38,280.73,181.71,279Z"/><path class="cls-25" d="M217.47,282.54c.26-1.47.53-3,.79-4.42.47,2.13,1.33,4.28-.11,6.39C217.57,284,217.06,283.42,217.47,282.54Z"/><path class="cls-19" d="M31.29,282.5c-.91-1.8-.52-3.68-.58-6.1l1.49,2Z"/><path class="cls-26" d="M93.77,319c-.72-1.36-.64-2.77-.43-4.59.62.84,1,1.36,1.39,1.87Z"/><path class="cls-27" d="M134.68,302.12c.41-.93.82-1.86,1.22-2.79v5.29A2.76,2.76,0,0,1,134.68,302.12Z"/><path class="cls-1" d="M68.59,295.16h1.29a6.59,6.59,0,0,1-1.2,3.53C67.74,297.54,68.14,296.35,68.59,295.16Z"/><path class="cls-22" d="M10.3,276.9c-.75-2.07-1.35-4.13.14-6.15C10.39,272.8,10.35,274.85,10.3,276.9Z"/><path class="cls-14" d="M42.64,272.08l-.15,2H42l-.19-2.66c.43-.43.5-1.68,1.33-1.11S42.9,271.49,42.64,272.08Z"/><path class="cls-17" d="M84.62,333.76a8.07,8.07,0,0,1,.06-6.27A20,20,0,0,1,84.62,333.76Z"/><path class="cls-28" d="M52.4,40.94l1.41,1.61c-.71.81.47,2-.48,2.72a.72.72,0,0,1-.87-.09l-.75-3.59Z"/><path class="cls-21" d="M83.24,337.34l.86,0V342l-.86,0Z"/><path class="cls-6" d="M157.12,274.91c.46-.9.95-1,1.24.07a3.49,3.49,0,0,1-.47,2.6C157.48,276.73,158.27,275.54,157.12,274.91Z"/><path class="cls-22" d="M147.83,333.05a5.86,5.86,0,0,1,.22-5.57C148,329.34,147.9,331.2,147.83,333.05Z"/><path class="cls-29" d="M130.52,281.21c0-.79,0-1.58.92-2.08.69,1.24.14,2.36-.23,3.49Z"/><path class="cls-14" d="M45.32,282.55a5.71,5.71,0,0,1,.22,5.56Z"/><path class="cls-30" d="M55.16,322.52a5.67,5.67,0,0,1,.22-5.57C55.31,318.81,55.23,320.67,55.16,322.52Z"/><path class="cls-10" d="M156.43,283.64c.07-2-.39-4.06.54-6C157,279.67,157.7,281.74,156.43,283.64Z"/><path class="cls-6" d="M150.65,316.91c-.51-1.63-1.3-3.26.17-4.81Z"/><path class="cls-10" d="M191.51,272c.67-2.59.67-2.59,2.11-2.08a1.07,1.07,0,0,1-.12.68c-.32.56-.48,1.23-1.09,1.6A.9.9,0,0,1,191.51,272Z"/><path class="cls-31" d="M157.88,283.18l.52.2c.28.05.39.15.33.29s-.13.23-.21.23l.7,2.09C157.58,286.41,157.58,286.41,157.88,283.18Z"/><path class="cls-32" d="M98.87,291.1l1.35,1.28a2.14,2.14,0,0,1-1.29,2.06l-.26,0C98.44,293.33,98.12,292.19,98.87,291.1Z"/><path class="cls-9" d="M46.16,292.37a5.05,5.05,0,0,1,.09,4.86Z"/><path class="cls-33" d="M114.94,290.26c.37-.19.83-.69,1.15-.17.48.77.06,1.54-.36,2.23A2.68,2.68,0,0,1,114.94,290.26Z"/><path class="cls-34" d="M106.65,293.74h1.12c-.16.88-.33,1.77-.52,2.79C106,295.64,106.71,294.63,106.65,293.74Z"/><path class="cls-35" d="M136.61,290.93a3.23,3.23,0,0,1-.33-2.91c.83.22.74,1.07,1.14,1.56C136.63,289.72,136.8,290.43,136.61,290.93Z"/><path class="cls-36" d="M70.79,286.74l1.32-2.11a2.48,2.48,0,0,1-.1,2.87l-1.18,1.41A1.45,1.45,0,0,1,70.79,286.74Z"/><path class="cls-1" d="M192.19,272l1.31-1.39a4.35,4.35,0,0,1-.55,2.82C191.62,273.51,191.75,272.84,192.19,272Z"/><path class="cls-19" d="M217.47,282.54l.68,2c-.66.29-.63.95-.81,1.5A3.1,3.1,0,0,1,217.47,282.54Z"/><path class="cls-35" d="M190.67,283.9a2.18,2.18,0,0,1-.35-2.23c.31-.54.76-.09,1.12.14A3,3,0,0,1,190.67,283.9Z"/><path class="cls-11" d="M192.19,272l.76,1.43a1.45,1.45,0,0,1-.58,1.48,4.14,4.14,0,0,1-.86-2.9Z"/><path class="cls-10" d="M72,287.5c0-1,.06-1.91.1-2.87a4,4,0,0,1,.12,4.18Z"/><path class="cls-37" d="M188,285.36a3.87,3.87,0,0,1,0,4.15C188.05,288.13,188,286.74,188,285.36Z"/><path class="cls-19" d="M-.11,239a4.2,4.2,0,0,1,0,4.16Z"/><path class="cls-6" d="M171,316.91a1.56,1.56,0,0,1-.64-1.83c.06-.17.3-.27.46-.4.12.54.23,1.09.35,1.63A.82.82,0,0,1,171,316.91Z"/><path class="cls-1" d="M70.08,293.32c0-1.26-.71-2.5-.09-3.77a1,1,0,0,1,.62.68A5.18,5.18,0,0,1,70.08,293.32Z"/><path class="cls-18" d="M20,297.93c-.31-.92-1.16-1.88.22-2.66Z"/><path class="cls-35" d="M151.32,309.18c-.28-.91-1.2-1.88.26-2.62C151.49,307.43,151.41,308.31,151.32,309.18Z"/><path class="cls-9" d="M116.19,293.79a2.75,2.75,0,0,1,.28,3.45C116.38,296.09,116.29,294.94,116.19,293.79Z"/><path class="cls-9" d="M212.64,236.17a2.9,2.9,0,0,1-.18-3.47Z"/><path class="cls-38" d="M188.31,290.29c1.13,1,1.08,2.32,1,3.65C189,292.72,188.65,291.5,188.31,290.29Z"/><path class="cls-9" d="M165.41,312a2.84,2.84,0,0,1,.2,3.46C165.55,314.34,165.48,313.19,165.41,312Z"/><path class="cls-39" d="M183.92,287.38l1.15,0v2.06C184.09,288.94,184.11,288.11,183.92,287.38Z"/><path class="cls-10" d="M70.61,290.23c-.21-.23-.42-.45-.62-.68,0-.47,0-.94,0-1.41l.78-1.4c0,.72,0,1.45,0,2.17Z"/><path class="cls-28" d="M1.32,274.13a3.09,3.09,0,0,1-.11,3.47C1.25,276.45,1.28,275.29,1.32,274.13Z"/><path class="cls-40" d="M103.72,16.37c0-.19,0-.38,0-.57l2.65-.22C105.82,17,104.62,16.17,103.72,16.37Z"/><path class="cls-1" d="M42,274.09h.47a6.46,6.46,0,0,1-.44,3.42Z"/><path d="M158,121.34c-2-.79-3.78.24-5.66.44a10.7,10.7,0,0,1-3.7,4.37c-2.21,1.38-3,3.78-3.71,6.16-.82,1.11-.47,2.29-.39,3.54.14,2.06,1.23,4.31-.7,6.15q-1.1,2.13-2.17,4.26c-.34.31-.7.58-1,.88-1.14.67-1.23,2.19-2.33,2.9-1.27.76-2.47,1.9-4.09.74-.7-.57-.62-1.82-1.75-2-2.2-.71-4.41-.21-6.51.19a39.74,39.74,0,0,1-13.13.8c-.46-.06-.87.27-1.33.33-2.07.1-3.11-1.47-4-2.81s-2-2.18-3-3.32c-1.19-3.76-3.86-6.23-7.14-8.17A51.87,51.87,0,0,1,89,121a1.58,1.58,0,0,1,1-1.1c1.82.49,3.14,2,5,2.38,2.14,3.84,5.44,6,9.6,7.45,6.44,2.21,11.92.86,17-3.94,9.52-9,20.7-11.7,33.3-7.86C156.47,118.42,158.61,118.75,158,121.34Z"/><path class="cls-16" d="M67.94,286c-.24.45-.47.9-.71,1.34-1.4,1.38-1.58,2-2.17,7.07-.2.5-.42.52-.67,0-.85-5.49-1.65-11-2.64-16.45-.1-.61.6-2.72-1.58-1.83-.24.5-.46.49-.67,0,.48-2.77,1-5.55,1.43-8.32,2.92,1,1.68,3.74,2.48,6.14-1.81-7.5-.44-14.6-.44-21.69l.06-7.66c.34-.43.52-1.18,1.34-.69,2.66,8.53.64,17.42,2,26.07A96.33,96.33,0,0,1,67.94,286Z"/><path class="cls-41" d="M89.65,121C92.11,126,94.51,130.9,98,135.2c3.23,2.55,5.06,6.24,7.62,9.33a24,24,0,0,0,6.31,6.93c.63.5,1.4.78,2.06,1.24a5.63,5.63,0,0,0,3.34,2,43.94,43.94,0,0,0,10-.43c2.51-.27,2.93.16,3,2.46l-7.67,1.51a9.23,9.23,0,0,1-6.91-.7c-3-2.17-6.89-3.3-8.54-7.1-1.67-1-2.22-2.86-3.44-4.2l-.63-.67a28,28,0,0,1-2.18-2.89l-1.37-1.32c-.85-2.12-2.46-3.76-3.54-5.73l-1.42-2c-.87-1.08-1.25-2.45-2.09-3.55L91,126.58c-1.25-.52-1.56-1.71-2-2.8l-2.13-3.48c-1.14-1.52-1.67-3.39-2.78-4.92v0c-.68-1.07-1.59-2-1.46-3.45-1.89-2.42-2.54-5.6-4.8-7.78a22,22,0,0,1-2.17-3.69,3.24,3.24,0,0,0-.12-.62l-.6-1.31a1.58,1.58,0,0,1,1.39-.66c3.57,2,4.37,6.13,6.6,9.16a43.58,43.58,0,0,1,3.36,5.61,29.49,29.49,0,0,0,1.58,3.06C88.75,117.39,89.85,119,89.65,121Z"/><path class="cls-42" d="M160.57,226.33c-.33-1.71-1.28-1.73-2.48-.86s-2.55,2-3.83,3c-.65.16-.94,0-.75-.73,3.55-5.08,7-10.21,9.22-16.05.67-.64,1.41.59,2.07-.1v0c.64-.15,1,0,.75.74a90.6,90.6,0,0,1-4.28,14.7C160.64,227.21,160.31,227.07,160.57,226.33Z"/><path class="cls-33" d="M130.28,156.76c-.71-1.87-2.1-1-3.19-.69a17.3,17.3,0,0,1-10.76-.59c-2.7-3.34.56-4.17,2.37-5.58,4.65-.85,9.07.07,13.4,1.68a2.23,2.23,0,0,1,.55,1,15.49,15.49,0,0,1-.12,2.54,9.81,9.81,0,0,1-.1,1.95c-.32.92-.33,2-1.37,2.56Z"/><path class="cls-3" d="M49.05,225c-2.83,5.39-6.33,10.36-9.58,15.48-.69,1.08-1.21,2.26-1.81,3.4-.64.22-.94.09-.68-.64a35.57,35.57,0,0,1,11.23-18.27A.47.47,0,0,1,49.05,225Z"/><path class="cls-43" d="M160.59,182.11a13.4,13.4,0,0,0-2,1.94c-4.37,6.52-11,7.49-18.21,7.2,7-2,15-2.17,18.08-10.55,1.2-.88-1-3.43,1.76-3.55A3.44,3.44,0,0,1,160.59,182.11Z"/><path class="cls-5" d="M63,252.3c.31,8.14,1.24,16.26.48,24.49-1.62-2.78-.82-6.23-2.52-8.94Z"/><path class="cls-44" d="M160.59,182.11l-.72-4.89c-.44-1.48-2.3-3.19.68-4.1,2.12,1,4.4,1.86,5.7,4,.14,2.52-2.1,2.69-3.57,3.61.29.58,1.07,1.6.8,1.65A10,10,0,0,1,160.59,182.11Z"/><path class="cls-45" d="M100.58,162a15,15,0,0,1,11.48-.67,2.6,2.6,0,0,1,1.87,3.57c-.22.67-.9,1.56-1.5.93C109.18,162.4,104.93,162.19,100.58,162Z"/><path class="cls-46" d="M68.58,147.82c-2.36-2.24-2.2-4.56-.32-7,1.11-1.46,2-3.08,3.13-4.53,1.58-2,0-3.66-.58-5.42.21-.29.22-.74.67-.83,1.35,2,2.6,4.17,5.6,3.62-.71,3.51-3.65,4.81-6.33,6.37C68.41,142.16,68.52,145,68.58,147.82Z"/><path class="cls-3" d="M197.12,230.56c-2.8-2.72-2.8-2.72-5.32,2.3-.77-2.64.13-5.16-.17-7.65-.08-.69-.07-1.47.68-1.84.92-.45,1.59.18,2.07.82,1.52,2.05,3.37,3.88,4.21,6.37A1,1,0,0,1,197.12,230.56Z"/><path class="cls-47" d="M79.17,221.4c4.15,1.57,8.07,3.82,12.6,4.29.42.34,1.14.53.68,1.33-6.29,3-9.67-2.29-14-4.92C78.3,221.46,78.42,221.13,79.17,221.4Z"/><path class="cls-48" d="M103.72,151.92a7.86,7.86,0,0,1-2.33.63c-9.8-.47-18.83,2.57-27.81,5.94a1.2,1.2,0,0,1-1-.18c8.07-4,16.77-5.78,25.59-7.06C99.94,152.12,102,151,103.72,151.92Z"/><path class="cls-49" d="M73.55,121.7c.94,1.44,1.84,2.91,2.83,4.31s.24,2.19-1,2.91c-1.46.84-2.11.14-2.62-1.08-.67-1.58-1.32-3.18-2-4.77C71.21,121.64,71.82,120.53,73.55,121.7Z"/><path class="cls-3" d="M127.59,179.3a27.1,27.1,0,0,1,2.35-2.55c1.34-1.14,2.9-2.25,4.7-1.18s1,2.86.66,4.41c-.22.35-.47.4-.76.09-2.06-2.52-4.14-1-6.21,0C127.64,180.23,127.42,180,127.59,179.3Z"/><path class="cls-18" d="M204,242.4a65.5,65.5,0,0,1,4.1,22.36C207.11,257.24,205.59,249.81,204,242.4Z"/><path class="cls-40" d="M77,169.45c6.26-3.62,13.09-5.66,20.11-7.12-6.84,2-13.15,5.44-20.08,7.15Z"/><path class="cls-45" d="M180.9,253.05c.36,4.49,2.61,8.67,2.2,13.29.44.8.55,1.44-.7,1.4-.26-2.07-.39-4.17-.82-6.21s-1.29-1.42-2-.08a.44.44,0,0,1-.72,0l1.47-8.42Q180.6,252.32,180.9,253.05Z"/><path class="cls-35" d="M18.05,187.83,22.9,186c-.12.83,0,1.37,1.07,1.12a8.52,8.52,0,0,1,5.66.69C25.76,187.71,22,190.1,18.05,187.83Z"/><path class="cls-50" d="M82.67,207.36c-4.22-.88-8.52-1.55-12.09-4.28-2.15-1.64-4.21-3.36-4.79-6.22h0c4.07,5.94,10.16,8.41,16.85,9.84C83.13,206.9,83.14,207.12,82.67,207.36Z"/><path class="cls-51" d="M141.62,166a41.88,41.88,0,0,1,4.12-11.25c.74-.48.82-2.05,2.26-1.38l-5.68,12.61C142.1,166.28,141.86,166.28,141.62,166Z"/><path class="cls-52" d="M86.85,254.52c-3.1-2.59-6-5.34-6.31-9.74a38.31,38.31,0,0,1,6.35,8.92c.21.2.27.38.19.56S86.92,254.52,86.85,254.52Z"/><path class="cls-53" d="M79.82,151.16c-3.22.69-6.35,2.37-9.76.82l0,0,8.3-2.89a.45.45,0,0,1,.78,0c-.22.67-.15,1.2.65,1.38.23.16.31.31.22.46S79.9,151.16,79.82,151.16Z"/><path class="cls-20" d="M145.16,210.91A51,51,0,0,1,141,229.19c-.45,0-.53-.43-.72-.71,2.74-5.78,3.49-12,4.22-18.26C145.09,210.05,145.43,210.17,145.16,210.91Z"/><path class="cls-43" d="M42.69,178.5c1.17-1.7,3.34-1.62,4.85-2.71,1.88,1.31,4.52.87,7,3.09C50.05,179,46.36,177,42.69,178.5Z"/><path class="cls-5" d="M68.63,117.53A9.64,9.64,0,0,1,70,107a2.8,2.8,0,0,1-.07,3,5.62,5.62,0,0,0,.77,6.18l-.36.28-.38-.26C69.54,116.58,69.08,117.05,68.63,117.53Z"/><path class="cls-54" d="M162.68,180.78l3.57-3.61a4.59,4.59,0,0,0,3.37,2.08,3.59,3.59,0,0,1,2.89,1.42l-2.09.74c.26.73-.06.89-.71.72C167.71,179.9,165.26,180,162.68,180.78Z"/><path class="cls-10" d="M182.37,221.43a27.7,27.7,0,0,1,0,13.36c-.55-.31-.22-1-.7-1.39V222.11A1.38,1.38,0,0,1,182.37,221.43Z"/><path class="cls-17" d="M70.75,140c1.57-2.67,4.79-3.68,6.33-6.37l1.36.05c.45,1.31-.84,1.46-1.41,2.1-1.65,1.85-2.87,4.08-4.9,5.61-.24-.16-.33-.32-.25-.49s.15-.25.23-.25Z"/><path class="cls-30" d="M62.3,230.56a149.51,149.51,0,0,1-2.11-20.35h0c1.35,4.49,1.32,9.18,2.07,13.77.35,2.17.49,4.39.73,6.58C62.75,231,62.52,231,62.3,230.56Z"/><path class="cls-55" d="M137.56,149.25a7.24,7.24,0,0,0,2-3.52c1.79.47,1.25,1.56.7,2.65l-.06,1.43c-.66,1-1.46,1.85-2.15,2.81A3.41,3.41,0,0,0,136,154c-1.19.92-1.62.12-2-.87C134.25,150.94,136.73,150.86,137.56,149.25Z"/><path class="cls-6" d="M49.35,287.86c-1.05-5.47.66-10.84.53-16.29C51.1,277,49.41,282.43,49.35,287.86Z"/><path class="cls-46" d="M107.2,182.79a43.17,43.17,0,0,1-14.71,1.4q-.73-.31,0-.63c4.73.12,9.31-1.17,14-1.5C107.23,181.8,107.37,182.14,107.2,182.79Z"/><path class="cls-47" d="M5.37,219.27c-1.06-3,1-5.22,1.89-7.67.38-1.09.78.27,1,.76,0,1.37,0,2.74-.07,4.11A4.23,4.23,0,0,1,6.12,218Z"/><path class="cls-56" d="M131.06,159.6a5.2,5.2,0,0,1,.72-2.83c.22-.44.55-.79,1.07-.71s.49.39.36.77c.38,2.63-1.37,4.62-1.6,7.92C129.94,162.38,131,161,131.06,159.6Z"/><path class="cls-12" d="M15.91,234.07c-1.2,5.71-.39,11.53-1.07,17.28-.05-5.76-1-11.54.41-17.28Q15.58,233.37,15.91,234.07Z"/><path class="cls-50" d="M74.22,170.88A31.25,31.25,0,0,1,61,174.79a104,104,0,0,0,13.23-4.61c.25.16.33.31.25.47S74.31,170.88,74.22,170.88Z"/><path class="cls-5" d="M140.6,181.33a16.21,16.21,0,0,1,8.06-.22C146.22,182.21,143.78,183.14,140.6,181.33Z"/><path class="cls-14" d="M150.06,248.13a16.91,16.91,0,0,1-7.37,9.26l7.37-9.27Z"/><path class="cls-11" d="M141.62,166l.7,0q-1.9,6.31-3.82,12.62A31.34,31.34,0,0,1,141.62,166Z"/><path class="cls-19" d="M123.69,166.16c2-1.87,3.48-3.49,0-5.51,2.08,0,3.43.76,3.51,2.61C127.31,165.44,125.52,165.9,123.69,166.16Z"/><path class="cls-18" d="M192.49,239.14c.67,4.32,2,8.56,1.53,13A56,56,0,0,1,192.49,239.14Z"/><path class="cls-24" d="M182.4,267.74l.69-1.4a10.82,10.82,0,0,1-.69,9.12Z"/><path class="cls-57" d="M73.55,121.7a5.12,5.12,0,0,0-2.79,1.37l-.69-3.52c.73-1-.17-2.38.62-3.42l0,0A17.43,17.43,0,0,1,73.55,121.7Z"/><path class="cls-5" d="M160.55,173.12c-1.32,1.19-.53,2.72-.68,4.1l-1.38,3.48c.6-3.12-1-6.1-.57-9.21Z"/><path class="cls-22" d="M59.5,276.17l.67,0q-1,6.69-2,13.39l-.77-.12Z"/><path class="cls-53" d="M153.46,163.16c.31.92.61,1.85.91,2.77l-.34,0c-.95.85-2.29-.11-3.25.69l-.78.71c-.82.48-1.44.56-1.36-.7l1.35-1.42a28.38,28.38,0,0,0,2.17-2.81Z"/><path class="cls-50" d="M101.63,203.19c-2.91,2.94-6.85,3.28-10.58,4.16q-.7-.36,0-.66l10.53-3.53Z"/><path class="cls-50" d="M164.8,211.56a1.88,1.88,0,0,1-2.07.1c1-3.57,3-6.84,3.5-10.58.22-.32.46-.34.7,0,0,2.58-1.07,4.89-1.93,7.25C164.62,209.4,164,210.43,164.8,211.56Z"/><path class="cls-50" d="M211.9,262.14l.66,0c1.26,2.9.53,5.9.44,8.88C212.4,268.1,211.68,265.18,211.9,262.14Z"/><path class="cls-45" d="M153.54,182.11c1.07-1.94.57-4.1.83-6.56,2.63,2.75,1.44,5-.09,7.28C153.63,183,153.38,182.76,153.54,182.11Z"/><path class="cls-9" d="M181.66,215.11q-1.07-5.54-2.11-11.08c2,3.47,1.86,7.41,2.79,11.1C182.1,215.6,181.88,215.59,181.66,215.11Z"/><path class="cls-50" d="M43.32,192l-10.06-3.5c3.87,0,7.23,1.63,10.73,2.8C44.18,191.9,44,192.16,43.32,192Z"/><path class="cls-5" d="M70,128.06a41.73,41.73,0,0,1-2.79-9.86l1.39.71c.18,3.17,1.51,6.07,2.17,9.13a.5.5,0,0,1-.77,0Z"/><path class="cls-51" d="M197.12,230.56h1.47a27.86,27.86,0,0,1,3.76,7.85C200.08,236.14,199.33,232.85,197.12,230.56Z"/><path class="cls-17" d="M67.69,214c-2.36-1.1-3.1-2.8-4.77-4.42C66,210.3,66.34,210.62,67.69,214Z"/><path class="cls-52" d="M166.9,293.07c1.23.33,1.58-.7,2.15-1.39.64-.17,1,0,.72.71a6.85,6.85,0,0,1-.46,1.32c-.62,1.07-1,2.88-2.47,2.51-1.26-.33-.45-2.05-.61-3.14C166.45,292.58,166.68,292.58,166.9,293.07Z"/><path class="cls-33" d="M25.07,206.69c-.18,2.46.41,5-.65,8.13-1.4-3.45.39-6.11,0-8.79C25,205.83,25.34,206,25.07,206.69Z"/><path class="cls-20" d="M133.21,156.83l-1.43-.06-.68-1.28c.5-.63-.15-1.65.7-2.17,0-.24,0-.49,0-.74a1.27,1.27,0,0,1,1.34-.34c.92.67,1,2,2.12,2.54l0,1.21a.68.68,0,0,1-.58.83Z"/><path class="cls-40" d="M153.55,241.8a20.94,20.94,0,0,1,4.65-8l-3.94,7.95C154,242.13,153.79,242.12,153.55,241.8Z"/><path class="cls-28" d="M63.69,179.29l7.59,2.36c-3.2.52-5.8-.75-8.3-2.35C63.21,179,63.45,179,63.69,179.29Z"/><path class="cls-18" d="M16.68,220.77c.64-2.59,1.29-5.18,1.93-7.78l.79.16-2,8.3A1.23,1.23,0,0,1,16.68,220.77Z"/><path class="cls-14" d="M77,237.41a9.43,9.43,0,0,1-3.28-5.7C75.76,233.56,76.22,235.57,77,237.41Z"/><path class="cls-37" d="M181.68,233.4l.7,1.39c-.12,3.51.36,7.07-.74,10.52-.21.48-.43.48-.64,0C181.84,241.37,181.65,237.38,181.68,233.4Z"/><path class="cls-55" d="M134.65,156.82l.58-.83c2,1,2.84,2.85,3.9,4.78-1.29.45-1.62-.6-2.21-1.12a19.72,19.72,0,0,1-2.31-2.85Z"/><path class="cls-9" d="M43.32,192c.22-.23.45-.46.67-.7l5.52,4A11.48,11.48,0,0,1,43.32,192Z"/><path class="cls-28" d="M123.38,246c-1.77-2.36-2.26-5.2-3-8,1.62,2.15,2.26,4.71,3,7.23q.33.25.21.48T123.38,246Z"/><path class="cls-46" d="M140.25,228.48l.72.71c-.6,1.81-1.16,3.64-3.28,4.65Z"/><path class="cls-28" d="M131.12,276.39c-1.13-2-.34-3.47.27-4.92A6.12,6.12,0,0,1,131.12,276.39Z"/><path class="cls-17" d="M50.35,222.13a6.21,6.21,0,0,1,3.92-3.7,11.76,11.76,0,0,1-3.21,4.41C50.61,222.82,50.54,222.41,50.35,222.13Z"/><path class="cls-58" d="M34.17,251.64c0,2.13.08,4.26-2,5.88l1.35-5.86C33.73,251.33,33.94,251.3,34.17,251.64Z"/><path class="cls-19" d="M91.07,265.07l-1.65-5.37C91.14,261.05,91.5,262.91,91.07,265.07Z"/><path class="cls-28" d="M98.87,291.1c-.07,1.13-.13,2.25-.2,3.38-1-2.54-.53-5.13-.46-8.14C99.89,288.07,98.94,289.63,98.87,291.1Z"/><path class="cls-5" d="M92.49,183.56v.63H82q-.72-.33,0-.66Z"/><path class="cls-18" d="M116.36,201.08,110,199.65c2.55-.94,4.69.66,7.06.72C117.22,201,117.09,201.34,116.36,201.08Z"/><path class="cls-11" d="M64.37,244l-1.34.68c0-2.81,0-5.63,0-8.45h0C64.06,238.66,63.75,241.39,64.37,244Z"/><path class="cls-18" d="M170.44,288.86c.72-2.16,1.44-4.31,2.17-6.47a11,11,0,0,1-1.47,6.46C170.91,289.2,170.68,289.2,170.44,288.86Z"/><path class="cls-26" d="M116.36,201.08l.69-.71,4.58-.4C119.7,202,118.08,201.8,116.36,201.08Z"/><path class="cls-43" d="M148,153.33l-2.26,1.38c.26-1.49.52-3,2.26-3.52l1.32.82Z"/><path class="cls-9" d="M109.34,192c-1.27,1.69-3.12,2.1-5.22,2.08l5.22-2.8c.26.16.34.32.26.48S109.43,192,109.34,192Z"/><path class="cls-18" d="M153.55,241.8h.71c-1.61,2-2.11,4.68-4.2,6.34h0C150.81,245.78,151.62,243.48,153.55,241.8Z"/><path class="cls-59" d="M110.5,168c-1.14,1.61-.9,2.86-1.93,3.36-.4.2-.92-.26-.95-.77C107.52,169.2,108.58,168.88,110.5,168Z"/><path class="cls-50" d="M81.33,141.56c1.91.1,2.34,1.5,3.17,2.37C82.84,144.14,82,143.33,81.33,141.56Z"/><path class="cls-9" d="M78.21,301.24c1.14,1.41,1.65,2.9.39,4.63Z"/><path class="cls-19" d="M25.07,206.69l-.68-.66,1.74-5.4.7.22Q26,203.76,25.07,206.69Z"/><path class="cls-60" d="M109.34,192v-.72l6.31-2.82h0C114,190.4,111.66,191.18,109.34,192Z"/><path class="cls-59" d="M79.79,122.48a15.57,15.57,0,0,1-3.54-4.34c1.52-.07,2,1.14,2.89,1.49h0c.24.68.48,1.35.73,2C80.24,122,80.21,122.24,79.79,122.48Z"/><path class="cls-58" d="M127.59,179.3l.74.74a15.73,15.73,0,0,1-4.55,3.38A11.49,11.49,0,0,1,127.59,179.3Z"/><path class="cls-10" d="M96,135.66c1.82,1.52,3.27,3.26,3.54,5.73C98.07,139.66,96.37,138.07,96,135.66Z"/><path class="cls-28" d="M145.16,210.91l-.69-.69c.26-1.59.53-3.18.8-4.77A6.62,6.62,0,0,1,145.16,210.91Z"/><path class="cls-22" d="M146.69,235.14a6,6,0,0,1-3.88,3.59A7.36,7.36,0,0,1,146.69,235.14Z"/><path class="cls-28" d="M129.69,173.67a7.68,7.68,0,0,1-4.12,3.41l3.37-4.13C129.41,173,129.49,173.38,129.69,173.67Z"/><path class="cls-15" d="M82,183.52v.66l-6.43-.87A11,11,0,0,1,82,183.52Z"/><path class="cls-61" d="M116.37,231.94l-2.83-2.78c-.05-1.27.58-1.18,1.41-.7a6.55,6.55,0,0,1,2.13,2.8C117.33,232,117,232.13,116.37,231.94Z"/><path class="cls-5" d="M134.63,192.7a6.8,6.8,0,0,1-4.54,1.21c1.48-1.36,3.06-1.52,4.54-1.92C135.12,192.23,135.12,192.47,134.63,192.7Z"/><path class="cls-40" d="M112.11,272.71h-1.34a5.69,5.69,0,0,1,1.34-4.14Z"/><path class="cls-22" d="M27.55,271.39c.33,1.21,1.13,2.35.5,4.1A4.1,4.1,0,0,1,27.55,271.39Z"/><path class="cls-60" d="M123.23,171.77a7,7,0,0,1-4.67,1.47A7.6,7.6,0,0,1,123.23,171.77Z"/><path class="cls-57" d="M91.08,206.69l0,.66H82.67c0-.22,0-.45,0-.67Z"/><path class="cls-21" d="M62.5,184.64a4.58,4.58,0,0,1,1.58,3.8A5.06,5.06,0,0,1,62.5,184.64Z"/><path class="cls-9" d="M115.7,157.57l6.91.7A6.32,6.32,0,0,1,115.7,157.57Z"/><path class="cls-17" d="M6.12,218c.4-.91.8-1.81,2.07-1.48-.06.87.27,1.95-.6,2.46S6.6,218.32,6.12,218Z"/><path class="cls-11" d="M84.28,315.74c.77,1.53.36,3.06.23,4.6C83.76,318.81,84.18,317.27,84.28,315.74Z"/><path class="cls-8" d="M140.29,148.38a4.57,4.57,0,0,0-.7-2.65c.22-.38.42-1.06.68-1.09,1.1-.11.7,1.23,1.36,1.62A2.19,2.19,0,0,1,140.29,148.38Z"/><path class="cls-21" d="M124.08,196.86c1-1.31,2.31-2.11,4.87-2.47a11.46,11.46,0,0,1-4.87,2.47Z"/><path class="cls-58" d="M78.46,117.46l-1.37-5.58c.22-.48.44-.48.66,0l1.41,4.91C79.41,117.53,79.1,117.67,78.46,117.46Z"/><path class="cls-30" d="M11.72,263.74c-1-1.34-.17-2.17.09-3.86A4,4,0,0,1,11.72,263.74Z"/><path class="cls-13" d="M60.19,210.21c-.6-.9-1.82-1.5-1.35-3.07,1.81.53,1.52,1.82,1.34,3.07Z"/><path class="cls-22" d="M84.07,115.38a8.87,8.87,0,0,1,2.78,4.92A8.18,8.18,0,0,1,84.07,115.38Z"/><path class="cls-10" d="M72.41,280.1a2.75,2.75,0,0,1-.19,3.09C71.37,282,71.68,281.13,72.41,280.1Z"/><path class="cls-57" d="M79.79,122.48c0-.27,0-.55.07-.83.26.2.54.39.79.61.5.45,1,.95.83,1.69,0,.22-.53.54-.7.48C79.84,124.13,80,123.22,79.79,122.48Z"/><path class="cls-40" d="M116.37,231.94l.71-.68a4.89,4.89,0,0,1,1.37,3.9C117.76,234.09,117.06,233,116.37,231.94Z"/><path class="cls-19" d="M103.72,146.27c1.62,1,2.42,2.7,3.44,4.2C105.06,149.85,104.36,148.09,103.72,146.27Z"/><path class="cls-12" d="M181.66,215.11l.68,0,0,6.3-.69.68C181.67,219.78,181.67,217.45,181.66,215.11Z"/><path class="cls-18" d="M5.41,279.72c-1-1.5-.68-2.91.6-5.25-.28,2.41-.44,3.83-.6,5.26Z"/><path class="cls-18" d="M153.54,182.11l.74.72a4.07,4.07,0,0,1-3.51,2.09h0Z"/><path class="cls-62" d="M192,187.49c1.39-.69,2.47-.47,4.16-.18A7,7,0,0,1,192,187.49Z"/><path class="cls-30" d="M166.9,293.07h-.67c0-2.11,0-4.22,0-6.33a.41.41,0,0,1,.69,0Q166.91,289.91,166.9,293.07Z"/><path class="cls-51" d="M107.2,182.79l-.72-.73a8.92,8.92,0,0,1,4.09-1.09C109.51,182.24,108.21,182.27,107.2,182.79Z"/><path class="cls-9" d="M200,244.72c.32.56.58.82.57,1.07,0,.42-.09,1.08-.35,1.2-.62.29-.76-.32-.72-.76A7.57,7.57,0,0,1,200,244.72Z"/><path class="cls-6" d="M123.38,246v-.72c.81,1.28,1,2.71,1.5,5.11A6.33,6.33,0,0,1,123.38,246Z"/><path class="cls-62" d="M73.37,113.66a2.81,2.81,0,0,1,1.72,2c-.08.11-.15.27-.19.27C73.68,115.65,73.64,114.56,73.37,113.66Z"/><path class="cls-9" d="M58.06,311.3l-.7-.69a7.63,7.63,0,0,1,1-4.34C58.23,308.45,58.14,309.87,58.06,311.3Z"/><path class="cls-62" d="M160.57,226.33l.7.69c-.43,1-.86,2.09-1.3,3.13A4.56,4.56,0,0,1,160.57,226.33Z"/><path class="cls-13" d="M166.91,286.74h-.69c.2-1,.39-1.93.65-3.2C168,284.91,167.37,285.82,166.91,286.74Z"/><path class="cls-5" d="M39.83,255.14a7.39,7.39,0,0,1,1-3.66c.71,1.37.06,2.5-.3,3.65A.48.48,0,0,1,39.83,255.14Z"/><path class="cls-21" d="M203.42,257.47a3,3,0,0,1,.18-2.84C204.28,255.52,204.24,256.3,203.42,257.47Z"/><path class="cls-5" d="M148.64,166.65l1.36.7-2.72,2.16c-.73.23-.91-.08-.73-.75Z"/><path class="cls-63" d="M135.27,154.78a2.07,2.07,0,0,1-2.05-2.16,1,1,0,0,1,1.42.09A1.92,1.92,0,0,0,136,154C135.72,154.22,135.5,154.5,135.27,154.78Z"/><path class="cls-52" d="M103.72,151.92c-1.86-.12-3.79.34-5.55-.67C100,151.34,102,150.79,103.72,151.92Z"/><path class="cls-43" d="M77.75,111.89h-.66v-4l.66,0Z"/><path class="cls-26" d="M103.71,201.75c.53-.55,1.24-1.59,1.86-.83.76.93-.66,1.08-1.16,1.55C104.2,202.21,103.74,202.19,103.71,201.75Z"/><path class="cls-62" d="M86.85,254.52c0-.27,0-.54,0-.82A7,7,0,0,1,88.78,257C87.39,256.47,87.19,255.44,86.85,254.52Z"/><path class="cls-10" d="M108.64,227.74l-3.89-.92c1.62-.8,2.74-.15,3.88.24C109.11,227.28,109.11,227.51,108.64,227.74Z"/><path class="cls-22" d="M166.93,201.07h-.7c.44-1,.88-2.08,1.67-4A5.2,5.2,0,0,1,166.93,201.07Z"/><path class="cls-30" d="M34.17,251.64l-.64,0c.63-1.44.88-3.07,2.07-4.24h0A7.72,7.72,0,0,1,34.17,251.64Z"/><path class="cls-11" d="M62.3,230.56H63v5.63h0C61.93,234.41,62.39,232.45,62.3,230.56Z"/><path class="cls-20" d="M37,243.19l.68.64c-.69,1.19-1.37,2.39-2.06,3.59h0A8.09,8.09,0,0,1,37,243.19Z"/><path class="cls-30" d="M85.09,125.61a1.86,1.86,0,0,1-1.9,1.5A1.6,1.6,0,0,1,85.09,125.61Z"/><path class="cls-33" d="M169.71,182.13l.71-.72,1.92,2.62C170.69,184,170.36,182.84,169.71,182.13Z"/><path class="cls-11" d="M69.33,214.87a2.27,2.27,0,0,1,2,1.58C70,216.77,69.76,215.94,69.33,214.87Z"/><path class="cls-58" d="M170.44,288.86h.7l-1.37,3.54-.72-.71Z"/><path class="cls-28" d="M215.39,288.16a4.26,4.26,0,0,1-.52-3.54c.83,1.23.34,2.44.52,3.55Z"/><path class="cls-60" d="M152.23,229.92l-2.15,2.27c-.26-1.54.78-1.78,1.36-2.33C151.73,229.49,152,229.51,152.23,229.92Z"/><path class="cls-49" d="M15.91,234.07h-.66c0-1.66-.28-3.38.7-4.91h0Z"/><path class="cls-19" d="M92.49,130.1a5.44,5.44,0,0,1,2.09,3.55A5.12,5.12,0,0,1,92.49,130.1Z"/><path class="cls-58" d="M152.23,229.92l-.79-.06,2.07-2.15.75.73A3.32,3.32,0,0,1,152.23,229.92Z"/><path class="cls-49" d="M92.45,227l-.68-1.33,3,.8C94,227.34,93.17,226.92,92.45,227Z"/><path class="cls-51" d="M50.35,222.13c.23.24.47.47.71.71l-2,2.11-.84,0Z"/><path class="cls-20" d="M198,252.76a2.44,2.44,0,0,1,.32,2.27C197.45,254.56,197.89,253.84,198,252.76Z"/><path class="cls-30" d="M82.62,112l1.46,3.45C83,114.51,81.9,113.61,82.62,112Z"/><path class="cls-22" d="M93.18,142.77c.53-.15,1-.31,1.58-.44,0,0,.24.42.17.54a1.33,1.33,0,0,1-1.75.62Q92.48,143.13,93.18,142.77Z"/><path class="cls-50" d="M79.19,149.1l-.78,0a3.52,3.52,0,0,1,2.72-1.59C80.75,148.51,79.86,148.7,79.19,149.1Z"/><path class="cls-21" d="M133.22,183.52a3,3,0,0,1-1.88,2.38c0-1.46,1.14-1.77,1.86-2.4Z"/><path class="cls-33" d="M146.55,168.76l.73.75c-.71.5-1.32,1.21-2.4,1C144.89,169.41,146,169.31,146.55,168.76Z"/><path class="cls-46" d="M129.69,173.67l-.75-.72c0-.45,0-.9,0-1.35-.15-.66.05-1,.76-.77A2.5,2.5,0,0,1,129.69,173.67Z"/><path class="cls-15" d="M24.34,272c-.24-.46-.48-.93-.73-1.39.05-.66.1-1.31.14-2l.59,0Z"/><path class="cls-49" d="M157.37,271c-.31-1.18-.41-1.84,0-2.53C158,269.18,157.83,269.87,157.37,271Z"/><path class="cls-13" d="M63.69,179.29H63c-.5-.11-1.14,0-1.27-.71,0-.09.28-.34.44-.34C62.88,178.24,63.28,178.79,63.69,179.29Z"/><path class="cls-11" d="M65.79,196.86A3.64,3.64,0,0,1,64.6,194c1.28.67,1,1.9,1.2,2.9Z"/><path class="cls-47" d="M134.63,192.7V192l2.8-.35C136.6,193,135.5,192.48,134.63,192.7Z"/><path class="cls-18" d="M75.65,100.48a7.15,7.15,0,0,1,2.17,3.69A4.79,4.79,0,0,1,75.65,100.48Z"/><path class="cls-28" d="M134.54,180.07l.76-.09a5.13,5.13,0,0,1-2.08,3.54l0,0C133.65,182.36,134.1,181.21,134.54,180.07Z"/><path class="cls-60" d="M115.65,188.43a3.39,3.39,0,0,1,2.79-1.64,3.73,3.73,0,0,1-2.78,1.64Z"/><path class="cls-18" d="M159.19,280.42V277a2.76,2.76,0,0,1,0,3.39Z"/><path class="cls-59" d="M174.1,186.45a8.9,8.9,0,0,1,.71,1.06c.14.29.17.75-.34.64-.25-.06-.47-.47-.63-.76S173.51,186.76,174.1,186.45Z"/><path class="cls-35" d="M85.63,131c-1-.37-1-.69-.83-1a1.46,1.46,0,0,1,.76-.59c.42-.11.61.21.49.59A9.06,9.06,0,0,1,85.63,131Z"/><path class="cls-14" d="M138.08,152.62a4.42,4.42,0,0,1,2.15-2.81A4.08,4.08,0,0,1,138.08,152.62Z"/><path class="cls-64" d="M23.65,279c-.66-.52-.65-1.3-.78-2l.71-1.91C23.6,276.34,23.62,277.64,23.65,279Z"/><path class="cls-20" d="M58.85,181.05a3,3,0,0,1,.48.79c.13.47-.23.56-.54.38a3,3,0,0,1-.6-.7Z"/><path class="cls-60" d="M129.71,170.83l-.76.77-1.8-.93A2.13,2.13,0,0,1,129.71,170.83Z"/><path class="cls-9" d="M151,170.14l.15-.94c.23.16.57.28.64.49s-.08.54-.14.82Z"/><path class="cls-5" d="M152.16,162.42a3.88,3.88,0,0,1-2.17,2.81A5,5,0,0,1,152.16,162.42Z"/><path class="cls-12" d="M134.61,156.8a5.34,5.34,0,0,1,2.31,2.85A3.82,3.82,0,0,1,134.61,156.8Z"/><path class="cls-49" d="M165.55,212.32l-.75-.74c.4-.49.26-1.38,1.14-1.53C166.4,210.93,165.92,211.61,165.55,212.32Z"/><path class="cls-62" d="M79.82,151.16c0-.23,0-.45,0-.68l2-1.32C81.51,150.68,80.52,150.75,79.82,151.16Z"/><path class="cls-37" d="M181,245.31h.64c0,1.44.18,2.91-.69,4.21h0Z"/><path class="cls-9" d="M100.91,142.71a4.78,4.78,0,0,1,2.18,2.89A4,4,0,0,1,100.91,142.71Z"/><path class="cls-59" d="M76.36,220.7c-.52-.38-1.6-.88-1.21-1.34.68-.83,1.28.3,1.9.65C77,220.45,76.64,220.52,76.36,220.7Z"/><path class="cls-50" d="M93.18,142.77v.72l-2.49.52C91.34,142.68,92.36,143,93.18,142.77Z"/><path class="cls-54" d="M76.36,220.7l.69-.69,2.12,1.39-.7.7Z"/><path class="cls-33" d="M16.68,220.77l.68.68a5.9,5.9,0,0,1-.73,3.49h0Z"/><path class="cls-12" d="M77,135.78l1.41-2.1,1.4,0h0A4.28,4.28,0,0,1,77,135.78Z"/><path class="cls-33" d="M16.63,224.94c0,1.44.18,2.92-.69,4.22h0c0-1.44-.18-2.91.7-4.21Z"/><path class="cls-40" d="M122,314.83c-.79-.19-.65-.85-.74-1.41.06-.21.11-.42.16-.64C122.53,313.2,121.73,314.17,122,314.83Z"/><path class="cls-22" d="M89,123.78l2,2.8C89.49,126.25,89,125.16,89,123.78Z"/><path class="cls-50" d="M79.84,133.65a3.54,3.54,0,0,1,2-1.73c-.27,1.32-1.16,1.49-2,1.74Z"/><path class="cls-37" d="M70,128.05h.77c.24.66.47,1.32.71,2l-.67.83Z"/><path class="cls-37" d="M115,228.46l-1.41.7-2.1-1.41c.24-.3.47-.29.72,0A4.4,4.4,0,0,1,115,228.46Z"/><path class="cls-15" d="M80.08,130.79c-.18-.17-.45-.37-.43-.41a1.92,1.92,0,0,1,.58-.75c.41-.22.63.06.47.45A3.4,3.4,0,0,1,80.08,130.79Z"/><path class="cls-24" d="M180.9,253.05h-.6a5.4,5.4,0,0,1,.67-3.52h0C180.93,250.69,180.92,251.87,180.9,253.05Z"/><path class="cls-48" d="M64.39,294.47l.67,0c0,1.19,0,2.37,0,3.56A5.85,5.85,0,0,1,64.39,294.47Z"/><path class="cls-30" d="M112.16,227.74h-3.52c0-.23,0-.46,0-.68A6,6,0,0,1,112.16,227.74Z"/><path class="cls-18" d="M84.34,140.21l-.45.28a1.84,1.84,0,0,1-.27-.57c0-.08.27-.19.42-.28Z"/><path class="cls-9" d="M72.11,140.65c0,.25,0,.49,0,.74-.36.34-.78,1.26-1.17.65S71.62,141.06,72.11,140.65Z"/><path class="cls-18" d="M78.46,117.46l.7-.66a2.2,2.2,0,0,1,0,2.82h0Z"/><path class="cls-52" d="M70.69,116.13a5.8,5.8,0,0,1-.63,3.42c0-1.15,0-2.3-.07-3.44Z"/><path class="cls-14" d="M150.77,184.92a2.37,2.37,0,0,1-2,.87c.56-.85,1.31-.79,2-.87Z"/><path class="cls-57" d="M39.83,255.14h.72c.18.43.32,1-.3,1S39.74,255.58,39.83,255.14Z"/><path class="cls-30" d="M158.52,283.9a1.58,1.58,0,0,1-.12-.52c.26-1,.53-2,.79-3h0A5.94,5.94,0,0,1,158.52,283.9Z"/><path class="cls-28" d="M178.83,261.47l.72,0c-.18.48-.15,1.34-.88,1.12C178.17,262.42,178.61,261.83,178.83,261.47Z"/><path class="cls-5" d="M150.78,166.64A5.58,5.58,0,0,1,154,166C153.08,166.81,151.91,166.63,150.78,166.64Z"/><path class="cls-5" d="M194,267.27c-.13-.16-.32-.28-.33-.43a1.93,1.93,0,0,1,.14-.6c.12.13.31.24.33.38A2,2,0,0,1,194,267.27Z"/><path class="cls-18" d="M103.71,201.75l.7.72-2.78.72,0,0A3.32,3.32,0,0,1,103.71,201.75Z"/><path class="cls-62" d="M74.22,170.88c0-.23,0-.47,0-.7l2.79-.73,0,0A5.35,5.35,0,0,1,74.22,170.88Z"/><path class="cls-13" d="M124.08,196.86l-.8,1-.34-.39,1.14-.6Z"/><path class="cls-65" d="M143.67,76.87l0,1.24c1.06,7.42-.71,9.27-8.25,8.67-1.77-1-1-1.84.21-2.61a4.31,4.31,0,0,0-3.46,1.4,6.4,6.4,0,0,1-3.2,2.74,13.88,13.88,0,0,0-3.36,1.78,4.74,4.74,0,0,1-.88.42,4.51,4.51,0,0,1-2.9.53,21.46,21.46,0,0,0-4.35-1.41c-.91-.24-1.28-1-1.78-1.7-1.32-1.6-.44-4.68-3.46-5.14-2.94-1.25-5.88-1.72-8.81,0-2,.85-3.89,1.81-5.1,3.71-.2.22-.41.42-.62.61a4,4,0,0,0-1.23,2.17,10.41,10.41,0,0,1-.78,2.62A11.68,11.68,0,0,0,95.41,99a5.8,5.8,0,0,0,.81,1.61c.49.78,1.47,1,2,1.81,1,1.25,2.33,2.23,3.29,3.53.45.65.43,1.51,1,2.12,4.1,3.73,10.15,2.7,13.55-2.31a18.57,18.57,0,0,0,1.89-3.26c.13-.29.25-.58.37-.87.69-1.29,1.57-2.46,2.34-3.7a3.67,3.67,0,0,1,2.15-1.32,1.77,1.77,0,0,1,1.33.75,3.34,3.34,0,0,1,.3,1c-.15,1.56.67,3,.56,4.58a7.26,7.26,0,0,1-.32,1,5.93,5.93,0,0,1-1,1.15,11.54,11.54,0,0,0-2.31,3.79,23.06,23.06,0,0,0-1.68,2c-2.32,3.12-5.58,4.16-9.3,4.18-2.26,0-4.53,0-6.79,0a13.5,13.5,0,0,1-2.58-.87,2.48,2.48,0,0,1-.39,0,6.11,6.11,0,0,1-1.28.07,2,2,0,0,1-.89-.28c-.72-1.21-2.09-1.37-3.19-2-1.06-1-.75-3-2.47-3.48a4.07,4.07,0,0,1-1-1.1,3.52,3.52,0,0,1-.24-.9c-.12-.93.22-2-.61-2.71-.91-.32-1.34.87-2.17.69a.85.85,0,0,1-.58-.32c-.1.69,0,1.57-1,1.53-.82,0-1.07-.73-1.31-1.4-.68-2-1.16-4,0-6a3.29,3.29,0,0,1,1.22-.9,3.88,3.88,0,0,0-1,.7,1.33,1.33,0,0,1-1-.27,2.16,2.16,0,0,1-.52-.92c-.1-1.29,0-2.57,0-3.86,0-1.44-.21-3,1.13-4a4.31,4.31,0,0,1,.87-.53l.92-.32c.29-.12.59-.23.88-.36,1.47-1.14.2-2.27,0-3.41.5-2,2.14-2.95,3.59-4.09l.58-.11c.59-.48,1-1.16,1.78-1.4a3.9,3.9,0,0,1,1.68-.32l.81-.23a9.69,9.69,0,0,0,2.83-2.08,2.54,2.54,0,0,1,1.16-.71c.31,0,.62-.06.86-.1-.06,0,0-.08,0-.08a.85.85,0,0,1-.42-.19.51.51,0,0,1-.25-.52c1.23-4.44,5.38-4.4,8.66-5.29,2.87-.78,6-.67,9-1a7.87,7.87,0,0,1,4.68,0c-1.24,1.54-2.46.86-3.5,1.06-1-.21-1.66.6-2.56.69.85,0,1.47-.85,2.38-.69a39.48,39.48,0,0,1,13.84.28,20,20,0,0,1,6.82,1.51A34.54,34.54,0,0,1,143.67,76.87Z"/><path class="cls-66" d="M43.93,92.7A55.86,55.86,0,0,1,55,86.6c4.32-4.39,9.86-6.54,15.53-8.46q.45-.24.93-.45c3.38-2.33,7.35-3.37,11-5.06,2.13.23,4.32-1,6.41.25a.78.78,0,0,1,.06,1Q66.52,83,44.83,93.72C44,93.85,43.69,93.52,43.93,92.7Z"/><path class="cls-58" d="M134.44,85.75c.12,0,.23,0,.35,0,7.69.06,6.45.84,8.21-6.08a15.55,15.55,0,0,1,.62-1.6c1.36.39,2.07-.65,2.93-1.34h0l.73,1.35c-.37,1.22-1.16,2.28-1.27,3.59a2.21,2.21,0,0,1-.24.71,1.84,1.84,0,0,0-.12.73c.19.77.93.87,1.49,1.2.26.18.51.35.76.54.73.68,1.94.76,2.32,1.88a2.37,2.37,0,0,1-.43,2.16c-1.85,1.44-3.74-.09-5.61.1a73.4,73.4,0,0,0-14.82.23,1.83,1.83,0,0,1-1-.4,1.09,1.09,0,0,1,0-1.52c1.34-.55,2-1.8,2.84-2.86C132.26,84.86,133.74,84.28,134.44,85.75Z"/><path class="cls-67" d="M89,73.26l-6.43,1.36c-.28-1.73.76-2.37,2.21-2.67,3.14-.45,5.85-2.1,8.77-3.19a34.43,34.43,0,0,0,4.62-1.57,6.88,6.88,0,0,0,2.35-1.48c1.23-.71,2.61-.53,3.94-.66a1.21,1.21,0,0,1,.72.7L107.27,67c-4.77,2.32-9.88,3.7-14.82,5.53C91.14,72.08,90.21,73.36,89,73.26Z"/><path class="cls-60" d="M86.74,89.32c-1.15.91-1.26,2.22-1.33,3.55-1.15.93-.08,3.3-2.31,3.53a4.56,4.56,0,0,1-2,.13,2.28,2.28,0,0,1-1.67-1.92,2.85,2.85,0,0,1,.37-3.14l1.44-4.84c1.93-1,3.66.83,5.56.42A1.37,1.37,0,0,1,86.74,89.32Z"/><path class="cls-46" d="M86.22,87.27c-2.16,3.73-3.5,1.09-5-.64.7-1.18,0-4.64,3.16-1.81,1.14,1,2.08-.2,2.86-1,1.37-1.36,2.46-3.06,4.51-3.54-.87,1.45-2.6,2.3-2.84,4.18a2.08,2.08,0,0,1-.81,2.23C87.53,87,86.84,87,86.22,87.27Z"/><path class="cls-24" d="M149.36,88.65V86.71c-1.22-2.56-1.89-5.11-.05-7.69l0-1.54c2.28,1,1.33,3.26,2,4.9a16.6,16.6,0,0,1,1,7C151,90.91,150.56,90.8,149.36,88.65Z"/><path class="cls-59" d="M79.82,91.47l.72,2.85c-1.14,1.55,1.45,2.88.25,4.43a2,2,0,0,1-.84.46c-1.31.2-2.07-.76-3-1.38-1.07-.93-.52-2.47-1.33-3.5.42-.91.9-1.8,1.26-2.74C77.79,89.24,78.77,89.84,79.82,91.47Z"/><path class="cls-44" d="M133.26,69.69a115.86,115.86,0,0,0-14.79.06c-.24-.16-.32-.31-.23-.45s.16-.22.24-.22h3.1c-1.24-1-2.27-.54-3.16-.78C123.54,66.93,128.35,68.87,133.26,69.69Z"/><path class="cls-58" d="M72.12,95c-1.9-4-5.09-2.55-8.42-1.57,3.06-3.5,6.42-3.29,9.12.17C72.42,94,72.73,94.76,72.12,95Z"/><path class="cls-68" d="M149.32,79c0,2.57,0,5.13.05,7.69a4.7,4.7,0,0,1-2.67-.87,4.06,4.06,0,0,0,.16-1.43c.06-1.49-.06-3-.08-4.46A2.81,2.81,0,0,1,148,78.36Z"/><path class="cls-69" d="M94.58,79.6l-2.21.58c1.13-2.54,2.72-4.52,5.73-4.8,1.49,2.8-1.41,3.1-2.52,4.42A1,1,0,0,1,94.58,79.6Z"/><path class="cls-12" d="M143.67,76.87c-1.6-1.14-2.43-3-4.15-4.1-1-.6.37-1,.56-1.57A5.88,5.88,0,0,1,143.67,76.87Z"/><path class="cls-20" d="M151.32,82.38l-2-4.9c.11-.9.1-1.87,1.26-2.22,1.16,1.07-.17,2.6.8,3.6C151.39,80,151.36,81.21,151.32,82.38Z"/><path class="cls-70" d="M95.2,79.57c.89-1.45,2.57-2.36,2.9-4.19l2.68-.83.13.12a1,1,0,0,1,0,1.4l-.7.71c-1.3.78-2.23,2-3.52,2.81h0A1,1,0,0,1,95.2,79.57Z"/><path class="cls-71" d="M148,78.36l-.06,2c-.49.42-.22,1.1-.55,1.58a1.66,1.66,0,0,1-.72.48,1.35,1.35,0,0,1-1.51-.69c0-1.62.21-3.08,2.11-3.56Z"/><path class="cls-72" d="M43.93,92.7l.9,1-3.58,2c-1.33.06-1.15-.63-.73-1.46Z"/><path class="cls-60" d="M72.12,95l.7-1.4c.85.81,1.88,1.48,2.14,2.75a.89.89,0,0,1-.82.81Z"/><path class="cls-4" d="M75.62,94.33l2.11,2.8a.91.91,0,0,1-.08,1.39c-.5.34-1-.08-1.43-.35-.63-.44-1-1-.61-1.76C75.61,95.72,75.62,95,75.62,94.33Z"/><path class="cls-73" d="M89,73.26c1-.89,2.08-1.59,3.47-.75L89,73.89C89,73.68,89,73.47,89,73.26Z"/><path class="cls-65" d="M40.52,94.31l.73,1.46c-.87.81-1.82,1.26-3,.53C39,95.59,39.42,94.57,40.52,94.31Z"/><path class="cls-69" d="M75.61,96.41l.72,1.43c.24.17.32.33.24.49s-.17.24-.25.24l-1.39,0-.79-1.35.82-.81C75.18,96.41,75.39,96.41,75.61,96.41Z"/><path class="cls-39" d="M35.6,97.47c.52-.7,1.1-1.29,2.1-1C37.52,97.82,37.13,98.79,35.6,97.47Z"/><path class="cls-12" d="M146.55,76.77l-1.28-.4.25-.45,1,.86Z"/><path class="cls-1" d="M54.42,77l-4.8-10c.5-2.06.19-3.56-2.42-3.46L46.75,63l-2.7-6.64a4.11,4.11,0,0,1-.79-1.89,2.25,2.25,0,0,1,.64-1.86c1-.61,2-1.11,2.92-1.81,0-.24,0-.47,0-.7.74-1.32,2-2.2,2.77-3.52a5.52,5.52,0,0,0,2.86-1.43h.73c2.12,0,3,1.73,4,3.16s1.77,3,2.83,4.34a67.06,67.06,0,0,1,6.44,12.91c-2.83,4-7.14,6.53-9.86,10.6A2.17,2.17,0,0,1,54.42,77Z"/><path class="cls-52" d="M44,54.32l0,2.07c-.19.92.4,2.13-.84,2.65-.24.1-.87-.28-1.07-.6-.86-1.4.53-1.95,1.15-2.79C42.88,54.85,42.8,54.24,44,54.32Z"/><path class="cls-14" d="M44,54.32c-.24.45-.48.89-.73,1.33L42.61,55c-.75-1.81.84-2.83,1.42-4.19l.06,0,.65.7a.92.92,0,0,1,0,1.39Z"/><path class="cls-54" d="M44,50.8c-.47,1.39-1,2.79-1.42,4.19C41.6,53.09,42.72,51.91,44,50.8Z"/><path d="M85.42,73.24l-2.87,1.38L71.4,78.92c-1.78-4.82-4.32-9.42-4.2-14.78,17.39-11.28,36.12-18.54,57.11-18.93,1.63,0,3.28.45,4.88.3s4.42,2.13,4.35-1.91c0-.14.54-.34.85-.42,4.42-1.18,5.75-5.29,3-9.22,0-1.25.63-1.19,1.47-.74l.66.26c.44,5.53-.7,11.13.66,16.62,2,.06,2.39,1.26,2.1,2.95-.39.4-.71,1-1.18,1.17-7.5,2.23-15,4.39-22.53,6.56a27.17,27.17,0,0,0-5.88,1.38A198.88,198.88,0,0,0,93.07,69.1C90.46,70.37,87.39,70.78,85.42,73.24Z"/><path class="cls-16" d="M107.22,34.62c-11,3-22.1,5.84-33.92,9.73,4-4.66,8.59-6.68,13.12-8.63a44.41,44.41,0,0,1,11.5-3.11c1.59-.22,3.42-1.47,4.69,1.3.55,1.22,3-.3,4.62,0,.25.16.33.32.25.47S107.31,34.62,107.22,34.62Z"/><path class="cls-74" d="M67.2,64.14C69,69,71.63,73.53,71.4,78.92l0,0a2.22,2.22,0,0,1-2.81-1.34c-1.31-3.18-2.3-6.48-3.41-9.74a2.72,2.72,0,0,1,.57-2.26c-1.66-4.43-4-8.51-6.18-12.71a.78.78,0,0,1,.55-.61C63.57,55.57,64.33,60.48,67.2,64.14Z"/><path class="cls-75" d="M60.17,52.22l-.55.61c-2.13-2.56-3.75-5.55-6.43-7.65,0-.93-.16-1.89.62-2.63a4.07,4.07,0,0,0,.13.5A46,46,0,0,1,60.17,52.22Z"/><path class="cls-60" d="M100.6,20.09c4.59-1.49,9.18-2.85,14.93-2Z"/><path class="cls-12" d="M62.75,36.36a10.72,10.72,0,0,1,7.12-4.24Z"/><path class="cls-50" d="M73.9,29.87a6.79,6.79,0,0,1,5.63-2.8Z"/><path class="cls-37" d="M121.26,16.4l.76-.71L125.24,17c-1,1.26-2.25.59-3.31.76C121.71,17.31,121.48,16.86,121.26,16.4Z"/><path class="cls-49" d="M86.17,23.43c1.68-.24,3.17-1.35,5.63-1.1a15.45,15.45,0,0,1-5.64,1.81c-.24-.16-.31-.32-.23-.48S86.09,23.43,86.17,23.43Z"/><path class="cls-26" d="M129.71,32.53a4,4,0,0,1-2.8-.64c1.06-1,1.92-.53,2.79,0C130.18,32.07,130.18,32.29,129.71,32.53Z"/><path class="cls-54" d="M107.22,34.62c0-.23,0-.47,0-.7,1.8-.82,3.72-.67,5.62-.68.17.16.23.31.16.46s-.13.22-.19.22Z"/><path class="cls-9" d="M112.82,33.92l0-.68a2.89,2.89,0,0,1,3-.35C115,33.86,113.87,33.8,112.82,33.92Z"/><path class="cls-30" d="M138.83,33.22l-1.47.74-2.75-1A4.54,4.54,0,0,1,138.83,33.22Z"/><path class="cls-11" d="M86.17,23.43c0,.24,0,.48,0,.71a3.24,3.24,0,0,1-2.47,1.08C84.22,24,85.38,24,86.17,23.43Z"/><path class="cls-33" d="M94.27,21.48a1.54,1.54,0,0,1,2-.57C95.68,21.59,95.14,22,94.27,21.48Z"/><path class="cls-30" d="M129.71,32.53c0-.23,0-.46,0-.68h2l.05.46Z"/><path class="cls-37" d="M121.94,17.76c0,.27,0,.54,0,.81l-2.14-.19C120.46,17.48,121.28,17.93,121.94,17.76Z"/><path class="cls-76" d="M92.51,68.38c6.64-2.81,13.28-5.59,20.36-7.1.41-.24.83-.41,1.22,0s.1.85-.32,1a9.28,9.28,0,0,0-3,1.35l-2.84,1.16c-1.4-.64-2.37.41-3.48.89L100.92,67a2.38,2.38,0,0,1-2.08,1.44l-4.93,1.39C93.48,69.28,92.09,69.74,92.51,68.38Z"/><path class="cls-46" d="M110.72,63.64c.31-1.16,2.35-.74,2.15-2.36,1.84-.75,3.69-1.42,5.67-.5C116.17,62.38,113.37,62.79,110.72,63.64Z"/><path class="cls-62" d="M104.4,65.69c1-1,2-1.8,3.48-.89l-2.72,1Z"/><path class="cls-40" d="M49.6,46.61a5.72,5.72,0,0,1-2.77,3.52A5.66,5.66,0,0,1,49.6,46.61Z"/><path class="cls-33" d="M44.73,52.92c0-.46,0-.93,0-1.39l2.08-.7Z"/><path class="cls-39" d="M149.36,88.65c1,.14,1.7,1.49,2.92.68,3.59,2.23,7.31,4.29,10.18,7.51.91.39,1.48,1.25,2.34,1.7l2.84,2.26a11.1,11.1,0,0,0,3.62,3.33l.61.62a6.5,6.5,0,0,0,2.65,2.91l5.66,7.71c.7,2-1,2.91-1.93,4.18-1.74,2.56-1.31,5.3-.57,8a13.6,13.6,0,0,1,.6,5.83c-.26,1.61-.8,3-2.91,2.31-4.45-6.43-10.58-10.83-17.41-14.37-7.64-4.91-22.52-4.32-29.85,1.27-2,1.55-4,3.21-5.91,4.92-8.65,7.74-20,6.65-27.15-2.65-.42-.55-.83-1.12-1.25-1.68-2.08-1-2.33-3.31-3.66-4.84-.39-1.19-.84-2.35-1.2-3.54A15.48,15.48,0,0,0,88,111c-.28-2.24-1.55-4.79,1.76-6,1,.07,1.47.78,1.75,1.64a2.32,2.32,0,0,0,.52.6,1.93,1.93,0,0,0,.64.14,1.15,1.15,0,0,1,.53.31c1.75.51,2.37,1.91,2.75,3.49,1.15.47,1.74,1.68,2.87,2.17l.83-.07c1.38.16,2.62.9,4,1.06,2.33-.18,4.69.41,7-.34,3.45-.16,5.79-2.57,8.53-4.19.8-.33,1.68-.6,1.8-1.67a2.72,2.72,0,0,1,.6-1.17c1.12-.9,1.07-2.4,1.8-3.51v-.72c-.16-1.1.44-2,.59-3.07.88-2.1.33-4.3.46-6.46.09-1.39,0-2.82,1.76-3.3,1.92-.31,3.68,1,5.61.56a16.62,16.62,0,0,1,2.78.4s0,0,0,0c-.86,0-1.6-.43-2.42-.39-1.07-.09-2.17.21-3.21-.25-.19-1.34,1-1.46,1.74-2a32,32,0,0,1,13.73-1A13.31,13.31,0,0,1,149.36,88.65Z"/><path class="cls-77" d="M171.26,104.13a4.49,4.49,0,0,1-3.62-3.33A10.69,10.69,0,0,1,171.26,104.13Z"/><path class="cls-78" d="M174.52,107.66c-1.77-.16-2.42-1.35-2.65-2.91A7.09,7.09,0,0,1,174.52,107.66Z"/><path class="cls-79" d="M164.8,98.54a3.6,3.6,0,0,1-2.34-1.7C163.76,96.69,164.35,97.53,164.8,98.54Z"/><path d="M65.8,65.54a51.06,51.06,0,0,1,4,10.41c.31,1.11.34,2.35,1.6,2.93A134.48,134.48,0,0,1,55,86.6c1.8-1.77,1-3.75.46-5.7-.33-1.32-.7-2.63-1-3.94A27.42,27.42,0,0,1,65.8,65.54Z"/><path class="cls-54" d="M47.2,63.5c2-.36,2.69-2.9,5.32-3.13-1,2.34-1.26,4.73-2.9,6.59Z"/><path class="cls-3" d="M134.64,152.71l-1.42-.09-1.41,0a39,39,0,0,0-13.34-1.36,8.43,8.43,0,0,1-5.23,1,3,3,0,0,1-1.5-1,1.74,1.74,0,0,1-.3-2.17c1.92-2,4.12.11,6.3-.41,4-1,8.28-1.14,12.44-1.61a4.61,4.61,0,0,1,3,.63,1.69,1.69,0,0,1-1.34,1.3,2.13,2.13,0,0,1,2.74.81c1.21,1,1.86-.91,2.95-.56A8.33,8.33,0,0,1,134.64,152.71Z"/><path class="cls-5" d="M105.09,145A42.91,42.91,0,0,1,98,135.2a11.29,11.29,0,0,1,7.12,8.27A1.06,1.06,0,0,1,105.09,145Z"/><path class="cls-51" d="M105.09,145c0-.5,0-1,0-1.51,2.18,0,2.23,2.27,3.52,3.24,1,.73,1.56,1.94,2.79,2.38l.71,1.41c0,.81.2,1.7-.72,2.21A21.79,21.79,0,0,1,105.09,145Z"/><path class="cls-33" d="M134.61,149.81c-2.8-.3-5.55.46-8.38.61,1.94-2.06,4.67-1.85,7-2.72C134.63,147.77,135.28,148.35,134.61,149.81Z"/><path class="cls-30" d="M91.11,118.2l2.69,5c-2.27.44-2.58-1.54-3.45-2.82-.55-.34-1-.72-1-1.47a1.47,1.47,0,0,1,.94-1A1,1,0,0,1,91.11,118.2Z"/><path class="cls-37" d="M89.69,118.85l.66,1.52-.7.67a17.23,17.23,0,0,1-2.83-4.94,1.59,1.59,0,0,1,1.52-.53C89.9,116.21,90,117.44,89.69,118.85Z"/><path class="cls-22" d="M76.32,98.57v-.73c.69.21,1.2.06,1.4-.71.15-.94.36-1.81,1.26-.43a13,13,0,0,1,.86,1.85,11.26,11.26,0,0,1,2.21,2.83,7.69,7.69,0,0,0,1.47,2,2.19,2.19,0,0,1,.72.49,4.25,4.25,0,0,1,.54.77c.46,2.66,2.91,4.52,2.94,7.37a2.15,2.15,0,0,1-.35,1,1.31,1.31,0,0,1-2,.24Z"/><path class="cls-5" d="M112.85,151.21h5.62c-.13.83,1.33,2.39-1.19,2.09-1.8-.22-.08,1.66-1,2.17l-3.47-1.54C112.24,153,112,152.12,112.85,151.21Z"/><path class="cls-18" d="M85.41,113.31l1.45-.7a1.19,1.19,0,0,1,1.46.44,2.55,2.55,0,0,1-.15,3.08l-1.35,0Z"/><path class="cls-12" d="M112.85,151.21c0,.91,0,1.82,0,2.73l-1.43-1.23.72-2.21Z"/><path class="cls-80" d="M131.8,153.32c-.23.73-.47,1.45-.7,2.17C130.23,154.41,130.08,153.56,131.8,153.32Z"/><path class="cls-42" d="M100.23,107c-1-1.34-2.8-1.93-3.58-3.52-.6-.87-.8-1.94-1.36-2.83a2.09,2.09,0,0,1,0-.93,3.31,3.31,0,0,1,.49-.8,9.35,9.35,0,0,0,1.42-3c1.37-3.36,2.14-6.9,3.21-10.36,1.71-3.85,3.44-4.22,8.5-1.83a27.06,27.06,0,0,1,2.73,2.73c1.43,3.1,3,6.17,1.54,9.73-.49,1.07-.89,2.18-1.32,3.28a37.26,37.26,0,0,0-.94,3.78c-.6,1.23-.55,2.82-2,3.59C104.45,109.45,102.81,109.48,100.23,107Z"/><path class="cls-75" d="M100.23,107c3.12,1.51,5.87.8,8.35-1.43.61-1,1.62-1.77,1.74-3a9.79,9.79,0,0,1,.71-3,4,4,0,0,1,.45-.77,2.22,2.22,0,0,0,.57-2,2.89,2.89,0,0,0-.42-.77c2.25-3.32-.16-6.11-1-9.07a.88.88,0,0,1,.38-1.19,1.63,1.63,0,0,1,.93-.06,3.31,3.31,0,0,1,1.38,1.27,7.16,7.16,0,0,0,1.55,1.87,2.73,2.73,0,0,1,.51.87,2.57,2.57,0,0,1,.1,1.55c-.05.52-.08,1-.1,1.56,0,1.92,0,3.84,0,5.76v2.51c0,.66,0,1.32,0,2a4.46,4.46,0,0,1-.82,1.78,11.84,11.84,0,0,1-1,1.17,10.44,10.44,0,0,0-2.3,2,9.57,9.57,0,0,1-2.13,1.72c-2.76.78-5.45.29-8.13-.48C100.63,108.44,99.93,107.86,100.23,107Z"/><path class="cls-75" d="M114.26,92.29c0-.49,0-1,0-1.47a.91.91,0,0,0,0-1.38v0c-.35-1-.54-2,.51-2.71.74-.49,1.25,0,1.59.63l1.48,1.47a3.58,3.58,0,0,1,.84,1.19,16.84,16.84,0,0,1,0,4,12.59,12.59,0,0,0,.09,5.53,9.91,9.91,0,0,1-2.51,5.94c-1.56,1-2.49.59-2.71-1.29l.7-1.28c0-.79.64-1.37.63-2.15a18.09,18.09,0,0,0-.28-2.84C114.42,96,115,94.1,114.26,92.29Z"/><path class="cls-81" d="M87.59,113.3l-.73-.69,0-.75a24.72,24.72,0,0,1-2.4-11.33c0-1.08.09-2,1.06-2.72l.8,0,0,0a12.76,12.76,0,0,0,.77,6.5c1-.81.1-2.06.87-2.87l1.12,2.8c.43-.94.52-2.35,2.19-1.58.8.83.53,1.67,0,2.52a1.79,1.79,0,0,1-.91.59c-2.49,1.52-.73,3.6-.72,5.45C88.66,111.61,89.41,113.65,87.59,113.3Z"/><path class="cls-57" d="M100.94,109.15a28.06,28.06,0,0,0,8.41-.9,3.05,3.05,0,0,0,1.66-.6,8.35,8.35,0,0,1,2-1,17.91,17.91,0,0,0,2.57-.93,1.91,1.91,0,0,1,.92,0,1.45,1.45,0,0,1,.68.59C113.16,111.87,107.6,112.85,100.94,109.15Z"/><path class="cls-54" d="M102.33,81.66c3.41-1.32,6.86-2,10.44-.64,1.84,1.36,3.43,2.76.77,4.83a1.91,1.91,0,0,1-2-.1l-.09.11c-1.17-.23-1.88-1.2-2.84-1.77C106.87,82.4,104.27,82.87,102.33,81.66Z"/><path class="cls-62" d="M85.5,97.81a56.33,56.33,0,0,0,1.34,14.06c-2.43-1.7-1.75-5-3.49-7a11.94,11.94,0,0,1-1.67-5.63,2.46,2.46,0,0,1,.37-1c1-.64,1.94-1.65,3.34-1C85.42,97.42,85.46,97.62,85.5,97.81Z"/><path class="cls-82" d="M102.33,81.66c2.56,0,5,.19,7,2.24.07.58,0,.95-.75.67s-1.33-.43-2-.71c-2.41-1.1-4.21-.9-4.74,2.14a4,4,0,0,0-1.71.6c-.71.33-1.38.82-2.23.49-.45-.27-.76-.61-.49-1.18A13.39,13.39,0,0,1,102.33,81.66Z"/><path class="cls-80" d="M112.75,85.15c1.43-1.37,1.17-2.75,0-4.13,4.58.19,3.14,3.78,3.58,6.31-1.7-.32-1.52,1.27-2.1,2.08a5.08,5.08,0,0,1-2.07-2.14C112.51,86.6,112.46,85.83,112.75,85.15Z"/><path class="cls-83" d="M134.44,85.75c-1.35.24-2.59.2-3.3-1.26,3.77-2.14,7.73-2,9.34.41C138.53,85.66,136.33,84.65,134.44,85.75Z"/><path class="cls-30" d="M138.1,76.72l-9.09,0c-.26-.15-.34-.3-.25-.44s.18-.2.27-.2a2.74,2.74,0,0,0,1-.3c.55-.45.27-.87-.28-.91a7.24,7.24,0,0,1-2.38-.27,9.4,9.4,0,0,1,6.71-.1c.63,1.2,1.87.91,2.88,1.17C137.53,75.86,138.39,75.61,138.1,76.72Z"/><path class="cls-35" d="M85.39,97.22c-.9.47-.89,2.82-2.74,1.33-1.3-1.17-.68-2.34,0-3.51,2.48-.26.68-2.47,1.85-3.5.63,0,.38,1,.9,1.33C85.4,94.32,85.4,95.77,85.39,97.22Z"/><path class="cls-84" d="M116.34,106.26l-.71.26a1.19,1.19,0,0,1,0-1.61c.83-1.83,2-3.54,2.12-5.66.17-1.25-.44-2.65.73-3.7a1.18,1.18,0,0,1,1.07.23,3.78,3.78,0,0,1,.62,2.77,12.51,12.51,0,0,1-1,3.39l-.06.85C118.23,104,117.87,105.58,116.34,106.26Z"/><path class="cls-85" d="M86.3,97.76c.66-.93.5-2,.59-3.05s.35-1.93,1.64-1.7,1.22,1.31,1.07,2.23c-.31,1.83-1.7,2.35-3.33,2.48Z"/><path class="cls-86" d="M87.55,85.9c.47-.48.93-1,1.4-1.43,3,1.21.52,3.23.71,4.86a1.45,1.45,0,0,1-2.1.1l0,0A3.65,3.65,0,0,1,87.55,85.9Z"/><path class="cls-87" d="M126.27,90.66c-1.25,2-.49,4.25-.77,6.38-.14,1.09.68,2.69-1.32,3-.68-.23-.27-1.06-.76-1.4v-.91c-.65-3-.94-5.85,1.36-8.33l0,0a1.21,1.21,0,0,1,1.45-.2A1.1,1.1,0,0,1,126.27,90.66Z"/><path class="cls-21" d="M91.07,102.77l-2,1.38a11.87,11.87,0,0,1,.09-1.7c.22-1,.57-2.17,1.8-2.19,1.62,0,1.51,1.38,1.62,2.49A1,1,0,0,1,91.07,102.77Z"/><path class="cls-21" d="M93.91,99.88c.21-3-.68-6.15.71-9.1a1.09,1.09,0,0,1,1.08,0,2.42,2.42,0,0,1,1,2.48,17.39,17.39,0,0,0-.38,3.67c0,.86.12,1.77-.53,2.5C95.23,99.94,94.69,100.38,93.91,99.88Z"/><path class="cls-46" d="M124.79,89.39c-.59,2.76,1.35,5.92-1.36,8.33L122.7,97a1.57,1.57,0,0,1-.63-.74c.51-2-.81-3.71-1.19-5.57.2-.53.49-.9,1.13-.62Z"/><path class="cls-37" d="M138.1,76.72c-1.25-.79-2.73-.42-4-.81-1.13-.34-.71-.91,0-1.37,1.56.4,3.32.48,4.63,1.28S138.64,76.61,138.1,76.72Z"/><path class="cls-88" d="M138.15,81.65c-1.48-.09-3,.33-5.07-.54a5,5,0,0,1,5-.18C138.63,81.16,138.64,81.4,138.15,81.65Z"/><path class="cls-76" d="M91.07,102.77l1.46,0c1.79,1.19.08,2.38,0,3.57-1.45.61-1.42-1-2.16-1.45Z"/><path class="cls-89" d="M95.32,91l-.7-.18c0-.7,0-1.4,0-2.1,1.17-.58,1.29-2,2.15-2.79l.65,0,.59.69C98.63,89,98.17,90.71,95.32,91Z"/><path class="cls-60" d="M122,90.08l-.71.63a1.51,1.51,0,0,1-.68.73c-1.24.21-2.46.36-2.76-1.35l0-1.29A5.36,5.36,0,0,1,122,90.08Z"/><path class="cls-90" d="M123.38,103.46c.39,1.67.8,3.34-1.31,4.23-1.34-1.41.07-2.37.57-3.47Z"/><path class="cls-48" d="M110.65,114c-2.47,1.27-5.07.66-7.64.5v-.42Z"/><path class="cls-1" d="M122.64,104.22l-.57,3.47-.72.79a.62.62,0,0,1-.8-.08C120.12,106.44,121.35,105.31,122.64,104.22Z"/><path class="cls-55" d="M98.84,113.35c-2.06.73-2.13-1.16-2.87-2.17A2.72,2.72,0,0,1,98.84,113.35Z"/><path class="cls-91" d="M118.48,69.08c0,.22,0,.44,0,.67a6.32,6.32,0,0,1-4.4.65Z"/><path class="cls-4" d="M90.38,104.87l2.16,1.45c0,.19,0,.38,0,.58a.45.45,0,0,1,.17.52c-.08.16-.15.24-.22.24v0a.9.9,0,0,1-1.37,0c-.27-.66-.53-1.32-.79-2Z"/><path class="cls-37" d="M119.22,101.94c0-1.09.06-2.18.08-3.27a1.37,1.37,0,0,1,1.31-.65,1.58,1.58,0,0,1,.84.54C120.71,99.69,120,100.82,119.22,101.94Z"/><path class="cls-92" d="M128.57,70.69a4,4,0,0,1-3.64,0Z"/><path class="cls-93" d="M120.55,108.4l.8.08c.31,2.14-.95,1.71-2.17,1.33Z"/><path class="cls-23" d="M96.69,79.59a5.75,5.75,0,0,1,3.52-2.81A5.75,5.75,0,0,1,96.69,79.59Z"/><path class="cls-94" d="M95.2,79.57h1.5c-.22.77-.38,1.86-1.21,1.88-1.13,0-.42-1.31-.91-1.86Z"/><path class="cls-17" d="M127.59,82.37a3,3,0,0,1-2.7,1.07c.6-1.28,1.85-1.19,2.72-1.65C128.1,82,128.09,82.2,127.59,82.37Z"/><path class="cls-9" d="M116.34,106.26c.94-1.15,1.47-2.64,2.82-3.47a5.42,5.42,0,0,1-2,3.47Z"/><path class="cls-24" d="M126.22,89.34l-1.46.08a5,5,0,0,1,3.54-2.07v1.39l-.27.4A1.85,1.85,0,0,1,126.22,89.34Z"/><path class="cls-60" d="M103,114.08c0,.14,0,.28,0,.42a5.55,5.55,0,0,1-3.35-1.22c.42-.21.83-.43,1.24-.65l0,0Z"/><path class="cls-92" d="M115,74a3.45,3.45,0,0,1-2.8,1.64A3.79,3.79,0,0,1,115,74Z"/><path class="cls-23" d="M103,74.67a4,4,0,0,1,2.83-1.77A3.71,3.71,0,0,1,103,74.67Z"/><path class="cls-95" d="M95.85,100c.27,1.16.53,2.31.8,3.46a3.29,3.29,0,0,1-1.4-2.11C94.83,100.6,94.76,100,95.85,100Z"/><path class="cls-11" d="M123.42,98.63l.76,1.4-.81,2.71C122.7,101.36,123.58,100,123.42,98.63Z"/><path class="cls-96" d="M95.85,100l-.6,1.35a2,2,0,0,1-1.34-1.44l1.39-.69c.65-.1.91.18.83.81Z"/><path class="cls-87" d="M100.9,112.63c-.11-.68,0-1.19.86-1,.27.07.48.38.71.59l-1.61.35Z"/><path class="cls-92" d="M115,74a3.28,3.28,0,0,1,2.47-1.1c-.62,1.19-1.62,1-2.46,1.12Z"/><path class="cls-21" d="M127.59,82.37c0-.19,0-.39,0-.58l2.41-.41C129.55,82.9,128.38,82.13,127.59,82.37Z"/><path class="cls-87" d="M87.55,85.9c0,1.17,0,2.34,0,3.51l-.85-.09c-.17-.69-.35-1.37-.52-2Z"/><path class="cls-81" d="M96.75,85.89c-.32,1.24-.74,2.4-2.15,2.79A6.11,6.11,0,0,1,96.75,85.89Z"/><path class="cls-69" d="M87.56,89.43l2.1-.1C89,90.28,88.34,91,87.56,89.43Z"/><path class="cls-9" d="M138.15,81.65c0-.24,0-.48,0-.72l2.38.15C139.61,81.91,138.84,81.6,138.15,81.65Z"/><path class="cls-97" d="M129,76.12c0,.21,0,.43,0,.64l-2.11.79A2.48,2.48,0,0,1,129,76.12Z"/><path class="cls-94" d="M100.91,76.07v-1.4H103A3.12,3.12,0,0,1,100.91,76.07Z"/><path class="cls-10" d="M121.45,98.56l-1-.12a1.38,1.38,0,0,1-.17-1c.58-1,1.2-1.8,2.44-.83a2.56,2.56,0,0,1,0,.39C122.28,97.53,121.87,98.05,121.45,98.56Z"/><path class="cls-69" d="M92.47,107.66c0-.25,0-.51,0-.76l.71.79Z"/><path class="cls-20" d="M144.39,87.21c-4.71,0-9.42.14-14,1.52a1,1,0,0,1-1.42,0C133.92,86.07,139.11,86.18,144.39,87.21Z"/><path class="cls-9" d="M145.16,81.69h1.39a2.67,2.67,0,0,1,0,3.53,2.17,2.17,0,0,1-2.09-1.39,1.73,1.73,0,0,1,0-2.17Z"/><path class="cls-4" d="M144.47,81.66l0,2.17c-.54-.8-1-1.82-.55-2.6S144.28,81.47,144.47,81.66Z"/><path class="cls-23" d="M146.53,85.22c0-1.18,0-2.35,0-3.53h.69a3.91,3.91,0,0,1,0,3.51l-.56.63C146.64,85.63,146.58,85.43,146.53,85.22Z"/><path class="cls-87" d="M129,88.7l1.42,0L129,90.1c-.69.53-1.71.64-2,0-.56-1.12.87-.86,1.32-1.32v0C128.54,88.74,128.77,88.72,129,88.7Z"/><path class="cls-6" d="M92.51,68.38l1.4,1.41-8.49,3.45C86.24,69.37,90,69.8,92.51,68.38Z"/><path class="cls-77" d="M98.84,68.4,100.92,67C101.1,68.7,100.24,68.94,98.84,68.4Z"/><path class="cls-22" d="M80.54,98.55c-.3-1.41-1.67-2.82,0-4.23a2.29,2.29,0,0,0,1.4,1.43c.73,1.54.2,2.89-.68,4.17C80,100,80.07,99.38,80.54,98.55Z"/><path class="cls-33" d="M81.25,100l.69-4.21c.08-.39.23-.72.72-.71,0,1.17,0,2.34,0,3.51h0c-.5.4-.22,1.28-1,1.54Z"/><path class="cls-33" d="M80.54,98.55c.23.47.47.94.71,1.41h0a1.42,1.42,0,0,1,0,2.1,5.17,5.17,0,0,1-1.39-3.5Z"/><path class="cls-6" d="M147.25,85.21c0-1.17,0-2.34,0-3.51l.7-1.38C147.89,82,148.22,83.69,147.25,85.21Z"/><path class="cls-25" d="M87.59,113.3c.73-.66.38-2.34,2-2.17l.75,3.63c-1,1.18,1.07,2.26.11,3.44l-.77.65c-.51-.9-1-1.81-1.52-2.72C88,115.19,87.78,114.24,87.59,113.3Z"/><path class="cls-98" d="M100,123.06c1.38-.12,1.76.53,1.75,1.44,0,1.09-.23,2.09-1.66,2.11-1.2,0-1.21-.84-1.19-1.65S98.94,123.06,100,123.06Z"/><path class="cls-83" d="M118.58,122.58a2.28,2.28,0,0,1-.56,4.24c-1.14,0-1-1.14-.86-1.86A2.83,2.83,0,0,1,118.58,122.58Z"/><path class="cls-99" d="M111.4,126.54c-.1,1.39-.69,2.14-1.88,2.28-.78.09-1.42-.24-1.36-1.11a2.2,2.2,0,0,1,2-2.31C111.13,125.31,111.27,126.06,111.4,126.54Z"/><path class="cls-86" d="M126.17,121.72c-1.4.18-2.23-.31-2-1.85s.65-2.5,2.41-1.67C128,119.54,126.79,120.6,126.17,121.72Z"/><path class="cls-86" d="M132.93,113.81a1.22,1.22,0,0,1,1.17,1.4c0,1-.5,1.91-1.52,2s-.77-1-.78-1.58C131.79,114.8,131.85,114,132.93,113.81Z"/><path class="cls-100" d="M131,111.52a4,4,0,0,1,4.5-1.81Z"/><path class="cls-21" d="M128.31,88.77c-.9,1-.41,1.35.71,1.33l3.45.12c.27.12.36.24.28.37s-.16.21-.25.21l-6.23-.14c0-.44,0-.88,0-1.31Z"/><path class="cls-101" d="M147.27,110.42l-6-1a8.75,8.75,0,0,1,6,.37C147.73,110,147.74,110.21,147.27,110.42Z"/><path class="cls-44" d="M98.8,118.91c-1.21-.84-2.41-1.68-2.64-3.54l2.6,2.94q.38.18.27.39C99,118.84,98.88,118.91,98.8,118.91Z"/><path class="cls-9" d="M110.69,116.7h-5.47l0-.53h5.52c.26.13.35.25.25.36A.38.38,0,0,1,110.69,116.7Z"/><path class="cls-102" d="M169.08,121c.89.69,1.94,1.23,2.28,2.8a7.13,7.13,0,0,1-3.07-2.77C168.54,120.65,168.8,120.64,169.08,121Z"/><path class="cls-76" d="M107.4,123.66c1.49-.77,2.44-.46,3.92-.39C109.82,124.07,108.87,123.75,107.4,123.66Z"/><path class="cls-103" d="M132.5,90.8l0-.58a4,4,0,0,1,2.85.6c.54.16.55.36.05.6Z"/><path class="cls-89" d="M174.13,112.76a2.69,2.69,0,0,1,.48.87c0,.46-.33.61-.65.35a1.81,1.81,0,0,1-.39-.89C173.56,113,173.89,112.89,174.13,112.76Z"/><path class="cls-44" d="M91.11,107.66l1.37,0v2.13C91.16,109.51,91.34,108.46,91.11,107.66Z"/><path class="cls-104" d="M163,102.54c.18.1.44.17.52.33.17.38,0,.63-.43.53a.68.68,0,0,1-.43-.43C162.61,102.88,162.85,102.69,163,102.54Z"/><path class="cls-8" d="M147.27,110.42v-.6c.86,0,1.8-.24,2.53.65C148.91,111,148.09,110.35,147.27,110.42Z"/><path class="cls-60" d="M90.46,118.2c-.22-1.14-1-2.26-.11-3.44.25,1.14.5,2.29.76,3.44Z"/><path class="cls-11" d="M148,94.37l-3.52-1v-.33c1.24-.19,2.33.42,3.47.73.23.11.32.23.26.36S148,94.37,148,94.37Z"/><path class="cls-56" d="M126.17,121.72a4.78,4.78,0,0,0,.36-3.52C128.11,119.55,127.35,120.66,126.17,121.72Z"/><path class="cls-50" d="M135.37,91.42c0-.2,0-.4-.05-.6.75.07,1.55-.25,2.26.34C136.89,91.82,136.1,91.39,135.37,91.42Z"/><path class="cls-96" d="M169.08,121l-.79,0c-.33-.38-1.3-.8-.66-1.21S168.65,120.5,169.08,121Z"/><path class="cls-38" d="M98.8,118.91c0-.2,0-.4,0-.6.55.4,1.68.5,1.14,1.49C99.73,120.1,99.06,119.39,98.8,118.91Z"/><path class="cls-50" d="M144.43,93.07v.33l-2-.69C143.48,92,143.93,92.62,144.43,93.07Z"/><path class="cls-7" d="M148,94.37a5.51,5.51,0,0,1-.06-.57c.53.34,1.71.13,1.33,1.21C149.12,95.32,148.3,94.81,148,94.37Z"/><path class="cls-103" d="M110.69,116.7l0-.53,1.6-.67C112.26,116.78,111.36,116.55,110.69,116.7Z"/><path d="M131.77,150.6c.19.1.55.2.55.31,0,.54-.43.37-.72.34s-.57-.18-.57-.28C131,150.46,131.47,150.65,131.77,150.6Z"/><path class="cls-22" d="M81.24,102.05V100l1.42-1.41.69,6.33h0c-.8.43-1-.29-1.41-.71C81.71,103.46,81.48,102.75,81.24,102.05Z"/><path class="cls-50" d="M81.94,104.16l1.41.71c-.08.38,0,1.08-.56.94C82.08,105.62,82.12,104.78,81.94,104.16Z"/><path class="cls-49" d="M96.13,100l-.83-.81L94.61,97c.77-1-.09-2.25.61-3.24,0-.94.07-1.89.1-2.83L98,86.6l2.23-1.39c1.35,1.76-.15,3.27-.48,4.87a64.66,64.66,0,0,1-2,6.25c-.6,1.14-.3,2.58-1.19,3.63Z"/><path class="cls-105" d="M97.49,96.46c.1-3.95,2.71-7.29,2.73-11.25a1.47,1.47,0,0,1,1.61.79c-1.47,3.4-1.66,7.26-3.77,10.43Q97.81,96.82,97.49,96.46Z"/><path class="cls-106" d="M97.49,96.46l.57,0c0,1.36,0,2.76-1.47,3.53C96.67,98.74,96.31,97.4,97.49,96.46Z"/><path class="cls-107" d="M111.07,99.29c.51,1.2-.3,2.27-.34,3.42-.2.29-.42.3-.65,0-.89-1.53-.21-2.57,1.06-3.42Z"/><path class="cls-95" d="M108.53,84.57l.75-.67a4,4,0,0,1,2.19,2l-.89.94C109.9,86.06,109.21,85.32,108.53,84.57Z"/><path class="cls-10" d="M110.08,102.75a4.63,4.63,0,0,0,.65,0,4.1,4.1,0,0,1-2.15,2.81C108.26,104.15,109.24,103.49,110.08,102.75Z"/><path class="cls-108" d="M111.07,99.29l.07,0c-.81-1.29.43-2.29.49-3.46l.16-.16a2.33,2.33,0,0,1,0,3.56Z"/><path class="cls-94" d="M105.25,93.3c.19.14.46.25.45.35a1.57,1.57,0,0,1-.24.91c-.32.33-.59.18-.52-.29A6,6,0,0,1,105.25,93.3Z"/><path class="cls-80" d="M115.64,104.91v1.61c-.7.39-1.39.79-2.08,1.19-2-.53-1.21-1.76-.72-2.91l.71-.68A1.9,1.9,0,0,0,115.64,104.91Z"/><path class="cls-103" d="M112.84,104.8a5,5,0,0,0,.72,2.91c-.61.55-1.24,1-2.12.62-.63-.26-1.08-.61-.75-1.39Z"/><path class="cls-8" d="M114.26,92.29c1.19,2,.46,4.16.76,6.24.19.75-.19.88-.81.74C114.23,96.94,114.25,94.62,114.26,92.29Z"/><path class="cls-79" d="M115.62,101.31l-1.37,1.53c-1.11-.75-.64-1.49,0-2.23-.17-.34-.09-.73.25-.73C115.43,99.87,115.17,100.89,115.62,101.31Z"/><path class="cls-109" d="M115.62,101.31l-1.35-.7a.91.91,0,0,1-.06-1.34l.81-.74A4.8,4.8,0,0,1,115.62,101.31Z"/><path class="cls-25" d="M110.69,106.94l.75,1.39c-.71.26-1.42.65-2.09-.08Z"/><path class="cls-81" d="M112.75,85.15a1.44,1.44,0,0,1-.58,2.12c-.2-.51-.4-1-.61-1.52Z"/><path class="cls-13" d="M111.83,99.27a4.81,4.81,0,0,0,0-3.56C113,96.88,113.08,98.07,111.83,99.27Z"/><path class="cls-64" d="M114.26,89.44a1,1,0,0,1,0,1.38Z"/><path class="cls-102" d="M118.47,95.74a6,6,0,0,1-.71,3.51,5.84,5.84,0,0,1,0-5.62l.42.26A1.9,1.9,0,0,1,118.47,95.74Z"/><path class="cls-65" d="M117.86,90.09l2.79.63a2.34,2.34,0,0,1-.79,2.21c-.6.54-1.13,1.29-2.1.7h0C117.81,92.45,117.08,91.25,117.86,90.09Z"/><path class="cls-80" d="M116.29,93.4l-.39.38a1.61,1.61,0,0,1-.15-.62c0-.14.23-.26.36-.38Z"/><path class="cls-110" d="M120.58,97.74l-.12.7-1.16.23-.18-2.93c-.61-1.16-.66-2.1.93-2.4C122.44,94.54,121.48,96.15,120.58,97.74Z"/><path class="cls-75" d="M119.87,93.57l-.75,2.17h-.65c-.24-.7-.47-1.41-.71-2.11l1.36-1.44C120.34,92.13,120.28,92.75,119.87,93.57Z"/><path class="cls-70" d="M95.22,93.79c-.06,1.11.2,2.28-.61,3.24C94.64,95.92,94.45,94.76,95.22,93.79Z"/><path class="cls-64" d="M119.87,93.57l-.75-1.38,1.53-1.47a4.7,4.7,0,0,0,.65,0c3.39,1,3.81,2.71,1.43,5.91l-2.15,1.12A7.5,7.5,0,0,0,119.87,93.57Z"/></svg>