<svg xmlns="http://www.w3.org/2000/svg" viewBox="0 0 220 352"><defs><style>.cls-1{fill:#bfb3a4;}.cls-2{fill:#d1c5b7;}.cls-3{fill:#c8af95;}.cls-4{fill:#b7ac9d;}.cls-5{fill:#bbb0a1;}.cls-6{fill:#b5a28a;}.cls-7{fill:#b3a899;}.cls-8{fill:#c3b7a7;}.cls-9{fill:#ae987e;}.cls-10{fill:#d8cbbc;}.cls-11{fill:#c8bcae;}.cls-12{fill:#857063;}.cls-13{fill:#2e241b;}.cls-14{fill:#9f2e22;}.cls-15{fill:#604530;}.cls-16{fill:#cdc1b2;}</style></defs><g id="Layer_2" data-name="Layer 2"><g id="Layer_1-2" data-name="Layer 1"><path class="cls-1" d="M.05,96V88h2c2.84-3,2.84-5.52,0-7l-2-1V73c7,1.28,5.64-4.51,6.59-8.65,3.36,1.92,3.77,6.41,8,6.71,5.57.39,6.28,1.51,5,7.21-1.05,4.8-.48,9.6-.58,14.41a2.81,2.81,0,0,0,1.64,2.85c1,.43,2.39.13,2.57-.82,1.23-6.55,6.33-4.68,10.29-4.63,5.1.06,8-2.07,8.29-7.11.2-3.36,1.56-4.6,4.74-3.56,2,.67,4,.34,4.67-1.6C53.38,72.29,56.24,67,57,61c.31-2.59.38-5.72,3.56-5.52,3,.2,6.9-.48,7.83,4.86.7,4-.06,11,8.08,9.14a.63.63,0,0,1,.45.2c4.66,4.36,7.43.9,10-2.55,1.52-2,3.24-2.76,4.84-.66,2.84,3.77,5.39,6.73,8.51-.24,1.16,3-3.13,6.79,2.13,7.91-1,1.23-1.5,2.48-.35,3.9-1.26,3.4-1.36,6.54,2.08,8.84-.64,3.83,2.41,6.52,3.07,10-.71,1.3-1.79,2.54-2,3.92-.76,4.12-3.28,5.5-7.13,5.25l-.24-.22L98,106c.58,3.83-1.8,5.1-4.93,5.8-1.76.39-4,.63-1.85,3.26A29.25,29.25,0,0,1,86.26,124c-3.89-.44-5.08-5.22-9.14-5.6-1.29-.12-3.24-.74-3.4-2.46-.18-1.89,1.78-2.23,3.11-2.68,2-.66,3.12-1.77,3.21-3.9a3.15,3.15,0,0,1,2.33-2.94c3.6-1.25,2.76-4.22,2.42-6.72A6.87,6.87,0,0,0,80,94.37c-2.73-1-4.77,1.09-5.66,3-2.34,5.08-6.3,9.42-5.55,15.92s-.37,6.73-6.21,4.22c-4-1.74-7.72.15-10.69,2.3-2.37,1.72,0,4.19,1,6.17,1.41,2.61-.09,3.24-2.31,4.16-5.51,2.28-6.87,10.88-3,15.36,4.25,4.94,6,11,3.62,17.15-1.39,3.66-1.11,6.31,1,9.22,1.12,1.51,2.3,3.53.54,4.93-3.27,2.61-4.52,6.5-6.93,9.62-2,2.65-4.37,4.72-8.3,4.63-5.93-.15-7.28,1.83-6.1,7.75.69,3.49.93,6.66-1.42,9.93-2.54,3.52-1.27,6.77,2.79,8.65,2.67,1.24,4.56,3.32,6.39,5.46A38.89,38.89,0,0,0,52.6,233c1.51.69,3.45,1.06,3.09,3.26-.33,2-2.21,1.66-3.63,1.71-3.51.12-5.84,1.68-5.94,5.34-.11,4,.1,8,.33,11.93.36,6.24,5.95,9.48,7.44,15,1.39,5.14,3.71,9.69,9.12,11.78-.69.59-1.47.43-2.32.42-4.26,0-7.87-2.6-12-3-11.87-1.13-22.54-6.78-34.13-9-1.32-.24-2-1.63-2.52-2.91s-1-3.36-2.09-3.83c-4.9-2.18-3.86-6.36-3.91-10.21,0-2.33,0-4.65,0-7,0-2.16-.31-3.84-3.12-2.19A9.65,9.65,0,0,1,.05,245V192c1.64-.35,2.05-1.52,2-3,3.51-.08,5.29,2.46,4.75,5.09-1.29,6.32,3.2,12,1.31,18.31-.34,1.13-.31,3,1.52,3.12a2.3,2.3,0,0,0,2.28-3.14c-1.93-6.3,2.83-7,6.76-8.44,2-.74,4.26-1,4.35-4,.32-10.73-1.43-20.84-8.4-29.45a6.24,6.24,0,0,1-1.44-5.1c.57-3.77,1.45-7.52,1.67-11.3.2-3.44,1.52-5.61,4.72-6.83s2.7-2.57-.11-3.62c-3.76-1.41-4-4.53-3.84-7.77.41-7.2-.7-14.38,1.24-21.62,2.16-8-5.79-13.34-7-20.66a2,2,0,0,0-2.51-1.16c-1.16.33-1.29,1.43-1.3,2.44,0,3.33,0,6.66,0,10,0,6,0,6-6,5.13v-5c1.16-.23,3.08.55,3.22-1.13.17-2-1.87-1.67-3.22-1.87V98L1.4,97ZM2.14,230.51c0,2.82,0,5,0,7.13,0,.87.4,1.74,1.37,1.76s1.39-.83,1.42-1.7a33.93,33.93,0,0,0,0-6.45c-.38-2.52,1.74-6.83-1.8-7.08C1.06,224,2.68,228.74,2.14,230.51Zm1.62-12c0-.63-.47-1.09-.92-.84a1.07,1.07,0,0,0-.48.77c0,.55.3,1,.9.79C3.49,219.18,3.61,218.75,3.76,218.52Z"/><path class="cls-2" d="M219.9,271v9c-2.72-1.92-3.49-6.47-8-5.91l-1.91-.14c-.7-3.24-3-3.91-5.93-4-6.38-.14-12.76-.68-19.14.09L182,270H177.9l-1,0c-1.32-2.79-2.65-2.78-4,0l-7,0c-.55-2.09-2-2.06-3.42-1.17-2.19,1.35-4.64,2.51-5.55,5.25H152.9l-5,0c-6.12-3.9-12.58-.84-18.88-.82-2.27,0-2,2.2-2.08,3.84l-1.86.42c-.52-7.86.82-16-3-23.38l-.09.06c4.31-.55,1.06-3.69,1.62-5.47,2.2-7.07,3.61-14.4,5.31-21.63a40.66,40.66,0,0,1,2-4.51c.95-1.61,1.47-.2,2,.49,1.34,7,8.38,9,12.8,14.17-.53-4.39,4.4-2,5.19-4.92a7.72,7.72,0,0,0,.85.29c2.11,3.31,4.66,6.11,8.55,7.35,2.12.06,4.28.41,4.58-2.79.27-2.94-1.14-4.12-3.75-4.53a21.1,21.1,0,0,1-2.33-.63c.48-3.68,1.4-7.36,0-11.26-.29,3.38-2.3,4.3-5,4.39l-1.89-.49c0-7.08-.59-14.05-3.58-20.63-.73-1.6-.58-3.29,1.61-3.91.14,1.4-.38,3.11,1.57,3.72a1.25,1.25,0,0,0,1.67-.61c.52-1.61-1.18-2.18-1.74-3.29-.15-.29-.34-.56-.52-.84v-3c.87-3.48-1.94-1.46-3-2l-1,0c.82-2-2.15-6.67,3.53-5.16,1.22.33,2,2.79,3.64,1.42,1.45-1.19,0-2.8-.33-4.15-1.43-5.38-.43-6.45,5.36-5.53,4.93.77,10.16-2,11.18-6.8s3.8-8.66,4-13.7c.18-3.63,2.46-7.17,3.93-10.7.5-1.21,1.45-2.8,2.77-.77,1.81,2.75,4.3,5.59,3.55,9a23.58,23.58,0,0,0,1,12.65c1,3.18,1.35,6.28,5.42,6.62,3.91.34,7.42.36,9.65-4.12s5.76-4.92,9.48-1.39c2.33,2.21,3.59,1.55,4.84-1,.87-1.83.17-4.56,2.91-5.36,0,5.15,0,10.3,0,15.45,0,1.76-.45,3.8,2,4.54v6l-1.34,1,1.34,1v3c-1,.33-1.86.91-1.87,2.05q-.06,7.93,0,15.89c0,1.14.85,1.72,1.87,2.05v13l-1.35,1,1.35,1v4c-4.54,1.63-4-1.54-4-4.23,0-1.8.22-4-2.22-4.4-2.1-.36-2.75,1.53-3.38,3-.72,1.74-1.94,3.5-3.51,1.6-2.86-3.44-6.3-2.11-9.62-2-4.62.19-10.72,6.75-9.81,11.19,1.43,6.94-5,10.88-5.13,17.09-1.69-1.83-.13-3.34-.34-5-.29-2.19-1.83-2.81-3.52-2.73s-1.63,1.78-1.05,2.68c2.66,4.15.64,6.79-2.58,9.22-2.18,1.65-1.12,2.5.75,3.5,5.14,2.74,10.71,1.19,16.05,1.68,6.32.57,12.58,2.16,19,1.52a2,2,0,0,1,1.62.95C213.71,274.39,216.91,272.17,219.9,271ZM179.8,233.8c-.68,3.11-1.67,6-2.58,9a3.74,3.74,0,0,0,1.61,4.37,2.6,2.6,0,0,0,3.61-.32c1.37-1.27,1.92-2.9.92-4.5C181.73,239.72,181.2,236.79,179.8,233.8Zm-28.93-41.17.29-.15-.29-.15Z"/><path class="cls-3" d="M219.9,326.93c0,7.16-.19,14.33.09,21.48.11,3-.61,3.6-3.59,3.59-33.81-.13-67.62-.08-101.43-.08a2.54,2.54,0,0,0-3-2c-6.77.44-10.91-4.75-16.11-7.61-3.09-1.7-1.67-6-3.74-8.32-3-3.25-1.72-4,1.81-4.18,1.16-.06,2.57-.38,2.35-1.92-.19-1.34-1.52-1.72-2.72-1.53-1.45.23-3.49.26-4.2,1.19-3.27,4.27-5.23,1-7.49-1,4.08-3,9.85-1.66,13.68-5.44.57-.56,2.17-.09,3.29-.09.12,1-.23,2.16.93,2.82-.8,2.37.69,3,2.52,3.7,6.21,2.31,10.63-.57,14.67-4.77a15.43,15.43,0,0,0,4-1.3c4-1.6,6.91-5.23,11.4-5.69,2.6.45,4.89-2.13,7-1.52,4.34,1.25,3.88-1.75,4.49-4L154,307c7-.65,14.13-2.48,21,1l1,3.95c-3.46,9.8-1.6,12.49,8.17,11.36,2.66-.31,3.56,1.12,4.46,2.94,1.26,2.61,3.59,3.63,5.62,1.84,3.49-3.08,8.2-3.94,11.58-7.17s6.19-2.49,8.56,1.57C215.62,324.68,217.08,326.66,219.9,326.93Z"/><path class="cls-4" d="M.05,45V40h2c2.13.05,3.6-1.48,5.37-2.18,5.45-2.18,10.4-6.71,17.22-3.33C28,36.2,31.51,35.3,33.09,31c1-2.79,2.74-4.85,6-5.23a6.33,6.33,0,0,0,4.18-2.57c2.61-3.47,6.4-4,9.9-2.89a9.38,9.38,0,0,0,10-2.64c3.4-3.58,4.55-3.12,6.33,1.19,2,4.79,3.87,4.93,7.8,1.31,1.72-1.59,3.32-3.32,5.67-3.94,2-.53,4.15-2.14,6-.12,2.24,2.4-.64,3.76-1.4,5.55-.08.2.24.56.61,1.36,4.61-2,9.65-.27,14.56-1.62,3.18-.88,4.64-2.06,3.65-5.55-.86-3-.36-7.31,2.07-8,4.67-1.43,8.75-5.46,14.24-4C126.3,4.7,126.92,3,126,.05h42c-.21.45-.3,1.12-.64,1.31-4.23,2.27-9,3.89-9.93,9.64a3.26,3.26,0,0,1-2.1,2c-6.72,1.74-10,9-17.27,10.18-7.07,1.12-13.7,5-21.24,3.37a3.62,3.62,0,0,0-3.93,1.55c-1.08,1.57.31,2.41,1.46,3.09,2.46,1.46,2.72,3.14.64,5.14-2.28-.19-3,2.47-5,2.78-.28-1.51-1.12-1.7-2.55-1.4-1.78.37-2.84,2.44-5,2-4.21-1-3.76,1.22-2.49,3.81.6,1.23,1.38,2.49.33,3.68s-2.78.93-4.23.63a6,6,0,0,1-4.16-2.55c-2.16-3.75-5.51-4.51-9.39-4.21-3.39.26-6-.2-5.61-4.67.24-3-1.57-4.17-4.07-2.42-3.14,2.2-6.55,2.28-10,2a11.86,11.86,0,0,0-8.71,3c-2.38,2-4.24,4.54-7.48,5.54-1.77.54-1.73,2.19-.33,3.58,2.19,2.15.67,3.24-1.31,2.76-5.32-1.27-9.35,1.12-13.84,3.33C25.53,57,20.27,55,17,49.94c-.74-1.13-1.52-2.58-2.89-2.53C9.21,47.58,4.82,45.21.05,45Z"/><path class="cls-5" d="M.05,45c4.77.17,9.16,2.54,14,2.37,1.37,0,2.15,1.4,2.89,2.53C20.27,55,25.53,57,31.14,54.24,35.63,52,39.66,49.64,45,50.91c2,.48,3.5-.61,1.31-2.76-1.4-1.39-1.44-3,.33-3.58,3.24-1,5.1-3.53,7.48-5.54a11.86,11.86,0,0,1,8.71-3c3.49.23,6.9.15,10-2,2.5-1.75,4.31-.58,4.07,2.42-.35,4.47,2.22,4.93,5.61,4.67,3.88-.3,7.23.46,9.39,4.21a6,6,0,0,0,4.16,2.55c1.45.3,3.1.66,4.23-.63s.27-2.45-.33-3.68c-1.27-2.59-1.72-4.79,2.49-3.81,2.12.49,3.18-1.58,5-2,1.43-.3,2.27-.11,2.55,1.4-3.47,2.5-4.79,6.15-5.4,10.16,0,.24.33.54.51.81l-.47,6.62c-1.43-1.06-1.38-2.86-2.2-4.58-.89,3.58-1.94,6.83-1.21,10.47,1.33-.94.48-3.4,2.61-3.57q-.73,7.56-1.45,15.1c-5.26-1.12-1-4.88-2.13-7.91-3.12,7-5.67,4-8.51.24-1.6-2.1-3.32-1.36-4.84.66-2.59,3.45-5.36,6.91-10,2.55a.63.63,0,0,0-.45-.2c-8.14,1.88-7.38-5.1-8.08-9.14-.93-5.34-4.83-4.66-7.83-4.86-3.18-.2-3.25,2.93-3.56,5.52-.71,6-3.57,11.29-5.64,16.83-.72,1.94-2.63,2.27-4.67,1.6-3.18-1-4.54.2-4.74,3.56-.3,5-3.19,7.17-8.29,7.11-4,0-9.06-1.92-10.29,4.63-.18,1-1.53,1.25-2.57.82a2.81,2.81,0,0,1-1.64-2.85c.1-4.81-.47-9.61.58-14.41,1.25-5.7.54-6.82-5-7.21-4.25-.3-4.66-4.79-8-6.71C5.69,68.51,7.05,74.3.05,73Zm3,7.55-.5.59c.12.08.32.26.35.24a5.59,5.59,0,0,0,.51-.57Z"/><path class="cls-6" d="M81.86,326.62c2.26,1.93,4.22,5.23,7.49,1,.71-.93,2.75-1,4.2-1.19,1.2-.19,2.53.19,2.72,1.53.22,1.54-1.19,1.86-2.35,1.92-3.53.17-4.78.93-1.81,4.18,2.07,2.27.65,6.62,3.74,8.32,5.2,2.86,9.34,8.05,16.11,7.61a2.54,2.54,0,0,1,3,2H68c-2.86-3.53-5.78-7-8.62-10.54-2.64-3.26-6.23-4.95.38-9.18-4-.06-6.33-.66-7.17-3.58a2,2,0,0,0-2.82-1.28c-5.33,2.94-7.75-2-10.46-4.42-1.91-1.68-2.66-1.68-4.37-.61-2.92,1.84-5.57,2.43-8.39-.63-2.41-2.6-5.8-2.28-8.83-1-5.68,2.39-11.45,4.2-17.68,4.25v-2c2.37-.79,2-2.8,2-4.58,0-7.47,0-14.94,0-22.41a14.46,14.46,0,0,0,1-2.75c.51-3.69.49-3.74,3.56-2.27,1.09.52,1.41-.38,2.07-.75,7.46-4.18,15.18-4.54,23.18-1.68a86.68,86.68,0,0,0,10.87,3.31c3.58.78,6.18,2.73,8.91,5,3.76,3.16,7.24,7,12.39,8.11.38,2.6-.77,5.39.94,7.83l.06,1.05L64.15,315c-3.28,1.26-3.9,3.33-1.9,6.2.86,5.92,4.53,7.33,10,6.89A44.18,44.18,0,0,0,81.86,326.62Z"/><path class="cls-7" d="M126,.05c1,3,.33,4.65-3.18,3.73-5.49-1.45-9.57,2.58-14.24,4-2.43.74-2.93,5-2.07,8.05,1,3.49-.47,4.67-3.65,5.55-4.91,1.35-10-.38-14.56,1.62-.37-.8-.69-1.16-.61-1.36.76-1.79,3.64-3.15,1.4-5.55-1.9-2-4-.41-6,.12-2.35.62-4,2.35-5.67,3.94-3.93,3.62-5.83,3.48-7.8-1.31-1.78-4.31-2.93-4.77-6.33-1.19a9.38,9.38,0,0,1-10,2.64c-3.5-1.08-7.29-.58-9.9,2.89a6.33,6.33,0,0,1-4.18,2.57c-3.3.38-5,2.44-6,5.23C31.51,35.3,28,36.2,24.65,34.53c-6.82-3.38-11.77,1.15-17.22,3.33-1.77.7-3.24,2.23-5.37,2.18q0-20,0-40Z"/><path class="cls-5" d="M114.93,36.35c2.08-2,1.82-3.68-.64-5.14-1.15-.68-2.54-1.52-1.46-3.09a3.62,3.62,0,0,1,3.93-1.55c7.54,1.63,14.17-2.25,21.24-3.37,7.25-1.15,10.55-8.44,17.27-10.18a3.26,3.26,0,0,0,2.1-2c.94-5.75,5.7-7.37,9.93-9.64.34-.19.43-.86.64-1.31h50V28a24.78,24.78,0,0,1-4.39.71c-8.23-.11-16.62-.64-24.54,1.46-8.64,2.3-16.93,1.2-25.32-.15s-15.37.86-19.09,9c-2.67,5.84-9.18,6.93-12.8,11.45A6.21,6.21,0,0,1,131,50c0-2.7-3.55-4.29-3.26-6.2.93-6-2.1-3.69-4.72-2.79C121.43,37.5,118.13,37,114.93,36.35Z"/><path class="cls-8" d="M.05,110c6,.89,6,.89,6-5.13,0-3.33,0-6.66,0-10,0-1,.14-2.11,1.3-2.44A2,2,0,0,1,9.9,93.61c1.19,7.32,9.14,12.63,7,20.66-1.94,7.24-.83,14.42-1.24,21.62-.18,3.24.08,6.36,3.84,7.77,2.81,1.05,3.31,2.39.11,3.62s-4.52,3.39-4.72,6.83c-.22,3.78-1.1,7.53-1.67,11.3a6.24,6.24,0,0,0,1.44,5.1c7,8.61,8.72,18.72,8.4,29.45-.09,3-2.38,3.23-4.35,4-3.93,1.46-8.69,2.14-6.76,8.44a2.3,2.3,0,0,1-2.28,3.14c-1.83-.11-1.86-2-1.52-3.12,1.89-6.27-2.6-12-1.31-18.31.54-2.63-1.24-5.17-4.75-5.09,0-5.49,0-11,0-16.45,0-1.76.43-3.8-2-4.55Z"/><path class="cls-9" d="M.05,324.93c6.23-.05,12-1.86,17.68-4.25,3-1.28,6.42-1.6,8.83,1,2.82,3.06,5.47,2.47,8.39.63,1.71-1.07,2.46-1.07,4.37.61,2.71,2.4,5.13,7.36,10.46,4.42a2,2,0,0,1,2.82,1.28c.84,2.92,3.16,3.52,7.17,3.58-6.61,4.23-3,5.92-.38,9.18,2.84,3.5,5.76,7,8.62,10.54h-67l-1-1v-9l1.08-.5-1.08-.5ZM5.2,342.12c1.91-2.27,3.81-2.51,6-1.52,1.81.83,3.84,2,4-1.56,0-.71.37-1.33,1.24-1,1.4.53,2.44.34,2.11-1.38S16.73,335,15.36,335c-1.82,0-3,1.92-5,1.44C5,335.17,4.93,335.27,5.2,342.12Z"/><path class="cls-10" d="M219.9,271c-3,1.22-6.19,3.44-7.74-1.81a2,2,0,0,0-1.62-.95c-6.43.64-12.69-.95-19-1.52-5.34-.49-10.91,1.06-16.05-1.68-1.87-1-2.93-1.85-.75-3.5,3.22-2.43,5.24-5.07,2.58-9.22-.58-.9-.64-2.6,1.05-2.68s3.23.54,3.52,2.73c.21,1.63-1.35,3.14.34,5,.11-6.21,6.56-10.15,5.13-17.09-.91-4.44,5.19-11,9.81-11.19,3.32-.14,6.76-1.47,9.62,2,1.57,1.9,2.79.14,3.51-1.6.63-1.52,1.28-3.41,3.38-3,2.44.42,2.19,2.6,2.22,4.4,0,2.69-.53,5.86,4,4.23Z"/><path class="cls-5" d="M.05,245a9.65,9.65,0,0,0,2.87-.66c2.81-1.65,3.1,0,3.12,2.19,0,2.33,0,4.65,0,7,.05,3.85-1,8,3.91,10.21,1.06.47,1.51,2.47,2.09,3.83s1.2,2.67,2.52,2.91c11.59,2.18,22.26,7.83,34.13,9,4.11.39,7.72,3,12,3,.85,0,1.63.17,2.32-.42,1.88-3.78,5.18-1.88,8-2L69.08,284c-3.45-.3-2.16,4.45-3.27,4.19-4.61-1-8.91,3.63-13.51.35-2.39-1.7-5.32-1.81-8.18-1.61A19.22,19.22,0,0,1,35,285a35.14,35.14,0,0,0-23.38-2c-2.18.57-4.9,3.25-6.28-1.25-.26-.86-1.55-.44-2,.36a3.36,3.36,0,0,1-3.27,1.84Z"/><path class="cls-7" d="M.05,283.94a3.36,3.36,0,0,0,3.27-1.84c.45-.8,1.74-1.22,2-.36,1.38,4.5,4.1,1.82,6.28,1.25A35.14,35.14,0,0,1,35,285,19.22,19.22,0,0,0,44.12,287c2.86-.2,5.79-.09,8.18,1.61,4.6,3.28,8.9-1.4,13.51-.35,1.11.26-.18-4.49,3.27-4.19.35,4-.81,8-1.09,11.94l0,2c-2.71,1.54-2.65,4.66-4,7-5.15-1.13-8.63-4.95-12.39-8.11-2.73-2.3-5.33-4.25-8.91-5a86.68,86.68,0,0,1-10.87-3.31c-8-2.86-15.72-2.5-23.18,1.68-.66.37-1,1.27-2.07.75-3.07-1.47-3-1.42-3.56,2.27a14.46,14.46,0,0,1-1,2.75h-2Z"/><path class="cls-8" d="M219.9,326.93c-2.82-.27-4.28-2.25-5.55-4.45-2.37-4.06-5.21-4.76-8.56-1.57s-8.09,4.09-11.58,7.17c-2,1.79-4.36.77-5.62-1.84-.9-1.82-1.8-3.25-4.46-2.94-9.77,1.13-11.63-1.56-8.17-11.36,2.63,1.51,4.93,2.53,8.06.25a5.63,5.63,0,0,1,7.5,1.2c3.39,4.26,4.08,4.51,8.37.7,2.17-1.91,4.56-3.43,7.54-2.44,3.46,1.16,7.92-1.73,10.6,2.64.12.19,1.22-.22,1.87-.36Z"/><path class="cls-10" d="M219.9,185c-2.43-.74-2-2.78-2-4.54,0-5.15,0-10.3,0-15.45q0-23.49,0-47,0-12.51,0-25V47q0-7.45.08-14.93L219.9,32Z"/><path class="cls-11" d="M219.9,313.93c-.65.14-1.75.55-1.87.36-2.68-4.37-7.14-1.48-10.6-2.64-3-1-5.37.53-7.54,2.44-4.29,3.81-5,3.56-8.37-.7a5.63,5.63,0,0,0-7.5-1.2c-3.13,2.28-5.43,1.26-8.06-.25L175,308c3.85-.58,7.33,1,11,1.79,9.27,2.14,16.55-4.2,24.92-5.94,2.81.11,5.82.69,7.06-3l2-.94Zm-5.55-7-.59-.5c-.09.12-.27.33-.25.35a5.47,5.47,0,0,0,.57.51Z"/><path class="cls-6" d="M219.9,299.94l-2,.95c.33-2.95-1-4.58-3.92-5q0-.49-.06-1c-.71-3-1.29-6-2.17-8.95-.64-2.15-.07-3.1,2.15-3.06a8.9,8.9,0,0,0,6,5Z"/><path class="cls-1" d="M2.05.05q0,20,0,40h-2v-39l1-1Z"/><path class="cls-11" d="M219.9,32,218,32.1c0-1.35-.05-2.7-.07-4.06V.05h1l1,1Z"/><path class="cls-3" d="M.05,295.94h2c0,7.47,0,14.94,0,22.41,0,1.78.4,3.79-2,4.58Z"/><path class="cls-1" d="M219.9,287.94a8.9,8.9,0,0,1-6-5c2.09-.61,2.66-2,2-4-.31-2.48-4.1-2.12-4-4.92,4.54-.56,5.31,4,8,5.91Z"/><path class="cls-2" d="M.05,168c2.41.75,2,2.79,2,4.55.05,5.48,0,11,0,16.45,0,1.47-.38,2.64-2,3Z"/><path class="cls-10" d="M219.9,216c-1-.33-1.86-.91-1.87-2.05Q218,206,218,198c0-1.14.86-1.72,1.87-2.05Z"/><path class="cls-7" d="M.05,80l2,1v7h-2Z"/><path class="cls-8" d="M.05,102c1.35.2,3.39-.15,3.22,1.87-.14,1.68-2.06.9-3.22,1.13Z"/><path class="cls-10" d="M219.9,231l-1.35-1,1.35-1Z"/><path class="cls-8" d="M.05,96,1.4,97,.05,98Z"/><path class="cls-10" d="M219.9,193l-1.34-1,1.34-1Z"/><path class="cls-12" d="M.05,340.92l1.08.5-1.08.5Z"/><path class="cls-12" d="M219.9,1.05l-1-1C219.76-.14,220.09.19,219.9,1.05Z"/><path class="cls-9" d="M1.05.05l-1,1C-.14.19.19-.14,1.05.05Z"/><path class="cls-12" d="M.05,350.92l1,1C.19,352.11-.14,351.78.05,350.92Z"/><path class="cls-8" d="M71,279.94c-2.8.13-6.1-1.77-8,2-5.41-2.09-7.73-6.64-9.12-11.78-1.49-5.47-7.08-8.71-7.44-15-.23-4-.44-8-.33-11.93.1-3.66,2.43-5.22,5.94-5.34,1.42,0,3.3.34,3.63-1.71.36-2.2-1.58-2.57-3.09-3.26a38.89,38.89,0,0,1-13.34-10.11c-1.83-2.14-3.72-4.22-6.39-5.46-4.06-1.88-5.33-5.13-2.79-8.65,2.35-3.27,2.11-6.44,1.42-9.93-1.18-5.92.17-7.9,6.1-7.75,3.93.09,6.26-2,8.3-4.63,2.41-3.12,3.66-7,6.93-9.62,1.76-1.4.58-3.42-.54-4.93-2.15-2.91-2.43-5.56-1-9.22,2.35-6.16.63-12.21-3.62-17.15-3.84-4.48-2.48-13.08,3-15.36,2.22-.92,3.72-1.55,2.31-4.16-1.08-2-3.42-4.45-1-6.17,3-2.15,6.65-4,10.69-2.3,5.84,2.51,7,2.16,6.21-4.22S72,102.48,74.37,97.4c.89-1.94,2.93-4.06,5.66-3a6.87,6.87,0,0,1,4.76,5.34c.34,2.5,1.18,5.47-2.42,6.72A3.15,3.15,0,0,0,80,109.37c-.09,2.13-1.24,3.24-3.21,3.9-1.33.45-3.29.79-3.11,2.68.16,1.72,2.11,2.34,3.4,2.46,4.06.38,5.25,5.16,9.14,5.6a1.42,1.42,0,0,1,.21.75c-.24.79-1.82,1.23-.61,2.38-1.12,1.84-.49,4.3-2.12,6L83,134l0,0c-1.61,2-3.45,4-3,6.92-1.09,1.65-3,3.28-.19,5.08a1.4,1.4,0,0,1,.1.9c-1.39,1.66-.68,2.52,1.13,3-.21,2.12-2.7,3.81-1.19,6.26-1,.24-2.85.15-1.15,1.77a4.57,4.57,0,0,0,5.19.53c4.06-2.26,4.43-.13,4.25,3.09A2.87,2.87,0,0,0,89,164.1c0,.31-.06.61-.08.92-1.61.41-1.81,1.67-1.91,3.06-.36,5.26-.77,10.51-1.16,15.76-1.87,1.74-1.89,4-1.92,6.35.06,1.46-.84,2.11-1.87,3-1.68,1.54.09,3.82-.25,5.87-.28,1.66,1.93.89,3.13.85l-.06,5.1c-1.92.46-1.74,2-1.9,3.49-.64,5.81-1.34,11.62-2,17.42.29.71.59,1.42.89,2.13-.85.23-1.68.67-1.67,1.59.08,4.69-2.12,9.06-2,13.66,0,2.88-2.33,5.72-.19,8.6l-1.09,8c-1.33,1-4.54,1.2-3.63,3.19,1.77,3.86-1.4,6.61-1.24,9.95L72,277l0,0C71.05,277.72,71,278.83,71,279.94Z"/><path class="cls-13" d="M104.62,56.72c.16-2.21.31-4.41.47-6.62,1.41-1.1,3.08-1.77,4.25-3.31,4.31-5.67,8-5.54,12.67.25-.05.68.33.93.95.93l1.27,2.48c.18.52.35,1,.52,1.56L126,57l2,9a2.08,2.08,0,0,0,.8,2q1.56,7.44,3.11,14.89c-1.68.52-1.5,3.28-3.76,3.11C126.54,83.8,125.48,81,122,81l-.35-.18.3.23-.16,1.82c-2.86.12-7-1.47-5.35,4.42.18.63-1.28.15-1.87-.4-.39-2.77,2.89-6.16-1.4-8.28a3.12,3.12,0,0,0-3.26.41l-.26.32.59.34,1.91.09c2,1.93-.27,2.42-1.14,3.39l-.9-.23-.88-1L108,81.31,102,78c-1.15-1.42-.61-2.67.35-3.9q.72-7.55,1.45-15.1ZM113,74.09c-1.5-.35-1.84.81-2.34,1.79-.33.64.11.85.56.89,1.26.12,1.49-.9,1.81-1.78,1.39.22,2.36,2.52,4.23.58,1.42-1.46-.06-1.84-.57-2.64s-1.29-1.68-2.23-1.21c-.6.3,0,1.14.46,1.62Z"/><path class="cls-12" d="M108,81.31l1.26.65.88,1,.9.23c.17,2.21.94,3.85,3.56,3.73.59.55,2,1,1.87.4-1.7-5.89,2.49-4.3,5.35-4.42,1.58,1,1.46,2.59.89,3.93-1.13,2.7-.72,5.45-.71,8.21-1.69-1.22-3.37-.81-5,0-1.75-.57-2.43-3.51-4.78-2.47-1.85.82-1.07,2.78-1.14,4.31l-2.46,1.35-1.36-1.37c-.66-3.43-3.71-6.12-3.07-10Z"/><path class="cls-14" d="M86.47,124.76a1.42,1.42,0,0,0-.21-.75,29.25,29.25,0,0,0,4.93-8.93c3.74-2.17,7.53-4.22,12-4.43l-.13-.15a6.89,6.89,0,0,0-.93,4.5c-.16,1.63-1.45,3.73,1.67,4l-.28,1c-.15,2.43-4.89,1.59-3.6,5l-1.13.34c-1.38-.63-2.69-1.6-4.32-.72C91.78,123.57,89.13,124.11,86.47,124.76Z"/><path class="cls-3" d="M103.19,110.65c-4.47.21-8.26,2.26-12,4.43-2.1-2.63.09-2.87,1.85-3.26,3.13-.7,5.51-2,4.93-5.8l0,0c3.85.25,6.37-1.13,7.13-5.25.26-1.38,1.34-2.62,2-3.92l1.36,1.37,2.13,3.55c-2.64,1.18-.48,5.68-4.21,6.11l-2.51.26c-2.32.54-.93,1.45-.23,2.29l-.17.32Z"/><path class="cls-5" d="M2.14,230.51c.54-1.77-1.08-6.48,1-6.34,3.54.25,1.42,4.56,1.8,7.08a33.93,33.93,0,0,1,0,6.45c0,.87-.44,1.73-1.42,1.7s-1.35-.89-1.37-1.76C2.1,235.48,2.14,233.33,2.14,230.51Z"/><path class="cls-15" d="M108,81.31l-3.86,5.57c-3.44-2.3-3.34-5.44-2.08-8.84Z"/><path class="cls-5" d="M2.05,88V81C4.89,82.49,4.89,85,2.05,88Z"/><path class="cls-5" d="M3.76,218.52c-.15.23-.27.66-.5.72-.6.18-.91-.24-.9-.79a1.07,1.07,0,0,1,.48-.77C3.29,217.43,3.77,217.89,3.76,218.52Z"/><polygon class="cls-3" points="97.97 106.02 97.75 105.78 97.99 106 97.97 106.02"/><path class="cls-16" d="M217.9,118q0,23.49,0,47c-2.74.8-2,3.53-2.91,5.36-1.25,2.59-2.51,3.25-4.84,1-3.72-3.53-7.17-3.21-9.48,1.39s-5.74,4.46-9.65,4.12c-4.07-.34-4.41-3.44-5.42-6.62a23.58,23.58,0,0,1-1-12.65c.75-3.46-1.74-6.3-3.55-9-1.32-2-2.27-.44-2.77.77-1.47,3.53-3.75,7.07-3.93,10.7-.25,5-3.06,9-4,13.7s-6.25,7.57-11.18,6.8c-5.79-.92-6.79.15-5.36,5.53.36,1.35,1.78,3,.33,4.15-1.66,1.37-2.42-1.09-3.64-1.42C144.8,187.3,147.77,192,147,194l-2.25.06c-2.58-1.82-.23-4.89-1.78-7,0-3.42,5.08-7-.29-10.29,0,0,.41-.81.63-1.23a9.07,9.07,0,0,0,.34-6.8c-.82-2.94,0-4.33,3-4.94,2.09-.42,4.85-1.33,3.9-4.09-2-5.75,1.65-8.94,4.76-12.56,1.24-1.46,3.23-2.26,3.94-4.35-2.28-1.51-4.07-.46-6,.61-1.48.81-3.45,1.21-4.57-.32-1.23-1.7,1-2.41,1.67-3.59,2.84-4.76,10.56-3.27,12.17-9.76.39-1.56,2.17-2.89,3.54-4.05,1.07-.9,2.24-1.75,4-.51,4.7,3.4,5,3.21,6-2.44.51-3,1.72-6.24,5.22-4.84,3.93,1.58,6.67.13,9.81-1.43,8.49-4.22,17-8,25.07.89C216.44,117.79,217.27,117.8,217.9,118Z"/><path class="cls-13" d="M117,322.83c-4,4.21-8.46,7.09-14.67,4.78-1.83-.69-3.32-1.33-2.52-3.7,2.68-2,6.38-.15,9-2.35,4.67,1.49,6.06-2.9,7.75-5.24,1.39-1.93-1.19-4.33-3.24-5.91s-4.61-3.12.63-5.12a20.26,20.26,0,0,1-7.59-2.37c.87-3.14,1.14-6.53,3.65-9,3.35,1.62,5,.36,5.62-3.13,1.42-7.46,3.51-14.83,1.93-22.56-.32-1.59-.78-3.52-.19-4.86,1.62-3.73-2-3-3.07-3.3-1.45-.42-2.73,1.19-2.79,2.95-.24,7.41-.4,14.82-.62,22.24,0,1.74.51,3.78-1.81,4.67-.39-5,.37-10.14-1.38-15-.58-6.62.46-13.31-.79-19.91q-2.06-5.51-4.1-11c-.46-6.62-2.9-12.79-4.41-19.17l9.65-.65c0,1,0,2,.09,3q.45,9.64.91,19.27c.07,1.37.24,3.05,1.8,3.08a10.79,10.79,0,0,0,4.62-1.39,1.39,1.39,0,0,0,.15-2.18c-4-2.79-.31-5.92-.46-8.86-.26-4.85,4.88-7.67,4.94-12.48,2.87,1.13,5.61,2.74,8.87,2.42-1.7,7.23-3.11,14.56-5.31,21.63-.56,1.78,2.69,4.92-1.62,5.47.17-.74.79-1.62-.51-1.93a.89.89,0,0,0-.77.41c-.36,1.2.58,1.29,1.37,1.46,3.86,7.42,2.52,15.52,3,23.38-4.73,10.89-2.69,21.84-.2,32.78.1,4.09-1.12,7.32-5.27,9C118.19,319.77,116.68,320.75,117,322.83Z"/><path class="cls-8" d="M124.93,310.17c-2.49-10.94-4.53-21.89.2-32.78L127,277l3,0c0,.66,0,1.32,0,2l-2.07,3c-2.69,1-2.91,2.62-1.38,4.94,2.28,3.44,5.31,5.25,9.48,5l1.81,1.08c-2.29,2.09-6.11,4-.87,7a4,4,0,0,0,4,1.94c.19,1.74-1.36,2.45-2.12,3.62Z"/><path class="cls-14" d="M151.93,224.53l1.89.49a.87.87,0,0,1-.13.72c-2.2,0-4.41-.06-5.71,2.23-3.85-.75-9.22,1.56-10.21-5,1.38-4.88.52-10.12,2.41-14.91,1.73-1.29-.11-5.25,3.72-4.95.21,3,4.35,3.95,4.12,6.9C147.6,215.39,150,219.86,151.93,224.53Z"/><path class="cls-5" d="M130,278.92c0-.66,0-1.32,0-2,3.94-2,8.17-.59,12.24-1,2.12-.2,4.43.35,5.75-2l5,0c1.35,2.68,2.71,2.77,4.07,0h0l3,0c0,1.36,0,2.72,0,4.09l-1,1c-1.5-1.45-3.42-.82-5.17-1.09C145.78,276.72,138.06,282.71,130,278.92Z"/><path class="cls-10" d="M151.93,224.53C150,219.86,147.6,215.39,148,210c.23-3-3.91-3.87-4.12-6.9l.09-1.3c1.52-2.47,2.5-5,.71-7.76L147,194l1,0c.33,1.69,1.57,2,3,2,0,1,0,2,0,3l-1,1c-2.19.62-2.34,2.31-1.61,3.91C151.34,210.48,151.89,217.45,151.93,224.53Z"/><path class="cls-16" d="M137.77,223c1,6.58,6.36,4.27,10.21,5l3,4.24c-.79,2.9-5.72.52-5.19,4.91C141.35,231.93,134.31,230,133,223c.71.24,1.42,1,2.12,0Z"/><path class="cls-9" d="M135.09,222.94c-.7,1-1.41.25-2.12,0-.56-.69-1.08-2.1-2-.49a40.66,40.66,0,0,0-2,4.51c-3.26.32-6-1.29-8.87-2.42a4.44,4.44,0,0,0-.08-.61c.43-1.28.85-2.56,1.27-3.84,1.32-.09,2.69,0,3.69-1.14,2.51,1.79,4.53.92,6.34-1.15l1.48,1.36C133.54,220.42,134.31,221.68,135.09,222.94Z"/><path class="cls-16" d="M148,274c-1.32,2.37-3.63,1.82-5.75,2-4.07.38-8.3-1.05-12.24,1l-3,0c.06-1.64-.19-3.83,2.08-3.84C135.37,273.11,141.83,270.05,148,274Z"/><path class="cls-1" d="M184.89,270c6.38-.77,12.76-.23,19.14-.09,2.91.06,5.23.73,5.93,4-2.23-.54-4.44-1.46-6.69-1.54-3.84-.14-8-2.17-11.4,1.51h-2.93C187.76,272.4,185.26,272.33,184.89,270Z"/><path class="cls-7" d="M184.89,270c.37,2.32,2.87,2.39,4.05,3.86-2.09.8-4.53,1.18-6.2,2.51-2.7,2.14-4.81,1.37-7.05-.32-1.17-.89-2.19-2-3.77-2.13,0-.33,0-.66,0-1,2-.18,4.19.55,6-.93,1.7,0,3.18-.39,4-2Z"/><path class="cls-10" d="M179.8,233.8c1.4,3,1.93,5.92,3.56,8.51,1,1.6.45,3.23-.92,4.5a2.6,2.6,0,0,1-3.61.32,3.74,3.74,0,0,1-1.61-4.37C178.13,239.82,179.12,236.91,179.8,233.8Z"/><path class="cls-7" d="M191.87,273.87c3.36-3.68,7.56-1.65,11.4-1.51,2.25.08,4.46,1,6.69,1.54l1.91.13c-.09,2.8,3.7,2.44,4,4.92-3.79.26-6.06-3.11-9.44-3.95C201.63,273.8,196.64,275.37,191.87,273.87Z"/><path class="cls-12" d="M160.36,239.84c-3.89-1.24-6.44-4-8.55-7.35l2.46-2.67,3.49,3.31C158.78,235.31,162.58,236.41,160.36,239.84Z"/><path class="cls-8" d="M157.76,233.13l-3.49-3.31c-.19-1.36-.39-2.72-.58-4.08a.87.87,0,0,0,.13-.72c2.73-.09,4.74-1,5-4.39,1.41,3.9.49,7.58,0,11.26Z"/><path class="cls-1" d="M177.93,272c-1.81,1.48-4,.75-6,.93-2-1.24-3.81-1.86-5,1h-3l0-.06-1-2c.35-1.69,1.64-1.94,3.06-2l7,0,4,0,1,0Z"/><path class="cls-10" d="M157.76,233.13l1.1-1.24a21.1,21.1,0,0,0,2.33.63c2.61.41,4,1.59,3.75,4.53-.3,3.2-2.46,2.85-4.58,2.79C162.58,236.41,158.78,235.31,157.76,233.13Z"/><path class="cls-13" d="M153.69,225.74c.19,1.36.39,2.72.58,4.08l-2.46,2.67a7.72,7.72,0,0,1-.85-.29L148,228C149.28,225.68,151.49,225.73,153.69,225.74Z"/><path class="cls-16" d="M166,269.9c-1.42.05-2.71.3-3.06,2a2.32,2.32,0,0,0-2,2c-.32,0-.63,0-.94.05l-3,0c.91-2.74,3.36-3.9,5.55-5.25C164,267.84,165.4,267.81,166,269.9Z"/><path class="cls-16" d="M150,200l1-1c.18.28.37.55.52.84.56,1.11,2.26,1.68,1.74,3.29a1.25,1.25,0,0,1-1.67.61C149.58,203.1,150.1,201.39,150,200Z"/><path class="cls-16" d="M157,274c-1.36,2.77-2.72,2.68-4.07,0Z"/><path class="cls-16" d="M150.93,196c-1.45,0-2.69-.33-3-2C149,194.55,151.8,192.53,150.93,196Z"/><path class="cls-16" d="M176.93,270l-4,0C174.28,267.17,175.61,267.16,176.93,270Z"/><path class="cls-16" d="M177.93,272l0-2H182C181.11,271.62,179.63,272,177.93,272Z"/><polygon class="cls-16" points="150.87 192.63 150.87 192.33 151.16 192.49 150.87 192.63"/><path class="cls-12" d="M159,279l1-1,2-1.06c1.64.31,1.76,1.71,2.23,3s1.67,2.38,2.4.68c1.64-3.79,3.55-2.55,5.7-.79,1.57,1.3,3.43.68,5.14,1,7.82,1.38,17.25-3.63,23.2,5.6a5.06,5.06,0,0,0,2.07,1.32c3.1,1.53,6.35,2.7,7.4,6.68.61,2.28,2.49.47,3.8.55q0,.49.06,1c.1,3.09-2.88,5-3.14,7.91-8.37,1.74-15.65,8.08-24.92,5.94-3.62-.83-7.1-2.37-11-1.79-6.83-3.49-13.92-1.66-21-1-1-1.51-3.22-1.06-4.33-2.94-1.74-2.94-4-3.21-5.77.3-1.23,2.49-2.94,2.9-5.14,1.21.76-1.17,2.31-1.88,2.12-3.62,2-1,1.83-2-.12-2.82-.08-1.92,1.05-4.22-1.66-5.32a2.93,2.93,0,0,0-.18-.83c.78-6,6.33-9.92,13.7-9.23C156.38,284.09,158.79,283.24,159,279Z"/><path class="cls-15" d="M106.32,302.92a20.26,20.26,0,0,0,7.59,2.37c-5.24,2-2.53,3.66-.63,5.12s4.63,4,3.24,5.91c-1.69,2.34-3.08,6.73-7.75,5.25.27-2.6-3.39-1.75-3.56-4.08-.07-1,.62-2.5-1.12-2.81s-1.88,1.51-2.8,2.3c-1.28,1.1-.86,3.21-2.46,4.11-1.12,0-2.72-.47-3.29.09-3.83,3.78-9.6,2.48-13.68,5.44a44.18,44.18,0,0,1-9.59,1.43c-5.49.44-9.16-1-10-6.9a17.28,17.28,0,0,0,1.9-6.19l.83-1.14c2.25,1.32.56,2.88.19,4.28-.56,2.13.28,2.75,2.25,2.44,1.86,2.24,4.38,3.12,7.59,4-.35-1.2-.77-1.83-.67-2.36q2.53-12.83,5.21-25.61c.07-.36.76-.58,1.16-.87.57,2.52-.4,4.91-.57,7.36-.12,1.79-1.1,4.17,1.9,4.82l-.66,8a10.48,10.48,0,0,0-.52,2.42c0,1.45-1.38,3.21-.16,4.22,1.42,1.15,3.1-.28,4.59-.84,1.09-.4,2.08-1.05,3.16-1.46,2.75-1.06,5.54-2.05,3.63-5.94C101.9,313.13,104,311.47,106.32,302.92Z"/><path class="cls-15" d="M138.75,305.55c2.2,1.69,3.91,1.28,5.14-1.21,1.74-3.51,4-3.24,5.77-.3,1.11,1.88,3.29,1.43,4.33,2.94l-10.1,3.31c-3.94,1.65-8.69,1.6-11.51,5.56-4.49.46-7.43,4.09-11.4,5.69a15.43,15.43,0,0,1-4,1.3c-.27-2.09,1.24-3.07,2.71-3.66,4.15-1.69,5.37-4.92,5.27-9Z"/><path class="cls-12" d="M98.83,321.09c1.6-.9,1.18-3,2.46-4.11.92-.79,1-2.61,2.8-2.3s1,1.83,1.12,2.81c.17,2.33,3.83,1.48,3.56,4.08-2.63,2.19-6.33.31-9,2.34C98.6,323.25,99,322.09,98.83,321.09Zm3.67-2.42-.22.34.37.05Z"/><path class="cls-11" d="M132.38,315.85c2.82-4,7.57-3.91,11.51-5.56-.61,2.29-.15,5.29-4.49,4C137.27,313.72,135,316.3,132.38,315.85Z"/><path class="cls-2" d="M122,47c-4.71-5.79-8.36-5.92-12.67-.25-1.17,1.54-2.84,2.21-4.25,3.31-.18-.27-.54-.57-.51-.81.61-4,1.93-7.66,5.4-10.16,2-.31,2.67-3,5-2.78,3.2.66,6.5,1.15,8,4.68.59,1.34.85,3,1.84,3.95,2.52,2.29,1.76,3.88-.58,5.47L123,48Z"/><path class="cls-7" d="M104.62,56.72l-.8,2.32c-2.13.17-1.28,2.63-2.61,3.57-.73-3.64.32-6.89,1.21-10.47C103.24,53.86,103.19,55.66,104.62,56.72Z"/><path class="cls-4" d="M3.09,52.59l.36.26a5.59,5.59,0,0,1-.51.57s-.23-.16-.35-.24C2.76,53,2.93,52.79,3.09,52.59Z"/><path class="cls-9" d="M67.42,320.54c-2,.31-2.81-.31-2.25-2.44.37-1.4,2.06-3-.19-4.28l-.06-1.05c1.63-1.26,2.94-2.73,3.13-4.91,3.86-3.46,4.59-8.36,6-13l-.05.05h1.12c1,3.71-1.26,6.62-2.47,9.74C70.61,309.88,68.26,315,67.42,320.54Z"/><path class="cls-3" d="M68.05,307.86c-.19,2.18-1.5,3.65-3.13,4.91-1.71-2.44-.56-5.23-.94-7.83,1.32-2.33,1.26-5.45,4-7-.21,1.63-.6,3.45,2.11,2C70.34,302.82,68.09,305.06,68.05,307.86Z"/><path class="cls-3" d="M64.15,315a17.28,17.28,0,0,1-1.9,6.19C60.25,318.29,60.87,316.22,64.15,315Z"/><path class="cls-1" d="M217.9,28c0,1.36,0,2.71.07,4.06q0,7.47-.08,14.93c-3.43.86-.84,4.61-3.23,6.44-2.46-3.45-2.56-7.35-2.75-11.19-.13-2.7-.79-4.64-3.88-5.51s-4.57,0-6.26,2.37c-3.24,4.53-13.12,6.27-17.71,3.16-2.84-1.92-3.84-1-4.12,2-.17,1.87.56,4.47-2.4,4.62-3.45.18-5.88,1.89-8.23,4.12-1.17,1.1-2.72,2.38-4.42,1.17s-3.91-2.51-3.61-5c.27-2.27.84-4.3-1.88-5.4s-5.16-.7-7.9.95c-5.59,3.36-5.38,9.24-7,14.28-2.19,7-2,7-8.91,6.49-1.69-.12-2.81-1.85-4.62-1.49-.05-.31-.09-.61-.13-.91L131,62c1.15-1.33,3.16-2.28,2.71-4.41-.42-2-2.29-1.46-3.71-1.61,0-1.37-.19-2.64-1.89-2.93L128,52c.9-.8,1.58-1.92,2.95-2a6.21,6.21,0,0,0,.81.48c3.62-4.52,10.13-5.61,12.8-11.45,3.72-8.13,10.56-10.36,19.09-9s16.68,2.45,25.32.15c7.92-2.1,16.31-1.57,24.54-1.46A24.78,24.78,0,0,0,217.9,28Z"/><path class="cls-11" d="M131,50c-1.37.1-2,1.22-2.95,2l-3.25,0c-.17-.52-.34-1-.52-1.56,2.34-1.59,3.1-3.18.58-5.47-1-.9-1.25-2.61-1.84-3.95,2.62-.9,5.65-3.16,4.72,2.79C127.4,45.73,130.91,47.32,131,50Z"/><path class="cls-12" d="M5.2,342.12c-.27-6.85-.25-6.95,5.11-5.72,2.09.48,3.23-1.48,5-1.44,1.37,0,2.84.09,3.15,1.71s-.71,1.91-2.11,1.38c-.87-.34-1.21.28-1.24,1-.13,3.6-2.16,2.39-4,1.56C9,339.61,7.11,339.85,5.2,342.12Z"/><path class="cls-9" d="M71,279.94c0-1.11.06-2.22,1-3,.32.65.63,1.31,1,2,.93,2.28-3.33,5.19.86,7.08a1.17,1.17,0,0,1,0,1c-2.24.61-2,2.78-2.79,4.33S70.46,295.36,68,296c.28-4,1.44-7.9,1.09-11.94Z"/><path class="cls-6" d="M68,296c2.47-.6,2.24-3,3.08-4.67s.55-3.72,2.79-4.33l.34,2.84a8.37,8.37,0,0,0-.24,5.14l.05-.05c-2.42.82-2,3.84-4,5.05-2.71,1.46-2.32-.36-2.11-2C68,297.29,68,296.62,68,296Z"/><path class="cls-8" d="M131,64c1.81-.36,2.93,1.37,4.62,1.49,6.91.53,6.72.5,8.91-6.49,1.59-5,1.38-10.92,7-14.28,2.74-1.65,5.08-2.09,7.9-.95s2.15,3.13,1.88,5.4c-.3,2.46,1.91,3.76,3.61,5s3.25-.07,4.42-1.17c2.35-2.23,4.78-3.94,8.23-4.12,3-.15,2.23-2.75,2.4-4.62.28-3,1.28-3.89,4.12-2,4.59,3.11,14.47,1.37,17.71-3.16,1.69-2.36,3.31-3.19,6.26-2.37s3.75,2.81,3.88,5.51c.19,3.84.29,7.74,2.75,11.19,2.39-1.83-.2-5.58,3.23-6.44q0,23,0,46c-1.92-.24-3.85-1.68-5.77-.37-2.44,1.67-4.56,1.62-6.68-.49a2.18,2.18,0,0,0-2.76-.43c-7.56,4.67-13.11.42-18.62-4.11-5.24-4.31-16.23-.77-18.07,5.89-.42,1.51-.64,3-2.47,3.28-2.08.32-2.19-1.38-2.85-2.72-1.26-2.56-2.92-4.28-5.57-1.23-1.4,1.62-1.19,5.34-4.26,4.64-2.78-.63-2.12-4.16-3.28-6.26-.13-.23-.53-.3-1.07-.59-1.54,3.29-6.13,5.17-2.83,10.46,1.23,2,1.84,3.69,4.11,4.66a3,3,0,0,1,1.76,4.1c-.47,1-1.36.46-2.1.06-1-.53-2.12-2.56-3.11-.45-.87,1.87.64,3,2.38,3.64s3.75.63,4.26,2.92h0c-1.62-.23-3.24-1.22-4.86,0l-1-.53-.92-.53a10.59,10.59,0,0,1-3.16-4l-1.25-1.84.18.07-1.14-1.08,0,.23c-2-3.16-3.87-6.37-8.57-4.59-.57.21-1.48-.47-2.24-.73a6.82,6.82,0,0,0-1.83-3.81c-.45-1.73-.91-3.47-1.36-5.21l3.28-7.9c2.26.17,2.08-2.59,3.76-3.11,2.9-.9,5-8.53,3-10.62a2.76,2.76,0,0,0-.87-.45c-1.66-.75-2.09-2.44-2.93-3.82Z"/><path class="cls-11" d="M151,116c-.51-2.29-2.64-2.29-4.26-2.92s-3.25-1.77-2.38-3.64c1-2.11,2.11-.08,3.11.45.74.4,1.63,1,2.1-.06a3,3,0,0,0-1.76-4.1c-2.27-1-2.88-2.7-4.11-4.66-3.3-5.29,1.29-7.17,2.83-10.46.54.29.94.36,1.07.59,1.16,2.1.5,5.63,3.28,6.26,3.07.7,2.86-3,4.26-4.64,2.65-3,4.31-1.33,5.57,1.23.66,1.34.77,3,2.85,2.72,1.83-.29,2.05-1.77,2.47-3.28,1.84-6.66,12.83-10.2,18.07-5.89,5.51,4.53,11.06,8.78,18.62,4.11a2.18,2.18,0,0,1,2.76.43c2.12,2.11,4.24,2.16,6.68.49,1.92-1.31,3.85.13,5.77.37q0,12.49,0,25c-.63-.21-1.46-.22-1.85-.65-8.07-8.87-16.58-5.11-25.07-.89-3.14,1.56-5.88,3-9.81,1.43-3.5-1.4-4.71,1.87-5.22,4.84-1,5.65-1.26,5.84-6,2.44-1.73-1.24-2.9-.39-4,.51-1.37,1.16-3.15,2.49-3.54,4.05-1.61,6.49-9.33,5-12.17,9.76-.7,1.18-2.9,1.89-1.67,3.59,1.12,1.53,3.09,1.13,4.57.32,1.92-1.07,3.71-2.12,6-.61-.71,2.09-2.7,2.89-3.94,4.35-3.11,3.62-6.74,6.81-4.76,12.56.95,2.76-1.81,3.67-3.9,4.09-3,.61-3.82,2-3,4.94a9.07,9.07,0,0,1-.34,6.8c-.22.42-.66,1.21-.63,1.23,5.37,3.29.28,6.87.29,10.29a3.07,3.07,0,0,0-2.71-.12c-1.08-3,.36-6.2-.37-9.26a4,4,0,0,1-.71-3.7c.69-.22,1.79-.26,2-.71.44-1-.59-1.12-1.29-1.34-1.9-7.43-1.92-15-1.77-22.61l.13-.19c1.2-.8.8-2,.71-3.07,2.28-2.27,2.42-5.74,4.41-8.1,2.43-2.88,2.35-5.72.67-8.79,1.11-1.93,5.27.06,4.87-4-.24-2.53.51-5.32-2.89-6.34l-.07-2.08a3.47,3.47,0,0,1,.19-.77C147.71,114.79,149.33,115.78,151,116Z"/><path class="cls-9" d="M210.82,303.84c.26-2.95,3.24-4.82,3.14-7.91,2.91.38,4.25,2,3.92,5C216.64,304.53,213.63,304,210.82,303.84Z"/><path class="cls-8" d="M214.35,307l-.27.35a5.47,5.47,0,0,1-.57-.51s.16-.23.25-.35Z"/><path class="cls-9" d="M213.9,294.94c-1.31-.08-3.19,1.73-3.8-.55-1-4-4.3-5.15-7.4-6.68a5.06,5.06,0,0,1-2.07-1.32c-5.95-9.23-15.38-4.22-23.2-5.6-1.71-.31-3.57.31-5.14-1-2.15-1.76-4.06-3-5.7.79-.73,1.7-2,.47-2.4-.68s-.59-2.64-2.23-3l2-3h3l0,0q2,4.14,4,0l1,0c1.58.14,2.6,1.24,3.77,2.13,2.24,1.69,4.35,2.46,7.05.32,1.67-1.33,4.11-1.71,6.2-2.51h2.93c4.77,1.5,9.76-.07,14.57,1.13,3.38.84,5.65,4.21,9.44,3.95.66,2,.09,3.37-2,4-2.22,0-2.79.91-2.15,3.06C212.61,288.93,213.19,292,213.9,294.94Z"/><path class="cls-15" d="M79.87,156.17c-1.51-2.45,1-4.14,1.19-6.26-.38-1-.76-2-1.13-3a1.4,1.4,0,0,0-.1-.9A9,9,0,0,0,81,141h0l1-1c.9-.14,1.89-.06,2.45-1,2.9,4.71,2.9,4.71,4.51,3.73,4.5-2.74,4.51-3.4.11-6.75.11-.42.21-.83.31-1.25L94.94,137h0a.9.9,0,0,0,1,1v0c-.33,1.27.76,1.92,1.23,2.84-2.65,1.08-3.33,3.52-4.06,5.92-.62,2,.51,4.39-1.22,6.2C88,154.4,84.5,157.5,79.87,156.17Zm3.64-10.85c-1.22,1.34-2,3.08-.23,4.15,2,1.18,4.39,1.37,5.62-1.51-.06-2.6-2-2.67-3.82-2.79l-1.45.12Q83.35,144.32,83.51,145.32Z"/><path class="cls-16" d="M81.89,228.09c-.3-.71-.6-1.42-.89-2.13,2-1,1.59-3,2.07-4.71,1.51-5.32,0-11,1.85-16.2L85,200l.12-.07,3.39.35c1.08,2.88-.87,5.7-.16,8.57a6.61,6.61,0,0,0-.5,4.18c-1.68,5.15-1.9,10.54-2.63,15.84L85,230.08l-.73,3.74A26.36,26.36,0,0,0,82.73,242l-2.07-1C79.9,236.55,82.08,232.43,81.89,228.09Z"/><path class="cls-16" d="M73,278.91c-.32-.65-.63-1.31-1-2l0,0c1.16-1.3,1.29-2.61,0-3.92-.16-3.34,3-6.09,1.24-9.95-.91-2,2.3-2.16,3.63-3.18l1.39.19c-.18,1.64-.91,3.23-.39,4.93.66,1.22-3.74,3.61.89,3.94l-1.09,3.94C75.32,274.29,74.13,276.58,73,278.91Z"/><path class="cls-2" d="M89,165c0-.31,0-.61.08-.92l3.22.83-1.5,17.91c-2.32.26-3.78.07-3.27-3.11C88.27,174.87,88.5,169.93,89,165Z"/><path class="cls-12" d="M79.87,156.17c4.63,1.33,8.11-1.77,12-3.15-2.86,2.77,1.57,5.33.23,8-1.47-.94-2.48,1.71-4,.49.18-3.22-.19-5.35-4.25-3.09a4.57,4.57,0,0,1-5.19-.53C77,156.32,78.92,156.41,79.87,156.17Z"/><path class="cls-14" d="M89.44,134.79,89.12,136l-2.26.84C85.67,135.8,83,136.76,83,134l0,0,.7-.92c1.63-1.65,1-4.11,2.12-6a16.26,16.26,0,0,0,7,.86C90.82,129.8,89.21,131.83,89.44,134.79Z"/><path class="cls-10" d="M78.28,260.12l-1.39-.19c.36-2.67.73-5.33,1.09-8,1.62-3.49.77-7.58,2.68-11l2.07,1q.17,3,.31,6l-1.18.41c-1.16,1.66-1.3,3.63-1.67,5.53L79.11,258l-.18,1.88A4.57,4.57,0,0,0,78.28,260.12Z"/><path class="cls-2" d="M85,200c-1.2,0-3.41.81-3.13-.85.34-2-1.43-4.33.25-5.87,1-.93,1.93-1.58,1.87-3l2.93-.14,1.84,1.3h.18c-2.08.25-1.91,2.29-2.79,3.49l-1,5Z"/><path class="cls-9" d="M89,165c-.46,4.91-.69,9.85-1.47,14.71-.51,3.18,1,3.37,3.27,3.11,1.18,2.16-.77,3-1.81,4.17-2-.1-1.57-2.57-3.06-3.17.39-5.25.8-10.5,1.16-15.76C87.15,166.69,87.35,165.43,89,165Z"/><path class="cls-6" d="M80.66,241c-1.91,3.41-1.06,7.5-2.68,11-2.14-2.88.23-5.72.19-8.6-.07-4.6,2.13-9,2-13.66,0-.92.82-1.36,1.67-1.59C82.08,232.43,79.9,236.55,80.66,241Z"/><path class="cls-6" d="M84.92,205.05c-1.89,5.24-.34,10.88-1.85,16.2C82.59,223,83,225,81,226c.68-5.8,1.38-11.61,2-17.42C83.18,207.08,83,205.51,84.92,205.05Z"/><path class="cls-15" d="M92.88,128a16.26,16.26,0,0,1-7-.86c-1.21-1.15.37-1.59.61-2.38,2.66-.65,5.31-1.19,8-.17C93,125.29,92.76,126.56,92.88,128Z"/><path class="cls-12" d="M83,134c0,2.72,2.66,1.76,3.85,2.84a2.87,2.87,0,0,0-2.36,2.18c-.56,1-1.55.88-2.45,1l-1,1h0L80,141C79.56,138,81.4,136.08,83,134Z"/><path class="cls-12" d="M85.89,183.84c1.49.6,1,3.07,3.06,3.17.35,1.7-1.63,1.85-2,3l-2.93.14C84,187.89,84,185.58,85.89,183.84Z"/><path class="cls-3" d="M88.16,161.56c1.5,1.22,2.51-1.43,4-.49l.12,3.86L89,164.1A2.87,2.87,0,0,1,88.16,161.56Z"/><path class="cls-9" d="M80,141l1,.07a9,9,0,0,1-1.21,5C77,144.24,78.93,142.61,80,141Z"/><path class="cls-12" d="M79.93,146.94c.37,1,.75,2,1.13,3C79.25,149.46,78.54,148.6,79.93,146.94Z"/><path class="cls-9" d="M72,273.06c1.27,1.31,1.14,2.62,0,3.92C72,275.67,72,274.37,72,273.06Z"/><path class="cls-12" d="M83.74,133.09,83,134Z"/><path class="cls-7" d="M131,68.08c.84,1.38,1.27,3.07,2.93,3.82a2.76,2.76,0,0,1,.87.45c2.08,2.09-.06,9.72-3,10.62q-1.56-7.45-3.11-14.89Z"/><path class="cls-15" d="M128.08,86.08,124.8,94c-.76.84-1.44,1.88-2.82,1l0,0c0-2.76-.42-5.51.71-8.21.57-1.34.69-2.91-.89-3.93.06-.61.11-1.21.16-1.82l0-.05C125.48,81,126.54,83.8,128.08,86.08Z"/><path class="cls-7" d="M131,62c0,.36,0,.73-.08,1.09-2,0-1.74,2.18-2.94,2.94l-2-9a5.84,5.84,0,0,0,2.08-3.93c1.7.29,1.88,1.56,1.89,2.94C131,57.91,131,60,131,62Z"/><path class="cls-9" d="M114.56,86.88c-2.62.12-3.39-1.52-3.56-3.73.87-1,3.16-1.46,1.14-3.39l1-1.16C117.45,80.72,114.17,84.11,114.56,86.88Z"/><path class="cls-9" d="M127.93,66.07c1.2-.76,1-3,2.94-2.94,0,.3.08.6.13.91v4h-2.27A2.08,2.08,0,0,1,127.93,66.07Z"/><path class="cls-15" d="M116.69,72.93c.51.8,2,1.18.57,2.64-1.87,1.94-2.84-.36-4.23-.58a4.52,4.52,0,0,1,0-.9l1.92-.75Z"/><path class="cls-2" d="M128.06,53.09A5.84,5.84,0,0,1,126,57l-1.23-5L128,52Z"/><path class="cls-9" d="M113,74.09a4.52,4.52,0,0,0,0,.9c-.32.88-.55,1.9-1.81,1.78-.45,0-.89-.25-.56-.89C111.16,74.9,111.5,73.74,113,74.09Z"/><path class="cls-12" d="M116.69,72.93l-1.77.41c-.47-.48-1.06-1.32-.46-1.62C115.4,71.25,116.21,72,116.69,72.93Z"/><path class="cls-12" d="M113.16,78.6l-1,1.16-1.91-.09a2.72,2.72,0,0,0-.33-.66A3.12,3.12,0,0,1,113.16,78.6Z"/><path class="cls-15" d="M110.1,82.92l-.88-1Z"/><path class="cls-15" d="M121.94,81l-.3-.23L122,81Z"/><path class="cls-15" d="M109.9,79a2.72,2.72,0,0,1,.33.66l-.59-.34Z"/><path class="cls-11" d="M122,47,123,48C122.34,48,122,47.72,122,47Z"/><path class="cls-15" d="M110.66,101.75l-2.13-3.55L111,96.85c3.07,3,4.59.88,5.91-1.84,1.68-.82,3.36-1.23,5,0l0,0,.06,4,0,0c-2,.18-4.12.19-4.85,2.68C115,101.71,112.83,102.65,110.66,101.75Z"/><path class="cls-6" d="M116.91,95c-1.32,2.72-2.84,4.79-5.91,1.84.06-1.53-.72-3.49,1.13-4.31C114.48,91.5,115.16,94.44,116.91,95Z"/><path class="cls-12" d="M98.79,125.32l1.13-.34c1.9.83,3.7,1.76,4.18,4-.31,2.21-.24,4.8,1.9,5.55,1.67.59,2.9-1.79,4-3.12a17.64,17.64,0,0,1,4.07-3.5l4.76.21-.08,4.07a3.31,3.31,0,0,0-2.16,2A.94.94,0,0,1,116,134c-.54-.95-.79-2.49-2.06-2.4s-.77,1.56-1,2.44l-.6.62-1.41,2.24-2,1.12-1.87,0a5.34,5.34,0,0,0-3.38,3.75l-1.53.37c-1.93-1.57-2.83-4.7-6.19-4.12v0l-1-1h0c-.4-1.83-1.1-3.47.48-5.37S97.69,127.46,98.79,125.32Z"/><path class="cls-3" d="M118.85,128.16l-4.76-.21c-.22-3.26-2-3.24-4-1.68a11.23,11.23,0,0,1-6,2.75c-.48-2.28-2.28-3.21-4.18-4-1.29-3.45,3.45-2.61,3.6-5l1.62.23c4,2.16,4.39-1.63,5.51-3.62s1.57-4.36,2.31-6.56h0l.86-.49c2.09,1.28,4.19,2.27,6.48.44l.77.11.9,1h0c-3.44,3.59-8.93,4.91-11,10l-.29.24.17.17.24-.28c2.83,0,4.44,2.87,7.2,3l1.13-.19.06,0,1.13.26C121.36,126.16,120.45,127.31,118.85,128.16Z"/><path class="cls-13" d="M120.3,109.94c-2.29,1.83-4.39.84-6.48-.44-.67-.5-.66.18-.86.49h0c-1.73.61-3.85-2.72-5.33.53l-1.62.64-1.09.31c-.62-.15-1.22-.76-1.87,0,.1-.11.28-.22.27-.31a3,3,0,0,0-.26-.61l.13.15.35.08.17-.32v-.08a1.92,1.92,0,0,0,2-1.12c.64-.23,1.22-.5.79-1.35,3.73-.43,1.57-4.93,4.21-6.11,2.17.9,4.34,0,6.5,0,2.29.32,4.56.62,4.85-2.68l0,0c1,.81,2.26-1.92,3.25.16.34,1.55-.86,2.58-1.34,3.85a.39.39,0,0,0,0,.48c-2.47.6-5.33,1-6.51,3.41C116.91,108.1,119.31,108.92,120.3,109.94Z"/><path class="cls-9" d="M98.79,125.32c-1.1,2.14-1.87,4.54-3.37,6.35s-.88,3.54-.48,5.37l-5.51-2.25c-.22-3,1.39-5,3.45-6.79-.12-1.44.14-2.71,1.59-3.41C96.1,123.72,97.41,124.69,98.79,125.32Z"/><path class="cls-16" d="M103.8,119c-3.12-.25-1.83-2.35-1.67-4a5.52,5.52,0,0,0,.81.06,1.45,1.45,0,0,0,1.55,1.29l2.52.88q0,.4,0,.81Z"/><path class="cls-12" d="M103.8,119,107,118c1.52,2.64-1,1.69-1.9,2.13l-1.62-.23C103.61,119.62,103.71,119.3,103.8,119Z"/><path class="cls-9" d="M102.94,115.06a5.52,5.52,0,0,1-.81-.06,6.89,6.89,0,0,1,.93-4.5,3,3,0,0,1,.26.61c0,.09-.17.2-.27.31l0,2.86A.76.76,0,0,1,102.94,115.06Z"/><path class="cls-9" d="M103.7,110.33v.08c-.7-.84-2.09-1.75.23-2.29,0,.24,0,.48,0,.73Z"/><path class="cls-6" d="M104,108.85c0-.25,0-.49,0-.73l2.51-.26c.43.85-.15,1.12-.79,1.35Z"/><path class="cls-15" d="M140.22,187a3,3,0,0,1,2.7.11c1.55,2.08-.8,5.15,1.78,7,1.79,2.77.81,5.29-.71,7.76-2.2-.94-4.24-2-4.67-4.72l5.13,3.07C142.16,195,139.27,191.48,140.22,187Z"/><path class="cls-1" d="M106.32,302.92c-2.35,8.55-4.42,10.21-14.24,11.38a12.85,12.85,0,0,1,5.36-4.19,3.7,3.7,0,0,0,1.73-5.35c-2.29-3.05-2-6.65-2.94-9.91-1.48-5.39-3.82-7.53-9.44-6.64l-3.88.64c.25-4.63,3.35-8.33,4.13-12.79a1.54,1.54,0,0,0,.9-.14c4.25,1.15,8.6,2,12.73,3.52,5.33,1.92,5.25,2.13,5.3-3.44,0-.31,0-.62,0-.92l1.67-.18c1.75,4.89,1,10,1.38,15-.31,1.47-.44,2.9.93,4C107.46,296.39,107.19,299.78,106.32,302.92Z"/><path class="cls-8" d="M106,276c0,5.57,0,5.36-5.3,3.44-4.13-1.49-8.48-2.37-12.73-3.52q.5-12,1-24.08,1.17-13.83,2.33-27.68L97,223l1.39,1.76c1.51,6.38,4,12.55,4.41,19.17-2.86.82-4.7,1.95-6.09,5.31-1.52,3.65-.29,6.78-.65,10.1-.24,2.19.07,4.39-3.06,4.66-2.25.2-3.12,1.77-2.87,3.85.31,2.57,1.32,5.68,4,5.58C98.39,273.29,101.84,276,106,276Z"/><path class="cls-11" d="M106,276c-4.13,0-7.58-2.71-11.91-2.54-2.64.1-3.65-3-4-5.58-.25-2.08.62-3.65,2.87-3.85,3.13-.27,2.82-2.47,3.06-4.66.36-3.32-.87-6.45.65-10.1,1.39-3.36,3.23-4.49,6.09-5.31q2.06,5.52,4.1,11c-2,6.62-.43,13.4-.88,20.09C106,275.38,106,275.69,106,276Z"/><path class="cls-9" d="M98.36,224.79,97,223c0-2.7,0-5.41,0-8.12l-1-1.93v0c-.14-3,.47-6.25-3-8a33.69,33.69,0,0,1,.41-10.65c.87,1.63.46,4,2.6,5,1.59-1.19.43-2.73.64-4.06l.73-.61a2.8,2.8,0,0,1,1.71,2.2c.64,2.38,1.27,4.75,1.9,7.13-1.75.26-1.7-2.35-3.7-2.2-.11,2.62,1.34,4.46,2.65,6.88,1.27-1.78.9-3.29,1-4.69l2.13-1.08c1.86-.24,1.53-3.15,3.68-3l.33,2.08c0,1-.05,2-.07,3s-.13,2.05-.19,3.08c-2.78,2.58-4.86,6.33-2.77,9.23,1.3,1.81,2.44,3.94,3.94,5.71l0,1.14Z"/><path class="cls-15" d="M110,293.92c-1.37-1.09-1.24-2.52-.93-4,2.32-.89,1.76-2.93,1.81-4.67.22-7.42.38-14.83.62-22.24.06-1.76,1.34-3.37,2.79-2.95,1,.3,4.69-.43,3.07,3.3-.59,1.34-.13,3.27.19,4.86,1.58,7.73-.51,15.1-1.93,22.56C114.93,294.28,113.32,295.54,110,293.92Z"/><path class="cls-15" d="M108,224.14c0-.38,0-.76,0-1.14l1-.1c3.5,1.77,7.28.7,10.91,1a4.44,4.44,0,0,1,.08.61c-.06,4.81-5.2,7.63-4.94,12.48.15,2.94-3.52,6.07.46,8.86a1.39,1.39,0,0,1-.15,2.18,10.79,10.79,0,0,1-4.62,1.39c-1.56,0-1.73-1.71-1.8-3.08q-.45-9.63-.91-19.27C108.05,226.12,108,225.13,108,224.14Z"/><path class="cls-10" d="M106,275.08c.45-6.69-1.13-13.47.88-20.09,1.25,6.6.21,13.29.79,19.91Z"/><path class="cls-15" d="M122.09,254c-.79-.17-1.73-.26-1.37-1.46a.89.89,0,0,1,.77-.41c1.3.31.68,1.19.51,1.93Z"/><path class="cls-9" d="M159,279c-.18,4.2-2.59,5-6.36,4.69-7.37-.69-12.92,3.2-13.7,9.23l-1.12,0L136,291.9c-.89-2.5-3.12-3.75-5.17-4.9a5,5,0,0,1-2.93-5.08l2.07-3c8.11,3.79,15.83-2.2,23.85-1C155.55,278.22,157.47,277.59,159,279Z"/><path class="cls-7" d="M127.88,281.92a5,5,0,0,0,2.93,5.08c2.05,1.15,4.28,2.4,5.17,4.9-4.17.21-7.2-1.6-9.48-5C125,284.54,125.19,282.94,127.88,281.92Z"/><path class="cls-7" d="M137.79,293l1.12,0a2.93,2.93,0,0,1,.18.83c-.76,2-2.73,3.63-2.12,6.13l-.05.07C131.68,297,135.5,295.07,137.79,293Z"/><path class="cls-7" d="M140.75,299.11c1.95.86,2.13,1.8.12,2.82a4,4,0,0,1-4-1.94l.05-.07Z"/><path class="cls-16" d="M139.32,197.07c.43,2.69,2.47,3.78,4.67,4.72l-.09,1.3c-3.83-.3-2,3.66-3.72,4.95-2.73-.1-1.76,3.66-4.11,4-.62-1.83-2.07-3.82.91-5l.25-.3-.29.25a3.22,3.22,0,0,1-.67-3.23c.41-1.56.62-3.21-1.52-3.33-1.9-.1-1.72,1.67-1.75,2.93-.06,2.8,0,5.6,0,8.4,0,1.91.58,3.25,2.79,3.18-.41,1.84-1.86,3-3,4.28l-1.48-1.36c-.21-6.31-2.89-12.32-2.36-18.73-.07-1.82.65-4.13-2.48-4.1,1.95-1.82.22-3.93.48-5.88C132.3,189.81,134.88,194.89,139.32,197.07Z"/><path class="cls-10" d="M136.07,212c2.35-.29,1.38-4.05,4.11-4-1.89,4.79-1,10-2.41,14.91h-2.68c-.78-1.26-1.55-2.52-2.33-3.77,1.17-1.31,2.62-2.44,3-4.28C135.89,213.92,136,213,136.07,212Z"/><path class="cls-7" d="M164,273.93l-2,3L160,278c0-1.36,0-2.72,0-4.08.31,0,.62,0,.94-.05l3.05,0Z"/><path class="cls-2" d="M107.05,205c0-1,0-2,.07-3,3.52-2.44,1.58-5.38.74-8.22a2.06,2.06,0,0,1,.21-.76l.88-1c0-1,.11-2,.17-3l1-.09,1.81.41c1.05,5.8,3.56,10.66,8.92,13.64.62,2.79,2.56,4.75,4.33,6.81l.09,2.49c-.23,1.41.91,3-.47,4.25l-1.83-.56-.34-.14.27.21a2.44,2.44,0,0,0,1.84,2.1c.06.29.12.58.17.86-1,1.13-2.37,1-3.69,1.14-4-2.26-8.7-.09-12.69-2.18a1.23,1.23,0,0,1-.14-.78c3-1.58-.55-4,.79-5.9C111.27,208.31,109.51,206.47,107.05,205Zm3.46-1.19-.19.26.3,0Z"/><path class="cls-12" d="M125.21,209.75c-1.77-2.06-3.71-4-4.33-6.81l2.37-1.1c2-.1,2.52-2.34,4.19-2.9l1.48.15c-.53,6.4,2.15,12.41,2.36,18.72-1.81,2.07-3.83,2.94-6.34,1.15,0-.28-.11-.57-.17-.86l.06-1.61c1.38-1.28.24-2.84.47-4.25Q127.81,210.9,125.21,209.75Z"/><path class="cls-10" d="M108.56,217.92c4,2.09,8.72-.08,12.69,2.18-.42,1.28-.84,2.56-1.27,3.84-3.63-.34-7.41.73-10.91-1Z"/><path class="cls-5" d="M171.92,273.93l-1,0h-4l0,0c1.17-2.84,3-2.22,5-1C171.93,273.27,171.92,273.6,171.92,273.93Z"/><path class="cls-5" d="M163.93,273.87l-3.05,0a2.32,2.32,0,0,1,2-2Z"/><path class="cls-9" d="M140.75,299.11l-3.78.81c-.61-2.5,1.36-4.11,2.12-6.13C141.8,294.89,140.67,297.19,140.75,299.11Z"/><path class="cls-3" d="M82.91,288.85l3.88-.64c5.62-.89,8,1.25,9.44,6.64.89,3.26.65,6.86,2.94,9.91a3.7,3.7,0,0,1-1.73,5.35,12.85,12.85,0,0,0-5.36,4.19c1.91,3.89-.88,4.88-3.63,5.94-1.08.41-2.07,1.06-3.16,1.46-1.49.56-3.17,2-4.59.84-1.22-1,.17-2.77.16-4.22a10.48,10.48,0,0,1,.52-2.42c2.55-2.95,3.43-6.19,1.7-9.88-.33-1.86.37-3.6.58-5.39.4-3.41.84-6.94-2.1-9.66C81.75,290.1,81.88,289.18,82.91,288.85Z"/><path class="cls-13" d="M82.91,288.85c-1,.33-1.16,1.25-1.35,2.12-1.3,1.41-.52,3.2-.85,4.78-.4.29-1.09.51-1.16.87q-2.68,12.78-5.21,25.61c-.1.53.32,1.16.67,2.36-3.21-.93-5.73-1.81-7.59-4,.84-5.58,3.19-10.66,5.19-15.86,1.21-3.12,3.5-6,2.47-9.74L75,295c2.58-.13,2.26-2.76,3.5-4.05,2.8-3.58,3.72-8,5.24-12.13.66-1.81,1.28-2.92,3.3-2.77C86.26,280.52,83.16,284.22,82.91,288.85Z"/><path class="cls-12" d="M80.71,295.75c.33-1.58-.45-3.37.85-4.78,2.94,2.72,2.5,6.25,2.1,9.66-.21,1.79-.91,3.53-.58,5.39l-1,1.91c-3-.65-2-3-1.9-4.82C80.31,300.66,81.28,298.27,80.71,295.75Z"/><path class="cls-8" d="M82,307.93l1-1.91c1.73,3.69.85,6.93-1.7,9.88Z"/><polygon class="cls-15" points="102.5 318.67 102.65 319.06 102.28 319.01 102.5 318.67"/><path class="cls-15" d="M87,276.06c-2-.15-2.64,1-3.3,2.77C82.22,283,81.3,287.38,78.5,291c-2.7,0-3.15,2-3.5,4.05l.08-.07H74a8.33,8.33,0,0,1,.24-5.13c.31,0,.61,0,.92,0a1.16,1.16,0,0,0,1-1.43c.91-1.57,1.9-3.1,2.71-4.72,1.08-2.13,1.11-3.91-1.93-4.21.12-.78.11-2.17.4-2.24,4.69-1.12,2.77-2.67.36-4.3l1.1-3.95c1.24-.47,3.28-.49,1.53-2.67l-.13-.08.78-1.16c1.79-2.77,1.15-6,1.81-9l.1-1.19.37-2.84c1.2,1.41.14,3.78,2.45,5.83V245.18C85,247.11,84.29,248,83,247.94q-.15-3-.31-6a26.36,26.36,0,0,1,1.57-8.15c2.59-.36,3.78.32,3.78,3.37,0,4.88-1.29,9.88.83,14.65q-.48,12-1,24.08A1.54,1.54,0,0,1,87,276.06Zm-3.93-2-.51-.83a5.38,5.38,0,0,0-.47,1.18c0,.23.25.5.39.75Z"/><path class="cls-15" d="M70.06,299.94c1.92-1.21,1.53-4.23,4-5.05-1.37,4.61-2.1,9.51-6,13C68.09,305.06,70.34,302.82,70.06,299.94Z"/><path class="cls-8" d="M131,62c0-2.07.07-4.13-1-6,1.42.14,3.29-.37,3.71,1.6C134.11,59.76,132.1,60.71,131,62Z"/><path class="cls-12" d="M77.69,272.93c2.41,1.63,4.33,3.18-.36,4.3-.29.07-.28,1.46-.4,2.24-1.34,1.68-.54,3.83-1.24,5.66a1.74,1.74,0,0,0-1.85.86c-4.19-1.89.07-4.8-.86-7.08C74.13,276.58,75.32,274.29,77.69,272.93Z"/><path class="cls-13" d="M73.84,286a1.74,1.74,0,0,1,1.85-.86c0,.42,0,.85,0,1.28-.85,1-.67,2.23-.52,3.42-.31,0-.61,0-.92,0L73.86,287A1.17,1.17,0,0,0,73.84,286Z"/><path class="cls-14" d="M118.85,128.16c1.6-.85,2.51-2,1.71-3.91,1.16-1.88,2.33-3.75,3.5-5.63,2.59-.41,4.56-2.88,6.88-3,2,0,3.17-.08,3.55-2.08a2.75,2.75,0,0,0-2.74-3.37c-3.09-.22-2.85-2-2.44-4.08l.08,0c3.55-1,6.27,1.52,9.41,2.23l0-.23c-.09.86.26,1.25,1.14,1.08l-.18-.07c-.19,1,.54,1.43,1.25,1.84a10.59,10.59,0,0,0,3.16,4c.06,1.3.12,2.6.17,3.91L143,122.34l-1.18-.26c.15-1.39.28-2.77-.72-4a1.64,1.64,0,0,0-2,.94c-1.28,1.4.36,5.59-3.93,4.11.36-.85,1-2.36.18-2.49-1.71-.27-1,1.41-1.18,2.37-.4,1.17-2.56.24-2.4,1.8s1.8,1.15,2.77,1.38c2.07.48,4.21.64,6.33.93.67,2.09,1.42,1,2.16,0q.47-.12.93-.21l-.09-.05.07,1,0,1.17c1.68,3.07,1.76,5.91-.67,8.79-2,2.36-2.13,5.83-4.41,8.1a2.45,2.45,0,0,0-.71,3.07,2,2,0,0,0-.12.19c-2.39-.47-2.65,1.91-3.17,3-2.47,5.11-5.86,7.41-11.47,5-2.8-.35-5.15-3.66-8.36-1.26-2.25-3.86,1.92-7.28.78-11.06-.63-1.94.59-2.66,2.1-3.18.9.06,1.82,1.22,2.64.19a2.19,2.19,0,0,0-.12-2.72c-1.08-1.47-2.26-2.79-4.38-2.28a5.23,5.23,0,0,0,0-1c.56-.16,1.18-.27.9-1.11l-.05.08c2.32.17,1.63-1.6,1.81-2.82Z"/><path class="cls-2" d="M138.8,108.32c-3.14-.71-5.86-3.25-9.42-2.23l-.54-.06.47.11c-.41,2.09-.65,3.86,2.44,4.08a2.75,2.75,0,0,1,2.74,3.37c-.38,2-1.53,2-3.55,2.08-2.32.07-4.29,2.54-6.88,3,.32-1.69-.15-3.05-2-3.09s-1.54,1.37-1.57,2.76a36.47,36.47,0,0,1-1,5.7l-.07,0-1.12.19c-2.76-.17-4.37-3.06-7.2-3l-.12-.13c2.12-5,7.61-6.37,11-10,1.93-1.56.69-4.18,2-6,1.43.15,2.48-.06,1.76-1.9L128,103c.76.26,1.67.94,2.24.73C134.93,102,136.83,105.16,138.8,108.32Z"/><path class="cls-12" d="M125.29,99.22c-1-2.08-2.21.65-3.25-.16L122,95c1.38.83,2.06-.21,2.82-1,.45,1.74.91,3.48,1.36,5.21A3.17,3.17,0,0,1,125.29,99.22Z"/><path class="cls-10" d="M125.29,99.22a3.17,3.17,0,0,0,.87,0A6.82,6.82,0,0,1,128,103l-2.27.15c-.6.13-1.21.75-1.77-.08C124.43,101.8,125.63,100.77,125.29,99.22Z"/><path class="cls-12" d="M144.3,118.85c-.05-1.3-.11-2.6-.17-3.9l.92.53.85,1.3c0,.69,0,1.38.08,2.08a5.82,5.82,0,0,1-.93.26A3.36,3.36,0,0,1,144.3,118.85Z"/><path class="cls-2" d="M141,110.94c-.71-.41-1.44-.81-1.25-1.84Z"/><path class="cls-14" d="M145.9,116.78l-.85-1.3,1,.53A3.47,3.47,0,0,0,145.9,116.78Z"/><path class="cls-2" d="M139.9,109.17c-.88.17-1.23-.22-1.14-1.08Z"/><path class="cls-14" d="M139.32,197.07c-4.44-2.18-7-7.26-12.4-8-.52-3.82-4.42-5.76-5.23-9.41s4.67-3,4.55-6.28l.15-.27.31,0c1.8,1,3.28.64,3.89-1.31.34-1.12.76-3-1.7-2.48l-.91-.29a6.52,6.52,0,0,0-1.29-4.93c1.08-.68,1.62-2.84,3.54-1.19,3,2.56,6.22,4.88,6,9.52-.1,2.5-.06,5.15,3.57,5.21.73,3.06-.71,6.22.37,9.26-.94,4.54,1.95,8.05,4.24,13.2Zm-5.26-13.41-.84-1.09c-.16.39-.5.81-.44,1.16s-.41,1.46.69,1.28C133.72,185,133.84,184.2,134.06,183.66Z"/><path class="cls-13" d="M139.84,177.68c-3.63-.06-3.67-2.71-3.57-5.21.18-4.64-3.06-7-6-9.52-1.92-1.65-2.46.51-3.53,1.2l-.67-.27c-.4-1.14-.49-2.5-2-2.78l-.54-3.74c5.61,2.37,9,.07,11.47-5,.52-1.09.78-3.47,3.17-3-.16,7.6-.14,15.18,1.76,22.61-1,.41-.91,1.22-.71,2A4,4,0,0,0,139.84,177.68Z"/><path class="cls-15" d="M145.05,119.12a5.82,5.82,0,0,0,.93-.26c3.39,1,2.64,3.81,2.88,6.34.4,4-3.76,2-4.87,4,0-.39,0-.78,0-1.17a1.8,1.8,0,0,0,2.23.33.87.87,0,0,0,.28-.77,1.93,1.93,0,0,0-2.58-.6l.09.05C143.87,124.31,145.61,121.87,145.05,119.12Z"/><path class="cls-16" d="M139.13,174c-.2-.83-.32-1.64.71-2,.7.22,1.73.39,1.29,1.34C140.92,173.72,139.82,173.76,139.13,174Z"/><path class="cls-13" d="M138.2,149.13a2.45,2.45,0,0,1,.71-3.07C139,147.16,139.4,148.33,138.2,149.13Z"/><path class="cls-7" d="M166.92,274h4Q168.95,278.09,166.92,274Z"/><path class="cls-13" d="M93.41,194.33A33.69,33.69,0,0,0,93,205l-.17,3c-1,1.13-.71,2.57-1,3.88-1-1.18-1.3-3.22-3.51-3-.71-2.87,1.24-5.69.16-8.57,3.07-3.24,3.17-7.14.25-8.88l-1.84-1.3c.42-1.19,2.4-1.34,2-3,1-1.2,3-2,1.81-4.17l1.5-17.91-.12-3.86c1.34-2.72-3.09-5.28-.23-8,1.72-1.81.59-4.17,1.21-6.2.73-2.4,1.41-4.84,4.06-5.92l1.1,1a14,14,0,0,0-1.36,10c-1.34,1.35-.75,3.08-.8,4.64-.08,2,.34,4.73,2.21,4.92s2.83-2.43,2.64-4.38c-.16-1.68,1.59-2.48,1.35-4a4.87,4.87,0,0,0,3.27-1l2.36,1c3,1.12,5,2.88,4,6.51-1.35.6-2-.44-2.82-1.16-.36-1.82-1.37-3.7-3.09-3.58a3,3,0,0,0-2.07,4l-.3,3.88c-2.33-1.71-2.21,1-3.18,1.76-.71,2.79-3.84,1.5-5.24,3.12-.38,1.14-.64,2.22,1.1,2.38-.31,1.78-.62,3.57-.94,5.35-2.61,2.86-.86,6-.6,9l-.9,4.34C93.71,190.68,93.56,192.5,93.41,194.33Zm3.72-28.47a1.19,1.19,0,0,0-.71-1.58,1.68,1.68,0,0,0-.7,1c0,.56.15,1.48.49,1.62C97,167.25,97,166.37,97.13,165.86Z"/><path class="cls-9" d="M84.5,139.06a2.87,2.87,0,0,1,2.36-2.18l2.26-.84c4.4,3.35,4.39,4-.11,6.75C87.4,143.77,87.4,143.77,84.5,139.06Z"/><path class="cls-9" d="M88.9,148c-1.23,2.88-3.61,2.69-5.62,1.51-1.81-1.07-1-2.81.23-4.15l.12,0,1.45-.12c0,.42,0,.85-.08,1.27l1,1.53,0,0c.36.82.71.45,1.07,0Z"/><path class="cls-9" d="M98.28,141.91l-1.1-1c-.47-.92-1.56-1.57-1.23-2.84,3.36-.58,4.26,2.55,6.19,4.12a2.66,2.66,0,0,1-.16.84l-2.07-.4Z"/><path class="cls-10" d="M88.9,148l-1.81,0H86l0,0-1-1.53c0-.42.06-.85.08-1.27C86.94,145.29,88.84,145.36,88.9,148Z"/><path class="cls-12" d="M83.63,145.29l-.12,0Q83.35,144.32,83.63,145.29Z"/><path class="cls-9" d="M81,141l1-1Z"/><path class="cls-9" d="M95,137l1,1A.9.9,0,0,1,95,137Z"/><path class="cls-13" d="M88.91,251.84c-2.12-4.77-.83-9.77-.83-14.65,0-3.05-1.19-3.73-3.78-3.37.24-1.25.48-2.5.73-3.75,1.21.11,2.65,2.27,3.34.79a7.84,7.84,0,0,0-.25-7.36c-2,1.54,2,5.82-2.92,5.32.73-5.3,1-10.69,2.63-15.85l3.93.18c.09,3.68-1.19,7.3-.52,11Z"/><path class="cls-15" d="M88.74,191.35c2.92,1.74,2.82,5.64-.25,8.88l-3.39-.35c.34-1.67.69-3.35,1-5,2.23-.13,2.54-1.79,2.79-3.5Z"/><path class="cls-15" d="M85.2,228.82c5,.5,1-3.78,2.92-5.32a7.84,7.84,0,0,1,.25,7.36c-.69,1.48-2.13-.68-3.34-.79C85.08,229.66,85.14,229.24,85.2,228.82Z"/><path class="cls-15" d="M91.76,213.15,87.83,213a6.59,6.59,0,0,1,.5-4.17c2.21-.2,2.49,1.84,3.51,3C91.81,212.26,91.79,212.7,91.76,213.15Z"/><path class="cls-9" d="M80.32,266.3c1.75,2.19-.29,2.21-1.53,2.68-4.64-.32-.24-2.71-.9-3.93l1.09-.16c0,.31,0,.63.06.94A.92.92,0,0,0,80.32,266.3Z"/><path class="cls-12" d="M79,264.89l-1.09.16c-.52-1.7.21-3.29.39-4.93a4.57,4.57,0,0,1,.65-.24l.91,1.07.54,1.41Z"/><path class="cls-12" d="M83,247.94c1.25,0,1.95-.83,2.66-2.76v12.67c-2.31-2.05-1.25-4.42-2.45-5.82-.2-.78-.19-1.69-1.18-2l-.21-1.69Z"/><path class="cls-15" d="M81.86,248.35l.21,1.69c-.11,1.22-.22,2.43-.34,3.65A1.49,1.49,0,0,0,81,254a5.56,5.56,0,0,0-.82-.09C80.56,252,80.7,250,81.86,248.35Z"/><path class="cls-12" d="M80.19,253.88A5.56,5.56,0,0,1,81,254l.09,2L80.4,258l-1.29,0Z"/><path class="cls-15" d="M79.11,258l1.29,0c-.19,1-.37,2-.56,3l-.91-1.07Z"/><path class="cls-13" d="M88.92,191.36c-.25,1.71-.56,3.37-2.79,3.5C87,193.65,86.84,191.61,88.92,191.36Z"/><path class="cls-12" d="M122,99.08c-.29,3.3-2.56,3-4.85,2.68C117.89,99.27,120,99.26,122,99.08Z"/><path class="cls-3" d="M118,141.86c-1.51.52-2.73,1.24-2.1,3.18-1.52,0-3-.13-2,2.29.7,1.67,0,2.75-1.93,2.77L110,150c0-1,.64-2.32-1.3-2,.39-.77-.22-.93-.72-1.15l-1.09-1c.61-1.49-3.46-1.84-.92-3.79,3.18.31,4.29-.91,3-4l2-1.12,2.1,1.21C113.61,140.74,116.68,140.12,118,141.86Z"/><path class="cls-13" d="M104.1,129a11.23,11.23,0,0,0,6-2.75c2-1.56,3.82-1.58,4,1.68a17.64,17.64,0,0,0-4.07,3.5c-1.12,1.33-2.35,3.71-4,3.12C103.86,133.82,103.79,131.23,104.1,129Z"/><path class="cls-10" d="M106,142c-2.54,1.95,1.53,2.3.92,3.79l.07.35c-.76.09-1.81-.59-2.06.8v0c-1.63.6-.66,1.13,0,1.67,1.1,1,2.24,1.82,3.85,1.44.23,1.12,1.21.9,2,1.08-.27,1.59-1.86,1.41-2.82,2.08l-2.35-1c-2.61-1.43-4.67-3-2.74-6.46.3-.56-.55-1.76-.87-2.66a2.66,2.66,0,0,0,.16-.84l1.53-.37L106,142Z"/><path class="cls-9" d="M113,138.12l-2.1-1.21,1.41-2.23,3.71.47c0,.31.06.62.1.93a5.23,5.23,0,0,1,0,1c0,.36-.07.72-.1,1.09l-1.08.11Z"/><path class="cls-10" d="M108.92,138c1.34,3.05.23,4.27-3,4h0l1.07-3.94Z"/><path class="cls-3" d="M112.9,134.05c.25-.88-.19-2.36,1-2.44s1.52,1.45,2.06,2.4Z"/><path class="cls-3" d="M107.05,138.06,106,142l-2.31-.19A5.34,5.34,0,0,1,107.05,138.06Z"/><path class="cls-3" d="M118.77,132.23c-.18,1.22.51,3-1.81,2.82a9.29,9.29,0,0,1-.35-.87A3.31,3.31,0,0,1,118.77,132.23Z"/><path class="cls-15" d="M116.61,134.18a9.29,9.29,0,0,0,.35.87L117,135l-1,.18-3.71-.47.6-.63,3.08,0A.94.94,0,0,0,116.61,134.18Z"/><path class="cls-10" d="M105.14,120.17c.94-.44,3.42.51,1.9-2.13q0-.41,0-.81c.09-1.84-1.33-1-2.13-1.17-.69-2.55,3.38-1.46,2.92-3.83l-.16-1.72c1.47-3.24,3.59.09,5.32-.52-.74,2.2-1.2,4.57-2.31,6.56S109.15,122.33,105.14,120.17Z"/><path class="cls-1" d="M124,105.05c-1.3,1.77-.06,4.39-2,6h0l-.9-1-.77-.11c-1-1-3.39-1.84-2.83-3,1.18-2.38,4-2.81,6.51-3.41C124,104.05,124,104.55,124,105.05Z"/><path class="cls-12" d="M119.43,124a36.47,36.47,0,0,0,1-5.7c0-1.39-.29-2.79,1.57-2.76s2.36,1.4,2,3.09c-1.17,1.88-2.34,3.75-3.5,5.63Z"/><path class="cls-12" d="M118.24,124.13l1.12-.19Z"/><path class="cls-2" d="M111,121.09l-.24.28-.17-.17.29-.24Z"/><path class="cls-2" d="M121.07,110.05l.9,1Z"/><path class="cls-10" d="M113,110c.2-.31.19-1,.86-.49Z"/><path class="cls-15" d="M124,105.05c0-.5,0-1,0-1.5a.39.39,0,0,1,0-.48c.56.83,1.17.21,1.77.08C126.44,105,125.39,105.2,124,105.05Z"/><path class="cls-10" d="M103.08,114.28l0-2.86c.65-.71,1.25-.1,1.87,0l-.06,1.29Z"/><path class="cls-9" d="M104.86,112.76l.06-1.29,1.09-.31c0,.32,0,.65,0,1Z"/><path class="cls-6" d="M106,112.13c0-.32,0-.65,0-1l1.62-.64c.06.57.12,1.14.17,1.71Z"/><path class="cls-3" d="M104,108.85l1.7.36a1.92,1.92,0,0,1-2,1.12C103.79,109.84,103.88,109.34,104,108.85Z"/><path class="cls-15" d="M106,112.13l1.8.1c.46,2.37-3.61,1.28-2.92,3.83a.31.31,0,0,0-.39.29,1.45,1.45,0,0,1-1.55-1.29.76.76,0,0,0,.14-.78l1.78-1.52Z"/><path class="cls-9" d="M104.49,116.35a.31.31,0,0,1,.39-.29c.8.22,2.22-.67,2.13,1.17Z"/><path class="cls-12" d="M91.76,213.15c0-.45,0-.89.08-1.33.28-1.31,0-2.75,1-3.88C94.37,209.32,94,211.88,96,213v0a1.81,1.81,0,0,0,1,1.93c0,2.71,0,5.42,0,8.12l-5.73,1.13C90.57,220.45,91.85,216.83,91.76,213.15Z"/><path class="cls-12" d="M108.07,193a2.06,2.06,0,0,0-.21.76c-1.67,1.82-.25,4.18-1.07,6.14-2.15-.12-1.82,2.79-3.68,3q0-3.44-.11-6.85c1.56-2.83-1.44-8.38,5-8.3l1.15,1.24c-.06,1-.12,2-.17,3Z"/><path class="cls-12" d="M108.56,217.92l.51,5-1,.1c-1.5-1.77-2.64-3.9-3.94-5.71-2.09-2.9,0-6.65,2.77-9.23a24.49,24.49,0,0,0,1.56,9.08A1.23,1.23,0,0,0,108.56,217.92Z"/><path class="cls-16" d="M93.41,194.33c.15-1.83.3-3.65.46-5.48l3.07.18c0,2,.91,3.13,3,2.94h0c-.45,1.6,1.52,3.64-.9,4.88a2.8,2.8,0,0,0-1.71-2.2c-.31-.33-.85-1-.88-1-.73.57-.24,1.07.15,1.56-.21,1.33.95,2.87-.64,4.06C93.87,198.29,94.28,196,93.41,194.33Z"/><path class="cls-3" d="M99.09,196.85c2.42-1.24.45-3.28.9-4.88,2.46.28,2.91,2.05,3,4.07q.06,3.42.11,6.85L101,204h0Z"/><path class="cls-10" d="M108.42,217.14a24.49,24.49,0,0,1-1.56-9.08c.06-1,.12-2.05.19-3.08,2.46,1.49,4.22,3.33,2.16,6.26C107.87,213.15,111.42,215.56,108.42,217.14Z"/><path class="cls-3" d="M101,204c-.14,1.4.23,2.91-1,4.69-1.31-2.42-2.76-4.26-2.65-6.88,2-.15,1.95,2.46,3.7,2.2Z"/><path class="cls-10" d="M106.79,199.86c.82-2-.6-4.32,1.07-6.14.84,2.84,2.78,5.78-.74,8.22Z"/><path class="cls-3" d="M96,213c-2-1.13-1.58-3.69-3.12-5.07.06-1,.11-2,.17-3C96.42,206.76,95.81,210,96,213Z"/><path class="cls-3" d="M97,214.91a1.81,1.81,0,0,1-1-1.93Z"/><path class="cls-12" d="M121.69,179.67c.81,3.66,4.71,5.6,5.23,9.42-.26,2,1.47,4.07-.48,5.89-.78-1.51-4.1,1-3.42-1.45,1.17-4.21-2.14-4.19-4.08-5.59.29-2.44-.54-4.17-3.06-4.84C119.13,184.18,119.81,180.91,121.69,179.67Z"/><path class="cls-3" d="M118.94,187.94c1.94,1.4,5.25,1.38,4.08,5.59-.68,2.45,2.64-.06,3.42,1.45,3.13,0,2.41,2.28,2.48,4.1l-1.48-.14c-5.83-1.36-8.71-5-8.46-11Z"/><path class="cls-3" d="M136.07,212c-.09,1-.18,1.93-.28,2.9-2.21.07-2.8-1.27-2.79-3.18,0-2.8-.06-5.6,0-8.4,0-1.26-.15-3,1.75-2.93,2.14.12,1.93,1.77,1.52,3.33a3.22,3.22,0,0,0,.67,3.23l0,.05C134,208.17,135.45,210.16,136.07,212Z"/><polygon class="cls-3" points="136.94 206.94 137.23 206.69 136.98 206.99 136.94 206.94"/><path class="cls-16" d="M115.88,183.1c2.52.67,3.35,2.4,3.06,4.84l0,0c-3.42,5.16-2,9.9,4.27,13.92l-2.37,1.1c-5.36-3-7.87-7.84-8.92-13.64,1.75-.59,4.73.35,4.05-3.26-8.41-5.16-9.07-6.29-7-10.83l.1-.19c1.4-.07,2.92.17,3.76-1.41a1,1,0,0,1-.23-.49c2.34.61,5.28,0,6.45,3.07,0,1,.43,2.27-1.12,2.68-.61-.71-1.27-1-2-.22-1.39,1.43-1.7,2.89-.11,4.4Z"/><path class="cls-12" d="M116,186c.68,3.61-2.3,2.67-4.05,3.26l-1.81-.41a2.19,2.19,0,0,0-2-2.1C110.65,185.24,113.42,186.53,116,186Z"/><path class="cls-6" d="M125.21,209.75q2.6,1.16.09,2.49Z"/><path class="cls-6" d="M124.83,216.49l-.06,1.61a2.44,2.44,0,0,1-1.84-2.1l.07-.07Z"/><path class="cls-16" d="M108.16,186.79a2.19,2.19,0,0,1,2,2.1l-1,.09c-.38-.41-.76-.83-1.15-1.24A6.15,6.15,0,0,1,108.16,186.79Z"/><polygon class="cls-10" points="110.51 203.79 110.62 204.1 110.32 204.05 110.51 203.79"/><path class="cls-6" d="M122.93,216l-.27-.21.34.14Z"/><path class="cls-10" d="M108.07,193l.88-1Z"/><path class="cls-15" d="M123.25,201.84c-6.23-4-7.69-8.76-4.27-13.92-.25,6,2.63,9.66,8.46,11C125.77,199.5,125.25,201.74,123.25,201.84Z"/><path class="cls-9" d="M75,295c.35-2.06.8-4,3.5-4.05C77.26,292.25,77.58,294.88,75,295Z"/><path class="cls-3" d="M75.64,286.41c0-.43,0-.86,0-1.28.7-1.83-.1-4,1.24-5.66,3,.3,3,2.08,1.93,4.21-.81,1.62-1.8,3.15-2.71,4.72Z"/><path class="cls-10" d="M79.84,261c.19-1,.37-2,.56-3,.23-.65.46-1.29.7-1.94l1.68,0c-.66,3,0,6.25-1.81,9-.2-.9-.4-1.8-.59-2.71Z"/><path class="cls-10" d="M81.73,253.69c.12-1.22.23-2.43.34-3.65,1,.3,1,1.21,1.18,2-.12.94-.24,1.89-.37,2.83Z"/><path class="cls-11" d="M80.38,262.36c.19.91.39,1.81.59,2.71l-.78,1.16-1.15-.4c0-.31,0-.63-.06-.94Z"/><path class="cls-6" d="M81.73,253.69l1.15,1.17-.1,1.19-1.68,0L81,254A1.49,1.49,0,0,1,81.73,253.69Z"/><path class="cls-3" d="M83.11,274.08l-.59,1.1c-.14-.25-.42-.52-.39-.75a5.38,5.38,0,0,1,.47-1.18Z"/><path class="cls-9" d="M75.64,286.41l.51,2a1.16,1.16,0,0,1-1,1.43C75,288.64,74.79,287.44,75.64,286.41Z"/><path class="cls-12" d="M79,265.83l1.15.4.13.08A.93.93,0,0,1,79,265.83Z"/><path class="cls-12" d="M123.44,157.36l.54,3.74.06-.1a1.74,1.74,0,0,0-.42.13,5.23,5.23,0,0,0,.15.66c-.43,1.52-1.63,1.32-2.78,1.25-.45-.78-.38-2-1.85-1.86-1.84.17-1.72,1.71-2.19,2.85l-2-1L113,162l-.12-1.39q1.13-2.24,2.23-4.48C118.29,153.7,120.64,157,123.44,157.36Z"/><path class="cls-3" d="M145.05,119.12c.56,2.75-1.18,5.19-1.06,7.89q-.47.09-.93.21l-2.16,0c-2.12-.29-4.26-.45-6.33-.93-1-.23-2.61.16-2.77-1.38s2-.63,2.4-1.8l1,.12c4.29,1.48,2.65-2.71,3.93-4.1l1.52,3.35c-.24,1-.37,2.21,1,2.37,2,.26,1-1.59,1.41-2.46l1.28-3.48A3.91,3.91,0,0,0,145.05,119.12Z"/><path class="cls-15" d="M115.08,156.1q-1.11,2.25-2.23,4.48l-.94-.89c1.07-3.63-.92-5.39-4-6.51,1-.67,2.54-.49,2.81-2.08l1.13-1c1.94,0,2.63-1.1,1.93-2.77-1-2.42.52-2.29,2-2.29C117,148.82,112.83,152.24,115.08,156.1Z"/><path class="cls-2" d="M116,138.14c0-.37.07-.73.1-1.09,2.12-.51,3.3.81,4.38,2.28a2.19,2.19,0,0,1,.12,2.72c-.82,1-1.74-.13-2.64-.19-1.28-1.74-4.35-1.12-5-3.74l1.93.13Z"/><path class="cls-13" d="M143,122.34c-.42.87.64,2.72-1.41,2.46-1.33-.16-1.2-1.35-1-2.37a.53.53,0,0,0,.54-.27,4.62,4.62,0,0,0,.65-.08Z"/><path class="cls-9" d="M135.2,123.18l-1-.12c.13-1-.53-2.64,1.18-2.37C136.16,120.82,135.56,122.33,135.2,123.18Z"/><path class="cls-12" d="M141.19,122.16a.53.53,0,0,1-.54.27l-1.52-3.35a1.64,1.64,0,0,1,2-1C141.14,119.47,141.17,120.82,141.19,122.16Z"/><path class="cls-15" d="M141.19,122.16c0-1.34-.05-2.69-.07-4,1,1.18.87,2.56.72,4A4.62,4.62,0,0,1,141.19,122.16Z"/><path class="cls-10" d="M143.9,127a1.93,1.93,0,0,1,2.58.6.87.87,0,0,1-.28.77A1.8,1.8,0,0,1,144,128C144,127.65,143.93,127.31,143.9,127Z"/><path class="cls-15" d="M140.9,127.17l2.16,0C142.32,128.17,141.57,129.26,140.9,127.17Z"/><path class="cls-3" d="M116,135.15l1-.18c.28.84-.34.95-.9,1.11C116.07,135.77,116,135.46,116,135.15Z"/><path class="cls-3" d="M129.31,106.14l-.47-.11.54.06Z"/><path class="cls-11" d="M119.09,176.19c-1.17-3.09-4.11-2.46-6.45-3.07l-.81-.84A9.73,9.73,0,0,1,117,169c1,.28,2.45-1.24,3,.8.84,3.12,2.6,3.47,5,1.65,1-.75,2-1.55,3-2.33l.91.29c.75,2.12-.87,2.87-2.19,3.79l-.31,0-.15.28C123.6,173.67,121.87,176.29,119.09,176.19Z"/><path class="cls-9" d="M128,169.07c-1,.78-2,1.58-3,2.33-2.45,1.82-4.21,1.47-5-1.65,2.12-1.87,5-2.93,6.1-5.87l.67.27A6.52,6.52,0,0,1,128,169.07Z"/><path class="cls-15" d="M119.09,176.19c2.78.1,4.51-2.52,7.15-2.78.12,3.27-5.22,2.6-4.55,6.27-1.88,1.23-2.56,4.5-5.81,3.42l-.06,0,1.19-1.86,1-2.32C119.52,178.46,119.06,177.22,119.09,176.19Z"/><path class="cls-15" d="M126.7,173.15c1.32-.92,2.94-1.67,2.19-3.79,2.46-.49,2,1.36,1.7,2.48C130,173.79,128.5,174.2,126.7,173.15Z"/><path class="cls-15" d="M134.06,183.66c-.22.54-.34,1.3-.59,1.35-1.1.18-.61-.81-.69-1.28s.28-.77.44-1.16Z"/><path class="cls-2" d="M126,163.88c-1.09,2.94-4,4-6.1,5.87-.52-2-2-.52-3-.8.25-2-1.21-3-2.27-4.31L115,163l2,1,0,0,.81.75L118,164h0a2.14,2.14,0,0,0,3-1l0,0c1.15.07,2.35.27,2.78-1.25.1-.26.18-.53.27-.79l-.06.1C125.54,161.38,125.63,162.74,126,163.88Z"/><path class="cls-2" d="M108.16,186.79a6.15,6.15,0,0,0-.19,1c-6.41-.08-3.41,5.47-5,8.3-.1-2-.55-3.79-3-4.07h0l-2.15-3.19c1.07-2.78,5.12-.54,6.33-4-3.39,1-6.36-.08-9.4-.26-.26-3-2-6.19.6-9L96,176l.09,5c.8,2.19,1.88,3.31,3.86,1l1.06-.09L102,181a10.2,10.2,0,0,0,2-5.72l5-.1c-2.07,4.54-1.41,5.67,7,10.83C113.42,186.53,110.65,185.24,108.16,186.79Z"/><path class="cls-8" d="M102.32,153.11c.24,1.54-1.51,2.34-1.35,4,.19,2-.63,4.58-2.64,4.38s-2.29-2.94-2.21-4.92c0-1.56-.54-3.29.81-4.64l1.94,1a1,1,0,0,0-.77,1.34c0,.12.21.21.32.31l.73-1.42c.76-.1,1.56-.13,1.93-1Z"/><path class="cls-15" d="M102.32,153.11l-1.24-1c-.36-3.18-4.45-5.89-1.17-9.52l2.07.4c.32.9,1.17,2.1.87,2.66-1.93,3.46.13,5,2.74,6.46A4.87,4.87,0,0,1,102.32,153.11Z"/><path class="cls-12" d="M99.91,142.62c-3.28,3.63.81,6.34,1.17,9.52-.37.86-1.17.89-1.93,1l-.28-.23-1.94-1a13.94,13.94,0,0,1,1.35-10Z"/><path class="cls-3" d="M95.21,167.73c1.4-1.62,4.53-.33,5.24-3.12.61.8,1.23,1.59,1.84,2.38q-.35,3.07-.67,6.15a6.08,6.08,0,0,1-3.74-2.36l-.95-.85,0,.11A2.52,2.52,0,0,0,95.21,167.73Z"/><path class="cls-12" d="M94.77,184.51c3,.18,6,1.31,9.4.26-1.21,3.47-5.26,1.23-6.33,4-.3.07-.6.15-.9.25l-3.07-.18Z"/><path class="cls-10" d="M111.91,159.69l.94.89L113,162c-2.33,1.15-5.31-3.06-7.3.89h-2l.3-3.88,5.16-.44C109.89,159.25,110.56,160.29,111.91,159.69Z"/><path class="cls-2" d="M97.88,170.78a6.08,6.08,0,0,0,3.74,2.36l1.13.85c.14.29.27.6.39.9L96,176l-.64-.54c.32-1.78.63-3.57.94-5.35l.35.17L97,170l0-.11Z"/><path class="cls-6" d="M103.63,162.85h2l1.33,1.26L104.84,167a2,2,0,0,0-2.55,0c-.61-.79-1.23-1.58-1.84-2.38C101.42,163.88,101.3,161.14,103.63,162.85Z"/><path class="cls-15" d="M109.09,158.53l-5.16.44a3,3,0,0,1,2.07-4C107.72,154.83,108.73,156.71,109.09,158.53Z"/><path class="cls-12" d="M97,170l-.3.24-.35-.17c-1.74-.16-1.48-1.24-1.1-2.38A2.52,2.52,0,0,1,97,170Z"/><path class="cls-10" d="M97.13,165.86c-.12.51-.09,1.39-.92,1-.34-.14-.5-1.06-.49-1.62a1.68,1.68,0,0,1,.7-1A1.19,1.19,0,0,1,97.13,165.86Z"/><path class="cls-12" d="M86,147.93h1.07C86.73,148.38,86.38,148.75,86,147.93Z"/><path class="cls-12" d="M85,146.44l1,1.53Z"/><path class="cls-12" d="M108.8,150c-1.61.38-2.75-.46-3.85-1.44,0-.56,0-1.11,0-1.67v0l2.06-.8-.07-.35,1.09,1,.72,1.15c1.94-.28,1.32,1.07,1.3,2Z"/><path class="cls-13" d="M108.8,150,110,150l1.89.13-1.13,1C110,150.92,109,151.14,108.8,150Z"/><path class="cls-15" d="M108.7,147.93l-.72-1.15C108.48,147,109.09,147.16,108.7,147.93Z"/><path class="cls-15" d="M107,146.13l-2.06.8C105.15,145.54,106.2,146.22,107,146.13Z"/><path class="cls-15" d="M104.91,146.91c0,.56,0,1.11,0,1.67C104.25,148,103.28,147.51,104.91,146.91Z"/><path class="cls-3" d="M116,138.14l-1.08.11Z"/><path class="cls-3" d="M96.94,189c.3-.1.6-.18.9-.25L100,192C97.85,192.16,97,191,96.94,189Z"/><path class="cls-9" d="M96.65,195.26c-.39-.49-.88-1-.15-1.56,0,0,.57.62.88,1Z"/><path class="cls-15" d="M103.14,174.89c-.12-.3-.25-.61-.39-.9l4.27-.18c1.89-1.36.6-3.34.94-5,.27-1.27-.09-2.81,2-2.69.84,2-1.66,5,1.9,6.16l.81.84a1,1,0,0,0,.23.49c-1.23.54-3.08-.6-3.76,1.41l-.1.19-5,.1A1,1,0,0,0,103.14,174.89Z"/><path class="cls-6" d="M118,178.87l-1,2.32c-1.17-.5-1-1.58-1.08-2.54C116.7,177.92,117.36,178.16,118,178.87Z"/><path class="cls-12" d="M115.93,178.65c.1,1-.09,2,1.08,2.54l-1.19,1.86C114.23,181.54,114.54,180.08,115.93,178.65Z"/><path class="cls-2" d="M109.11,175c.68-2,2.53-.87,3.76-1.41C112,175.19,110.51,175,109.11,175Z"/><path class="cls-9" d="M107,164.12l-1.33-1.26c2-4,5,.26,7.3-.89l2,1.07c-.1.53-.2,1.07-.31,1.6l-4.58.62Z"/><path class="cls-8" d="M117,164c.47-1.14.35-2.68,2.19-2.85,1.47-.14,1.4,1.08,1.85,1.86l0,0a2.32,2.32,0,0,0-3,1h0l-1.07,0Z"/><path class="cls-13" d="M124,161c-.09.26-.17.53-.27.79a5.23,5.23,0,0,1-.15-.66A1.74,1.74,0,0,1,124,161Z"/><path class="cls-16" d="M110.12,165.26l4.57-.62c1.06,1.28,2.52,2.34,2.27,4.31a9.73,9.73,0,0,0-5.13,3.33c-3.56-1.14-1.06-4.17-1.9-6.16C110,165.84,110.07,165.55,110.12,165.26Z"/><path class="cls-12" d="M118,164a2.32,2.32,0,0,1,3-1A2.14,2.14,0,0,1,118,164Z"/><path class="cls-12" d="M116.93,164l1.07,0-.26.73Z"/><path class="cls-16" d="M103.14,174.89a1,1,0,0,1,.85.42,10.2,10.2,0,0,1-2,5.72l-.93.88L100,182c-.33-.34-.67-.67-1-1l-.23-1.78L98,180l-1.85,1L96,176Z"/><path class="cls-11" d="M96.1,181,98,180c.33.34.67.67,1,1s.68.67,1,1C98,184.29,96.9,183.17,96.1,181Z"/><path class="cls-11" d="M101,181.91,102,181Z"/><path class="cls-12" d="M99.15,153.13l-.73,1.42c-.11-.1-.29-.19-.32-.31a1,1,0,0,1,.77-1.34Z"/><path class="cls-9" d="M107,173.81l-4.27.18-1.13-.85q.33-3.07.67-6.15a2,2,0,0,1,2.55,0A10.19,10.19,0,0,0,107,173.81Z"/><path class="cls-13" d="M97.88,170.78l-.95-.85Z"/><path class="cls-3" d="M107,173.81a10.19,10.19,0,0,1-2.18-6.78l2.16-2.91,3.11,1.14a8.2,8.2,0,0,1-.18.86c-2.06-.12-1.7,1.42-2,2.69C107.62,170.47,108.91,172.45,107,173.81Z"/><path class="cls-2" d="M99,181c-.33-.33-.67-.66-1-1l.77-.78Z"/></g></g></svg>