<svg xmlns="http://www.w3.org/2000/svg" viewBox="0 0 220 352"><defs><style>.cls-1{fill:#be9d7d;}.cls-2{fill:#c2a380;}.cls-3{fill:#c7a886;}.cls-4{fill:#c29e7a;}.cls-5{fill:#cdb08e;}.cls-6{fill:#caac89;}.cls-7{fill:#a27d65;}.cls-8{fill:#b18a6f;}.cls-9{fill:#060404;}.cls-10{fill:#5e4236;}.cls-11{fill:#896854;}.cls-12{fill:#725345;}.cls-13{fill:#20130f;}.cls-14{fill:#483026;}.cls-15{fill:#35201a;}.cls-16{fill:#d3c4ac;}</style></defs><g id="Layer_2" data-name="Layer 2"><g id="Layer_1-2" data-name="Layer 1"><path class="cls-1" d="M219.94,123.21v3c-3.59-1.24-6.19-1.5-5.22,3.84.36,2-.53,4.23-.93,6.35-.33,1.75-1.28,3.55-3.15,3.18-3.41-.69-5.61,1.54-8.29,2.64-1.21.49-2.86.79-2.81,2.39s1.9,2.13,3.1,2.9c1.67,1.07,3.1-.16,4.64-.72,4.58-1.64,8.15,0,8.27,4.64.15,5.71,1.24,11.53-.45,17.23-.44,1.47.05,3.69-2.81,1.52-1.8-1.36-3,1.32-4.37,2.31a1.58,1.58,0,0,0-.25,2.24c1.22,1.71,2.89,1.33,4.5.79a20.06,20.06,0,0,1,7.77-1.39v3c-5.85.26-10.08,5.38-7.59,9.65a15.24,15.24,0,0,1,2.19,10.76c-.3,1.85-.33,4.35,1.3,5.48s2.37-1.93,4.1-1.93V235c-6-.72-6.7-5.94-8.41-10.16-.89-2.2-2.21-6-4.05-4.19-2.67,2.67-6.41,6.31-4.5,11.21.84,2.18.27,2.18-1.67,2.69-5.28,1.4-9.61,5.92-8.92,9.22,1.63,7.84-1.68,14.36-5,21-1.46,2.93-2.43,6-.48,9.16a5.53,5.53,0,0,0-2.19,4A3.29,3.29,0,0,0,182,281c-4.4.19-6.15-2.07-6-6.3.09-3.25-.08-6.5-.13-9.76l.06-2.9c0-1,0-2.06,0-3.09a18.41,18.41,0,0,0,.78-3.88c-.23-13.94,3.79-26.71,10.5-38.77A4.74,4.74,0,0,0,189.7,213c.52-.85,1.05-1.7,1.58-2.55a5.6,5.6,0,0,0,3-3.14c1.62-.35,2.8-1.06,2.25-3-1.06-3.69-.22-7.45-.53-11.17l0-3c1-7,2.83-14,.4-21.05l-.69-4.1.1-2.78c1.46-2.67.19-5.57.68-8.32.14-1.24.27-2.47.4-3.71.24-.58.84-1.29.68-1.73-2.44-6.81-.82-13.5.43-20.21-.19-3.27.67-6.63-.88-9.78l-.12-1.18a3.61,3.61,0,0,0-3-2l-6-.85c-1.23-1.21-2.25-1-3.09.46l.09.33-2-.11c-.72-.72-1.37-.58-1.95.18l-3.92.51-2.15.18-2,0c-2-.71-3.89,0-5.78.58l-2.95-.64c-1.64-2.39-4.25-2-6.31-1.49-4,.92-7.7,2.52-11.73.07-1.11-.67-2.57.08-3.18,1.55l-3.23.85-1-.57c-.47-3.34.75-6.88-1.22-10,0-2.67-2-4.09-3.51-5.87-1.63-3.76.56-7.5,0-11.26,5.17-5,4.49-11.54,5-17.8,6.84-2.73,5.64,5.4,9.08,6.93,1.59-.37.43-5,3.38-2.14s4.83,1.82,6.72-1c.81-1.21,2.45-3.24,3.36-2,2.21,3.14,5.59,2.34,8.23,3.63,3.13,1.53,3.43.89,3.89-2.2s3.72-3.19,4.69-1c2.2,4.91,4.32,3.73,6.74.54,2.75,3.72,1.4,8.59,5.33,11.61,1.59,1.22-.07,3.24-2.38,3.57-1.9.27-4.45.06-4.37,2.93.09,3.1-1,2.83-3.27,1.89a8.08,8.08,0,0,0-4.4-.22c-1.66.31-2.38,2-.81,2.79,2.61,1.32,2.83,3.34,3,5.72,0,.71.77,1.37,1.18,2.06,3.68-3.15,5.12.65,7.36,2.25.47.34,1.61,0,2.31-.29,4.38-1.9,2.47-4.55.36-7,3.71-1.59,4.59,3.39,7.15,2.67,6-1.69,10.46,1.9,15.53,3.71,3.92,1.41,5,2.83,2.05,6.24-1.58,1.83,0,3.25,1.38,4,2.44,1.4,2.26-.81,2.47-2.18a2.85,2.85,0,0,1,2-2.61v9c-1.18.21-3.11-.45-3.12,1.37C216.82,123.2,218.67,123.07,219.94,123.21Z"/><path class="cls-2" d="M219.94,111.23a2.85,2.85,0,0,0-2,2.61c-.21,1.37,0,3.58-2.47,2.18-1.39-.8-3-2.22-1.38-4,3-3.41,1.87-4.83-2.05-6.24-5.07-1.81-9.51-5.4-15.53-3.71-2.56.72-3.44-4.26-7.15-2.67,2.11,2.49,4,5.14-.36,7-.7.31-1.84.63-2.31.29-2.24-1.6-3.68-5.4-7.36-2.25-.41-.69-1.13-1.35-1.18-2.06-.19-2.38-.41-4.4-3-5.72-1.57-.79-.85-2.48.81-2.79a8.08,8.08,0,0,1,4.4.22c2.25.94,3.36,1.21,3.27-1.89-.08-2.87,2.47-2.66,4.37-2.93,2.31-.33,4-2.35,2.38-3.57-3.93-3-2.58-7.89-5.33-11.61-2.42,3.19-4.54,4.37-6.74-.54-1-2.14-4.24-1.91-4.69,1s-.76,3.73-3.89,2.2c-2.64-1.29-6-.49-8.23-3.63-.91-1.28-2.55.75-3.36,2-1.89,2.85-3.68,3.95-6.72,1s-1.79,1.77-3.38,2.14c-3.44-1.53-2.24-9.66-9.08-6.93.34-4.51-.91-8.76-2-13,1.88-1.33,5.33.76,6.14-2,1.18-4,4.24-4.09,7.26-4.54,5.67-.85,6.68-3.11,3.69-8.44,6.15-.59,4-5.67,4.73-9.21,3.61,2.19,3.63,2.21,7.57-1.22.76-.66,1.46-1.56,2.53-1s.32,1.46,0,2.19c-.59,1.46,0,2.31,1.43,2.51s1.34-1.06,1.73-2c1.11-2.54-1.27-5.26-.37-7.14,1.57-3.27.13-4.95-2.17-5.91-2.45-1-3-4.77-5.48-4.46a81.64,81.64,0,0,0-16.64,3.63,14.39,14.39,0,0,1-5.55,1.12,41,41,0,0,0-13.53,1.65c-1.3.33-2.61,1.15-3.8.34-1.66-1.11-.62-2.8-.25-4.1,1.07-3.79.85-6.82-3.23-8.76-2.15-1-2.62-3.21-2.45-5.52,1.47-.77,3.77,2,4.5-1.13l6-2c5.58,6.71,15.09,7.14,17.54.59.51.53,1.16.92,1.34,1.46.86,2.62,2.89,3.67,5.2,4.87,3,1.56,4.54.39,6.23-1.84.76-1,1.82-.21,2.62.4,1.12.85,2.37,1.71,3.36.06s-.39-2.44-1.52-3.16C162.16,3.72,162,2.11,162,.4h7c.31,1.31.76,2.64,2.38,2.55S172.87,1.52,173,.4h11V1.9c0,3.22-.38,6.79,4.5,3,1.59-1.23,3.51-1.08,5.63-.29,4.94,1.85,9.88,4.3,15.27,4,2.25-.14,4.52-1.83,6.14.83a8.92,8.92,0,0,1,.65,8.11c-1.46,4-3.35,7.18-7.93,7.89a2.25,2.25,0,0,0-2.1,2.37c0,1.1.56,2.35,1.59,2.15,5.38-1,9.5-1,6.74,6.42,3.65,3.45,1.8,8.14,2.61,12.21.54,2.74-1,7.27-3,6.91-5-.9-4.37,3.37-5.52,5.17-1.71,2.69.82,5.7,1.95,8.35.83,1.93,2.55.15,3.89-.15,2.52-.55,2.37,1.1,2,2.68-.8,3.15.14,4.87,3.6,4.72ZM154.89,56.15c2.13,4.73,4,5.23,7.13,1.7a5.64,5.64,0,0,1,4.27-2.14c.79,0,1.13.56,1,1.37-.17,1-1.48,2.26.37,2.88,1.5.5,2.46-.55,3.34-1.62,1.09-1.33,3.84-2.59,3.87-1.17.13,8.68,3.18,3.88,5.93,1.61.4-.33,1.3,0,1.94-.12,3.35-.71,7.35-6.42,6.75-9.81-.46-2.57,1-3.42,3-3.35,1.63,0,3.23.74,4.86,1,1.09.16,2.37,2.2,3.29,0,.64-1.52-.09-2.93-1.46-3.88a4,4,0,0,0-3.76-.82c-4.27,1.74-6.92.88-7.49-4.12-.18-1.6-1.32-2.38-2.89-1.58-3.34,1.71-7.1,1.53-10.6,2.56-2.74.8-5.07,1.22-6.22,4.65-.59,1.76-2,5.43-5.73,4s-3.67.71-3.11,3.19C160.83,56.85,160.69,57.08,154.89,56.15ZM153.1,14.83c.05-1.49-1.15-1.38-2-1.6-1.11-.29-2.42-.64-2.76,1a1.9,1.9,0,0,0,1.62,2.54C151.37,16.88,152.32,15.9,153.1,14.83Zm57.45,20.49a2.56,2.56,0,0,0-2.27-2.22c-.85-.06-1.1.68-1.05,1.38a2.22,2.22,0,0,0,2.24,2.21C210.3,36.76,210.55,36.11,210.55,35.32Z"/><path class="cls-3" d="M.22,109.23v-3c5.05-.63,7.37-4.26,9.12-8.43.67-1.6,1.29-3.29,3.4-2.85,1.45.3,3.45,1.49,2.93,2.85a12.07,12.07,0,0,0-.29,8.53c.29.89-2.79,1.72-.83,3.06,1.58,1.08,2.5-1,3.74-1.66,1.7-.92,3-4.87,5.63-.6.87,1.4,2.33-.46,3.07-1.43,1-1.3.2-1.86-1.1-2.5-2.32-1.14-4.47-2.64-6.69-4,6.41.93,10.8-3.57,16.1-5.24-.56-1.18-.83-2.77-2.62-3-1-.15-3.22,1.74-2.71-.67.59-2.84-1.84-7.12.9-8.13,4.25-1.57,4.4-4.61,4.69-7.68.49-5.39,1.61-6.51,7.14-6,1.41.13,3.68,1.76,3.93-1.06.21-2.29-1.53-3-3.77-2.52-1.56.34-3.86.89-3.72-1.58.11-1.94,2.46-2,4.08-1.85A11.48,11.48,0,0,1,47,62.51c2.05.91,3.56.75,4.26-1.64.41-1.4,1.55-2,2.65-2.81,2.14-1.5,2.6-3.47,1.58-6-4.56,2.93-4.55,2.91-8.56.07a3.15,3.15,0,0,0-4.13.28c-1.52,1.29-2.89,2.75-4.34,4.11-1,.94-2.61,2.13-3.38.76-1.57-2.83-4.51-2.34-6.61-3.63-2.84-1.75-3.9-1.07-4.25,1.94-.15,1.27.15,2.91-1.63,3.2-1.54.25-2.35-1-3-2.16s-1.48-2.68-3-1.48a8.23,8.23,0,0,0-2.65,5.68c-.15,1.64,1.91,1.29,3.18,1.47,1.45.21,3.77-1.23,4.14.05.83,2.83,1.58,2.53,3.56,1.1s3,.64,3.67,2c1.21,2.35-.71,2.12-2.18,2.49s-2.62.84-4.23.11c-3.21-1.48-5.87.86-8.61,2-.78.32-.91,2.36-2.46,1.56-1.36-.7-1.39-2.12-1.15-3.52A21.66,21.66,0,0,0,8.45,55.22c-2,.12-2,3.44-4.28,2a2,2,0,0,1-.61-2.71c3.53-4.76-.44-10.28,1.65-15.15v-2c1.23-1.72,1.24-3.14-1-4,.14-1.39.42-2.78,2.2-2.72,2.15.08,3,1.63,3.74,3.43,3.21,7.64,5.17,8.89,11,7.27,4.59-.21,9.36,4,13.77-.58,1.77-1.82,3.26-4.49,6.46-2.17.17.12,1.06-.29,1.12-.55.87-4.5,3.92-1.9,6.23-2.09,3.47-.28,5.68,4.28,8.54,3,5-2.15,8.57-1.14,12.76,1.72,3,2,4.43,4.36,2.33,7A2.9,2.9,0,0,0,71.85,50c.22,3,1.08,5.47,4.29,6.62a2.78,2.78,0,0,1,1.74,3.68c-.92,2.43-2.18-.4-2.89-.07-2.92,1.34-5.64,3.26-9.11,1.91a16.33,16.33,0,0,0-1.28,3.71c-.35,3.41.92,6.48,2.54,9.42-2.31-.44-4,2.11-6.64,1C56.27,74.59,54.3,77,53,81c-1,3.15.76,6.33-.63,9.27-1,2.18-1,3.88,1.43,4.85,2,.77,3.7,1,4.93-1.5s3.18-3.21,6.14-1.83C68.66,93.51,72.7,94.35,77,93c1.84-.56,3.42-2.15,5.61-1.6,4.6,1.17,5.52-1.53,5.44-5.24,1.54-1.24,4,.84,5.24-1.46l2.36.92c.22.84.44,1.69.65,2.53-.06,2.23-1.84,1.92-3.23,2.17C86.34,93.05,82.75,99.41,77.63,104a7.75,7.75,0,0,0-2.74,4.47c-.9,7.78-4.75,13.91-10.72,18.82-1.12-1.93.46-2.81,1.34-4.21,3.43-5.5,8-10.66,6.56-18.48-2.9,3.15-5.44,1.28-8.33-.5a12.69,12.69,0,0,0,2.17-1.29,5.45,5.45,0,0,0,1.35-5.49c-.26-1.15-1.71-.71-2.61-.34-1.91.78-4.6,1.07-3.5,4.25.75,2.18-.5,2.74-2.16,2.9s-3.48.16-3.15-2.48c.19-1.54.29-3.4-2.09-2.77a3.1,3.1,0,0,0-2.24,3.9,2.71,2.71,0,0,0,.71,1.28c3.08,3.29-1.44,4.73-2.07,7.06-.35,1.27-1.73-1.54-2.75-2.37-1.39-1.13-2.87-1.81-4.56-.94s-1,2.58-.79,4c.42,2.78,1.08,5.5.27,8.37-.57,2-.06,5-3.15,4.63-2.6-.31-3.6-3-3.36-5.36.55-5.41-2.66-7.11-7-8.37-.7,4.85.59,7.76,4.51,10.92,4.43,3.58,4.95,11.44,12.57,12.17.43.05,1.21,1.5,1,2-1.2,3.61,1,6.74,1.24,10.12l-1.94.92-9.12,0-2,0q-2.41-3.66-5-.1a4,4,0,0,0-3,2h-5.1c0-1.63,0-3.26,0-4.89.1-4.48,2-9.22-1.94-13.09,0-2.14.29-4.27,3.22-3.63,2.6.57,3.79-.21,3.75-2.88s-1-5.68-4-5.1c-5.13,1-5-3.08-7.09-5.49-2.37-2.76-7.28,1.67-9.84-2.4C4.83,109.41,2.64,109.06.22,109.23Z"/><path class="cls-4" d="M79.12,351.86h-4c-1-3.37-6.54-3.41-6-8,2.07-.2,4.15-.34,6.21-.62,2.34-.32,4-1.37,3.56-4.1.8-1,1.87-1.92,2-3.37l2.94-3.14a4.37,4.37,0,0,1,3.21,1.27c2.34,2.42,4.7-.52,7,0,2.38,1.53,4.8-.18,7.26.09,6.25.69,11.16-2,14.73-7.12a7.94,7.94,0,0,1,.83-.13,2.46,2.46,0,0,0,2.23-1.6l1.78-.38c3.87-1.56,9.18-.93,10.22-6.76l2.06-1.4,1.84-.69c4.88,2.08,10,.3,15,1,.07,1.92.94,3,2.82,1.91,2.12-1.18,4.23-.09,6.3-.34,2.39-.3,2.37.7,2,2.56-.31,1.44-2.72,3-.59,4.3s4.54.45,6.67-.57c1.67-.8,1.84-2.13.12-2.87-3.32-1.43-2.88-4-2.47-6.67l3.14-.38c.13,1,.56,2.73,1.24,2.36,3-1.68,7,3.28,9.57-1.52.55-1,1.81-.11,2.43.7a36.82,36.82,0,0,1,2.52,3.68c.48.83.5,2.16,1.74,2.12S186.74,321,187,320c1-3.22,3.29-5.45,6.59-4.34a16.88,16.88,0,0,1,7.11,5.05c2.51,3,4,1.78,5-.68,1.15-2.67,2.71-3.73,5.84-3.18-.42,1-.63,1.6-.94,2.15-2.85,4.94-2.54,5.81,2.78,7.4,1.72.52,2.32,1.44,1.86,3.35-1.37,5.68-1.28,5.71,4.63,4.1v11c-2.39-.05-5.23-3.24-7,1l-4,1c-8.51-.73-13.53-1.87-16,5h-5c-.84-2.14,1.87-6.16-.88-6.29-3.6-.18-1.52,4-2.12,6.29h-3c-1.7-4-5.77-3.72-9-5s-6.68.08-10.29-1c-4.49-1.3-9.88,1.1-14.61-1.69-.37-.22-1.28.25-1.84.58-4.12,2.47-8.68,1.62-13,1.47-2.43-.09-4.67,0-6.7,1.13-3.36,1.88-5.26.62-6.65-2.5-.54-1.2-1.24-2.34-1.89-3.49-.56-1-1.44-1.51-2.46-.86s-.8,1.58-.07,2.5c3,3.78.37,4.48-2.74,4.79-5.07.5-10.19-.73-15.28,1-1.76.6-4.31,0-6.13-.9A9.11,9.11,0,0,0,79.12,351.86Zm92.57-23.35c.1-1-.07-1.65-.81-1.79a1.15,1.15,0,0,0-1.38,1c-.22.86,0,1.66,1,1.65C171,329.33,171.42,328.71,171.69,328.51Zm-87.88,8.55c.14.06.31.2.41.16s.14-.25.2-.39c-.14-.06-.3-.2-.41-.16S83.88,336.92,83.81,337.06Z"/><path class="cls-5" d="M5.21,37.35v2l-5,1V.4h80.9a21.77,21.77,0,0,0-1.45,12.08c.35,2.6-.66,5.36-2.62,5.67-1.46.22-3.48-2.41-5-4-.49-.51,1.35-2.61-1-2.26-1.76.27-1.39,1.93-1.15,3.27.33,1.79.42,3.64,2.61,4.39,1,.37,1,2.26.61,2-2.5-1.32-6.33.94-7.77-2.38-1.85-4.27-3.62-2.81-5.66-.41-.69.81-.78,2.32-2.57,1.93a5.63,5.63,0,0,1-.26-1.31c0-1.19,1.66-2.55,0-3.49-.66-.37-1.92.11-2.81.46-2.16.86-.89,2.21-.58,3.64.83,3.91.3,7.34-4.45,8.38-1.61.35-2.44,1.57-3.37,2.76-1.26,1.63-2.88,3.09-5,2.59-2.59-.59-4.91.5-7.37.59l-4,1c-1-.29-2.34-1.23-2.48.77-.1,1.48-.68,2.4-2,1.66-5.58-3-3.43,1.29-3.49,3.54-5.85,1.62-7.81.37-11-7.27-.75-1.8-1.59-3.35-3.74-3.43-1.78-.06-2.06,1.33-2.2,2.72S2.71,36.55,5.21,37.35Z"/><path class="cls-6" d="M21.18,41.33c.06-2.25-2.09-6.59,3.49-3.54,1.36.74,1.94-.18,2-1.66.14-2,1.47-1.06,2.48-.77,2.2,3.17,3.34,2.07,4-1,2.46-.09,4.78-1.18,7.37-.59,2.15.5,3.77-1,5-2.59.93-1.19,1.76-2.41,3.37-2.76,4.75-1,5.28-4.47,4.45-8.38-.31-1.43-1.58-2.78.58-3.64.89-.35,2.15-.83,2.81-.46,1.7.94.07,2.3,0,3.49a5.63,5.63,0,0,0,.26,1.31c1.79.39,1.88-1.12,2.57-1.93,2-2.4,3.81-3.86,5.66.41,1.44,3.32,5.27,1.06,7.77,2.38.43.22.44-1.67-.61-2-2.19-.75-2.28-2.6-2.61-4.39-.24-1.34-.61-3,1.15-3.27,2.36-.35.52,1.75,1,2.26,1.55,1.58,3.57,4.21,5,4,2-.31,3-3.07,2.62-5.67A21.77,21.77,0,0,1,81.12.4h30c.42,4.58-2,6.16-6,5.1-2-.52-2.36.16-3.26,1.65-2.69,4.42-1.94,9.43-2.17,14.06-.2,3.85,2.73,4.57,5.46,1.88.69-.69,1.25-1.1,2.06-.5,1.72,1.26,3.7,2.37,3.79,4.9,0,1-.42,2.63-1.24,2.34-3.88-1.34-8.6.55-11.81-2.78-1.44-1.49-2.4-2.67-4.48-1.28a1.59,1.59,0,0,1-2.26-.13c-.76-1.07.2-1.77.84-2.51s1.93-1.06.83-2.32c-6,2.54-11.27,9.56-10,13.59.32,1.05.78,2.24,2.27,2.19,1.42-1.12-1.33-2.41.08-3.43l9.13,2.37c0,.6-.09,1.19-.14,1.78a.92.92,0,0,0-.09.79c-5.26,1.43-6.66,5.8-7,10.28-.42,5.82.55,11.46,5.91,15.2.12.9.25,1.81.37,2.71-1.54,1.6-1.09,3.52-.89,5.4l-1.71,2.53-1.6.25c-.13-2.57-1.43-5.13.15-7.7a1.72,1.72,0,0,0-.47-2.59c-.91-.53-1.45.3-2.12.75a26.28,26.28,0,0,1-2.57,1.37c-.25-.4-.43-1-.77-1.15-.87-.25-1,.55-1.21,1.17,2.87,6.43-.54,10.24-8,9.07a18.43,18.43,0,0,0-2-.09c-.23-1.55,0-3.34-2-4.08-1.57,1.09-.78,2.7-1,4.06h-2c-1.62-2.94-2.89-6-2.54-9.42a16.33,16.33,0,0,1,1.28-3.71c3.47,1.35,6.19-.57,9.11-1.91.71-.33,2,2.5,2.89.07a2.78,2.78,0,0,0-1.74-3.68C72.93,55.48,72.07,53,71.85,50a2.9,2.9,0,0,1,.54-2.29c2.1-2.66.62-5-2.33-7-4.19-2.86-7.8-3.87-12.76-1.72-2.86,1.24-5.07-3.32-8.54-3-2.31.19-5.36-2.41-6.23,2.09-.06.26-1,.67-1.12.55-3.2-2.32-4.69.35-6.46,2.17C30.54,45.29,25.77,41.12,21.18,41.33ZM85,40.26c-2.42,2.3-5.46,3.54-3.76,7.3.61,1.36,2,1.92,2.38.27C84.23,45.59,85.81,43.45,85,40.26ZM79,68.71c-.11-.74-.35-1.91-1.33-1.36-1.37.75-3,1.71-3,3.58,0,1,1,1.23,1.89,1.08C78.37,71.71,79,70.45,79,68.71Zm5.51-13.23c-.32-1-.34-2.29-1.71-2.61a1,1,0,0,0-1.29,1.05,2.57,2.57,0,0,0,1.8,2.59C84.07,56.78,84.49,56.31,84.52,55.48ZM59.84,34.19l0,.39.59-.22c-.07-.1-.14-.27-.23-.29S60,34.14,59.84,34.19Z"/><path class="cls-3" d="M94.25,35.53l-9.13-2.37c-1.41,1,1.34,2.31-.08,3.43-1.49,0-2-1.14-2.27-2.19-1.23-4,4-11,10-13.59,1.1,1.26-.28,1.67-.83,2.32s-1.6,1.44-.84,2.51a1.59,1.59,0,0,0,2.26.13c2.08-1.39,3-.21,4.48,1.28,3.21,3.33,7.93,1.44,11.81,2.78.82.29,1.28-1.3,1.24-2.34-.09-2.53-2.07-3.64-3.79-4.9-.81-.6-1.37-.19-2.06.5-2.73,2.69-5.66,2-5.46-1.88.23-4.63-.52-9.64,2.17-14.06.9-1.49,1.24-2.17,3.26-1.65,4,1.06,6.45-.52,6-5.1h6c.15.87-.06,2.1,1.15,2.21,1.44.14,1.55-1.19,1.85-2.21h2c.34,1.33.67,2.67,1,4-.73,3.13-3,.36-4.5,1.13-.17,2.31.3,4.5,2.45,5.52,4.08,1.94,4.3,5,3.23,8.76-.37,1.3-1.41,3,.25,4.1,1.19.81,2.5,0,3.8-.34a41,41,0,0,1,13.53-1.65,14.39,14.39,0,0,0,5.55-1.12A81.64,81.64,0,0,1,164,17.17c2.51-.31,3,3.44,5.48,4.46,2.3,1,3.74,2.64,2.17,5.91-.9,1.88,1.48,4.6.37,7.14-.39.9-.35,2.15-1.73,2s-2-1-1.43-2.51c.3-.73,1-1.62,0-2.19s-1.77.31-2.53,1c-3.94,3.43-4,3.41-7.57,1.22-.73,3.54,1.42,8.62-4.73,9.21-4.65.76-8.93-1.57-13.56-1.62-2.54,0-4-2.17-2.36-5a2.29,2.29,0,0,0-.5-3.11,2.13,2.13,0,0,0-3.1-.07,4.93,4.93,0,0,1-4.05,1.33c-1.08-.12-2.34.87-1.5,1.72,3.35,3.38-1.52,3.25-1.93,5-2.67.9-4.14-3.9-7.11-1.48l-5.8-1.79-1-1.09-.21-1.45c-1.71-4-5.4-3.05-8.5-3.3s-6.28.37-8.74-2.36c-.61-.68-1.77-.87-2.79.46,1.71,1.22,2.5,2.87,1.27,4.91Zm68.19-6.64c2-.42,4.37-1.17,4.05-3.47-.45-3.22-2.44,0-3.71-.37a4,4,0,0,0-1,0c-1.11,0-3-1.26-2.92,1C159,27.62,160.57,28.69,162.44,28.89Z"/><path class="cls-3" d="M.22,344.87V304.93L4.56,306c1.91.46,4,1.44,5.46-.66,1.32-1.9,1.39-4.71.27-6.1-3.52-4.34,0-4.39,2.66-5.2a13.13,13.13,0,0,0,2.74-1,1.6,1.6,0,0,0,.66-2.16,1.24,1.24,0,0,0-1.75-.36c-2.11,1-4.7,2.63-6.38.54-2-2.46,1.43-4.29,2.11-6.52.38-1.26.52-2.59.9-3.84,1-3.1.18-4.69-3.89-3.46,2.52-3.94-.5-9.29,4.86-11.26,1.48.76,2.69,2.51,4.3-.35s4.11-1.13,4.15.91c.09,4.32,3.13,4.71,5.89,5.28,2.53.52,4.57.94,6,3.56s2.87,1.05,3.86-.84a1.9,1.9,0,0,1,2.89-.93A2.69,2.69,0,0,1,40.69,277c-.49,1.14-1.65,2-2.52,3-3.79-.09-5.55,1.11-5.43,5.53.18,6.13,2.42,12.25.42,18.42-2.24,0-3.5,1.37-4.21,3.3a1.26,1.26,0,0,0,.45,1.17c1.61.55,2.7-.5,3.78-1.47,1.85-.3,2.49-2.23,4-3,2.23,2.89,2.45,5.19-1.89,5.9-1.93.31-2.37,1.62-3.28,3.11-3.79,6.19-3.32,13.28-4.81,19.94-2.63,1.32-5.13,2.94-8.28,1-1.69-1-2.75.47-3.39,1.86a54.31,54.31,0,0,0-2.17,5.51c-.48,1.44-1,2.56-2.73,1.49-1.48-.9-2.27-1.88-.66-3.47a7.26,7.26,0,0,0,1.47-2.53c.39-1,1.8-2,.77-3.07s-2,.13-2.86.86c-1.06.94-1.73.61-2.14-.63,1.16-5.79,1.15-5.78,6.66-2.74.15.08.55-.26.81-.4.79-2.12-2.09-2.95-1.62-5.37,2.53.95,5.2-2.79,7.81.63.62.81,1.59.36,2-.45.74-1.3,1.53-2.76.62-4.21s-2.41-.9-3.41,0c-2.42,2.18-5.49.48-8.11,1.59-5.11,2.16-3.13-3.21-4.79-4.75-.73-.69-1.33-1.57-2.4-1.59-1.55,0-1.68,1.36-2.08,2.4-.84,2.23-.14,4.36.93,6.21a13.5,13.5,0,0,1,1.55,7.67c-5.18.92-1.86,4.46-1.67,6.57C3.81,342.46,4.19,344.78.22,344.87Zm17.41-73.26c.26-.16.62-.26.7-.47s-.22-.46-.35-.71l-1,.6Z"/><path class="cls-6" d="M.22,40.34l5-1C3.12,44.21,7.09,49.73,3.56,54.49a2,2,0,0,0,.61,2.71c2.27,1.46,2.31-1.86,4.28-2A21.66,21.66,0,0,1,9.82,68c-.24,1.4-.21,2.82,1.15,3.52,1.55.8,1.68-1.24,2.46-1.56,2.74-1.11,5.4-3.45,8.61-2,1.61.73,2.78.25,4.23-.11s3.39-.14,2.18-2.49c-.69-1.35-1.55-3.51-3.67-2s-2.73,1.73-3.56-1.1c-.37-1.28-2.69.16-4.14-.05-1.27-.18-3.33.17-3.18-1.47a8.23,8.23,0,0,1,2.65-5.68c1.5-1.2,2.29.3,3,1.48s1.5,2.41,3,2.16c1.78-.29,1.48-1.93,1.63-3.2.35-3,1.41-3.69,4.25-1.94,2.1,1.29,5,.8,6.61,3.63.77,1.37,2.38.18,3.38-.76,1.45-1.36,2.82-2.82,4.34-4.11a3.15,3.15,0,0,1,4.13-.28c4,2.84,4,2.86,8.56-.07,1,2.54.56,4.51-1.58,6-1.1.77-2.24,1.41-2.65,2.81-.7,2.39-2.21,2.55-4.26,1.64a11.48,11.48,0,0,0-3.76-1.08c-1.62-.11-4-.09-4.08,1.85-.14,2.47,2.16,1.92,3.72,1.58,2.24-.48,4,.23,3.77,2.52-.25,2.82-2.52,1.19-3.93,1.06-5.53-.49-6.65.63-7.14,6-.29,3.07-.44,6.11-4.69,7.68-2.74,1-.31,5.29-.9,8.13-.51,2.41,1.71.52,2.71.67,1.79.27,2.06,1.86,2.62,3-5.3,1.67-9.69,6.17-16.1,5.24,2.22,1.35,4.37,2.85,6.69,4,1.3.64,2.11,1.2,1.1,2.5-.74,1-2.2,2.83-3.07,1.43-2.61-4.27-3.93-.32-5.63.6-1.24.66-2.16,2.74-3.74,1.66-2-1.34,1.12-2.17.83-3.06a12.07,12.07,0,0,1,.29-8.53c.52-1.36-1.48-2.55-2.93-2.85-2.11-.44-2.73,1.25-3.4,2.85-1.75,4.17-4.07,7.8-9.12,8.43v-18c2.95,2.52,5.83,4.41,8.85,0,.88-1.3,2.44.94,3.12.32,1.51-2-1.22-3.09.23-4.75,3.87.84,6-1.48,7.77-4.52,1.31-.33,2.62-.72,2.55-2.42,0-.29-.71-.85-.94-.78-1.62.47-1.45,1.93-1.61,3.2-.72-.37-1.87-.57-2.09-1.13-2-5.14-3.86-2.79-5.79,0-.47.67-.87,1.41-1.4,2-.79.93-1.23,2.94-2.81,2.12s-.51-2.33.08-3.48C9,77.27,9,75.74,7.37,75c-2-.95-3,.67-3.83,2.13-1,1.79-.8,4.36-3.32,5.19Z"/><path class="cls-7" d="M184.74,277.92a5.53,5.53,0,0,1,2.19-4c2.73-3.56,6.42-6.73,6.49-11.59s3.64-8.53,3.88-13.25c0-.86,1-1.72,1.76-1.33,2.25,1.13,2.7-.77,3.86-1.81,1.39-1.23,2.78-2.87,5.24-2.4-1.16,4,.13,5.54,4.12,4.66a4.18,4.18,0,0,1,4.8,1.81c.5.79.19,1.5-.32,2.27-2.64,3.94-1.77,5.73,3.18,6.7V293A128.56,128.56,0,0,0,202,299a3.19,3.19,0,0,1,1.52-2.89c2.25-1.48,4.77-2.41,7.08-3.66,2.86-1.54,3.18-4.85,3.48-8.19.42-4.5-3.6-3.8-5.34-5.31.38-2.52,2.94-.55,3.49-2.21a1.59,1.59,0,0,0-1.23-1.43c-1.42-.54-3.79,1.33-4.27-1.07s2.17-1.92,3.5-2.65c2.9-1.6,3.2-4,1.95-6.77-.51-1.14-1.49-2-2.78-1.4s-.58,1.61-.2,2.51c.79,1.83.62,3.76-1.71,3.48-5.76-.7-7.9,6-13.2,6.06-.23,0-.55.75-.67,1.19-1.7,5.87-1.69,5.88-6.7,3.26Z"/><path class="cls-2" d="M202,299A128.56,128.56,0,0,1,219.94,293V327.9q-3.37,1.49,0,3v3c-5.91,1.61-6,1.58-4.63-4.1.46-1.91-.14-2.83-1.86-3.35-5.32-1.59-5.63-2.46-2.78-7.4.31-.55.52-1.17.94-2.15-3.13-.55-4.69.51-5.84,3.18-1.06,2.46-2.52,3.72-5,.68a16.88,16.88,0,0,0-7.11-5.05c-3.3-1.11-5.56,1.12-6.59,4.34-.3.93-.3,2.19-1.53,2.24s-1.26-1.29-1.74-2.12a36.82,36.82,0,0,0-2.52-3.68c-.62-.81-1.88-1.75-2.43-.7-2.56,4.8-6.53-.16-9.57,1.52-.68.37-1.11-1.37-1.24-2.36.82-.9,1.94-.87,3-.95,1.89,1,3.67,1.44,5-.84l1.11-.92c4.43.63,7.69-1.46,10.51-4.55,2.35-.38,5.22.58,6.53-2.51l2.25-3a5,5,0,0,0,2.53-2.29Z"/><path class="cls-6" d="M.22,109.23c2.42-.17,4.61.18,6.05,2.46,2.56,4.07,7.47-.36,9.84,2.4,2.06,2.41,2,6.49,7.09,5.49,3-.58,3.91,2.36,4,5.1s-1.15,3.45-3.75,2.88c-2.93-.64-3.18,1.49-3.22,3.63-1.56.75-2.61,1.59-2.35,3.71.36,3.06.25,6.17.34,9.25v0c-3,1-2.87,3.56-3,6-1.83.44-4.73-3.08-4.78-.78-.09,4.17-3.56,3.42-5.16,4.92-4.11,3.82-2.09-3.92-5-3.14Zm18,16.34c-1.29-2.15-2.1-3.72-3.12-5.13-.72-1-1.9-1.47-2.93-.48s-.37,2.2.62,2.82C14.19,123.7,15.19,125.41,18.17,125.57Z"/><path class="cls-5" d="M.22,344.87c4-.09,3.59-2.41,3.32-5.41-.19-2.11-3.51-5.65,1.67-6.57l2,1c.41,1.24,1.08,1.57,2.14.63.83-.73,1.74-2,2.86-.86s-.38,2.07-.77,3.07A7.26,7.26,0,0,1,10,339.27c-1.61,1.59-.82,2.57.66,3.47,1.76,1.07,2.25-.05,2.73-1.49a54.31,54.31,0,0,1,2.17-5.51c.64-1.39,1.7-2.9,3.39-1.86,3.15,1.94,5.65.32,8.28-1h1a74.36,74.36,0,0,0-.92,8.37c0,4.47,2.77,5.89,7.45,3.75A7.71,7.71,0,0,0,33,344c-1.31-.38-2.87-.67-2.41-2.46s2.07-1.33,3.23-.73c2,1,3.31.16,5-.79,3.52-2,7.28,0,7.13,3.47-.08,1.85-2,4.35.26,5.38s2.27-2.79,4.14-3.42c.24-.07.58.17,1,.32,0,2.11-1.69,3.93-1.22,6.13-15,0-30-.22-45,.13-4.37.11-5.66-1.11-4.91-5.14A10.9,10.9,0,0,0,.22,344.87Z"/><path class="cls-8" d="M219.94,259c-4.95-1-5.82-2.76-3.18-6.7.51-.77.82-1.48.32-2.27a4.18,4.18,0,0,0-4.8-1.81c-4,.88-5.28-.65-4.12-4.66-2.46-.47-3.85,1.17-5.24,2.4-1.16,1-1.61,2.94-3.86,1.81-.76-.39-1.71.47-1.76,1.33-.24,4.72-3.8,8.4-3.88,13.25s-3.76,8-6.49,11.59c-2-3.16-1-6.23.48-9.16,3.3-6.61,6.61-13.13,5-21-.69-3.3,3.64-7.82,8.92-9.22,1.94-.51,2.51-.51,1.67-2.69-1.91-4.9,1.83-8.54,4.5-11.21,1.84-1.84,3.16,2,4.05,4.19,1.71,4.22,2.4,9.44,8.41,10.16Z"/><path class="cls-3" d="M219.94,76.29c-3.46.15-4.4-1.57-3.6-4.72.4-1.58.55-3.23-2-2.68-1.34.3-3.06,2.08-3.89.15-1.13-2.65-3.66-5.66-1.95-8.35,1.15-1.8.5-6.07,5.52-5.17,2,.36,3.58-4.17,3-6.91-.81-4.07,1-8.76-2.61-12.21C217.24,29,213.12,29,207.74,30c-1,.2-1.6-1.05-1.59-2.15a2.25,2.25,0,0,1,2.1-2.37c4.58-.71,6.47-3.93,7.93-7.89a8.92,8.92,0,0,0-.65-8.11c-1.62-2.66-3.89-1-6.14-.83-5.39.31-10.33-2.14-15.27-4-2.12-.79-4-.94-5.63.29-4.88,3.76-4.51.19-4.5-3V.4h3c.25.4.43,1,.77,1.15.87.26,1-.54,1.23-1.15h5a1.94,1.94,0,0,0,3,0h2c1.66,2.7,3.33,2.69,5,0h2c.21,1.2-.45,3.11,1.4,3.17S209.61,1.91,210,.4h5c.94,2.6,1.89,5.19,5,6Z"/><path class="cls-6" d="M12.2,266c-5.36,2-2.34,7.32-4.86,11.26,4.07-1.23,4.85.36,3.89,3.46-.38,1.25-.52,2.58-.9,3.84-.68,2.23-4.09,4.06-2.11,6.52,1.68,2.09,4.27.46,6.38-.54a1.24,1.24,0,0,1,1.75.36,1.6,1.6,0,0,1-.66,2.16A13.13,13.13,0,0,1,13,294c-2.66.81-6.18.86-2.66,5.2,1.12,1.39,1.05,4.2-.27,6.1-1.46,2.1-3.55,1.12-5.46.66L.22,304.93V247h5l2,1h0c-.71,3.39,3.75,1.6,4,4,0,.33,0,.66,0,1-5.1.84-7.27,3.52-4.85,6.26,1.77,2,3.09,4.65,5.84,5.72Z"/><path class="cls-3" d="M79.12,351.86a9.11,9.11,0,0,1,12.17-3.94c1.82.86,4.37,1.5,6.13.9,5.09-1.72,10.21-.49,15.28-1,3.11-.31,5.71-1,2.74-4.79-.73-.92-1-1.81.07-2.5s1.9-.14,2.46.86c.65,1.15,1.35,2.29,1.89,3.49,1.39,3.12,3.29,4.38,6.65,2.5,2-1.14,4.27-1.22,6.7-1.13,4.36.15,8.92,1,13-1.47.56-.33,1.47-.8,1.84-.58,4.73,2.79,10.12.39,14.61,1.69,3.61,1.05,7-.34,10.29,1s7.3,1,9,5Z"/><path class="cls-3" d="M50.16,351.86c-.47-2.2,1.21-4,1.22-6.13-.43-.15-.77-.39-1-.32-1.87.63-1.75,4.49-4.14,3.42s-.34-3.53-.26-5.38c.15-3.46-3.61-5.45-7.13-3.47-1.7.95-3.06,1.78-5,.79-1.16-.6-2.74-1.19-3.23.73S31.7,343.58,33,344a7.71,7.71,0,0,1,1.7,1.05c-4.68,2.14-7.47.72-7.45-3.75a74.36,74.36,0,0,1,.92-8.37c.92-1.56,2.25-2,3.78-1.06,3.38,2,6.51,1.75,9.65-.59,1-.74,2.35-1.38,3.4.31,3,4.79,6.92,4.27,10.93,1.64,1.78-1.17,2.55-.79,3.48.84a20,20,0,0,0,2.65,3.57c2.05,2.23,1.6,3.7-1.12,4.81-1,.4-2.41.12-3.08,2.18,3.93,1.53,7.6-.13,11.28-.72-.57,4.58,4.93,4.62,6,8h-16c-.29-1.28-.74-2.5-2.26-2.63-1.81-.15-2.39,1.16-2.73,2.63Z"/><path class="cls-2" d="M219.94,174.13a20.06,20.06,0,0,0-7.77,1.39c-1.61.54-3.28.92-4.5-.79a1.58,1.58,0,0,1,.25-2.24c1.37-1,2.57-3.67,4.37-2.31,2.86,2.17,2.37-.05,2.81-1.52,1.69-5.7.6-11.52.45-17.23-.12-4.65-3.69-6.28-8.27-4.64-1.54.56-3,1.79-4.64.72-1.2-.77-3-1.16-3.1-2.9s1.6-1.9,2.81-2.39c2.68-1.1,4.88-3.33,8.29-2.64,1.87.37,2.82-1.43,3.15-3.18.4-2.12,1.29-4.35.93-6.35-1-5.34,1.63-5.08,5.22-3.84Z"/><path class="cls-6" d="M.22,180.12v-18c4.2-2,7.14-7.23,13-5-.31,1.7-1,3.41.15,5.07l-.07,1.91c-1.6,2.43.45,5.8-2.06,8-1.29.06-3.26-1.5-3.63.82s1.85,2.71,3.6,3.18l0,5c-1.59-.42-2.8,1.67-4.43.83-.63-1.67,1.07-3.31-.46-5C4.24,177.82,3,180.57.22,180.12Z"/><path class="cls-3" d="M162,.4c0,1.71.15,3.32,1.81,4.37,1.13.72,2.46,1.59,1.52,3.16s-2.24.79-3.36-.06c-.8-.61-1.86-1.4-2.62-.4-1.69,2.23-3.21,3.4-6.23,1.84-2.31-1.2-4.34-2.25-5.2-4.87-.18-.54-.83-.93-1.34-1.46-2.45,6.55-12,6.12-17.54-.59.34-.66.67-1.32,1-2Z"/><path class="cls-6" d="M.22,207.08v-13c3.66,2.77,7.33.35,11,0,0,1,0,2,0,3-3,1.49-1.76,5.79-4.86,7.33l4.84-.34,1,2-.07,3c-1.53.42-1.91,1.59-1.93,3,1.59,8.73,1.47,8.94-4.19,7A28.26,28.26,0,0,0,6,213.7C5.31,210.51,4.57,207.16.22,207.08Z"/><path class="cls-3" d="M.22,82.28c2.52-.83,2.3-3.4,3.32-5.19C4.38,75.63,5.39,74,7.37,75c1.6.78,1.61,2.31.81,3.85C7.59,80,6.61,81.52,8.1,82.29s2-1.19,2.81-2.12c.53-.63.93-1.37,1.4-2,1.93-2.77,3.81-5.12,5.79,0,.22.56,1.37.76,2.09,1.13h0c-1.74,3-3.9,5.36-7.77,4.52-1.45,1.66,1.28,2.79-.23,4.75-.68.62-2.24-1.62-3.12-.32-3,4.45-5.9,2.56-8.85,0Z"/><path class="cls-3" d="M11.22,194.1c-3.67.35-7.34,2.77-11,0v-14c2.77.45,4-2.3,6.08-3.2,1.53,1.72-.17,3.36.46,5,1.63.84,2.84-1.25,4.43-.83C10.29,185.45,12.54,189.77,11.22,194.1Z"/><path class="cls-2" d="M219.94,201.09c-1.73,0-2.49,3-4.1,1.93s-1.6-3.63-1.3-5.48a15.24,15.24,0,0,0-2.19-10.76c-2.49-4.27,1.74-9.39,7.59-9.65Z"/><path class="cls-6" d="M.22,242v-6c2.2.05,4.23-.53,3.89-3.15-.83-6.34,3.91-7.82,8.12-9.85-.34,3.92-.63,7.85-1,11.77-.32,3.22.94,4.28,4,3.14l-1,3c-2.17,1.22-4.57,1.08-6.94,1.15C4.92,240.05,2.55,242.23.22,242Z"/><path class="cls-2" d="M12.23,223c-4.21,2-9,3.51-8.12,9.85.34,2.62-1.69,3.2-3.89,3.15v-17a5.53,5.53,0,0,0,.71,0c1.72,3.82,3.42,3.2,5.09,0,5.66,1.94,5.78,1.73,4.19-7l3.91-1c.53,3.57-.47,6.83-1.95,10Z"/><path class="cls-3" d="M13.18,157.16c-5.82-2.24-8.76,3-13,5v-11c2.92-.78.9,7,5,3.14,1.6-1.5,5.07-.75,5.16-4.92,0-2.3,2.95,1.22,4.78.78l.94,0c0,.31,0,.63,0,1-4,.53-2.58,3.7-2.9,6Z"/><path class="cls-3" d="M193,351.86c2.46-6.86,7.48-5.72,16-5,0,1.66,0,3.33,0,5Z"/><path class="cls-3" d="M212.93,345.88c1.78-4.25,4.62-1.06,7-1,0,7,0,7-8,7Q212.45,348.86,212.93,345.88Z"/><path class="cls-7" d="M6,219.07c-1.67,3.23-3.37,3.85-5.09,0,2.4-3.53,3.89-7-.71-10v-2c4.35.08,5.09,3.43,5.73,6.62A28.26,28.26,0,0,1,6,219.07Z"/><path class="cls-2" d="M.22,242c2.33.2,4.7-2,7,.09,0,1,0,1.93,0,2.89l0,.06a2.39,2.39,0,0,0-2,2h-5Z"/><path class="cls-1" d="M.22,209.08c4.6,3,3.11,6.49.71,10a5.53,5.53,0,0,1-.71,0Z"/><path class="cls-3" d="M185,351.86c.6-2.25-1.48-6.47,2.12-6.29,2.75.13,0,4.15.88,6.29Z"/><path class="cls-5" d="M219.94,6.39c-3.1-.8-4.05-3.39-5-6C221.14-1.37,219.86,3.07,219.94,6.39Z"/><path class="cls-6" d="M130.05.4c-.33.67-.66,1.33-1,2l-6,2c-.33-1.33-.66-2.67-1-4Z"/><path class="cls-2" d="M212.93,345.88q-.48,3-1,6h-3c0-1.66,0-3.33,0-5Z"/><path class="cls-5" d="M54.15,351.86c.34-1.47.92-2.78,2.73-2.63,1.52.13,2,1.35,2.26,2.63Z"/><path class="cls-5" d="M210,.4c-.34,1.51-.88,3.23-2.59,3.17s-1.19-2-1.4-3.17Z"/><path class="cls-5" d="M173,.4c-.13,1.12-.13,2.47-1.62,2.55S169.31,1.71,169,.4Z"/><path class="cls-2" d="M219.94,123.21c-1.27-.14-3.12,0-3.12-1.62,0-1.82,1.94-1.16,3.12-1.37Z"/><path class="cls-5" d="M204,.4c-1.66,2.69-3.33,2.7-5,0Z"/><path class="cls-6" d="M120.07.4c-.3,1-.41,2.35-1.85,2.21-1.21-.11-1-1.34-1.15-2.21Z"/><path class="cls-4" d="M219.94,330.89q-3.37-1.5,0-3Z"/><path class="cls-5" d="M189,.4c-.21.61-.36,1.41-1.23,1.15-.34-.1-.52-.75-.77-1.15Z"/><path class="cls-5" d="M197,.4a1.94,1.94,0,0,1-3,0Z"/><path class="cls-9" d="M93,63.58c-5.36-3.74-6.33-9.38-5.91-15.2.32-4.48,1.72-8.85,7-10.28,0,2.33,0,4.67,1.74,6.57,1.27,1.42,2.42,1.89,3.21-.4.4-1.16-.15-3.27,1.61-3.14,2,.14,1.32,2.29,1.47,3.66.19,1.66.09,3.47,2.09,4.1s3-.83,3.75-2.39c1.28-2.65,3.26-2.47,5.39-1.25,4.12,2.37,8.58,2.23,13.09,1.91l1.5.63,0,0c3.55,6.49,8,12.63,8.22,20.46a2.83,2.83,0,0,0,0,4c.18,2.79-1.16,5.12-2.31,7.51-2.76,1.91-.07,5.15-1.85,7.46-1.39-.27-.76-2.66-2.55-2.49-2,2.19.46,5.55-2.46,8.31.57-6.22-2-8.7-7.81-7.46.46,5.23,5.21,7.38,7.86,11a2.33,2.33,0,0,0,1.83,1.71l4.15,2.34a15.26,15.26,0,0,0,4.49,5.62c2,3.16.75,6.7,1.22,10-2.75,2.39-1.62,5.89-2.34,8.82A174.44,174.44,0,0,1,126,154.22c-1.63,0-3.47-.4-3.86,2-.66,1-1.43,1.9-1.31,3.19-2.94.34-3.15,2-2.16,4.32-1.14,1.16-3.06,1.42-3.71,3.16l-4.81-.06c-.87-1.69-1.91-1.76-3.12-.35-5.37-1-10.65.61-16,.52l-2-1.84c-.53-1.66-1.61-1.57-2.88-.92l-2.07.07c-4.59-.83-9.15-2.12-13.86-.78-3.64.67-3.91-1.92-4.29-4.41a1.82,1.82,0,0,0,.46-2.07,3.26,3.26,0,0,0,.47-2.82c-1.43-2.38-3.84-1.16-5.81-1.57l-1.91-.45c-3-1.34-4.34-3.57-3.93-6.88.26-2.07.31-4.16.46-6.23l.7-1.55A2.87,2.87,0,0,0,58,135.15l2.15-2a.93.93,0,0,0,1-.91c.61-1.88,2.78-2.83,3-5,6-4.91,9.82-11,10.72-18.82A7.75,7.75,0,0,1,77.63,104c5.12-4.58,8.71-10.94,15.45-13.66l1,.9c-.35,1-.71,1.93-1.06,2.9C92,95.79,89.82,97,90.73,99.49c-4,4.46-3.49,10.52-5.45,15.7-2.6,4.75-.09,9.91-1.34,15,5.76-3.77,12-6.8,14.13-13.92l0,0a2.14,2.14,0,0,0,1.93-2.06c.84-3.7,4.17-6,5.35-9.54,1.57-1.73,3.06-3.51,2.22-6.12a6.54,6.54,0,0,0,1.81-6.8l.12-.06a1.32,1.32,0,0,0,1.6-1l3-3.31c2.37-.93,3.43-2.74,2.62-5.08-.9-2.57-3-1.07-4.68-.92.12-1.59-.32-3.23,2.31-3.53,4.3-.49,6.08-3.1,4.54-7.33A11.25,11.25,0,0,1,118.6,65c.56-4.8-1.48-7.11-6.37-6.74-2.12-.44-2.18-2.61-3.28-3.9,2.85-1,4.91,2.1,8,1.78-.73-3.23-3-4.21-5.41-4.6-2-.32-2.35,1.32-2.52,2.88-3-3.26-6.65-2.92-10.28-1.76-3.36,1.07-4,4-4.15,7.16L94,63.11ZM67,130.15a2.32,2.32,0,0,0-1.89,2l-.37,1c-.84.32-1.29,1-.84,1.77.58,1.06,1.43.94,2.24.17h2c3.55,1.83,4.37-.4,4.79-3.22.17-1.47,2.23-3.13.49-4.29a3.81,3.81,0,0,0-5.18,1.09C67.82,129.15,67.41,129.65,67,130.15Zm54.83-3.26c0,3.3-1.56,5.87-3.81,8.12a3.38,3.38,0,0,0-.19,4.9c1.23,1.56,3,1.22,4.54.51,1.32-.6,2.89-1.12,2.39-3.15-1-3.94-1.15-7.61,2.2-10.79a3.1,3.1,0,0,0,.21-4.13,2.17,2.17,0,0,0-2.69-.64,4.29,4.29,0,0,0-2.78,3.23A7.2,7.2,0,0,0,121.84,126.89Zm-13.51,10.33a8.52,8.52,0,0,0-4.93-2.49,1.12,1.12,0,0,0-1.12,1.68c.87,1.85,2.66,2.35,4.51,2.54C107.68,139,108.41,138.69,108.33,137.22Zm-11-88.88c-.23.18-.58.33-.64.55s.23.48.36.72c.23-.18.59-.32.65-.54S97.49,48.6,97.35,48.34Z"/><path class="cls-10" d="M196.83,150.16l-.39,3.71c-1.25,1.25-3.84-2.4-4.26.94-.37,3-.81,6.48,3.57,7.38,0,.93-.07,1.86-.1,2.79-3.5.62-1.72,5.15-4.62,6.22-3.85.87-4.14,2.53-1.1,4.94v2c-.93.16-2.6.25-2.17,1.33,1.31,3.28-.31,6.51.29,9.72l-.07,1.94c-2.76.75-3.73,2.23-1.59,4.58,1.55,1.7,1,2.82-.5,4.13-5.15,4.6-5.11,4.62-8.5-1.77a8,8,0,0,0-2.1-2.7c-2.71-2-2.62-4.32-1.16-7,1-1.73,1.84-3.5,2.77-5.25,1.12-2.11.59-3.48-1.77-4.06,0-.64,0-1.28-.07-1.93,4.4-3,1.41-6,.07-9.07l0-1.86c4.12-1.37,3.86-5.42,4.72-8.48.67-2.37-1.38-4-3.92-4.48l.09-7.09,0,0c-3-1.35-.84-4.17-1.75-6.11,3.46.66,1.72-4.67,5-4.28,2.8.33,2.68-1.72,2.85-3.52l1.86,0c.23,1.08.13,2.54,1.78,2.38,1.23-.11,1.2-1.36,1.42-2.29l5.94-.06a2.83,2.83,0,0,1,.14.91l-1.08,2.1c-3.3,3.16-4,9.35-1.21,9.37C195.17,144.69,195.53,147.65,196.83,150.16Zm-3.29-.79c-2.43-1.11-5.14-.92-7-2.84-.61-.64-1-2.16-2.19-1.2a6,6,0,0,0-1.23,2.59c-1.95,5.49,1.83,11,0,16.55a1.74,1.74,0,0,0,1.93,2.27c1.22-.09,2.28-.69,2.31-2.12,0-1-.27-2-.27-3,0-3.14-.43-6.41.31-9.38.7-2.79,4.44.21,6-2A3.82,3.82,0,0,0,193.54,149.37Z"/><path class="cls-11" d="M202,299l-3,.91-2-1.81c.43-1.44,2.49-2.47,1.21-4.33a1.11,1.11,0,0,0-1.73,0c-2.28,2.5-5.91,1.26-8.41,3.11-.21-1,.41-2.35-1.43-3.09-1.81,3.9,1.17,8.89-3,13.11-1.59-6.05,0-11.21.4-16.37,0-1.87,2.06-5.65-2.86-3.07-.46.25-1.4-.41-2.12-.64.76-1.64.46-4.47-.9-3.81-2.74,1.33-6.36.17-8.39,3.06-3.1,0-4.37-2.93-6.71-4.13.09-.38.17-.76.26-1.13,4.07-.83,9.19-.38,8.54-7,.08-1.27.16-2.55.23-3.83,2.67-.64,1.16-4.4,3.79-5.08,0,3.26.22,6.51.13,9.76-.12,4.23,1.63,6.49,6,6.3,1.68-.19,4.64,5.47,4.94-1.08,5,2.62,5,2.61,6.7-3.26.12-.44.44-1.19.67-1.19,5.3,0,7.44-6.76,13.2-6.06,2.33.28,2.5-1.65,1.71-3.48-.38-.9-1.11-1.93.2-2.51s2.27.26,2.78,1.4c1.25,2.77.95,5.17-1.95,6.77-1.33.73-4,.35-3.5,2.65s2.85.53,4.27,1.07a1.59,1.59,0,0,1,1.23,1.43c-.55,1.66-3.11-.31-3.49,2.21,1.74,1.51,5.76.81,5.34,5.31-.3,3.34-.62,6.65-3.48,8.19-2.31,1.25-4.83,2.18-7.08,3.66A3.19,3.19,0,0,0,202,299Zm-12.54-12.58c-.5-.33-.86-.75-1.21-.74a1.17,1.17,0,0,0-.8.83.9.9,0,0,0,1.22.93C189,287.36,189.16,286.84,189.47,286.42Zm16.78-8.28,0-.39-.59.22c.07.11.14.27.24.3S206.13,278.19,206.25,278.14ZM197.32,286c-.06-.12-.09-.3-.19-.34s-.25.05-.38.08l.32.56Zm-4.12.25c.05-.13.16-.29.12-.39s-.22-.15-.34-.22l-.18.64Z"/><path class="cls-12" d="M175.83,264.94c-2.63.68-1.12,4.44-3.79,5.08-.34-5-1.53-10-1.06-15,1.26-4.53-1.41-9.82,2.76-13.85a2.82,2.82,0,0,0-.14-2.78c-4-3.47-.46-5.21,1.51-7.34,3.68-2.34,3.43-6.26,4-9.87a4.35,4.35,0,0,0,2-3.1c1.75-.75,3-1.84,2.93-3.95,1.08-4-.24-5.74-4.48-4.92a11.34,11.34,0,0,1-2.4,0c-1.38-1.41-4.24-.45-4.91-2.85-1.5-5.35-3.67-10.63-2.47-16.4l0-3.83c1.2-.66,2.37-1.34,1.21-3v-2a7.3,7.3,0,0,0,4.12-2.05c2.36.58,2.89,2,1.77,4.06-.93,1.75-1.81,3.52-2.77,5.25-1.46,2.65-1.55,5,1.16,7a8,8,0,0,1,2.1,2.7c3.39,6.39,3.35,6.37,8.5,1.77,1.47-1.31,2.05-2.43.5-4.13-2.14-2.35-1.17-3.83,1.59-4.58,2.08,2.29,4.16,4.69,1.71,7.85-3.44,4.44-3.36,8.24,1.59,11.44-.53.85-1.06,1.7-1.58,2.55-2,.23-2.79,1.41-2.54,3.35-6.71,12.06-10.73,24.83-10.5,38.77a18.41,18.41,0,0,1-.78,3.88c-.95.16-2.19.09-2.34,1.32-.2,1.67,1.27,1.55,2.35,1.77Z"/><path class="cls-13" d="M126,154.22a174.44,174.44,0,0,0,10.33-29.07c.72-2.93-.41-6.43,2.34-8.82l1,.56.18,1.45c2.27,3.69,2.26,8.57,5.13,11-1.15,6.39-5,11.5-5.9,17.79-.39,2.44-.88,7.13-3,5.92-4-2.25-4.29,1-6.1,2.14l-2.81.72a3.08,3.08,0,0,0-.91,0Z"/><path class="cls-7" d="M143,116.05c.61-1.47,2.07-2.22,3.18-1.55,4,2.45,7.77.85,11.73-.07,2.06-.47,4.67-.9,6.31,1.49-2.34,1-1.95,2.76-1.23,4.56a19.11,19.11,0,0,1,1.08,7.79c-5,.93-10.08.46-15.13,0a35.72,35.72,0,0,1,0-5C149.49,118.7,147.46,116.41,143,116.05Z"/><path class="cls-10" d="M172.92,116l2,0c.81,1,1.52.95,2.15-.18l3.92-.51c.17.38.29,1,.52,1.08.87.14,1.23-.52,1.43-1.26l2,.11c0,.35,0,.69,0,1l.93,3.05a23.46,23.46,0,0,0-2.91.08c-1.32.2-2.82.62-2.21,2.39.51,1.5,2,1.5,3.29,1.06s1.62-1.5,1.94-2.62c5.5,1,3.45,5.53,4,8.81-4.6-1.73-9.41.68-14-.7l-2-.94Z"/><path class="cls-7" d="M127,96.62c-2.65-3.61-7.4-5.76-7.86-11,5.83-1.24,8.38,1.24,7.81,7.46,2.92-2.76.49-6.12,2.46-8.31,1.79-.17,1.16,2.22,2.55,2.49,1.78-2.31-.91-5.55,1.85-7.46.06,3.11.11,6.23.17,9.35.54,3.76-1.65,7.5,0,11.26l-1,.25-4.15-2.34C128.69,97.27,128.28,96.48,127,96.62Z"/><path class="cls-8" d="M134,89.16c-.06-3.12-.11-6.24-.17-9.35,1.15-2.39,2.49-4.72,2.31-7.51a4,4,0,0,0,0-4c-.23-7.83-4.67-14-8.22-20.46l2.23-.43c1.94,0,3.6.32,3.81,2.75.26,3,1.9,5.48,3,8.18,1.13,4.27,2.38,8.52,2,13C138.48,77.62,139.16,84.21,134,89.16Z"/><path class="cls-11" d="M193.2,133.21a2.83,2.83,0,0,0-.14-.91c.07-1.06.13-2.12.2-3.18l1.58-.89a3.45,3.45,0,0,1,3.1,0c-1.25,6.71-2.87,13.4-.43,20.21.16.44-.44,1.15-.68,1.73-1.3-2.51-1.66-5.47-5.92-5.48-2.75,0-2.09-6.21,1.21-9.38C193.15,135,193.88,134.45,193.2,133.21Z"/><path class="cls-11" d="M191.28,210.4c-4.95-3.2-5-7-1.59-11.44,2.45-3.16.37-5.56-1.71-7.85,0-.65.05-1.29.07-1.94,2.42-.86,1.76-3.52,3-5.09,1.44.88,3.84,1.44,2.54,3.76-2.42,4.34.67,2.48,2.37,2.28,0,1,0,2,0,3-1.42.1-2.56.53-2.89,2.15-.83,4.13-2,8.28,1.17,12A5.6,5.6,0,0,1,191.28,210.4Z"/><path class="cls-7" d="M195.94,190.12c-1.7.2-4.79,2.06-2.37-2.28,1.3-2.32-1.1-2.88-2.54-3.76,0-1.64,0-3.28,0-4.93,1.92-.71,1.75-2.44,2-4,.44-2.36.73-4.84,3.28-6.08C198.77,176.13,197,183.12,195.94,190.12Z"/><path class="cls-12" d="M172.92,116q.6,5.68,1.18,11.36c-2,2.66-4.69.66-7,.95-.7-3.92,2.43-7.81.08-11.73C169,116,170.9,115.27,172.92,116Z"/><path class="cls-10" d="M143,116.05c4.49.36,6.52,2.65,5.92,7.24a34.25,34.25,0,0,0,0,5c-2.54-.47-2.51-2.6-3.16-4.48-.94-2.71-1.69-6-5.85-5.43,0-.48-.11-1-.17-1.45Z"/><path class="cls-11" d="M167.14,116.56c2.35,3.92-.78,7.81-.08,11.73l-3,0a19.11,19.11,0,0,0-1.08-7.79c-.72-1.8-1.11-3.56,1.23-4.56Z"/><path class="cls-7" d="M194.24,207.26c-3.19-3.73-2-7.88-1.17-12,.33-1.62,1.47-2.05,2.89-2.15.31,3.72-.53,7.48.53,11.17C197,206.2,195.86,206.91,194.24,207.26Z"/><path class="cls-7" d="M197.94,128.22a3.45,3.45,0,0,0-3.1,0,33.8,33.8,0,0,0-.78-9.14l-.09-3.86a3.61,3.61,0,0,1,3,2c-.05.13-.18.27-.15.39a6.14,6.14,0,0,0,.27.79C198.61,121.59,197.75,125,197.94,128.22Z"/><path class="cls-11" d="M195.75,162.19c-4.38-.9-3.94-4.4-3.57-7.38.42-3.34,3,.31,4.26-.94C195.94,156.62,197.21,159.52,195.75,162.19Z"/><path class="cls-11" d="M196.34,169.07c-2.55,1.24-2.84,3.72-3.28,6.08-.29,1.56-.12,3.29-2,4l-1.09-1v-2c1.26-1.45,1-3.24,1.1-4.94,2.9-1.07,1.12-5.6,4.62-6.22Z"/><path class="cls-11" d="M194,115.23l.09,3.86c-4.13,2.55-5.88-2.39-9.05-2.88,0-.35,0-.69,0-1l-.09-.33a3.21,3.21,0,0,0,3.09-.46Z"/><path class="cls-8" d="M186.93,279.92c-.3,6.55-3.26.89-4.94,1.08a3.29,3.29,0,0,1,2.75-3.08Z"/><path class="cls-13" d="M133,100.67l1-.25c1.46,1.78,3.53,3.2,3.51,5.87A15.26,15.26,0,0,1,133,100.67Z"/><path class="cls-11" d="M175.89,262c-1.08-.22-2.55-.1-2.35-1.77.15-1.23,1.39-1.16,2.34-1.32C175.88,260,175.88,261,175.89,262Z"/><path class="cls-11" d="M187.16,216.3c-.25-1.94.52-3.12,2.54-3.35A4.74,4.74,0,0,1,187.16,216.3Z"/><path class="cls-7" d="M188,114.38a3.21,3.21,0,0,1-3.09.46C185.71,113.39,186.73,113.17,188,114.38Z"/><path class="cls-7" d="M182.94,115.06c-.2.74-.56,1.4-1.43,1.26-.23,0-.35-.7-.52-1.08C181.57,114.48,182.22,114.34,182.94,115.06Z"/><path class="cls-12" d="M177.07,115.75c-.63,1.13-1.34,1.23-2.15.18Z"/><path class="cls-11" d="M197.06,118.44a6.14,6.14,0,0,1-.27-.79c0-.12.1-.26.15-.39Z"/><path class="cls-1" d="M154.89,56.15c5.8.93,5.94.7,4.52-5.66-.56-2.48-.56-4.61,3.11-3.19s5.14-2.24,5.73-4c1.15-3.43,3.48-3.85,6.22-4.65,3.5-1,7.26-.85,10.6-2.56,1.57-.8,2.71,0,2.89,1.58.57,5,3.22,5.86,7.49,4.12a4,4,0,0,1,3.76.82c1.37,1,2.1,2.36,1.46,3.88-.92,2.19-2.2.15-3.29,0-1.63-.24-3.23-.93-4.86-1-2.08-.07-3.5.78-3,3.35.6,3.39-3.4,9.1-6.75,9.81-.64.13-1.54-.21-1.94.12-2.75,2.27-5.8,7.07-5.93-1.61,0-1.42-2.78-.16-3.87,1.17-.88,1.07-1.84,2.12-3.34,1.62-1.85-.62-.54-1.88-.37-2.88.14-.81-.2-1.39-1-1.37A5.64,5.64,0,0,0,162,57.85C158.87,61.38,157,60.88,154.89,56.15Z"/><path class="cls-1" d="M136.93,58.33c-1.07-2.7-2.71-5.2-3-8.18-.21-2.43-1.87-2.77-3.82-2.75A3.13,3.13,0,0,0,128,45.18l-1-3.66c.41-1.7,5.28-1.57,1.93-5-.84-.85.42-1.84,1.5-1.72a4.93,4.93,0,0,0,4.05-1.33,2.13,2.13,0,0,1,3.1.07,2.29,2.29,0,0,1,.5,3.11c-1.67,2.85-.18,5,2.36,5,4.63.05,8.91,2.38,13.56,1.62,3,5.33,2,7.59-3.69,8.44-3,.45-6.08.51-7.26,4.54C142.26,59.09,138.81,57,136.93,58.33Z"/><path class="cls-3" d="M153.1,14.83c-.78,1.07-1.73,2-3.16,1.91a1.9,1.9,0,0,1-1.62-2.54c.34-1.61,1.65-1.26,2.76-1C152,13.45,153.15,13.34,153.1,14.83Z"/><path class="cls-3" d="M210.55,35.32c0,.79-.25,1.44-1.08,1.37a2.22,2.22,0,0,1-2.24-2.21c0-.7.2-1.44,1.05-1.38A2.56,2.56,0,0,1,210.55,35.32Z"/><path class="cls-2" d="M22.11,149.17h5.1c.68,1.4.91,4.74,2.27,3.69,2.51-1.94,3.84.21,5.67.27,2.86.36,5.27,4.07,8.74.67,1.25-1.23,2.37.86,3,2.27s-1.06,3.25.93,4.8c1.68-2.16,4.11-3.68,4.33-6.76L54,154c2.61,1.92-.74,4.28.75,6.84,2.48,4.27,5.91,6.21,11.19,6.77-1.76,2.07-3,3.83-5,2.88-3.77-1.82-4.16.94-4.27,3.13s1.26,4.64,3.92,4c5.89-1.54,7.51,2.53,9.43,6.44-2.25,1.53-2,3.83-1.89,6.08C67,193.68,63.53,197,67.11,201l0,2.1a4.81,4.81,0,0,1-.85,0c-2.84.63-5.47.88-5-4.42-2.6,3.42-2.89,5.89-.84,8.09,2.48,2.65.57,3.43-1.51,4s-4.65.09-6.77,1.28c-6.22-2-1.61-6.39-1.35-9,.68-6.88.39-8.42-6-10.11-1.28-.34-2.83-.54-3-2.14s1.43-1.48,2.46-1.86c.79-.29,1.66-.71,1.19-1.75s-1.36-.8-2.18-.58a7.28,7.28,0,0,1-5.78-.44c-.71-.4-1.59-.81-1.23-1.85a1.3,1.3,0,0,1,1.65-.71c4.78,1,4.12-1.07,2.66-4.25-1.92-4.19-5.09-8.23-1.38-13.35,1.3-1.79-1.83-2.71-3-3.82-1.37-1.28-2.16.19-3,1.35-2.24,3.21-2.22,6.05,1,8.58-5.71.15-6.85,1.31-6.39,6.91.23,2.74,1,5.47-.57,8.06-2.41.43-1.39,5.25-5.12,4l-1,0,.09-3L22,186q0-8.4.05-16.8c.07-.71.15-1.42.22-2.13,1.71-.24,4,.91,5-1,2.47-4.44-.47-8.7-5.91-8.87C21.43,154.54,19.44,151.64,22.11,149.17Z"/><path class="cls-2" d="M56.37,137.54l-.7,1.55a4.66,4.66,0,0,0-2.33,4.16c.41,5-2.29,4-5.15,3.06-.22-3.38-2.44-6.51-1.24-10.12.18-.53-.6-2-1-2-7.62-.73-8.14-8.59-12.57-12.17-3.92-3.16-5.21-6.07-4.51-10.92,4.31,1.26,7.52,3,7,8.37-.24,2.31.76,5,3.36,5.36,3.09.37,2.58-2.63,3.15-4.63.81-2.87.15-5.59-.27-8.37-.22-1.42-1-3.06.79-4s3.17-.19,4.56.94c1,.83,2.4,3.64,2.75,2.37.63-2.33,5.15-3.77,2.07-7.06a2.71,2.71,0,0,1-.71-1.28,3.1,3.1,0,0,1,2.24-3.9c2.38-.63,2.28,1.23,2.09,2.77-.33,2.64,1.41,2.65,3.15,2.48s2.91-.72,2.16-2.9c-1.1-3.18,1.59-3.47,3.5-4.25.9-.37,2.35-.81,2.61.34a5.45,5.45,0,0,1-1.35,5.49,12.69,12.69,0,0,1-2.17,1.29c2.89,1.78,5.43,3.65,8.33.5,1.45,7.82-3.13,13-6.56,18.48-.88,1.4-2.46,2.28-1.34,4.21-.2,2.13-2.37,3.08-3,5l-1,.91-2.15,2A2.06,2.06,0,0,0,56.37,137.54Z"/><path class="cls-2" d="M67.14,75.28h2a2,2,0,0,0,3,0,18.43,18.43,0,0,1,2,.09c7.49,1.17,10.9-2.64,8-9.08h2a26.28,26.28,0,0,0,2.57-1.37c.67-.45,1.21-1.28,2.12-.75a1.72,1.72,0,0,1,.47,2.59c-1.58,2.57-.28,5.13-.15,7.69-2.25,3.73-3.09,7.59-1.06,11.71.08,3.71-.84,6.41-5.44,5.24-2.19-.55-3.77,1-5.61,1.6-4.31,1.34-8.35.5-12.11-1.26-3-1.38-4.9-.77-6.14,1.83s-3,2.27-4.93,1.5c-2.45-1-2.46-2.67-1.43-4.85C53.79,87.29,52,84.11,53,81c1.27-4,3.24-6.37,7.47-4.65C63.17,77.39,64.83,74.84,67.14,75.28Z"/><path class="cls-8" d="M21.07,191.11l1,0c-1.23,3.35-.48,6.69.09,10l-2,.94L19.14,202c-4.8-8.65-5.28-17.93-4.59-27.57.24-3.33,3.06-7.41-1.29-10.31,0-.63.05-1.27.07-1.91,3.35-.37,2.77-2.89,2.79-5.09v-6c0-.32,0-.64,0-1l2.06-6v0l3.95.13c0,1.63,0,3.26,0,4.89-2.67,2.47-.68,5.37-.74,8.08,0,1.61,0,3.22,0,4.84a3.57,3.57,0,0,0,.86,3l0,2c-.07.71-.15,1.42-.22,2.12-2.48-.17-4.94-.11-4.79,3.3.24,5.43.66,10.86,1.07,16.28C18.44,190.41,19.62,191,21.07,191.11Z"/><path class="cls-13" d="M112.23,58.29c4.89-.37,6.93,1.94,6.37,6.74a11.25,11.25,0,0,0,.32,5.39c1.54,4.23-.24,6.84-4.54,7.33-2.63.3-2.19,1.94-2.31,3.53h0c-3.22.76-5.9,2.07-6,6l-3.73,1.66-1.16-.73c-1.18-2.28-3.6-1.86-5.52-2.53l-2.36-.92-1-2.25,3-.38a2.09,2.09,0,0,1,.66.43c2.34,2.45,4.75,2.36,7.23.21,3.67-4.82,12.93-6,9.89-15.22-.11-.33.29-.92.59-1.27,2.32-2.74.81-4.45-1.55-5.94Z"/><path class="cls-1" d="M52.14,154.12c-.22,3.08-2.65,4.6-4.33,6.76-2-1.55-.28-3.34-.93-4.8s-1.74-3.5-3-2.27c-3.47,3.4-5.88-.31-8.74-.67a8,8,0,0,0,2-5.93l9.12,0c.5,1.58-3.31,3.27.08,4.74C48.22,152.79,50.2,153.41,52.14,154.12Z"/><path class="cls-7" d="M52.14,154.12c-1.94-.71-3.92-1.33-5.81-2.15-3.39-1.47.42-3.16-.08-4.74l1.94-.92c2.86.92,5.56,1.9,5.15-3.06a4.66,4.66,0,0,1,2.33-4.16c-.15,2.07-.2,4.16-.46,6.23-.41,3.31.95,5.54,3.93,6.88-.34,1.82-.68,3.73-2.94,1.39-1.06-1.09-1.66-.73-2.16.45Z"/><path class="cls-2" d="M22.13,144.28l-3.95-.13c-.09-3.08,0-6.19-.34-9.25-.26-2.12.79-3,2.35-3.71C24.16,135.06,22.23,139.8,22.13,144.28Z"/><path class="cls-8" d="M92.31,82.46l1,2.25c-1.24,2.3-3.7.22-5.24,1.46-2-4.12-1.19-8,1.06-11.71l1.6-.24C91.09,77,88.36,80.37,92.31,82.46Z"/><path class="cls-8" d="M37.13,147.21a8,8,0,0,1-2,5.93c-1.83-.06-3.16-2.21-5.67-.27-1.36,1-1.59-2.29-2.27-3.69a4,4,0,0,1,3-2,3.86,3.86,0,0,0,5,.1Z"/><path class="cls-11" d="M101.18,88.16l1.16.73A9,9,0,0,1,99.24,95c-2.11-.73-2.48-3.79-5.12-3.81l-1-.9c1.39-.25,3.17.06,3.23-2.17Z"/><path class="cls-1" d="M35.17,147.26a3.86,3.86,0,0,1-5-.1Q32.75,143.6,35.17,147.26Z"/><path class="cls-10" d="M101.18,88.16H96.31c-.21-.84-.43-1.69-.65-2.53C97.58,86.3,100,85.88,101.18,88.16Z"/><path class="cls-6" d="M5.21,37.35c-2.5-.8-1-2.58-1-4C6.45,34.21,6.44,35.63,5.21,37.35Z"/><path class="cls-2" d="M69.15,343.87c-3.68.59-7.35,2.25-11.28.72.67-2.06,2.09-1.78,3.08-2.18,2.72-1.11,3.17-2.58,1.12-4.81A20,20,0,0,1,59.42,334c-.93-1.63-1.7-2-3.48-.84-4,2.63-8,3.15-10.93-1.64-1-1.69-2.4-1.05-3.4-.31-3.14,2.34-6.27,2.58-9.65.59-1.53-.91-2.86-.5-3.78,1.06h-1c1.49-6.66,1-13.75,4.81-19.94.91-1.49,1.35-2.8,3.28-3.11,4.34-.71,4.12-3,1.89-5.9,1.87-2.4,4.62-3.44,7.22-4.71,2-1,3.46.56,4.82,1.48s.39,2.17-.41,3c-2.71,2.86-1,6-.55,9,.13.83,1,2,1.56,1.29,2.59-3.11,5.81-.33,8.53-.87.4-2.18-3.43-3.67-.75-5.43,2.27-1.49,3.49.86,4.68,2.42,1.07,1.39,2.06,1.48,3.14,0,.91-1.24,2.32-1.11,3.64-1.16l1.09,2c-.3,7.78,4.53,15.72-.73,23.34.35.69.64,1.46,1.61,1.47l.67,2.21c-1.38,3,.09,3.58,2.64,2.9a47.66,47.66,0,0,0,4.59-1.69c.39,2.73-1.22,3.78-3.56,4.1C73.3,343.53,71.22,343.67,69.15,343.87Z"/><path class="cls-7" d="M179,286.85c.72.23,1.66.89,2.12.64,4.92-2.58,2.85,1.2,2.86,3.07l-8.94,4.54c-3,0-6.13-.47-9.06.82-2.63-.7-4.44-.39-3.67,3-2.2,1-2.32,2.93-2.27,4.92,0,2.72.16,5.44.25,8.16L160,313c-.1.08-.3.21-.28.26a4,4,0,0,0,.32.61l.29,1.56L150.05,317c-5-.74-10.12,1-15-1l2.11-3c3.45.53,7.27,2,10-1A16.19,16.19,0,0,0,150.9,301c-.25-4.07,1-3.8,3.71-4.23,3.13-.49,6-5.06,4.18-6.34-3.63-2.59-2.07-3.54.7-5,1.38-.75,2.36-2.26,3.52-3.42,2.34,1.2,3.61,4.14,6.71,4.13C172.64,288.57,176,285.82,179,286.85Z"/><path class="cls-10" d="M175.05,295.1l8.94-4.54c-.42,5.16-2,10.32-.4,16.37,4.16-4.22,1.18-9.21,3-13.11,1.84.74,1.22,2.07,1.43,3.09q.88,3.52,1.79,7l.18,1c-.81.89-2.26,1.24-2.33,2.75-2.82,3.09-6.08,5.18-10.51,4.55-.33-1.52,1.61-3.22-.23-4.52-.42-.3-1.57.15-2.23.53-2,1.16-1,2.86-.63,4.41L171,314c-1.08.08-2.2.05-3,.95l-3.14.38-4.51.06c-.09-.52-.19-1-.29-1.56a8.44,8.44,0,0,0,0-.87c.09-.31.18-.61.26-.92,5.11-2,6.29-9.71,2-13.08-.77-3.42,1-3.73,3.67-3,1.42,3,4.29,3.88,7,5a3.23,3.23,0,0,1-2.4,2.2,1.31,1.31,0,0,0-.78,2c.26.54.83,1.25,1.3,1.29,2.07.15,3.37-1.38,4.15-2.88,1.1-2.13-.83-2.3-2.29-2.55C173.43,298.91,177.26,298.07,175.05,295.1Z"/><path class="cls-14" d="M137.16,313l-2.11,3-1.84.69c-1.46-.56-2.73-.44-3.66,1l-4,.4c-1.61-.87-1.6-2.78-2.59-4,.22-2.84,3.78-2,4.2-3.06,1.22-3.24,4.49-6.61,2.21-10.16-3.06-4.77.48-11.66-5.31-15.35-.13-.08-.11-.79,0-.87,2.93-1.78,1.11-5.4,3-7.57h1c.15,1.64.31,3.28.47,4.92.29,4.8-.05,10.23,3.29,13.69a19.16,19.16,0,0,1,5.28,9.32Z"/><path class="cls-9" d="M71.69,337.94c-.23-.74-.45-1.47-.67-2.21a.52.52,0,0,0,.29-.65c4.66-1.88,4.66-1.88,2.26-4.35l1.75-2.4a3.8,3.8,0,0,0,2.7-2.5l2.17-.67c0,2.81-.52,5.84,3.32,6.74a1.26,1.26,0,0,0,.33.74l-2.94,3.14C77.77,336.23,75.47,340.25,71.69,337.94Z"/><path class="cls-2" d="M160.36,315.38l4.51-.06c-.41,2.67-.85,5.24,2.47,6.67,1.72.74,1.55,2.07-.12,2.87-2.13,1-4.63,1.79-6.67.57s.28-2.86.59-4.3c.4-1.86.42-2.86-2-2.56-2.07.25-4.18-.84-6.3.34-1.88,1-2.75,0-2.82-1.91Z"/><path class="cls-7" d="M116.09,326.92c-3.57,5.13-8.48,7.81-14.73,7.12-2.46-.27-4.88,1.44-7.26-.09.51-.82,1-1.65,1.52-2.48l2.51-.46c1.1.86,1.65.29,2-.77l1.93-.23Z"/><path class="cls-11" d="M116.09,326.92l-14,3.09c5.66-4.08,12.1-6.46,18.68-8.56l.16,3.36-1.78.38a2.14,2.14,0,0,0-2.23,1.6A7.94,7.94,0,0,0,116.09,326.92Z"/><path class="cls-8" d="M120.93,324.81c-.06-1.12-.11-2.24-.16-3.36a.81.81,0,0,1,.67-.17c1.44.5,2.26-.07,2.55-1.51l1.6-1.75,4-.4,1.6.43C130.11,323.88,124.8,323.25,120.93,324.81Z"/><path class="cls-12" d="M83.84,332.64a1.26,1.26,0,0,1-.33-.74c2.75-2.15,4.89-5.2,8.59-6L94.18,328l-.59,2.86c-3.67-2.16-5.12.42-6.54,3.07A4.37,4.37,0,0,0,83.84,332.64Z"/><path class="cls-14" d="M71.69,337.94c3.78,2.31,6.08-1.71,9.21-2.16-.11,1.45-1.18,2.33-2,3.37a47.66,47.66,0,0,1-4.59,1.69C71.78,341.52,70.31,341,71.69,337.94Z"/><path class="cls-14" d="M87.05,333.91c1.42-2.65,2.87-5.23,6.54-3.07l2,.63L94.1,334C91.75,333.39,89.39,336.33,87.05,333.91Z"/><path class="cls-2" d="M171.69,328.51c-.27.2-.72.82-1.18.82-1,0-1.23-.79-1-1.65a1.15,1.15,0,0,1,1.38-1C171.62,326.86,171.79,327.48,171.69,328.51Z"/><path class="cls-7" d="M131.15,318.05l-1.6-.43c.93-1.41,2.2-1.53,3.66-1Z"/><path class="cls-12" d="M83.81,337.06c.07-.14.1-.35.2-.39s.27.1.41.16c-.06.14-.1.35-.2.39S84,337.12,83.81,337.06Z"/><path class="cls-8" d="M116.92,326.79a2.14,2.14,0,0,1,2.23-1.6A2.46,2.46,0,0,1,116.92,326.79Z"/><path class="cls-3" d="M33.17,34.36c-.64,3.07-1.78,4.17-4,1Z"/><path class="cls-13" d="M126.37,47.16c-4.51.32-9,.46-13.09-1.91-2.13-1.22-4.11-1.4-5.39,1.25-.76,1.56-1.65,3-3.75,2.39s-1.9-2.44-2.09-4.1c-.15-1.37.55-3.52-1.47-3.66-1.76-.13-1.21,2-1.61,3.14-.79,2.29-1.94,1.82-3.21.4-1.7-1.9-1.7-4.24-1.74-6.57a.92.92,0,0,1,.09-.79,8,8,0,0,0,5-1.8,24.11,24.11,0,0,1,7.95,0l5,2.08c.39,1.15,1,1.66,2.07.66l5.8,1.79C122.06,42.41,125,44.11,126.37,47.16Z"/><path class="cls-7" d="M96,82.51a2.09,2.09,0,0,0-.66-.43C93,79,95.87,74.46,92.43,71.69c-.2-1.88-.65-3.8.89-5.4,1.47-.12,3.14.24,3.84-1.66,1-.73,2.73-.28,3.25-1.88l1.66-.44c.18,1.88,2.52,2.52,2.5,4.64,0,1.74,1.31,2,2.84,1.66,1.3-.25,3.06-1.4,3.55,1,.44,2.09-.58,3.45-2.59,4.12-1.4.47-2.77,1-4.15,1.53-1.35-1.39-1.18-4.5-4.39-3.76-1.76.41-3.44,1.41-3.55,3-.15,2.37.9,4.51,3.76,4.91A2.31,2.31,0,0,1,100,82Z"/><path class="cls-14" d="M92.43,71.69c3.44,2.77.61,7.3,2.92,10.39l-3,.38c-4-2.09-1.22-5.46-1.59-8.24Z"/><path class="cls-3" d="M85,40.26c.77,3.19-.81,5.33-1.38,7.57-.41,1.65-1.77,1.09-2.38-.27C79.58,43.8,82.62,42.56,85,40.26Z"/><path class="cls-3" d="M79,68.71c0,1.74-.64,3-2.41,3.3-.85.15-1.89-.11-1.89-1.08,0-1.87,1.6-2.83,3-3.58C78.66,66.8,78.9,68,79,68.71Z"/><path class="cls-3" d="M72.13,75.3a2,2,0,0,1-3,0c.24-1.36-.55-3,1-4.06C72.16,72,71.9,73.75,72.13,75.3Z"/><path class="cls-3" d="M84.52,55.48c0,.83-.45,1.3-1.2,1a2.57,2.57,0,0,1-1.8-2.59,1,1,0,0,1,1.29-1.05C84.18,53.19,84.2,54.48,84.52,55.48Z"/><path class="cls-11" d="M97.16,64.63c-.7,1.9-2.37,1.54-3.84,1.66-.12-.9-.25-1.81-.37-2.71l1-.46Z"/><path class="cls-7" d="M99.12,35.51a8,8,0,0,1-5,1.8c0-.59.09-1.18.14-1.78l-.09-.11C95.8,35.82,97.49,34.27,99.12,35.51Z"/><path class="cls-3" d="M59.84,34.19c.13,0,.27-.15.38-.12s.16.19.23.29l-.59.22Z"/><path class="cls-3" d="M84.11,66.3h-2c.2-.61.34-1.41,1.21-1.16C83.68,65.25,83.86,65.9,84.11,66.3Z"/><path class="cls-6" d="M99.12,35.51c-1.63-1.24-3.32.31-5-.09,1.23-2,.44-3.69-1.27-4.91,1-1.33,2.18-1.14,2.79-.46,2.46,2.73,5.65,2.11,8.74,2.36s6.79-.67,8.5,3.3c-1.94-.17-3.84-1.8-5.85-.2A24.11,24.11,0,0,0,99.12,35.51Z"/><path class="cls-2" d="M162.44,28.89c-1.87-.2-3.49-1.27-3.56-2.9-.09-2.22,1.81-.95,2.92-1a4,4,0,0,1,1,0c1.27.35,3.26-2.85,3.71.37C166.81,27.72,164.44,28.47,162.44,28.89Z"/><path class="cls-8" d="M126.37,47.16c-1.41-3-4.31-4.75-6.46-7.12,3-2.42,4.44,2.38,7.11,1.48.32,1.22.65,2.44,1,3.66l-.12,2.61Z"/><path class="cls-7" d="M107.07,35.51c2-1.6,3.91,0,5.85.2l.21,1.45-1.09.43Z"/><path class="cls-15" d="M112,37.59l1.09-.43,1,1.09C113,39.25,112.43,38.74,112,37.59Z"/><path class="cls-2" d="M11.21,253c0-.33,0-.66,0-1,1.27-.36,2.69-.76,2.45-2.42s-1.85-1.47-3.08-1.55-2.25,0-3.38,0h0c0-1,0-2,0-2.94l0-.06c2.23.19,4.61-.55,6.66.81,2.56,1.71,3.43-.07,4.32-1.93l1.15,0c-.08,1.7.42,3,2.38,3A3.16,3.16,0,0,0,25.19,244l3.93.9,14-.87c.32,1.83,0,4.67,2.11,4.81,1.82.12,3.36-2.28,4.39-4,.6-1,.37-2.5.5-3.78l.94-2c1.71-2.53,3-4.77-2-4.61-1.33.05-2.71-.89-4.06-1.38H43.17c1.46-3.35,2.13-7.9,7.69-5,.8.42,1.73.36,2-.63,1.73-5.73,4.07-1.5,6.22-.41-.82,8.35-4.32,16.09-5.63,24.33-2.95.12-2.4,2.44-2.18,4A31.39,31.39,0,0,0,53.11,261a4,4,0,0,0-.78,5.38c2.47,4.36-3.2,8.68-.1,13.09.07.1-.84.91-1.31,1.36-.89.84-1.63,1.78-1,3,2.25,4.77-2.86,6.46-4.7,7.85-2.67,2-1.22-3-3-4-.42-.22-.68-.88-1.09-1-4.36-.85-3.51-3.89-2.95-6.82.87-1,2-1.83,2.52-3a2.69,2.69,0,0,0-1.39-3.38,1.9,1.9,0,0,0-2.89.93c-1,1.89-2.41,3.49-3.86.84s-3.48-3-6-3.56c-2.76-.57-5.8-1-5.89-5.28,0-2-2.61-3.63-4.15-.91s-2.82,1.11-4.3.35v-1C12.68,260.93,8.6,257.25,11.21,253Zm37,7.56c-.33-1.34-.56-4.16-1.49-3.49-2.43,1.73-4.25,4.44-6,7-.59.88.68,1.82,1.74,1.72C45.61,265.5,47.37,263.58,48.18,260.57Zm-2,21.7a6.13,6.13,0,0,0,1.29-1.64c.28-.81-.45-1.25-1.1-.84a4,4,0,0,0-1.44,1.78C44.68,282.05,45.24,282.35,46.13,282.27Zm.78-30.7a6.24,6.24,0,0,0-.54,1.48c0,.5.31,1,.85.71a1.43,1.43,0,0,0,.57-1.11C47.78,252.35,47.33,252.06,46.91,251.57Z"/><path class="cls-4" d="M38.17,280c-.56,2.93-1.41,6,2.95,6.82.41.08.67.74,1.09,1,1.76,1,.31,6,3,4,1.84-1.39,7-3.08,4.7-7.85-.6-1.26.14-2.2,1-3,.47-.45,1.38-1.26,1.31-1.36-3.1-4.41,2.57-8.73.1-13.09a4,4,0,0,1,.78-5.38l2.21.21a2.53,2.53,0,0,1-.11.6c-.12.8-.62,1.85-.29,2.36,5.24,7.91,7.33,16.88,9.11,26,.58,3,.75,6.32,3.11,8.76-.17,2,1.09,3.41,2,5-1.52.2-4-.38-4,1.66s2.6,1,4.06,1.28h0l0,1.14a9,9,0,0,1-.11.91c-1.32.05-2.73-.08-3.64,1.16-1.08,1.48-2.07,1.39-3.14,0-1.19-1.56-2.41-3.91-4.68-2.42-2.68,1.76,1.15,3.25.75,5.43-2.72.54-5.94-2.24-8.53.87-.59.7-1.43-.46-1.56-1.29-.47-3-2.16-6.11.55-9,.8-.84,1.64-2.2.41-3s-2.78-2.46-4.82-1.48c-2.6,1.27-5.35,2.31-7.22,4.71-1.5.76-2.14,2.69-4,3,0-1,0-2,0-3,2-6.17-.24-12.29-.42-18.42C32.62,281.08,34.38,279.88,38.17,280Z"/><path class="cls-2" d="M7.2,333.9l-2-1a13.5,13.5,0,0,0-1.55-7.67c-1.07-1.85-1.77-4-.93-6.21.4-1,.53-2.42,2.08-2.4,1.07,0,1.67.9,2.4,1.59,1.66,1.54-.32,6.91,4.79,4.75,2.62-1.11,5.69.59,8.11-1.59,1-.9,2.41-1.58,3.41,0s.12,2.91-.62,4.21c-.45.81-1.42,1.26-2,.45-2.61-3.42-5.28.32-7.81-.63-.47,2.42,2.41,3.25,1.62,5.37-.26.14-.66.48-.81.4C8.35,328.12,8.36,328.11,7.2,333.9Z"/><path class="cls-2" d="M33.16,303.92c0,1,0,2,0,3-1.08,1-2.17,2-3.78,1.47a1.26,1.26,0,0,1-.45-1.17C29.66,305.29,30.92,304,33.16,303.92Z"/><path class="cls-2" d="M17.63,271.61,17,271l1-.6c.13.25.41.54.35.71S17.89,271.45,17.63,271.61Z"/><path class="cls-3" d="M20.19,79.28c.16-1.27,0-2.73,1.61-3.2.23-.07.93.49.94.78.07,1.7-1.24,2.09-2.55,2.42Z"/><path class="cls-14" d="M174.05,312.65c-.33-1.55-1.37-3.25.63-4.41.66-.38,1.81-.83,2.23-.53,1.84,1.3-.1,3,.23,4.52l-1.11.92Z"/><path class="cls-11" d="M196.43,302.2l-2.25,3L191,303.94c.34-2.33,1.6-3.45,4-3Z"/><path class="cls-7" d="M191,303.94l3.19,1.23c-1.31,3.09-4.18,2.13-6.53,2.51.07-1.51,1.52-1.86,2.33-2.75l1-1Z"/><path class="cls-7" d="M196.43,302.2,195,300.94c0-1.41.33-2.54,1.93-2.84l2,1.81A5,5,0,0,1,196.43,302.2Z"/><path class="cls-8" d="M174.05,312.65l2,.5c-1.33,2.28-3.11,1.87-5,.84Z"/><path class="cls-3" d="M18.17,125.57c-3-.16-4-1.87-5.43-2.79-1-.62-1.75-1.73-.62-2.82s2.21-.54,2.93.48C16.07,121.85,16.88,123.42,18.17,125.57Z"/><path class="cls-2" d="M18.17,144.17l-2.06,6-.94,0C15.3,147.73,15.21,145.18,18.17,144.17Z"/><path class="cls-3" d="M11.21,253c-2.61,4.24,1.47,7.92,1,12-2.75-1.07-4.07-3.71-5.84-5.72C3.94,256.53,6.11,253.85,11.21,253Z"/><path class="cls-3" d="M7.21,248c1.13,0,2.26,0,3.38,0s2.83-.17,3.08,1.55-1.18,2.06-2.45,2.42C11,249.62,6.5,251.41,7.21,248Z"/><path class="cls-3" d="M7.17,245.07c0,1,0,2,0,2.94l-2-1A2.39,2.39,0,0,1,7.17,245.07Z"/><path class="cls-1" d="M13.26,164.14c4.35,2.9,1.53,7,1.29,10.31-.69,9.64-.21,18.92,4.59,27.57-2.25.44-3,2-2.94,4.06v3.12l-4-3.11-1-2c3.18-2.33-1.34-4.66,0-7,0-1,0-2,0-3,1.32-4.33-.93-8.65,0-13,0-1.66,0-3.32,0-5l0-4C13.71,169.94,11.66,166.57,13.26,164.14Z"/><path class="cls-1" d="M16.12,157.14c0,2.2.56,4.72-2.79,5.09-1.16-1.66-.46-3.37-.15-5.07h0Z"/><path class="cls-3" d="M11.2,172.14l0,4c-1.75-.47-4-.86-3.6-3.18S9.91,172.2,11.2,172.14Z"/><path class="cls-7" d="M12.21,206.09l4,3.11c-.6,4.21,1.95,9.5-4,11.9,1.48-3.17,2.48-6.43,1.95-10l-2-2Z"/><path class="cls-3" d="M11.21,197.1c-1.36,2.33,3.16,4.66,0,7l-4.84.34C9.45,202.89,8.26,198.59,11.21,197.1Z"/><path class="cls-1" d="M12.14,209.08l2,2-3.91,1C10.23,210.67,10.61,209.5,12.14,209.08Z"/><path class="cls-8" d="M12.17,221.1c6-2.4,3.42-7.69,4-11.9,0-1,0-2.08,0-3.12,3,.18,4.36,2.17,3.67,4.68-1.75,6.36,3.2,13.25-1.66,19.28-6.68.48-3.23,4.81-3,7.91-3,1.14-4.31.08-4-3.14.4-3.92.69-7.85,1-11.77Z"/><path class="cls-8" d="M18.2,243.89c-.89,1.86-1.76,3.64-4.32,1.93-2.05-1.36-4.43-.62-6.66-.81,0-1,0-1.93,0-2.89,2.37-.07,4.77.07,7-1.15h3.94C18.15,241.94,18.17,242.91,18.2,243.89Z"/><path class="cls-1" d="M18.12,241H14.18c.33-1,.67-2,1-3-.21-3.1-3.66-7.43,3-7.91h0c-1.58,3,1,5.34,1.09,8.06Z"/><path class="cls-2" d="M16.12,157.14l-2.91,0c.32-2.31-1.13-5.48,2.9-6C16.11,153.14,16.12,155.14,16.12,157.14Z"/><path class="cls-13" d="M94.12,91.23c2.64,0,3,3.08,5.12,3.81,4,.82,6.74-2.37,10.17-3.37a6.54,6.54,0,0,1-1.81,6.8l-2.45.84-3,.35c-2.48,1-3,3.46-4.11,5.46l-.13.07c-.62,0-.85.38-.72,1-.45,2.85.46,5.78-.88,8.61-.61,1.28.68,1.49,1.72,1.46-2.18,7.12-8.37,10.15-14.13,13.92,1.25-5.06-1.26-10.22,1.34-15,1,.61,1.5.29,2.23-.74,3.26-4.6,4.23-9.93,5.29-15.26,2.13-1.58,5.28-3.11.26-5.06Z"/><path class="cls-1" d="M54,154c.5-1.18,1.1-1.54,2.16-.45,2.26,2.34,2.6.43,2.94-1.39l1.91.45L63.12,157c-.17,3.25.14,6.85,3.36,8,3,1.1,4.42,3.54,6.76,5.09.15,1.63-2.08,3.62.73,4.86-.3,2.74-.61,5.49-.92,8.23l-1.81.89-1.13-.09c-1.92-3.91-3.54-8-9.43-6.44-2.66.69-4-1.68-3.92-4s.5-4.95,4.27-3.13c1.95.95,3.19-.81,5-2.88-5.28-.56-8.71-2.5-11.19-6.77C53.3,158.32,56.65,156,54,154Z"/><path class="cls-11" d="M110.18,166.82l4.81.06c5.93,2.62,5.16,8.33,6.11,13.25l-3.14-.35a4.42,4.42,0,0,0-3.86-1.65,12.33,12.33,0,0,0-7.1-4.81c-2.07-1.61-4.09-3.32-7-3.14-2-2-4.28-.08-6.41-.4l-2.44-1.87a4.71,4.71,0,0,1-.1-.92c5.33.09,10.61-1.52,16-.52A2.83,2.83,0,0,0,110.18,166.82Z"/><path class="cls-8" d="M102.07,62.31l-1.66.44c-1.37-2.13-3.51-2.69-5.83-2.9.13-3.12.79-6.09,4.15-7.16,3.63-1.16,7.32-1.5,10.28,1.76l-.06-.06c1.1,1.29,1.16,3.46,3.28,3.9l-.06,2c-2.28,1.29-4.72,1-7.16.75-1.53-.89-2.47-.4-2.91,1.24ZM101,58l-.24.28.55.26c0-.13.09-.28,0-.37S101.11,58.06,101,58Z"/><path class="cls-11" d="M118.7,163.72c-1-2.29-.78-4,2.16-4.31.84,3.69,3.59,6.33,5.24,9.87A7.93,7.93,0,0,1,131,164l1.32.19-.13,5.87c-2.4,3.29.43,6.66-.15,10l-4.8,0a14.57,14.57,0,0,1-3.4-5.9C122.59,170.48,122.69,166.05,118.7,163.72Zm10.72,13.07c-.15-1.66.29-3.58-1.74-4.94A4.51,4.51,0,0,0,129.42,176.79Z"/><path class="cls-14" d="M121.84,126.89a7.2,7.2,0,0,1-.13-2,4.29,4.29,0,0,1,2.78-3.23,2.17,2.17,0,0,1,2.69.64,3.1,3.1,0,0,1-.21,4.13c-3.35,3.18-3.16,6.85-2.2,10.79.5,2-1.07,2.55-2.39,3.15-1.58.71-3.31,1.05-4.54-.51A3.38,3.38,0,0,1,118,135C120.28,132.76,121.86,130.19,121.84,126.89Z"/><path class="cls-2" d="M109.41,91.67c-3.43,1-6.13,4.19-10.17,3.37a9,9,0,0,0,3.1-6.15l3.73-1.66a7.3,7.3,0,0,0,6-4c6.2-1.46,1.16,2.82,2.07,4.06l-3,3.31-1.6,1Z"/><path class="cls-10" d="M131,164a7.93,7.93,0,0,0-4.89,5.27c-1.65-3.54-4.4-6.18-5.24-9.87-.12-1.3.65-2.23,1.3-3.2l4.17-.31a3,3,0,0,1,.9,0c0,.35-.07.69-.11,1l-.18,4.15-.14.32.33-.14C129.09,161.23,131,161.34,131,164Z"/><path class="cls-15" d="M118.7,163.72c4,2.33,3.89,6.76,5.13,10.41a14.57,14.57,0,0,0,3.4,5.9l-.45.2-4,2a4.38,4.38,0,0,1-.81,0l-.91-2.07c-.95-4.92-.18-10.63-6.11-13.25C115.64,165.14,117.56,164.88,118.7,163.72Z"/><path class="cls-5" d="M102.19,99.66l3-.35c1.43,1.7.09,3.53.23,5.28-1.18,3.52-4.51,5.84-5.35,9.54-1.27.11-2,.69-1.93,2.06l0,0c-1,0-2.33-.18-1.72-1.46,1.34-2.83.43-5.76.88-8.61l.72-1,.13-.07C102.46,105.57,102.6,102.82,102.19,99.66Z"/><path class="cls-1" d="M91.08,167a4.71,4.71,0,0,0,.1.92c-3.25,1.34-8.33-.52-9.68,1.11-2.72,3.3-3.77.73-5.53-.07,0-2.88,1-4.72,4.4-4a4.47,4.47,0,0,0,3.71-.63l2.07-.07,2.88.92Z"/><path class="cls-2" d="M73.24,170.16c-2.34-1.55-3.79-4-6.76-5.09-3.22-1.2-3.53-4.8-3.36-8,.95-1.33,1.63-3,3.74-2.8a3.26,3.26,0,0,1-.47,2.82c-1,.51-1.26,1.17-.46,2.07.38,2.49.65,5.08,4.29,4.41C75.26,163.89,73.44,167.4,73.24,170.16Z"/><path class="cls-7" d="M92.8,99.19c-1.06,5.33-2,10.66-5.29,15.26-.73,1-1.19,1.35-2.23.74,2-5.18,1.4-11.24,5.44-15.7Z"/><path class="cls-11" d="M73.24,170.16c.2-2.76,2-6.27-3-6.64,4.71-1.34,9.27-.05,13.86.78a4.47,4.47,0,0,1-3.71.63c-3.41-.7-4.35,1.14-4.4,4-.67,2-1.33,4.05-2,6.07C71.16,173.78,73.39,171.79,73.24,170.16Z"/><path class="cls-7" d="M68.11,135.07h-2l-1.4-1.94.37-1c.82-.49,1.81-.84,1.89-2,.4-.5.81-1,1.2-1.5a3.81,3.81,0,0,1,5.18-1.09c1.74,1.16-.32,2.82-.49,4.29Z"/><path class="cls-15" d="M109,54.45c.17-1.56.53-3.2,2.52-2.88,2.44.39,4.68,1.37,5.41,4.6-3.08.32-5.14-2.79-8-1.78Z"/><path class="cls-14" d="M108.33,137.22c.08,1.47-.65,1.82-1.54,1.73-1.85-.19-3.64-.69-4.51-2.54a1.12,1.12,0,0,1,1.12-1.68A8.52,8.52,0,0,1,108.33,137.22Z"/><path class="cls-14" d="M94.58,59.85c2.32.21,4.46.77,5.83,2.9-.52,1.6-2.22,1.15-3.25,1.88L94,63.12C94.17,62,94.37,60.94,94.58,59.85Z"/><path class="cls-12" d="M92.8,99.19l-2.08.3c-.9-2.52,1.28-3.7,2.34-5.36C98.08,96.08,94.93,97.61,92.8,99.19Z"/><path class="cls-13" d="M114.13,87.28c-.91-1.24,4.13-5.52-2.07-4.06l0-2h0c1.67-.15,3.78-1.65,4.68.92C117.56,84.54,116.5,86.35,114.13,87.28Z"/><path class="cls-7" d="M66.86,154.22c-2.11-.23-2.79,1.47-3.74,2.8l-2.07-4.37C63,153.06,65.43,151.84,66.86,154.22Z"/><path class="cls-7" d="M105.38,104.59c-.14-1.75,1.2-3.58-.23-5.28l2.45-.84C108.44,101.08,107,102.86,105.38,104.59Z"/><path class="cls-15" d="M68.11,135.07l4.79-3.22C72.48,134.67,71.66,136.9,68.11,135.07Z"/><path class="cls-15" d="M136.14,68.29a4,4,0,0,1,0,4A2.83,2.83,0,0,1,136.14,68.29Z"/><path class="cls-14" d="M126.33,155.9l-4.17.31c.4-2.39,2.24-2,3.87-2Z"/><path class="cls-15" d="M64.75,133.12l1.4,1.94c-.81.77-1.66.89-2.24-.17C63.46,134.08,63.91,133.44,64.75,133.12Z"/><path class="cls-15" d="M110.18,166.82a2.83,2.83,0,0,1-3.12-.35C108.27,165.06,109.31,165.13,110.18,166.82Z"/><path class="cls-11" d="M89,165.15l-2.88-.92C87.42,163.58,88.5,163.49,89,165.15Z"/><path class="cls-13" d="M97.35,48.34c.14.26.42.54.37.73s-.42.36-.65.54c-.13-.24-.41-.52-.36-.72S97.12,48.52,97.35,48.34Z"/><path class="cls-7" d="M56.37,137.54A2.06,2.06,0,0,1,58,135.15,2.87,2.87,0,0,1,56.37,137.54Z"/><path class="cls-7" d="M65.93,159.11c-.8-.9-.49-1.56.46-2.07A1.82,1.82,0,0,1,65.93,159.11Z"/><path class="cls-3" d="M127.87,47.79l.12-2.61a3.13,3.13,0,0,1,2.15,2.22l-2.22.43Z"/><path class="cls-13" d="M127,96.62c1.27-.14,1.68.65,1.83,1.71A2.33,2.33,0,0,1,127,96.62Z"/><path class="cls-13" d="M98.1,116.19c-.09-1.37.66-2,1.93-2.06A2.14,2.14,0,0,1,98.1,116.19Z"/><path class="cls-15" d="M67,130.15c-.08,1.18-1.07,1.53-1.89,2A2.32,2.32,0,0,1,67,130.15Z"/><path class="cls-13" d="M109.53,91.61l1.6-1A1.32,1.32,0,0,1,109.53,91.61Z"/><path class="cls-7" d="M60.15,133.15l1-.91A.93.93,0,0,1,60.15,133.15Z"/><path class="cls-14" d="M132.18,170.07c0-2,.09-3.92.13-5.87,3-1.7.57-3.72.34-5.61,2.2-1.44,4.65-2.63,6.55-4.4,2.29-2.13,3.09-4.75,0-7.08.87-6.29,4.75-11.4,5.9-17.79-2.87-2.41-2.86-7.29-5.13-11,4.15-.59,4.9,2.72,5.84,5.43.65,1.88.62,4,3.16,4.48,5,.48,10.08.95,15.12,0l3,0c2.35-.29,5,1.71,7-.95l2,.94c0,4.35,3.27,3.78,6,4-.17,1.8-.05,3.85-2.85,3.52-3.23-.39-1.49,4.94-5,4.28-.08-.64-.15-1.27-.22-1.91,2.87-4.59,0-4.76-3.47-4.53l-2.66-.12c-5.29-1.2-10.59-2.26-16-1.8-1.93.16-4.09-.07-4.8,2.47a5.4,5.4,0,0,0-1.87,3.87c-.37,7.33-.71,14.66-1.07,22,0,1,0,1.94,0,2.91-2-.27-1.63-3.33-4.33-3.35.87,4.65,2.76,9.34-.91,13.51a1.1,1.1,0,0,0,.43,1.7c4.44,1.29,3.56,5,3.82,8.18l-2,1.14-3-1.08c-2.65-1.84-5.34-.83-7.85.16-3.39,1.33-4-.09-3.52-3l.45-.2,4.8,0c4.71.89,5.35-1.73,4.51-5.38C136,172.36,135,170.34,132.18,170.07Z"/><path class="cls-11" d="M167.91,133.53l2.66.12a6.56,6.56,0,0,0,3.47,4.53c.07.64.14,1.27.22,1.91.91,1.94-1.23,4.76,1.75,6.11l0,0-.09,7.09c-2.93,4.16-2.8,8.5-.8,13,0,.62,0,1.24,0,1.86-.9,3-1.26,6-.07,9.07,0,.65.05,1.29.07,1.93a7.3,7.3,0,0,1-4.12,2.05c-1.76-.79-2.49-1.8-2.61-4.07-.39-7.29,2.39-14.47.6-21.76a4.57,4.57,0,0,0-1.07-3.28C168.64,145.85,171.91,139.69,167.91,133.53Z"/><path class="cls-14" d="M193.54,149.37a3.82,3.82,0,0,1-.18.88c-1.53,2.24-5.27-.76-6,2-.74,3-.3,6.24-.31,9.38,0,1,.29,2,.27,3,0,1.43-1.09,2-2.31,2.12a1.74,1.74,0,0,1-1.93-2.27c1.86-5.55-1.92-11.06,0-16.55a6,6,0,0,1,1.23-2.59c1.22-1,1.58.56,2.19,1.2C188.4,148.45,191.11,148.26,193.54,149.37Z"/><path class="cls-12" d="M175.08,166.21c-2-4.46-2.13-8.8.8-13,2.54.44,4.59,2.11,3.92,4.48C178.94,160.79,179.2,164.84,175.08,166.21Z"/><path class="cls-15" d="M182.06,132.29c-2.74-.23-6,.34-6-4,4.62,1.38,9.43-1,14,.71l3.18.13c-.07,1.06-.13,2.12-.2,3.18l-5.94.06-3.2-.09Z"/><path class="cls-12" d="M189.93,178.12l1.09,1c0,1.65,0,3.29,0,4.93-1.22,1.57-.56,4.23-3,5.09-.6-3.21,1-6.44-.29-9.72C187.33,178.37,189,178.28,189.93,178.12Z"/><path class="cls-12" d="M175.06,177.14c-1.19-3-.83-6,.07-9.07C176.47,171.1,179.46,174.15,175.06,177.14Z"/><path class="cls-12" d="M191,171.2c-.13,1.7.16,3.49-1.1,4.94C186.89,173.73,187.18,172.07,191,171.2Z"/><path class="cls-14" d="M183.92,132.27l3.2.09c-.22.93-.19,2.18-1.42,2.29C184.05,134.81,184.15,133.35,183.92,132.27Z"/><path class="cls-12" d="M193.2,133.21c.68,1.24,0,1.75-1.08,2.09Z"/><path class="cls-11" d="M176,146.2l0,0Z"/><path class="cls-8" d="M137.16,313l0-8.07c1.11-2.87,1-6.82,5.91-6.19a1.42,1.42,0,0,0,1.51-1.6c-.28-4-5.23-4.78-6-8.67-.29-1.55-1.92-.39-2.92,0a2.1,2.1,0,0,1-2.68-.55c-.89-1.28.05-2.1,1-2.86,1.26-1,2.65-2,2.16-4.53-2.41,1.74-5,1.57-7.59,1.41-.16-1.64-.32-3.28-.47-4.92,1.18-2.77,1.94-5.5-.59-8a6.55,6.55,0,0,1,.19-3.94c1.4-.88,1.38-1.91.31-3a22.92,22.92,0,0,1,.87-8.94c1.42-1.28,1.36-2.63.18-4l-.27-3c.18-1.57.37-3.14.55-4.71l1.6-1.62c1.56,1.63,3.61,1.32,5.57,1.4,3.95.14,8.4-1.24,10.58,4,.49,1.18,2,.75,3-.16l2.13,1.12c-1.56,3.95.52,12.79,3.78,16,0,.3.08.6.11.9a2.27,2.27,0,0,0,1.7,2.06l.09,1.94c-2.62,4.89-.84,9.23,5,12.09l.43,1.83L163,282c-1.16,1.16-2.14,2.67-3.52,3.42-2.77,1.5-4.33,2.45-.7,5,1.79,1.28-1,5.85-4.18,6.34-2.66.43-4,.16-3.71,4.23a16.19,16.19,0,0,1-3.7,10.92C144.43,315,140.61,313.49,137.16,313Z"/><path class="cls-10" d="M171,255c-.47,5.06.72,10,1.06,15-.07,1.28-.15,2.56-.22,3.83-2.42,2.16-5.37,2.84-8.49,3a2.75,2.75,0,0,1-1-2.62c1.36-.94,1.58-1.75-.27-2.31h0l.09-2c2.54-3.67,1.32-8.44-2.84-11.16l-.25-1.85c.09-1.33,1.17-2.68-.1-4,0-1.32,0-2.63,0-3.94l-.68-3a7.69,7.69,0,0,1-1.15-5c1.14-1.21.72-3.53,2.87-4a4.46,4.46,0,0,0,1.67,3.46c3.21,2.71,3.23,6.37,2.46,9.95-.37,1.7-1.26,3,.67,4.26S168.81,257.17,171,255Z"/><path class="cls-12" d="M196.94,298.1c-1.6.3-2,1.43-1.93,2.84-2.42-.45-3.68.67-4,3H189.8q-.9-3.51-1.79-7c2.5-1.85,6.13-.61,8.41-3.11a1.11,1.11,0,0,1,1.73,0C199.43,295.63,197.37,296.66,196.94,298.1Z"/><path class="cls-12" d="M163.33,276.88c3.12-.19,6.07-.87,8.49-3,.64,6.61-4.48,6.16-8.55,7-.14-.61-.29-1.22-.43-1.83C163,278.3,163.17,277.59,163.33,276.88Z"/><path class="cls-12" d="M179,286.85c-3-1-6.37,1.72-9.29-.75,2-2.89,5.65-1.73,8.39-3.06C179.47,282.38,179.77,285.21,179,286.85Z"/><path class="cls-7" d="M189.47,286.42c-.31.42-.49.94-.79,1a.9.9,0,0,1-1.22-.93,1.17,1.17,0,0,1,.8-.83C188.61,285.67,189,286.09,189.47,286.42Z"/><path class="cls-7" d="M206.25,278.14c-.12.05-.27.16-.37.13s-.17-.19-.24-.3l.59-.22Z"/><path class="cls-7" d="M197.32,286l-.25.3-.32-.56c.13,0,.29-.13.38-.08S197.26,285.87,197.32,286Z"/><path class="cls-7" d="M193.2,286.24l-.4,0,.18-.64c.12.07.31.12.34.22S193.25,286.11,193.2,286.24Z"/><path class="cls-7" d="M169,155.29c1.79,7.29-1,14.47-.6,21.76.12,2.27.85,3.28,2.61,4.07v2c-1.13.69-2.14,1.44-1.21,3,0,1.28,0,2.55,0,3.83-4-.1-5.73,3.41-8.37,5.44-1.42,1.09-.56,1.94.79,2.4,1,.36,2.28-.84,3.22.52-.22,2.47-3.42,4-2.68,6.59.86,3-1.19,4.12-2.81,5.65l-9.91.39c.26-1.64-1.28-3.41.72-5s4.47-4.14,3.53-6.44c-1.12-2.75-4.66-1-7.13-1.36a8.17,8.17,0,0,0-1,0c-.68-2-3.42-2.71-3.3-5.23a5.74,5.74,0,0,1,1.24-3.78c5.16.29,9.73-1.79,14.39-3.53.78-.29,1.94-.52,1.7-1.48-1.56-6.22.58-12.22,1.05-18.3.45-5.75.34-6-5.44-4.41-1.63.16-3.38-.24-4.74,1.09l-4-.14-.87-1.38.24-5.39c.32-7.12,1.23-14.23.7-21.39.71-2.54,2.87-2.31,4.8-2.47,5.46-.46,10.76.6,16,1.8,4,6.16.73,12.32,0,18.49-1.34.33-3-.43-4.07,1.21C165,155.5,167.11,155.1,169,155.29Z"/><path class="cls-14" d="M150,210.91l9.91-.39c5.76-.29,11.57.18,17.23-1.35a11.34,11.34,0,0,0,2.4,0c4.24-.82,5.56.94,4.48,4.92a30.61,30.61,0,0,1-3.13-1.12c-1-.47-2.21-1.41-2.87,0-.54,1.16-1.29,2.82.43,3.87a20.82,20.82,0,0,0,2.64,1.18,4.35,4.35,0,0,1-2,3.1c-5.71,3.59-7.18,6.32-4,9.87-2,2.13-5.53,3.87-1.51,7.34a2.82,2.82,0,0,1,.14,2.78c-4.17,4-1.5,9.32-2.76,13.85-2.17,2.17-4.14,1-6.17-.3s-1-2.56-.67-4.26c.77-3.58.75-7.24-2.46-9.95A4.46,4.46,0,0,1,160,237l-.06-3c3.51-2.91,4.76-9.37,1.84-11-4.77-2.73-8.94-6.84-14.88-7.17-.31-1.45-.61-2.91-.92-4.37Zm13.85,7.14c.47,3.06,2.34,3.12,4.39,2.75.68-.12,1.43-.7,1.12-1.28C168.09,217.13,165.51,219.45,163.85,218.05Z"/><path class="cls-11" d="M177.14,209.17c-5.66,1.53-11.47,1.06-17.23,1.35,1.62-1.53,3.67-2.64,2.81-5.65-.74-2.61,2.46-4.12,2.68-6.59-.94-1.36-2.19-.16-3.22-.52-1.35-.46-2.21-1.31-.79-2.4,2.64-2,4.35-5.54,8.37-5.44-1.2,5.77,1,11.05,2.47,16.4C172.9,208.72,175.76,207.76,177.14,209.17Z"/><path class="cls-10" d="M175.11,231c-3.21-3.55-1.74-6.28,4-9.87C178.54,224.77,178.79,228.69,175.11,231Z"/><path class="cls-10" d="M181.09,218.06a20.82,20.82,0,0,1-2.64-1.18c-1.72-1-1-2.71-.43-3.87.66-1.43,1.85-.49,2.87,0a30.61,30.61,0,0,0,3.13,1.12C184.11,216.22,182.84,217.31,181.09,218.06Z"/><path class="cls-11" d="M169.8,186.09c-.93-1.53.08-2.28,1.21-3C172.17,184.75,171,185.43,169.8,186.09Z"/><path class="cls-15" d="M139.15,147.11c3.14,2.33,2.34,4.95,0,7.08-1.9,1.77-4.35,3-6.55,4.4l-2.59-1.44v-2c1.81-1.11,2.14-4.39,6.1-2.14C138.27,154.24,138.76,149.55,139.15,147.11Z"/><path class="cls-14" d="M130.05,155.17c0,.66,0,1.32,0,2l-2.94-.22c0-.35.08-.69.11-1Z"/><path class="cls-12" d="M193.26,129.12l-3.18-.13c-.58-3.29,1.47-7.78-4-8.82,0-.3-.07-.6-.1-.91l-.93-3.05c3.17.49,4.92,5.43,9.05,2.88a33.8,33.8,0,0,1,.78,9.14Z"/><path class="cls-14" d="M185.94,119.26c0,.31.07.61.1.91-.31,1.12-.72,2.21-1.93,2.62s-2.78.44-3.29-1.06c-.61-1.77.89-2.19,2.21-2.39A23.46,23.46,0,0,1,185.94,119.26Z"/><path class="cls-16" d="M55.21,261.82a2.53,2.53,0,0,0,.11-.6c0-3.4-1.06-6.59-1.84-9.84,1.31-8.24,4.81-16,5.63-24.33l7.2-23.91a4.81,4.81,0,0,0,.85,0c3.59-3.06,6.06.36,8.76,1.67C78.41,206,78.32,208.6,78,211c-.47,3.78-1.07,7.54-1.62,11.31l0,1.75c-1.91,1-2.32,2.69-2.31,4.61a10.21,10.21,0,0,1-1.5,5.19C69.7,239,68.71,244.36,71.18,250c-1.63,1-2.15,2.23-1.29,4.16,1.73,3.9,3.44,7.8,6.23,11.09.72.84,2.36,2.16,1.22,2.71-4.9,2.38-1.28,5.09-.18,7,2.52,4.44,2.6,9.87,6,13.87.38.68.75,1.37,1.12,2.05-1.19,1.14-.39,2,.35,2.95,5.71,7.26,8.3,15.82,10.37,24.61l-4.4,1.06c-4.24.21-8,1.45-10.59,5.07l-.08.33.27.19-2.17.67-2.91,1-2.82-15.93L72.23,305c1.16-3.46,1.85-6.7-2.11-9.11-.94-.58-1.47-2.25-1.68-3.5-1.14-6.58-4-12.62-5.9-19C61.22,269.05,60.78,263.67,55.21,261.82Z"/><path class="cls-1" d="M66.31,203.14l-7.2,23.91c-2.15-1.09-4.49-5.32-6.22.41-.3,1-1.23,1-2,.63-5.56-2.89-6.23,1.66-7.69,5-.59.82-1.64,2-2.32,1.13-2.45-3-3.8-.14-5.54.76.15-1.8.4-3.63-1.29-5-.91-4.65-2.22-9.3,0-13.95.88-1.94,1.76-3.87,2.63-5.81a9.27,9.27,0,0,0,3.94-2c1.4-1,2.83-1.33,3.44.8,1.36,4.79,4.48,4.55,8.13,3,2.12-1.19,4.56-.69,6.77-1.28s4-1.34,1.51-4c-2-2.2-1.76-4.67.84-8.09C60.84,204,63.47,203.77,66.31,203.14Z"/><path class="cls-3" d="M52.15,212.08c-3.65,1.56-6.77,1.8-8.13-3-.61-2.13-2-1.85-3.44-.8a9.29,9.29,0,0,1-3.93,2c-.84-3.81.63-8.36-3.52-11.12A3.23,3.23,0,0,0,31.21,197c.43-2.65-3.08-6.68,2.64-7.57.23,0,.29-1.52.31-2.33,0-2,0-4,0-5.93v-9c-3.2-2.53-3.22-5.37-1-8.58.81-1.16,1.6-2.63,3-1.35,1.19,1.11,4.32,2,3,3.82-3.71,5.12-.54,9.16,1.38,13.35,1.46,3.18,2.12,5.25-2.66,4.25a1.3,1.3,0,0,0-1.65.71c-.36,1,.52,1.45,1.23,1.85a7.28,7.28,0,0,0,5.78.44c.82-.22,1.76-.32,2.18.58s-.4,1.46-1.19,1.75c-1,.38-2.62.23-2.46,1.86s1.72,1.8,3,2.14c6.4,1.69,6.69,3.23,6,10.11C50.54,205.69,45.93,210.1,52.15,212.08Z"/><path class="cls-5" d="M76.41,222.26C77,218.49,77.56,214.73,78,211c.29-2.35.38-4.95-2.11-6.16-2.7-1.31-5.17-4.73-8.76-1.67,0-.7,0-1.4,0-2.1,1.24-3.65,4.07-6.74,3.87-10.91q.13-3,.26-6l1.81-.89c3-.4,4.29.94,4,3.9-2.25-1-2.93.07-2,2,1.72,3.68,3,7.33,2.09,11.49a3,3,0,0,0,.75,2.3c2.59,2.71,2.3,6,2.31,9.35,0,2-.34,4,.84,5.8L80.79,220C78.94,220,77.92,221.6,76.41,222.26Z"/><path class="cls-1" d="M34.17,172.14c0,1,0,2,0,3-3.17.63-3.52,3.29-3.24,5.57.23,1.81,2.11.27,3.24.41,0,2,0,3.95,0,5.93,0,.81-.08,2.3-.31,2.33-5.72.89-2.21,4.92-2.64,7.57l-2.91.18c-2.05-3.16-.76-6.67-1.09-10,1.58-2.59.8-5.32.57-8.06C27.32,173.45,28.46,172.29,34.17,172.14Z"/><path class="cls-7" d="M21.07,191.11c-1.45-.14-2.63-.7-2.75-2.31-.41-5.42-.83-10.85-1.07-16.28-.15-3.41,2.31-3.47,4.79-3.3q0,8.42,0,16.81c-1,.39-1.77.9-.84,2.08Z"/><path class="cls-6" d="M27.21,187.11c.33,3.35-1,6.86,1.09,10L27.06,201l-2.19.56-2.69-.43c-.57-3.35-1.32-6.69-.09-10C25.82,192.36,24.8,187.54,27.21,187.11Z"/><path class="cls-5" d="M21.36,162.09c0-1.62,0-3.23,0-4.84,5.44.17,8.38,4.43,5.91,8.87-1.05,1.89-3.31.74-5,1,0-.65,0-1.3,0-2C23.33,163.73,23,162.74,21.36,162.09Z"/><path class="cls-7" d="M71,190.11c.2,4.17-2.63,7.26-3.87,10.91-3.58-4-.1-7.34,1.11-10.89A2.77,2.77,0,0,1,71,190.11Z"/><path class="cls-8" d="M71,190.11a2.77,2.77,0,0,0-2.76,0c-.09-2.25-.36-4.55,1.89-6.08l1.13.09Q71.12,187.13,71,190.11Z"/><path class="cls-8" d="M21.16,188.11c-.93-1.18-.2-1.69.84-2.08Z"/><path class="cls-7" d="M18.21,230c4.86-6-.09-12.92,1.66-19.28.69-2.51-.68-4.5-3.67-4.68-.05-2.09.69-3.62,2.94-4.06l1.07.09c1.29,2.36,2.08,5.71,5.93,3L29,206.13c-.35,1-.69,2-1,3.05-7,2.77-7.74,5.45-2.65,10a32.93,32.93,0,0,1-.05,13.34l-1.5.67c-2-.75-3.25-2.88-5.53-3.17Z"/><path class="cls-11" d="M26.14,205.07c-3.85,2.75-4.64-.6-5.93-3l2-.94,2.69.42C25.3,202.75,25.72,203.91,26.14,205.07Z"/><path class="cls-2" d="M21.36,162.09c1.59.65,2,1.64.86,3A3.57,3.57,0,0,1,21.36,162.09Z"/><path class="cls-11" d="M105,61c2.44.23,4.88.54,7.16-.75,2.36,1.49,3.87,3.2,1.55,5.94-.3.35-.7.94-.59,1.27,3,9.22-6.22,10.4-9.9,15.22L100,82a2.31,2.31,0,0,0,0-2.57c1-1.74,3.59-2,4.18-4.18,1.38-.52,2.75-1.06,4.15-1.53,2-.67,3-2,2.59-4.12-.49-2.39-2.25-1.24-3.55-1-1.53.31-2.86.08-2.84-1.66,0-2.12-2.32-2.76-2.5-4.64l0,0A3.33,3.33,0,0,0,105,61Z"/><path class="cls-9" d="M112.08,81.27l0,2a7.3,7.3,0,0,1-6,4C106.18,83.34,108.86,82,112.08,81.27Z"/><path class="cls-14" d="M100,82l3.21.72c-2.47,2.15-4.88,2.24-7.22-.21Z"/><path class="cls-8" d="M72.29,310.89l2.82,15.92.21,1.52-1.75,2.4-2.52,3-1.64.53c5.26-7.62.43-15.56.73-23.34Z"/><path class="cls-7" d="M72.29,310.89l-2.15,0-1.09-2a9,9,0,0,0,.11-.91c.08-.12.26-.25.24-.36a4.56,4.56,0,0,0-.22-.78h0c0-1-.07-2-.1-2.94-.87-1.58-2.13-3-2-5,4,.08,3.58,3.86,5.09,6Z"/><path class="cls-14" d="M69.41,334.26l1.64-.53.26,1.35a.52.52,0,0,1-.29.65C70.05,335.72,69.76,335,69.41,334.26Z"/><path class="cls-12" d="M162.32,299c4.26,3.37,3.08,11-2,13.08-.08-2.72-.19-5.44-.24-8.16C160,301.88,160.12,299.92,162.32,299Z"/><path class="cls-14" d="M173,300.93c-2.73-1.13-5.6-2.05-7-5,2.93-1.29,6-.8,9.06-.82,2.21,3-1.62,3.81-2.06,5.85Z"/><path class="cls-12" d="M160,313a8.44,8.44,0,0,1,0,.87,4,4,0,0,1-.32-.61S159.93,313,160,313Z"/><path class="cls-14" d="M173,301c1.46.25,3.39.42,2.29,2.55-.78,1.5-2.08,3-4.15,2.88-.47,0-1-.75-1.3-1.29a1.31,1.31,0,0,1,.78-2,3.23,3.23,0,0,0,2.4-2.2Z"/><path class="cls-11" d="M189.8,303.94H191l-1,1Z"/><path class="cls-15" d="M127.69,265a6.55,6.55,0,0,0-.19,3.94c-.24.66-.47,1.33-.7,2-1.59.73-1.5,1.41,0,2.06l.25,3.95c-1.86,2.17,0,5.79-3,7.57-.15.08-.17.79,0,.87,5.79,3.69,2.25,10.58,5.31,15.35,2.28,3.55-1,6.92-2.21,10.16-.42,1.11-4,.22-4.19,3.06a4.16,4.16,0,0,1-3.93-2c-.29-2.1-5.06-4.48.36-6.3a4.9,4.9,0,0,0-.45-1.8,6.84,6.84,0,0,1-.32-5.75c1.45-3.92-.25-6.31-3.51-8.11a39.65,39.65,0,0,1,1-12l.86-.62-.63-.45c.06-1.64.13-3.27.19-4.91,1.45-.41,2.46,1.83,4,.77,0-3,.37-5.95-1.38-8.77H127Zm-.32,37.82-.28-.25-.25.55c.12,0,.28.09.36,0S127.32,303,127.37,302.84Z"/><path class="cls-13" d="M119.07,311.94a4.16,4.16,0,0,0,3.93,2c1,1.27,1,3.18,2.58,4L124,319.77a2.83,2.83,0,0,0-2.55,1.51.81.81,0,0,0-.67.17c-6.58,2.1-13,4.48-18.68,8.56l-1.93.23c-.85-.21-1.67-.33-2,.77l-2.51.46-2-.63c.19-.95.39-1.9.59-2.86,1.88-.2,3.29-1.35,4.76-2.39,1.2.08,2.18-.12,2.11-1.66v0c4.8-1.23,7.39-5.14,10.4-8.55l1.57-.52C115.4,314.65,116.89,312.58,119.07,311.94Z"/><path class="cls-7" d="M128.56,281.88c2.59.16,5.18.33,7.59-1.41.49,2.55-.9,3.52-2.16,4.53-.94.76-1.88,1.58-1,2.86a2.1,2.1,0,0,0,2.68.55c1-.37,2.63-1.53,2.92,0,.72,3.89,5.67,4.67,6,8.67a1.42,1.42,0,0,1-1.51,1.6c-4.87-.63-4.8,3.32-5.91,6.19a19.16,19.16,0,0,0-5.28-9.32C128.51,292.11,128.85,286.68,128.56,281.88Z"/><path class="cls-7" d="M127.1,277c-.08-1.31-.16-2.63-.25-3.95,0-.69,0-1.37,0-2.06.23-.66.46-1.33.7-2,2.53,2.5,1.77,5.23.59,8h-1Z"/><path class="cls-13" d="M90.59,319.57l4.4-1.06,4.79.92,1.67.87c-.24,1.2-1.33,2.32-.4,3.65v0l-1.93-.05c-3.09-1.92-5.4-1.17-7,2-3.7.79-5.84,3.84-8.59,6-3.84-.9-3.36-3.93-3.32-6.74l-.27-.19.08-.33C84.45,324.87,87.68,322.54,90.59,319.57Z"/><path class="cls-15" d="M71.31,335.08l-.26-1.35,2.52-3C76,333.2,76,333.2,71.31,335.08Z"/><path class="cls-7" d="M75.32,328.33l-.21-1.52,2.91-1A3.8,3.8,0,0,1,75.32,328.33Z"/><path class="cls-11" d="M98.13,331c.36-1.1,1.18-1,2-.77C99.78,331.3,99.23,331.87,98.13,331Z"/><path class="cls-11" d="M121.44,321.28a2.83,2.83,0,0,1,2.55-1.51C123.7,321.21,122.88,321.78,121.44,321.28Z"/><path class="cls-7" d="M92.1,325.91c1.62-3.2,3.93-4,7-2l-.18,1.71c-1.47,1-2.88,2.19-4.76,2.39Z"/><path class="cls-10" d="M104.22,75.25c-.59,2.19-3.13,2.44-4.18,4.18-2.86-.4-3.91-2.54-3.76-4.91.11-1.62,1.79-2.62,3.55-3C103,70.75,102.87,73.86,104.22,75.25Z"/><path class="cls-8" d="M35.31,235c1.74-.9,3.09-3.76,5.54-.76.68.83,1.73-.31,2.32-1.13h1.91c-.09.65-.2,1.31-.27,2-.21,1.89-4.16,1.91-2.69,4s4.27.78,6.52.36c.81-.16,1.64-.22,2.46-.32-.31.65-.62,1.31-.94,2-2.61.36-4.69,1.95-7,3l-14,.87c-.84-2.29-.24-4.57.07-6.86a8.75,8.75,0,0,0,.87-.27C32.49,238.14,34,236.78,35.31,235Z"/><path class="cls-1" d="M51.1,239.09c-.82.1-1.65.16-2.46.32-2.25.42-5,1.73-6.52-.36s2.48-2.1,2.69-4c.07-.65.18-1.31.27-2,1.35.49,2.73,1.43,4.06,1.38C54.15,234.32,52.81,236.56,51.1,239.09Z"/><path class="cls-7" d="M29.19,238.07c-.31,2.29-.91,4.57-.07,6.86l-3.93-.9c-.18-1.27.28-2.91-1.3-3.47s-2.21,1-3.07,2a18.64,18.64,0,0,1-1.47,1.32l-1.15,0c0-1-.05-1.95-.08-2.93.39-1,.79-1.9,1.18-2.86l4-1.07C24.91,239.4,27.44,236.53,29.19,238.07Z"/><path class="cls-1" d="M48.18,260.57c-.81,3-2.57,4.93-5.72,5.22-1.06.1-2.33-.84-1.74-1.72,1.72-2.55,3.54-5.26,6-7C47.62,256.41,47.85,259.23,48.18,260.57Z"/><path class="cls-4" d="M43.16,244.06c2.31-1.05,4.39-2.64,7-3-.13,1.28.1,2.77-.5,3.78-1,1.75-2.57,4.15-4.39,4C43.17,248.73,43.48,245.89,43.16,244.06Z"/><path class="cls-8" d="M19.35,243.85a18.64,18.64,0,0,0,1.47-1.32c.86-.95,1.42-2.56,3.07-2s1.12,2.2,1.3,3.47a3.16,3.16,0,0,1-3.46,2.83C19.77,246.81,19.27,245.55,19.35,243.85Z"/><path class="cls-7" d="M53.48,251.38c.78,3.25,1.87,6.44,1.84,9.84L53.11,261a31.39,31.39,0,0,1-1.81-5.59C51.08,253.82,50.53,251.5,53.48,251.38Z"/><path class="cls-4" d="M46.13,282.27c-.89.08-1.45-.22-1.25-.7a4,4,0,0,1,1.44-1.78c.65-.41,1.38,0,1.1.84A6.13,6.13,0,0,1,46.13,282.27Z"/><path class="cls-4" d="M46.91,251.57c.42.49.87.78.88,1.08a1.43,1.43,0,0,1-.57,1.11c-.54.28-.88-.21-.85-.71A6.24,6.24,0,0,1,46.91,251.57Z"/><path class="cls-8" d="M72.23,305c-1.51-2.16-1.12-5.94-5.09-6-2.36-2.44-2.53-5.74-3.11-8.76-1.78-9.12-3.87-18.09-9.11-26-.33-.51.17-1.56.29-2.36,5.57,1.85,6,7.23,7.33,11.58,1.92,6.33,4.76,12.37,5.9,19,.21,1.25.74,2.92,1.68,3.5C74.08,298.26,73.39,301.5,72.23,305Z"/><path class="cls-2" d="M69.1,303.93c0,1,.07,2,.1,2.94-1.46-.26-4,.87-4.06-1.28S67.58,304.13,69.1,303.93Z"/><path class="cls-2" d="M69.18,306.88a4.56,4.56,0,0,1,.22.78c0,.11-.16.24-.24.36C69.16,307.64,69.17,307.26,69.18,306.88Z"/><path class="cls-8" d="M23.3,237l-4,1.07c-.13-2.72-2.67-5.11-1.09-8.06,2.28.29,3.51,2.42,5.53,3.17C23.59,234.48,23.45,235.76,23.3,237Z"/><path class="cls-7" d="M102.19,99.66c.41,3.16.27,5.91-4.11,5.46C99.21,103.12,99.71,100.64,102.19,99.66Z"/><path class="cls-7" d="M98,105.19l-.72,1C97.1,105.57,97.33,105.23,98,105.19Z"/><path class="cls-16" d="M77.06,187.15c.28-3-1-4.3-4-3.9.31-2.74.62-5.49.92-8.23.67-2,1.33-4,2-6.07,1.76.8,2.81,3.37,5.53.07,1.35-1.63,6.43.23,9.68-1.11.82.62,1.63,1.25,2.44,1.88-.25,1.24-.94,2.71.38,3.58s1.76-.87,2.62-1.43a37.83,37.83,0,0,1,3.41-1.76c2.88-.18,4.9,1.53,7,3.14-.08,2.75,0,5.47,1.4,8q0,3.83,0,7.65c-.62,1.79-2.31,3.24-1.67,5.44,1.41,4.78.23,10,2.6,14.63a41.42,41.42,0,0,0-2.2,14l-1.1,6c-3.12,2.74-2.37,6.54-2.75,10,.47,5.63-2.7,11-1.32,16.69-.52,2.53,1,4.74,1.1,7.18-1.52,3.33-1.19,7-1.8,10.48-.57,3.3-1.84,5.45-5.06,6.36a.56.56,0,0,0-.64,0,3.58,3.58,0,0,0-1.5-2.81c0-1.61-.34-3.1-1.84-4A15.2,15.2,0,0,0,89.88,267c-4.31-7.09-7-14.61-6.1-23.06a29.55,29.55,0,0,0,.86-14.07c1.09-9.9,1.21-19.85,1.47-29.79l1.2-.95c2.06-.28,4.49-.83,4-3.3-.37-2.08-1.9-5.35-3.32-5.57-2.6-.4-2.1,3-2.92,4.82a1.94,1.94,0,0,0-.1.49C80.58,194.46,79.56,190.11,77.06,187.15Zm7.09-3.32c-.27.29-.58.48-.6.69s.17.69.35.74c.56.15.84-.23.77-.75C84.64,184.28,84.35,184.08,84.15,183.83Z"/><path class="cls-7" d="M108.42,188.94q0-3.83,0-7.65c2.47,0,3.33-3,5.7-3.16a4.4,4.4,0,0,1,3.86,1.66c-.06.41-.11.83-.17,1.24a4.19,4.19,0,0,0-2.31,4.49c.92,4.91-1,9.66-.43,14.51-1.12,1.16-1,2.69-1.25,4.12-3.6-2.12-4.06-5.06-2.65-8.8C112.19,192.58,113.36,189.35,108.42,188.94Z"/><path class="cls-10" d="M117.79,181c.06-.41.11-.83.17-1.24l3.14.34c.3.69.6,1.38.91,2.07-1.06,1.44-.56,3.22-1,4.75-1.25,4.44.24,9.78-4.21,13.19A3,3,0,0,1,116,200C118.45,193.86,118.31,187.46,117.79,181Z"/><path class="cls-1" d="M114.1,178.13c-2.37.2-3.23,3.13-5.7,3.16-1.38-2.5-1.48-5.22-1.4-8A12.33,12.33,0,0,1,114.1,178.13Z"/><path class="cls-1" d="M100,170.18a37.83,37.83,0,0,0-3.41,1.76c-.86.56-1.22,2.35-2.62,1.43s-.63-2.34-.38-3.58C95.75,170.1,98,168.19,100,170.18Z"/><path class="cls-7" d="M105,61a3.33,3.33,0,0,1-2.91,1.24C102.54,60.64,103.48,60.15,105,61Z"/><path class="cls-7" d="M101,58c.12.06.29.08.34.17s0,.24,0,.37l-.55-.26Z"/><path class="cls-12" d="M132.18,170.07c2.78.27,3.84,2.29,4.36,4.6.84,3.65.2,6.27-4.51,5.38C132.61,176.73,129.78,173.36,132.18,170.07Z"/><path class="cls-12" d="M127.12,156.93l2.94.22,2.59,1.44c.23,1.89,2.65,3.91-.34,5.61L131,164c0-2.67-1.9-2.78-3.86-2.75l-.19-.18Z"/><path class="cls-12" d="M129.42,176.79a4.51,4.51,0,0,1-1.74-4.94C129.71,173.21,129.27,175.13,129.42,176.79Z"/><polygon class="cls-12" points="127.13 161.26 126.8 161.41 126.94 161.08 127.13 161.26"/><path class="cls-13" d="M126.78,180.23c-.46,2.91.13,4.33,3.52,3,2.51-1,5.2-2,7.85-.16-2.24,1.26-5.05,1.93-4.51,5.58,1.2,8.15-2.16,10.78-10.62,8.44q-.1-7.46-.2-14.9Z"/><path class="cls-12" d="M122.82,182.19q.09,7.44.2,14.9a11.91,11.91,0,0,0-3.51,3.95c-1.84,2.84-2.27.84-2.7-.9,4.45-3.41,3-8.75,4.21-13.19.43-1.53-.07-3.31,1-4.75A4.38,4.38,0,0,0,122.82,182.19Z"/><path class="cls-10" d="M144.07,189.13a5.68,5.68,0,0,0-1.23,3.78c-2.66,2.13-1.7,5.3-2.31,8-.09.93-.18,1.86-.26,2.79-.54.35-1.09.69-1.64,1l-3.82,5.43-.75,1-1.93-.35c-2.7-2.41-2.36-4.71.4-6.72a16,16,0,0,0,3.54-4l5-16,2-1.13,1.82,0c2.34.05,5.09.21,5.74-2.57,1-4.4,3.32-8.63,2.27-13.39,2.07-2.68-1.69-2.9-1.94-4.6,1.36-1.33,3.11-.93,4.74-1.09,3.29,5.86-2.08,12,.55,17.91.1.21-.5.81-.87,1.12-2.5,2.15-4.76,4.82-8.5,4.56C143.54,184.75,143.69,186.83,144.07,189.13Z"/><path class="cls-15" d="M141.11,184.15l-5,16c-4.68.59-7.9,4.88-12.47,5.29-3.47.32-3.53,2.15-3.48,4.59l-3.8.1L114.49,209l-.69-4.89c.25-1.43.13-3,1.25-4.12l.48,0,.49,0a3,3,0,0,0,.79.13c.43,1.74.86,3.74,2.7.9a11.91,11.91,0,0,1,3.51-3.95c8.46,2.34,11.82-.29,10.62-8.44-.54-3.65,2.27-4.32,4.51-5.58Z"/><path class="cls-13" d="M145,183.06l-1.82,0c-.26-3.2.62-6.9-3.82-8.19a1.1,1.1,0,0,1-.43-1.7c3.67-4.17,1.78-8.86.91-13.51,2.7,0,2.35,3.08,4.33,3.36,1,.1,2.07.34,2.86-.61l4,.13c.25,1.7,4,1.92,1.94,4.6C147.62,171.08,147.9,177.88,145,183.06Z"/><path class="cls-11" d="M147.06,134.2c.53,7.16-.38,14.27-.7,21.39l-.24,5.39-2-.92c.36-7.33.7-14.66,1.07-22A5.4,5.4,0,0,1,147.06,134.2Z"/><path class="cls-10" d="M174,138.18a6.56,6.56,0,0,1-3.47-4.53C174,133.42,176.91,133.59,174,138.18Z"/><path class="cls-10" d="M144.12,160.06l2,.92.87,1.38c-.79,1-1.84.72-2.86.62C144.12,162,144.12,161,144.12,160.06Z"/><path class="cls-12" d="M169,155.29c-1.89-.19-4,.21-5.14-2.06,1-1.64,2.73-.88,4.07-1.21A4.53,4.53,0,0,1,169,155.29Z"/><path class="cls-14" d="M127,264h-7.71c1.75,2.82,1.39,5.77,1.38,8.77-1.58,1.06-2.59-1.18-4-.77-.37-15.62,2.09-31.23.55-46.9-3,5.42-2.31,11.67-4.85,17.06l-2.76-1.62c.38-1.82.77-3.63,1.15-5.44,1-.54,1.27-1.21.36-2.08.2-.94.41-1.87.61-2.8,1-.55,1.2-1.26.46-2.18l-.26-4c.38-1.33.75-2.66,1.13-4l1.88-2.14c4.72,4.48,6.16,10.09,5.7,16.39A63.43,63.43,0,0,0,121,248c.16,1.09-.35,2.56,1,3.09s1.87-1,2.56-1.78c1.17-1.41,2.33-2.81,4.21-3.31l.27,3a4.21,4.21,0,0,0-.18,4A22.92,22.92,0,0,0,128,262Z"/><path class="cls-15" d="M128.78,246c-1.88.5-3,1.9-4.21,3.31-.69.82-1.08,2.37-2.56,1.78s-.82-2-1-3.09a63.43,63.43,0,0,1-.48-13.7c.46-6.3-1-11.91-5.7-16.39.11-1.63-.21-3.33.83-4.8,2.85,1.32,7.71,2.15,8.18,4.06,1.47,5.93,5.26,3.92,8.68,3.88-.12,1-.25,2.05-.37,3.07l0,3c-3.41,3.39-2.78,7.81-3.07,12l-.1,1,.38,1.22C129.15,242.84,129,244.41,128.78,246Z"/><path class="cls-7" d="M150.06,244.87c-1,.91-2.49,1.34-3,.16-2.18-5.22-6.63-3.84-10.58-4-2-.08-4,.23-5.57-1.4-.31-4.4.89-8.53,2.36-12.6,3.11.4,7.6,4.65,7.87-2.84h4.77c-.24,3.51.47,6.28,4.12,8.1,2.5,1.25,3.93,3.78,1.35,6.49C149.67,240.61,150.19,242.78,150.06,244.87Z"/><path class="cls-11" d="M150.06,244.87c.13-2.09-.39-4.26,1.34-6.08,2.58-2.71,1.15-5.24-1.35-6.49-3.65-1.82-4.36-4.59-4.12-8.11,4.32.28,4.51,5.68,8.25,6.68l1.72-.06,1.19.22,0,3c-2.32,2.37-2.44,4.7.08,7a7.69,7.69,0,0,0,1.15,5c-1.51,1.39-1,2.33.68,3,0,1.31,0,2.62,0,3.94-2.5,1.38-2.51,2.71.1,4,.08.61.17,1.23.25,1.85-.38,1.37-.75,2.74-1.13,4.12l-2.09,0c0-.3-.07-.6-.11-.9-.79-5.45.65-11.43-3.78-16Z"/><path class="cls-7" d="M152.19,246c4.43,4.6,3,10.58,3.78,16C152.71,258.78,150.63,249.94,152.19,246Z"/><path class="cls-7" d="M163.33,276.88c-.16.71-.32,1.42-.49,2.13-5.81-2.86-7.59-7.2-5-12.09a2.86,2.86,0,0,0,2,2.15,5.87,5.87,0,0,1,.19.83,2.13,2.13,0,0,0,1.94,2.05h0l.27,2.31A2.75,2.75,0,0,0,163.33,276.88Z"/><path class="cls-10" d="M133.29,227.05c-1.47,4.07-2.67,8.2-2.36,12.6l-1.6,1.62c-.13-.41-.26-.81-.38-1.22,0-.33.07-.67.1-1,.29-4.18-.34-8.6,3.07-12Z"/><path class="cls-11" d="M159.92,269.07a2.86,2.86,0,0,1-2-2.15l-.09-1.94h.51C160.2,265.8,160,267.47,159.92,269.07Z"/><path class="cls-7" d="M128.87,253a4.21,4.21,0,0,1,.18-4C130.23,250.41,130.29,251.76,128.87,253Z"/><path class="cls-7" d="M127,264l1-2c1.07,1.13,1.09,2.16-.31,3Z"/><path class="cls-7" d="M156.08,262.92l2.09,0,.12,2h-.51A2.27,2.27,0,0,1,156.08,262.92Z"/><path class="cls-12" d="M158.29,265l-.12-2c.38-1.38.75-2.75,1.13-4.12,4.16,2.72,5.38,7.49,2.84,11.16l-2-.09a5.87,5.87,0,0,0-.19-.83C160,267.47,160.2,265.8,158.29,265Z"/><path class="cls-12" d="M157.14,241.05c-2.52-2.31-2.4-4.64-.08-7l2.89,0,.06,3C157.86,237.52,158.28,239.84,157.14,241.05Z"/><path class="cls-12" d="M159.05,257c-2.61-1.27-2.6-2.6-.1-4C160.22,254.3,159.14,255.65,159.05,257Z"/><path class="cls-12" d="M159,249.06c-1.66-.67-2.19-1.61-.68-3C158.52,247.06,158.75,248.06,159,249.06Z"/><path class="cls-11" d="M160.11,269.9l2,.09-.09,2A2.13,2.13,0,0,1,160.11,269.9Z"/><path class="cls-11" d="M162.32,274.26l-.27-2.31C163.9,272.51,163.68,273.32,162.32,274.26Z"/><path class="cls-11" d="M144.07,189.13c-.38-2.3-.53-4.38,2.88-4.13,3.74.26,6-2.41,8.5-4.56.37-.31,1-.91.87-1.12-2.63-5.91,2.74-12-.55-17.91,5.78-1.61,5.89-1.34,5.44,4.41-.47,6.08-2.61,12.08-1.05,18.3.24,1-.92,1.19-1.7,1.48C153.8,187.34,149.23,189.42,144.07,189.13Z"/><path class="cls-8" d="M140.26,203.72l.27-2.78,2.52-.83c1.4,0,2.57-.41,3-1.92l.07-.05a8,8,0,0,1,1,0c2.47.34,6-1.39,7.13,1.36.94,2.3-1.46,4.83-3.53,6.44s-.46,3.33-.72,5l-4,.58-3.94-.5C143,208.19,144,205.37,140.26,203.72Z"/><path class="cls-11" d="M143.05,200.11l-2.52.83c.61-2.73-.35-5.9,2.31-8-.13,2.52,2.61,3.23,3.29,5.23l-.06.05C144.6,198.11,143.45,198.51,143.05,200.11Z"/><path class="cls-10" d="M160,234.07l-2.89,0,0-3c0-.41.2-1.15.1-1.18-.83-.3-1,.41-1.29,1l-1.72.06c-.51-2.61,2.69-2.61,3.21-4.38-.27-1.78-2.15-.48-2.95-2.06-3.12-6.15-5.89-7.31-12.26-5.93-3.05.67-6,1.78-9.23,1.51l.21-2.89a2.61,2.61,0,0,0,1.9-2c4.11-2.1,8-.56,11.85.77,5.94.33,10.11,4.44,14.88,7.17C164.71,224.7,163.46,231.16,160,234.07Z"/><path class="cls-15" d="M146.91,215.86c-3.88-1.33-7.74-2.87-11.85-.77L134,215l.08-3.75.75-1,3,.32a5.23,5.23,0,0,0,4.28.49l3.94.5C146.3,213,146.6,214.41,146.91,215.86Z"/><path class="cls-15" d="M163.85,218.05c1.66,1.4,4.24-.92,5.51,1.47.31.58-.44,1.16-1.12,1.28C166.19,221.17,164.32,221.11,163.85,218.05Z"/><path class="cls-3" d="M83.15,288.9c-3.39-4-3.47-9.43-6-13.87-1.1-1.95-4.72-4.66.18-7,1.14-.55-.5-1.87-1.22-2.71-2.79-3.29-4.5-7.19-6.23-11.09-.86-1.93-.34-3.15,1.29-4.16l2-1.1c.93.41,2.11,1.06,1.33,2.1-4,5.27,1,7.25,3.54,10.16L79.33,263c-1.12,1.07-.37,2,.11,3.07,1.14,2.5,2.79,5,3.08,7.59.38,3.26,1.9,4.23,4.71,4.29l.83,2.06C84.8,282.05,82.88,284.87,83.15,288.9Z"/><path class="cls-3" d="M99.78,319.43,95,318.51c-2.07-8.79-4.66-17.35-10.37-24.61-.74-.94-1.54-1.81-.35-2.95l3.34.05,3,3c.54,5.21,3.14,9.67,5.24,14.31-1.43,2.28,1,3.1,1.8,4.49C98.75,314.92,100.74,316.66,99.78,319.43Z"/><path class="cls-5" d="M73.19,248.93l-2,1.1c-2.47-5.67-1.48-11.05,1.45-16.22a10.21,10.21,0,0,0,1.5-5.19c0-1.92.4-3.64,2.31-4.61l4.16.1L80.06,227a6.08,6.08,0,0,0-4.52,7.12c.79,4.17-.66,7.4-2.31,10.7A3.77,3.77,0,0,0,73.19,248.93Z"/><path class="cls-8" d="M87.61,291,84.27,291c-.37-.68-.74-1.37-1.12-2.05-.27-4,1.65-6.85,4.91-8.94q1.43,2.61,2.86,5.2l.23,2.78-1.05,2Z"/><path class="cls-7" d="M90.59,319.57c-2.91,3-6.14,5.3-10.59,5.07C82.61,321,86.35,319.78,90.59,319.57Z"/><path class="cls-8" d="M80.6,224.11l-4.16-.1,0-1.75c1.51-.66,2.53-2.28,4.38-2.29C80.73,221.35,80.66,222.73,80.6,224.11Z"/><path class="cls-12" d="M34,216.09c-2.21,4.65-.9,9.3,0,13.95l-2,.1c-1.4-1.53-1.8-3.43-2.21-5.39-.56-2.66-.14-5.68-2.56-7.74,0-.28.09-.57.15-.85a2.3,2.3,0,0,1,2.63,0l3.13-.06.42,0Z"/><path class="cls-11" d="M34,216.09h-.42l-.42,0c1.67-4.19-.82-8.1-.83-12.17l.82-4.79,0,0c4.15,2.76,2.68,7.31,3.52,11.12Z"/><path class="cls-11" d="M32,230.14l2-.1c1.69,1.32,1.44,3.15,1.29,5-1.29,1.79-2.82,3.15-5.25,2.81l2.12-2.8Z"/><path class="cls-2" d="M34.18,181.12c-1.13-.14-3,1.4-3.24-.41-.28-2.28.07-4.94,3.24-5.57Z"/><path class="cls-11" d="M27.06,201l1.24-3.91,2.91-.18a3.23,3.23,0,0,1,1.92,2.21l0,0C30.76,198.58,30,203.3,27.06,201Z"/><path class="cls-8" d="M77.06,187.15c2.5,3,3.52,7.31,8,8.43,0,1.68,1.16,2.62,2.29,3.57l-1.2.95c-2.38,0-3.41.86-3.27,3.56.23,4.87.19,9.79-1.84,14.4-1.18-1.8-.84-3.84-.84-5.8,0-3.31.28-6.64-2.31-9.35a3,3,0,0,1-.75-2.3c.9-4.16-.37-7.81-2.09-11.49C74.13,187.22,74.81,186.18,77.06,187.15Z"/><path class="cls-10" d="M81,218.06c2-4.61,2.07-9.53,1.84-14.4-.14-2.7.89-3.55,3.27-3.56-.26,9.94-.38,19.89-1.47,29.79-2.11-.75-1.45,4.46-4.35,2L80.06,227l.54-2.91c.06-1.38.13-2.76.19-4.14Z"/><path class="cls-8" d="M27.06,201c3,2.26,3.7-2.46,6.1-1.93-.27,1.6-.55,3.19-.82,4.79L29,206.13l-2.84-1.06c-.42-1.16-.84-2.32-1.27-3.48Z"/><path class="cls-1" d="M32,230.14l.15,4.86c-2.05-1.55-3.37-5.18-6.94-2.46a32.93,32.93,0,0,0,.05-13.34c0-.65.07-1.29.1-1.93l1.87-.26c2.42,2.06,2,5.08,2.56,7.74C30.23,226.71,30.63,228.61,32,230.14Z"/><path class="cls-11" d="M25.39,217.27c0,.64-.07,1.28-.1,1.93-5.09-4.57-4.38-7.25,2.65-10,.6,2.35,2.36,4.35,2.1,6.95a2.3,2.3,0,0,0-2.63,0C26.05,215.28,25.43,215.75,25.39,217.27Z"/><path class="cls-1" d="M30,216.13c.26-2.6-1.5-4.6-2.1-6.95.35-1,.69-2,1-3.05l3.36-2.23c0,4.07,2.5,8,.83,12.17Z"/><path class="cls-10" d="M25.24,232.54c3.57-2.72,4.89.91,6.94,2.46l-2.12,2.8a8.75,8.75,0,0,1-.87.27c-1.75-1.54-4.28,1.33-5.89-1,.15-1.27.29-2.55.44-3.82Z"/><path class="cls-7" d="M112.28,242.17c2.54-5.39,1.84-11.64,4.85-17.06,1.54,15.67-.92,31.28-.55,46.9-.06,1.64-.13,3.27-.19,4.91-.08.36-.15.72-.23,1.07a39.65,39.65,0,0,0-1,12c-1.69,2.12-2.49,4.4-1.31,7l-.06,3.79c.17,4.71.61,9.43-.76,14.06l-1.57.52c0-3.58-4.82-2.69-5.59-5.59a2.12,2.12,0,0,1,2.58,0c1,.54,2.29,1.39,3,0s-1-1.77-1.86-2.36c-1.77-1.18-3.56-2.33-5.34-3.49l-.4-1.1c2.85-13.48,4.76-27.07,4.41-40.9l1.44-11.1c1.69-1.95,1.38-4.55,2.19-6.78Z"/><path class="cls-14" d="M113,314.88c1.37-4.63.93-9.35.76-14.06.85.34,2.1,1.83,2.22-.42.08-1.39,1.13-3.92-2.16-3.37-1.18-2.65-.38-4.93,1.31-7,3.26,1.8,5,4.19,3.51,8.11a6.84,6.84,0,0,0,.32,5.75,4.9,4.9,0,0,1,.45,1.8c-5.42,1.82-.65,4.2-.36,6.3C116.89,312.58,115.4,314.65,113,314.88Z"/><path class="cls-14" d="M127.37,302.84c-.05.12-.08.28-.17.34s-.24,0-.36,0l.25-.55Z"/><path class="cls-14" d="M126.8,271c0,.69,0,1.37,0,2.06C125.3,272.36,125.21,271.68,126.8,271Z"/><path class="cls-14" d="M116.16,278c.08-.35.15-.71.23-1.07l.63.45Z"/><path class="cls-1" d="M104.23,304c1.78,1.16,3.57,2.31,5.34,3.49.89.59,2.59.87,1.86,2.36s-2,.56-3,0a2.12,2.12,0,0,0-2.58,0c.77,2.9,5.64,2,5.59,5.59-3,3.41-5.6,7.32-10.4,8.55-.93-1.33.16-2.45.4-3.65,1.49-3.74.17-7.62.61-11.4l1.11-2.95C104.13,305.62,104.06,304.74,104.23,304Z"/><path class="cls-12" d="M98.94,325.59l.18-1.71,1.93.05C101.12,325.47,100.14,325.67,98.94,325.59Z"/><path class="cls-12" d="M102.06,308.9c-.44,3.78.88,7.66-.61,11.4l-1.67-.87c1-2.77-1-4.51-2.17-6.61-.76-1.39-3.23-2.21-1.8-4.49,2.3-3.6-.85-6.77-.79-10.2l2.31.82,2,7.06C99,308.11,99.87,309.14,102.06,308.9Z"/><path class="cls-1" d="M110.67,235.11c-.38,1.81-.77,3.62-1.15,5.44a15.34,15.34,0,0,0-2,6.52c0,.69-.09,1.38-.13,2.07-1.53.48-1.27,1.73-1.23,2.88-2.7-.18-.6,4.87-4.13,3.79-1.38-5.71,1.79-11.06,1.32-16.69,2.83-2.83,2.54-6.5,2.75-10,.37-2,.73-4,1.1-6,3.34-4.27,3.86-9,2.2-14-2.37-4.61-1.19-9.85-2.6-14.63-.64-2.2,1-3.65,1.67-5.44,4.94.41,3.77,3.64,2.73,6.41-1.41,3.74-1,6.68,2.65,8.8l.69,4.89c-2.92,3.33-1.64,7.24-1.52,11-.38,1.33-.75,2.66-1.13,4-2.1,1-1.88,2.42-.79,4l.59,2.17c-.2.93-.41,1.86-.61,2.8A1.54,1.54,0,0,0,110.67,235.11Z"/><path class="cls-10" d="M90.92,285.16,88.06,280c-.28-.68-.55-1.37-.83-2.06-1.69-5.48-3.66-10.81-7.9-14.95l-1.27-1.76c1-1.17,4.45-2.15,2.78-3.42-4.8-3.67-1.39-7.81-1.66-11.69,1.59-.58,2.65-2.3,4.6-2.12-.87,8.45,1.79,16,6.1,23.06a15.2,15.2,0,0,1,2.36,5.92c-1.06.62-2.85,1-2.34,2.55.62,1.88,2.63,1.38,4.18,1.49a3.58,3.58,0,0,1,1.5,2.81C91.77,279.63,92.44,283.35,90.92,285.16Z"/><path class="cls-12" d="M90.92,285.16c1.52-1.81.85-5.53,4.66-5.37a.56.56,0,0,1,.64,0c1,2.05,1.49,5.45,2.94,5.9,3.33,1,1.66-3.94,4.11-4.72a1.78,1.78,0,0,0,.43-.23q-.75,7.11-1.51,14.22c-2-.21-3.45-2.25-5.67-1.92l-2.09-4.6a8.48,8.48,0,0,0-1.29,5.44l-2.57.1-3-3,2.49-1.09c.51.45,1.12.75,1.58.08s0-1.45-.53-2.05Z"/><path class="cls-8" d="M103.7,280.78a1.78,1.78,0,0,1-.43.23c-2.45.78-.78,5.76-4.11,4.72-1.45-.45-2-3.85-2.94-5.9,3.22-.91,4.49-3.06,5.06-6.36.61-3.48.28-7.15,1.8-10.48l2-.45.3-.21C106.64,268.64,104.1,274.61,103.7,280.78Z"/><path class="cls-11" d="M83.78,244c-2-.18-3,1.54-4.6,2.12,2-4.59-.46-9.54,1.11-14.17,2.9,2.44,2.24-2.77,4.35-2A29.55,29.55,0,0,1,83.78,244Z"/><path class="cls-5" d="M87.31,199.15c-1.13-1-2.3-1.89-2.29-3.57a2,2,0,0,1,.1-.48c.82-1.81.32-5.22,2.92-4.82,1.42.22,2.95,3.49,3.32,5.57C91.8,198.32,89.37,198.87,87.31,199.15Z"/><path class="cls-5" d="M109.35,209c1.66,5.06,1.14,9.77-2.2,14A41.42,41.42,0,0,1,109.35,209Z"/><path class="cls-7" d="M105.08,262.54l-2,.45c0-2.44-1.62-4.65-1.1-7.18,3.53,1.08,1.43-4,4.13-3.79,1.18,1.25,1.3,3.34.41,4C103.91,257.93,105,260.26,105.08,262.54Z"/><path class="cls-5" d="M106.05,229.08c-.21,3.54.08,7.21-2.75,10C103.68,235.62,102.93,231.82,106.05,229.08Z"/><path class="cls-12" d="M94.08,277c-1.55-.11-3.56.39-4.18-1.49-.51-1.57,1.28-1.93,2.34-2.55C93.74,273.88,94.05,275.37,94.08,277Z"/><path class="cls-5" d="M84.15,183.83c.2.25.49.45.52.68.07.52-.21.9-.77.75-.18,0-.37-.49-.35-.74S83.88,184.12,84.15,183.83Z"/><path class="cls-11" d="M116,200l-.49,0-.48,0c-.59-4.85,1.35-9.6.43-14.51a4.19,4.19,0,0,1,2.31-4.49C118.31,187.46,118.45,193.86,116,200Z"/><path class="cls-13" d="M134.06,211.23c0,1.25-.05,2.5-.08,3.75-.27.72-.55,1.43-.82,2.14L133,220l-.41,1c-3.42,0-7.21,2.05-8.68-3.88-.47-1.91-5.33-2.74-8.18-4.06.22-1,.43-2,.64-3l3.8-.1c3.9,1.72,8,1,12,.87Z"/><path class="cls-14" d="M132.13,210.88c-4,.11-8.11.85-12-.87-.05-2.44,0-4.27,3.48-4.59,4.57-.41,7.79-4.7,12.47-5.29a16,16,0,0,1-3.54,4C129.77,206.17,129.43,208.47,132.13,210.88Z"/><path class="cls-14" d="M145,183.06c2.94-5.18,2.66-12,8-16,1.05,4.76-1.24,9-2.27,13.39C150.05,183.27,147.3,183.11,145,183.06Z"/><path class="cls-7" d="M142.05,211a5.19,5.19,0,0,1-4.28-.5c.49-1.88,1.47-3.69.86-5.74.55-.34,1.1-.68,1.64-1C144,205.37,143,208.19,142.05,211Z"/><path class="cls-11" d="M138.63,204.75c.61,2.05-.37,3.86-.86,5.74l-3-.31Z"/><path class="cls-12" d="M116.32,210.11c-.21,1-.42,2-.64,3-1,1.47-.72,3.17-.83,4.8L113,220c-.12-3.75-1.4-7.66,1.52-11Z"/><path class="cls-10" d="M107.47,247.07a15.34,15.34,0,0,1,2-6.52l2.76,1.62c-.13.64-.27,1.29-.41,1.93C109.48,243.73,109.21,246.47,107.47,247.07Z"/><path class="cls-7" d="M111.05,228.06c-1.09-1.62-1.31-3.06.79-4,.09,1.34.17,2.68.26,4Z"/><path class="cls-12" d="M111.05,228.06h1c.74.92.53,1.63-.46,2.18C111.44,229.5,111.24,228.78,111.05,228.06Z"/><path class="cls-10" d="M110.67,235.11A1.54,1.54,0,0,1,111,233C111.94,233.9,111.67,234.57,110.67,235.11Z"/><path class="cls-12" d="M132.54,221l.41-1c3.2.27,6.18-.84,9.23-1.51,6.37-1.38,9.14-.22,12.26,5.93.8,1.58,2.68.28,2.95,2.06-.52,1.77-3.72,1.77-3.21,4.38-3.74-1-3.93-6.4-8.25-6.68l-4.77,0-9-.11C132.29,223.08,132.42,222.05,132.54,221Z"/><path class="cls-11" d="M132.17,224.1l9,.11c-.27,7.49-4.76,3.24-7.87,2.84h-1.17C132.13,226.07,132.15,225.09,132.17,224.1Z"/><path class="cls-14" d="M129.05,239c0,.34-.07.68-.1,1C129,239.72,129,239.38,129.05,239Z"/><path class="cls-12" d="M155.9,230.81c.27-.55.46-1.26,1.29-1,.1,0-.06.77-.1,1.18Z"/><path class="cls-7" d="M143.05,200.11c.4-1.6,1.55-2,3-1.92C145.62,199.7,144.45,200.08,143.05,200.11Z"/><path class="cls-14" d="M133.16,217.12c.27-.71.55-1.42.82-2.14l1.08.11A2.61,2.61,0,0,1,133.16,217.12Z"/><path class="cls-8" d="M80.29,231.91c-1.57,4.63.87,9.58-1.11,14.17.27,3.88-3.14,8,1.66,11.69,1.67,1.27-1.74,2.25-2.78,3.42-2.51-2.91-7.55-4.89-3.54-10.16.78-1-.4-1.69-1.33-2.1a3.77,3.77,0,0,1,0-4.09c1.65-3.3,3.1-6.53,2.31-10.7A6.08,6.08,0,0,1,80.06,227C80.14,228.65,80.22,230.28,80.29,231.91Z"/><path class="cls-8" d="M79.33,263c4.24,4.14,6.21,9.47,7.9,14.95-2.81-.06-4.33-1-4.71-4.29-.29-2.61-1.94-5.09-3.08-7.59C79,265,78.21,264,79.33,263Z"/><path class="cls-10" d="M90.57,294l2.57-.1L95,298.14c-.06,3.42,3.09,6.59.79,10.19C93.71,303.69,91.11,299.23,90.57,294Z"/><path class="cls-7" d="M91.15,287.94c.54.6,1,1.27.53,2.05s-1.07.37-1.58-.08Z"/><path class="cls-7" d="M25.39,217.27c0-1.52.66-2,2-1.11-.06.28-.11.57-.15.85Z"/><path class="cls-15" d="M103.7,280.78c.4-6.17,2.94-12.14,1.68-18.46l2.86-.34c.35,13.83-1.56,27.42-4.41,40.9-2.48.07-3.88-.44-2.25-3.32.75-1.33,1.66-2.88.61-4.56Z"/><path class="cls-14" d="M102.19,295c1,1.68.14,3.23-.61,4.56-1.63,2.88-.23,3.39,2.25,3.32l.4,1.1c-.17.76-.1,1.64-1.06,2l-3.86.06-2-7.06-.81-5.87C98.74,292.75,100.15,294.79,102.19,295Z"/><path class="cls-10" d="M108.24,262l-2.86.34-.3.22c-.1-2.28-1.17-4.61,1.44-6.53.89-.65.77-2.74-.41-4,0-1.15-.3-2.4,1.23-2.88l2.34,1.74Z"/><path class="cls-14" d="M109.68,250.88l-2.34-1.74c0-.69.09-1.38.13-2.07,1.74-.6,2-3.34,4.4-3C111.06,246.33,111.37,248.93,109.68,250.88Z"/><path class="cls-15" d="M113.84,297c3.29-.55,2.24,2,2.16,3.37-.12,2.25-1.37.76-2.22.42Z"/><path class="cls-15" d="M99.31,306l3.86-.06-1.11,2.95C99.87,309.14,99,308.11,99.31,306Z"/><path class="cls-7" d="M96.52,293.08l.81,5.87L95,298.13c-.63-1.4-1.25-2.8-1.88-4.21a8.48,8.48,0,0,1,1.29-5.44Z"/></g></g></svg>