<?xml version="1.0" encoding="utf-8"?>
<!-- Generator: Adobe Illustrator 24.1.2, SVG Export Plug-In . SVG Version: 6.00 Build 0)  -->
<svg version="1.1" id="Layer_1" xmlns="http://www.w3.org/2000/svg" xmlns:xlink="http://www.w3.org/1999/xlink" x="0px" y="0px"
	 viewBox="0 0 117.9 122.9" style="enable-background:new 0 0 117.9 122.9;" xml:space="preserve">
<style type="text/css">
	.st0{fill-rule:evenodd;clip-rule:evenodd;fill:#85C441;}
</style>
<g>
	<path class="st0" d="M104.4,97.9c5,6.7,9.4,12.3,11.7,18.7c2.3,6.3,3.2,9.1-2,2.6c-4.8-6-9.4-11.9-16-17.5c-0.5,0.1-1,0.2-1.5,0.3
		C36.8,113.9-6.8,87,0.9,0C47,16,112.2,9.5,105.5,91.2C105.2,94.3,105,96.4,104.4,97.9L104.4,97.9z M88.3,84.8
		c-15-32.4-53.7-43.5-72.8-65.7C36.3,59.7,47.6,57.9,88.3,84.8L88.3,84.8L88.3,84.8z"/>
</g>
</svg>
