<?xml version="1.0" encoding="utf-8"?>
<!-- Generator: Adobe Illustrator 24.1.2, SVG Export Plug-In . SVG Version: 6.00 Build 0)  -->
<svg version="1.1" id="Layer_1" xmlns="http://www.w3.org/2000/svg" xmlns:xlink="http://www.w3.org/1999/xlink" x="0px" y="0px"
	 viewBox="0 0 512 512" style="enable-background:new 0 0 512 512;" xml:space="preserve">
<style type="text/css">
	.st0{fill:#FFF51F;}
</style>
<g>
	<polygon class="st0" points="86.4,210.6 0,254.6 86.4,298.5 	"/>
	<polygon class="st0" points="425.6,210.6 425.6,298.5 512,254.6 	"/>
	<polygon class="st0" points="134.4,118.1 38.3,105.2 84.5,190.4 	"/>
	<polygon class="st0" points="473.7,105.2 377.6,118.1 427.5,190.4 	"/>
	<polygon class="st0" points="344.8,12.9 271.6,76.5 353,109.5 	"/>
	<polygon class="st0" points="167.2,12.9 159,109.5 240.4,76.5 	"/>
	<polygon class="st0" points="38.3,406.8 134.4,393.9 84.5,321.6 	"/>
	<polygon class="st0" points="473.7,406.8 427.5,321.6 377.6,393.9 	"/>
	<polygon class="st0" points="353,402.5 271.6,435.5 344.8,499.1 	"/>
	<polygon class="st0" points="240.4,435.5 159,402.5 167.2,499.1 	"/>
	<circle class="st0" cx="254.5" cy="256" r="146.5"/>
</g>
</svg>
