<svg xmlns="http://www.w3.org/2000/svg" viewBox="0 0 123.99 167.45"><defs><style>.cls-1{fill:#7f4f00;}.cls-2{fill:#d2b35b;}.cls-3{fill:#caad51;}.cls-4{fill:#506e82;}.cls-5{fill:#4c738a;}.cls-6{fill:#2c3943;}.cls-7{fill:#bda350;}.cls-8{fill:#bea248;}.cls-9{fill:#47677e;}.cls-10{fill:#3f5664;}.cls-11{fill:#5d5021;}.cls-12{fill:#27343c;}.cls-13{fill:#776243;}.cls-14{fill:#ab9789;}.cls-15{fill:#bba456;}.cls-16{fill:#4f6876;}.cls-17{fill:#476279;}.cls-18{fill:#6a5417;}.cls-19{fill:#a94d45;}.cls-20{fill:#3d5563;}.cls-21{fill:#354a56;}.cls-22{fill:#bba969;}.cls-23{fill:#bda451;}.cls-24{fill:#4c6173;}.cls-25{fill:#afaca0;}.cls-26{fill:#b8a363;}.cls-27{fill:#665c4c;}.cls-28{fill:#496f87;}.cls-29{fill:#3e4a39;}.cls-30{fill:#726338;}.cls-31{fill:#4e5e57;}.cls-32{fill:#3e482e;}.cls-33{fill:#d5c49d;}.cls-34{fill:#a64c3a;}.cls-35{fill:#735c27;}.cls-36{fill:#a84d3d;}.cls-37{fill:#dbb7ac;}.cls-38{fill:#7f6822;}.cls-39{fill:#6f6252;}.cls-40{fill:#4c758d;}.cls-41{fill:#849299;}.cls-42{fill:#ae4f47;}.cls-43{fill:#d7c5b2;}.cls-44{fill:#c2aa69;}.cls-45{fill:#4b636b;}.cls-46{fill:#bea69f;}.cls-47{fill:#debaa8;}.cls-48{fill:#b19280;}.cls-49{fill:#cbb69a;}.cls-50{fill:#968156;}.cls-51{fill:#b89f5c;}</style></defs><g id="Layer_2" data-name="Layer 2"><g id="Layer_1-2" data-name="Layer 1"><rect class="cls-1" x="3" y="83.08" width="9.08" height="84.37"/><g id="Layer_2-2" data-name="Layer 2"><g id="Layer_1-2-2" data-name="Layer 1-2"><path class="cls-2" d="M50.71,3A27.77,27.77,0,0,1,62.18.08C67.7,1.92,64.79,6.26,65,9.68c-1.85,4.57.41,9.12.1,13.69-.09,1.29.17,2.63,0,4-1.35,4.11-.46,8.38-.84,12.55a6.84,6.84,0,0,1-.42,1.4c-1,3.14,1.48,6.41-.44,9.62-.52.87.92,1.58,1.82,2,1.51.64,3.27.64,4.56,1.84,1,2.15-.71,3-2.09,3.58-2.53,1-2.84,2.68-2.16,4.94.06,4.06-1.68,7.91-1.4,12-1.13,3.08-.45,7.2-4.68,8.72-5.08,1.77-10.06,4.18-15.7,2.52-2.26-5.78-.14-11.79-.86-17.66a29.29,29.29,0,0,1,0-5.46A20.19,20.19,0,0,0,43,53.64c-1.3-5.92,2.73-11,1.77-16.74-.09-1.34-.37-2.66-.45-4a216.13,216.13,0,0,0,.08-23c-.17-2.73.75-4.41,3.44-5.12C49,4.4,50.16,4.19,50.71,3Z"/><path class="cls-3" d="M2.8,55.36c0-3.8-4-7.63.1-11.4A3.68,3.68,0,0,1,5.13,42.2c2.33-.16,4.34,1.86,6.79,1a15.32,15.32,0,0,0,5,1.46c6.31,1,12.6,2.17,19,2,1.27,0,2.48-.58,3.76-.31,1.81.55,2.12,1.91,1.86,3.54-.23,1.4-1.13,2.92.86,3.83a1.39,1.39,0,0,1,.53.75c-3.09,1.78-.66,6.53-4.3,8-3.57,1.11-7.16.55-10.78.26-4.91-.39-9.78-1.21-14.69-1.54a6.78,6.78,0,0,1-5.24-2.35c-1-1.28-.75-2.72-.5-4.05a6,6,0,0,0-.63,4C6.7,60,6.62,61.2,5.57,62c-1.5.75-2,.14-2.19-1.39C3.17,58.85,4,57,2.8,55.36Z"/><path class="cls-4" d="M115.72,14.1a14,14,0,0,0-7.81,5.2c-5.37,1.7-4.11-3.13-5.6-6-2.53,5.27-.88,10.17-.47,15-2.48,2.46-5.21,4.45-8.79,4.94-7.14,1.05-7.64.71-8.46-6.27C84,22.09,82.9,17.11,86.89,13c4,1,7.18-.72,9.87-3.31,4.8-4.65,10.11-6.26,16.58-4,1.65.59,3.59.36,5.41.51C120.3,9.84,117,11.57,115.72,14.1Z"/><path class="cls-5" d="M63.85,9.22c-.93-3,.79-6.45-1.68-9.14A20.07,20.07,0,0,1,78.66,6.44C79.8,15.73,80.19,25,77.49,34.1c-1.41,1.72-3.66,1.53-5.45,2.4-6.9.4-7.56.26-7.57-8.82C64.46,21.51,64.08,15.38,63.85,9.22Z"/><path class="cls-6" d="M84.69,92.51c-4.75-1.32-8.2-5.12-12.82-6.68-.71-.32-1.78,0-2.07-1-.21-.79.43-1.15,1-1.43a5.68,5.68,0,0,1,2-.34c5.75-.58,8.79-4.49,7.58-10.38-1-4.93-1.53-10.19-5.86-13.77,2.64-4.77,6.11-1.76,9.34-1,2,.64,2.18,2.58,3,4.08l4.89,9.19c-.93,5.51,1.14,11.09-.54,16.64C90.16,91.26,88.68,93.44,84.69,92.51Z"/><path class="cls-7" d="M97.6,45.28a20.57,20.57,0,0,0,17.45-8c2.25-2.78,5.7-1.94,8.94-3.31a7.93,7.93,0,0,1-2.09,5c-3,3.76-3.79,8.77-7,12.5-1.29,1.51-2.35,3.27-4.06,4.3-4.61,2.76-6.75,1.47-7.13-4.84-.46,3.32-.65,6.15-3.75,7.17a4.86,4.86,0,0,1-5.12-1c-1.73-1.64-1.53-3.94-1.94-6C93.16,48.09,94.45,45.93,97.6,45.28Z"/><path class="cls-8" d="M70,55.19c-2.43-.16-5,.49-7.12-1.39-1.4-1.24-3.73-1.85-.88-4.33,1.68-1.47,1.07-3.79-.69-5.68-2.07-2.23-.45-2.62,1.6-2.47,2.74.4,3.17-2.6,5.07-3.44,3.24-.93,6.14-4.12,9.91-1.52,2.8,1.65,6.65.73,8.92,3.67-2.59,1.59-6.51,7.58-7.35,11.22S74.59,56.72,70,55.19Z"/><path class="cls-9" d="M84.69,92.51c6.3-.75,4.62-6.19,5.56-9.89a11.1,11.1,0,0,0-.56-6.32c-1-2.65.08-3.94,2-5.14,5,2.7,11.15.84,16.11,3.85,1.4,2.85.09,10.67-2,12.22-2.74,2-5.61,1.09-6.93-2.18-.37-.91-.7-1.83-1.25-3a30.47,30.47,0,0,0,.79,3.4c.59,3,.49,5.28-3.36,5.51a1.64,1.64,0,0,0-1.3,1.35c-2.87,1.7-6,.47-9,.83A1.35,1.35,0,0,1,84.69,92.51Z"/><path class="cls-10" d="M2.8,55.36c1.34,1.38.66,3.14.88,4.73s1.14,1.17,2.07.8c.68-.24,1.71,0,1.66.43-.32,3,1.4,1.28,2.42,1.1a2.76,2.76,0,0,1,2.27.51c-.19,4.3.22,8.62.07,12.91-.23,6.44,1.73,9.09,8.27,9.84,4.7.53,9.46,1.73,14-1.18a3.28,3.28,0,0,1,4.11.7c1.42,2.66,1.71,4.86-2.17,5.38-3.49,0-7-.65-10.46-.29a7.25,7.25,0,0,0-1.08.63l.1.38a122.43,122.43,0,0,1-20-6.1C3,85.68,3.77,83.68,3,83.08,3.18,73.84,3.46,64.6,2.8,55.36Z"/><path class="cls-11" d="M70,55.19c7.69-1.75,7.64-1.75,7.46-9.41-.08-3.58,1.07-6.2,5.42-5.77,1.29.12,2.62,0,3.93,0l1.56,1.17c-2.06,2.7-1.56,6-1.91,9-.1.8-.32,1.81.73,2.1,1.29.34,1.66-.75,2-1.67,1-2.57-.08-5.72,2.24-7.92l6.13,2.54c-2,1.39-2.66,3.69-3.71,5.71a9.21,9.21,0,0,1-.44,6.88,7.48,7.48,0,0,1-7.55-.27,18.62,18.62,0,0,0-7.78-2,12.81,12.81,0,0,1,4.39.65c1.48.48,2.29,1.31,1.18,2.88-2.93-.37-5.82-2.79-8.81-.17S68,62,64.09,61.9c-1.33-1.63-1.26-2.94.76-4C66.6,57.08,68.3,56.11,70,55.19Z"/><path class="cls-12" d="M77.92,36.36c-3.82-.26-6.9,1.79-10.16,3.28-1.68-4.27,2.63-3.11,4.11-4.51l5-2c2.55-1,3-3,2.7-5.38-.73-6,.89-12-.35-18C79,9,79.37,7.75,80.88,8.12l6,4.88c.39,1.17,1.49,1.17,3,1.83-4-.15-4.33,2.18-4.07,4.89a50.81,50.81,0,0,1,.62,7.39c-.25,4.9,1.67,7.06,6.64,6.09C88.33,35.79,82.74,34.25,77.92,36.36Z"/><path class="cls-13" d="M50.71,3c.31.48.35,1.09-.23,1.2C45.14,5.24,45.77,9,46,13c.35,6.69.68,13.41-.16,20.11-1.76.75-2.65-.46-3.59-1.59-2-2.49-.34-5.78-1.86-8.37-1.1-2.48.41-5.25-.93-7.69-.46-2.1.16-4.46-1.36-6.31a24,24,0,0,0-10-4.24c-.86.44-.84-3.07-2.19-.47-2.13.66-3.49-1.28-5.34-1.56-1.3-.08-2.7.15-3.67-1.06A1.29,1.29,0,0,1,16.82.58c6-1.48,11.5.59,17,2.44C39.49,4.94,45.08,5.81,50.71,3Z"/><path class="cls-14" d="M16.85.62c1.21,1.09,2.71.62,4.09.8A36.65,36.65,0,0,1,22.49,22c-1.3,1.42-2.89,1.48-4.59,1-1-.28-2-.28-3-.58-3.72-2.12-4.66-6.34-7-9.48-2-2.6-3.82-3.67-6.71-1.73-.93-3.09.41-6.05.65-9.06C2-.4,4.48.69,6,.35,9.28,3.6,12.55,7,13.5,11.61c.53,2.54,3,.33,3.38,2.08,0,.61,0-.26.23.35.1.25.14.1-.06-.36-1.34-3-.06-6.42-1.57-9.39C15.33,2.84,14.79,1.24,16.85.62Z"/><path class="cls-15" d="M14.51,21l3.42.25c1.86,2.22,2.91,4.58,1.41,7.46-.89,1.72.75,3,.86,4.59-.87,4.88-1.13,5-5.08,1.74-.58-.39-1.26-.61-1.83-1-1.94-2.59-4.28-4.4-7.73-4.45a6.41,6.41,0,0,1-4.7-2.37c-.52-2-1.64-4.07,0-6.1C5.41,18.36,10,20.7,14.51,21Z"/><path class="cls-16" d="M.86,27.24c2.43.28,4.85.71,7.28.81,3.51.13,5.14,2.15,5.92,5.24C12.9,38.19,8.3,40,5.17,43.05L2.9,44C-.29,38.69,1.62,32.8.86,27.24Z"/><path class="cls-17" d="M14.51,21C10,23.58,5.43,21,.9,21.14l.24-10c1.22-1.23,1.3-2.9,1.73-4.91C8.77,9.83,11.57,15.49,14.51,21Z"/><path class="cls-6" d="M93.75,92.29c-1.63-1.18-1.66-2.28.52-2.28,3.2,0,3.2-1.7,2.58-4a20.74,20.74,0,0,1-.31-2.48c-.17-1.38-.19-3,1.46-3.18s1.07,2,2.12,2.86-1.1,4.24,2.48,4.15c3.34-.08,3-3,3.65-4.91a49.14,49.14,0,0,0,1.6-7.41l4.05,2c1.86,1.22,5.45,2,.95,4.64-2.72,1.59-.56,4.23-1.07,6.32C105.37,87.75,99.58,90.11,93.75,92.29Z"/><path class="cls-18" d="M93.73,57.45c-.74-2.17.31-4.3.16-6.46.94,1.12.63,2.54.87,3.82C95.18,57.08,97,57,98.63,57s2.93-.47,3.14-2.4c.26-2.41.58-4.82.88-7.29,4,.14,2.3,3.25,2.48,5,.41,4,1.31,4.66,4.89,2.64,3.76-2.13,5-6,6.72-9.59A32.56,32.56,0,0,1,121,38.13a.49.49,0,0,1,.47,0,6.46,6.46,0,0,1,.41.89l-.33,1c-1.22,3.87-.75,8.46-4.78,11.12-2.34,3.16-4.86,6.07-9,6.94C103,60.13,98.31,60.28,93.73,57.45Z"/><path class="cls-19" d="M16.85.62c-1.18,1.29.16,2.47.16,3.7.44,3.29.78,6.58-.2,9.84-2.61.09-4.31-.67-5.13-3.61C10.63,6.79,6.11,4.78,6,.35,9.63.14,13.24-.38,16.82.58Z"/><path class="cls-20" d="M80.88,8.12c.09,3.6-.46,7.38.47,10.75.86,3.12-2.5,5.46-.52,8.88a33,33,0,0,0,2.6,4.69c-2.39,1.29-4.58.39-6.59.74-.46-7.49,2.49-14.88.53-22.42a3.83,3.83,0,0,1,1.29-4.32C80,6.24,80.37,7.25,80.88,8.12Z"/><path class="cls-21" d="M101.84,28.26c-3-3.06-3.63-13.59-1.18-16.66.73-.92,1.33-1.28,2.46-.79,1.58.69,2.42,1.61,1.81,3.45-.92,2.77.14,4.45,3,5A46.09,46.09,0,0,1,101.84,28.26Z"/><path class="cls-22" d="M93.73,57.45c4.63,1.74,9.4.43,14.1.64-1.31,2.6-3.1,3.44-6.1,2.54-5-1.51-9.9,1-14.88,1.34l-3.16-2.83c-1.15-4.29-5.34-2-7.82-3.57C82.1,54.11,87.79,57,93.73,57.45Z"/><path class="cls-23" d="M91.47,42.74c.78,3.35-.17,6.64-1,9.76-1.25,5-4.51.63-8.38,1.83C85.8,50.9,84.86,47.86,84.8,45c-.06-2.55.45-4.33,3.56-3.79Z"/><path class="cls-24" d="M111.78,87.93c-1.73-1.25-3.89-2.28-2.2-5,1-1.65.65-5,5.46-2.14L111.9,77c2.58.64,5.37-.09,7.86,1.19.34,3.48-2.76,5.31-3.9,8.08A7.13,7.13,0,0,1,111.78,87.93Z"/><path class="cls-25" d="M115.72,14.1c.82-1.64.82-1.64-2.25-1.58,2-2.11,5.27-2.9,5.28-6.29l1.76-.15c2.33,1.91,0,3.89.09,5.83C119.57,14,117.71,14.18,115.72,14.1Z"/><path class="cls-26" d="M116.79,51.15,121.57,40c.34,2.75.63,5.44-.43,8.18C120.3,50.35,119.13,51.49,116.79,51.15Z"/><path class="cls-6" d="M115.86,86.24c-.69-3.66,3.36-5,3.9-8.08C121.05,82.1,118.58,84.23,115.86,86.24Z"/><path class="cls-27" d="M120.6,11.91l-.09-5.83c1.91-.66,2.51.17,1.93,1.89A36.13,36.13,0,0,1,120.6,11.91Z"/><path class="cls-28" d="M64.09,61.9c3.13-2.69,6.92-3,10.79-2.93,3.78.72,5.33,2.66,5.88,6.82.78,5.85,2.46,11.28-.75,17.14-.73,1.34-.67,1.37-1.94,1.51-2.11.24-4.15,1-6.24-.12-.35-.19-.42-.07,0,1.51-3-.26-6.09.84-9-.44-.31-1,3.53-1.39.4-3-.72-.37-.53-1.94.07-2.78,1.59-2.25.86-4.76,1-6.79-.91,1.45,1.69,4.24-1.58,5.44a2.73,2.73,0,0,1,0-2.9Z"/><path class="cls-29" d="M11.91,63.23c-2.69.89-5.25,1.45-6.16-2.34-.24-.67-1.11-1.34,0-2,.59-.8,1-1.84,2.2-1.91.93.85,1.5,2,3.08,2.13,9.51,1.1,19,2.8,28.6,1.89,2.23-1.86,4.09-2,5.25,1.14-.39,7.92.41,15.87-.66,23.78a11.61,11.61,0,0,1,.42,1.17,4.21,4.21,0,0,1-.9,2.9c-6.28,1.16-12.55,2.61-19,.92,0-.19.06-.39.08-.59,3.51-1.43,7.1-.64,10.67-.41,4.43,0,1.89-3.07,2.2-4.89-2.54-2.86-1.19-5.89-.16-8.71,2.21-6,.54-8.82-5.92-9.58-5.24-.61-10.47-1.41-15.72-1.91A5.89,5.89,0,0,1,11.91,63.23Z"/><path class="cls-30" d="M44.92,62.15c-1.43-1.88-3.48-.86-5.25-1.14,0-2.33-2.58-5.49,2-6.38-4.31-.79-2.11-3.37-1.37-5.39a1.54,1.54,0,0,0-.54-2,2.69,2.69,0,0,1-.15-2.58c1.45-2.51-1.55-4.34-1-6.71,2.39-.78,3.85-5.53,7.32-1.73,1.61,4,.53,7.64-1.47,11.15-.17.3-1.25.06-.74.82C46.74,52.6,44.76,57.46,44.92,62.15Z"/><path class="cls-31" d="M71.87,35.13c-1.25,1.61-4.17,1.7-4.11,4.51-1.59.61-1.16,7-4.82,1.68h0c1-.72,1.66-1.64,1.18-2.89-1.39-3.63-.69-7.33-.56-11-.18-4.48-.43-9-.52-13.46,0-1.58-.58-3.33.83-4.69,3.29,4.93,1.8,10.46,1.69,15.7-.07,3.2,1.16,6.08,1.21,9.27C66.79,36.71,70.12,34.55,71.87,35.13Z"/><path class="cls-32" d="M45.91,36.18c-2.9-1.06-4.26,2.61-6.9,2.3-3.88,1.06-5.75-1.82-8-4a4.54,4.54,0,0,1,1.09-4.37c3.74-2.3,7.07.35,10.58.91l3.13,2.18C46,34.16,46.61,35.15,45.91,36.18Z"/><path class="cls-33" d="M43.63,87.11l.63-1.18c5,0,9.51-1.65,14.17-3.06,4.09-1.24,2.56-5.22,4.34-7.5l.3,2.57c.12,2.39,1.72,5.13-1.6,6.69-4.13,3.14-9,3.83-14,4.25C45.9,89,44.07,89.57,43.63,87.11Z"/><path class="cls-8" d="M63.54,27.37c.65,3.53-.71,7.32,1.95,10.69.81,1,1.21,4.45-2.57,3.22C63,36.64,62.1,32,63.54,27.37Z"/><path class="cls-34" d="M15.68,33.21c1.48.36,1.86,1.72,2.84,3.39l.68-3.4a1.33,1.33,0,0,1,1.45.53c1.54,2.9,1.32,5.86.33,8.85-.94,2.29-3.43,2.2-5.13,3.32-1.62.06-3.27.22-4.06-1.7-3.85-2.3-4.16-4.06-.9-6.85A46,46,0,0,1,15.68,33.21Z"/><path class="cls-35" d="M15.85,45.9c.36-2,2.18-2.14,3.6-2.78,5.49.32,5.5.32,5.58-5a34.85,34.85,0,0,1,.28-5c.93-3.83-1.11-7.1-2-10.57a5.51,5.51,0,0,1,3.57-1.23c2.28.57,4.52,1.21,4.09,4.33-2,2.69,1.59,2.94,2,4.57l-1.16,4C27,35.7,30,39.59,29.51,42.34c-.36,2.34,1.4,3.45,3.8,3.35a4.44,4.44,0,0,1,3.26.85,1,1,0,0,1,.37.83c0,.31-.08.46-.15.46C29.66,48.79,22.76,47.31,15.85,45.9Z"/><path class="cls-36" d="M36.79,47.83v-.37a1.2,1.2,0,0,0-1-.81c-7.4-1-8.83-3-7.36-10.09.3-1.43,1-2.46,2.26-1.61,4,2.81,8.84,4.91,10.18,10.37l-1,1.88Z"/><path class="cls-37" d="M15.68,33.21c-.46,1.92-2.1,2.92-3.45,4-2.88,2.29-3.4,4.47-.44,7C9.3,45.42,7.38,43.37,5.17,43c1.71-4.39,5.52-6.87,8.89-9.76Z"/><path class="cls-38" d="M8,57c-.18,1.28-.74,2.11-2.2,1.92-1.17-1.59-.54-3.07.31-4.51.65-1.1-.84-4,2-3.13,2.17.66,1.63,2.79.67,4.48A10.73,10.73,0,0,0,8,57Z"/><path class="cls-39" d="M43.63,87.11c4.27,2.37,8.25.17,12.27-.83a42,42,0,0,0,5-1.94q.48.3.27.51a.52.52,0,0,1-.37.19c-4.42,6-11.18,4-17.06,5C43.49,89,42.44,88.14,43.63,87.11Z"/><path class="cls-6" d="M60.84,85a1.66,1.66,0,0,0,.1-.7C64.09,83,62.27,80,63.07,78c1.89-2.24,0-5.16,1.21-7.37,2.77,3.88-3.39,10.12,3.33,13.3l-4.8,1.51Z"/><path class="cls-40" d="M11.91,63.23c8.34-.74,16.39,2,24.69,2.08,2.47,0,4.35,6.45,3.3,9.28A27.44,27.44,0,0,0,37.75,85c-5.35,3.35-11,3.16-17.12,2.53-7.3-.76-11.09-3.81-10.11-11.06C11.12,72.08,8.54,67.32,11.91,63.23Z"/><path class="cls-41" d="M35.55,89.92l-10.67.41C28.35,88.06,32,88.86,35.55,89.92Z"/><path class="cls-42" d="M28.06,4.19C33,2.5,36,6.43,39.76,8.08c-.6,4-3.08,7.06-5.39,10.19-2.28,2.17-4.72,2.75-7.43.79a14.14,14.14,0,0,1-2.85-11.5c.21-.43.65-1.16.88-1.07C27.35,7.46,27.06,5,28.06,4.19Z"/><path class="cls-43" d="M25,7.36c1,3.59.77,7.5,2.77,10.84.71,1.56,1,3-.89,4-.73,1.15-1.89.9-3,.89a5,5,0,0,0-1.66-.6L21.91,22C21.44,16.24,21,10.46,20.42,4.7a4.18,4.18,0,0,1,.52-3.27c2.18-.08,3.21,1.92,4.91,2.71C26.57,5.47,25.22,6.27,25,7.36Z"/><path class="cls-44" d="M33,30.26c-1.57-.57-3.84.76-4.75-1.41a2.21,2.21,0,0,1,.81-3,2.28,2.28,0,0,1,.89-.29c2.28-1,5.35.44,7.07-2.29a3,3,0,0,1,4-.34l1.92.52c-1.81,2.46.73,5.06-.25,7.55C39.25,33.53,36.3,29.32,33,30.26Z"/><path class="cls-45" d="M41,22.9a5.9,5.9,0,0,0-4.14,1.35c-2,.56-4.18,2.82-5.79-.57A11.72,11.72,0,0,1,39.55,15C45,16.7,40.47,20.27,41,22.9Z"/><path class="cls-46" d="M39.56,15c-2.63,2.62-5.72,4.81-7.71,8-2.42-.07-1.65-1.45-.92-2.55s2.14-1.44,2.14-2.95L39.76,8l.89-.27C40.09,10.16,42.36,12.94,39.56,15Z"/><path class="cls-47" d="M25,7.36l.84-3.23c.79-2.34,1.49-.78,2.21.06V9C26.09,9.91,27.64,5,25,7.36Z"/><path class="cls-35" d="M19.6,33.27l-.4-.08c-2-1.56-3.16-3.24-.89-5.51s-2.07-4.16-.38-6.41l4,.74.05.09c.76.71.36,1.94,1.2,2.61,3.66,3,3,6,.18,9.09-3.81,1.59-2.28-2.3-3.35-3.28C20.45,31.42,20.87,32.42,19.6,33.27Z"/><path class="cls-43" d="M16.82,14.16q.11-4.92.2-9.84c1.53,4.57.43,9.21.77,14.36C15.21,17.09,17.14,15.47,16.82,14.16Z"/><path class="cls-48" d="M40.79,45.32c-2.72-2.84-6.3-4.77-8.59-8.09-.54-.78-1.33-1.71-2.39-1.45-1.22.29-.93,1.58-1,2.5-.53,4.25.09,7.63,5.55,7.63.87,0,3-1,2.45,1.55-8.67-.37-8.5-.38-9-10.48-.2-3.9.83-4.58,4.06-2.78L39,38.48C41.59,40.23,42.72,42.37,40.79,45.32Z"/><path class="cls-49" d="M19.6,33.27c.2-.91.4-1.83.65-2.93,1.34.5-.11,3.81,2.62,2.78,1.31-1.26,2.57-1,3.79.14.05,2.63.27,5.26.11,7.88-.11,1.66.87,4.26-1.22,4.77a5,5,0,0,1-6.1-2.79Z"/><path class="cls-50" d="M33.07,17.5c2.2,1.07-.15,1.48-.37,2.15-.36,1.1-2.79,1.65-.85,3.36,1,3,3.5.27,5,1.24.14.64,1.66,1.6.56,1.72-2.46.29-5.14,1.47-7.51-.45.27-2.27-2-2.23-3-3.32.3-1.33.59-2.67.89-4C29.73,19.38,31.51,19.28,33.07,17.5Z"/><path class="cls-51" d="M26.66,33.26l-3.79-.14a5.67,5.67,0,0,1-.55-1.32c4.27-2.87-.09-5.51-.2-8.22A12,12,0,0,0,22,22.1c.95-.26,1.88-.48,2,1C27.68,25.71,26.67,29.62,26.66,33.26Z"/></g></g></g></g></svg>