<svg xmlns="http://www.w3.org/2000/svg" viewBox="0 0 121.2 93.85"><defs><style>.cls-1{fill:#79665a;}.cls-2{fill:#9a8877;}.cls-3{fill:#7d362f;}.cls-4{fill:#b39a88;}.cls-5{fill:#746657;}.cls-6{fill:#a89385;}.cls-7{fill:#d5c3af;}.cls-8{fill:#b7615d;}.cls-9{fill:#a19384;}.cls-10{fill:#675847;}.cls-11{fill:#6c5c4e;}.cls-12{fill:#d6bbaa;}.cls-13{fill:#a4433e;}.cls-14{fill:#9b3e3a;}.cls-15{fill:#ccb6a3;}.cls-16{fill:#dabca9;}.cls-17{fill:#b39486;}.cls-18{fill:#9e4240;}.cls-19{fill:#aa9185;}.cls-20{fill:#a5978a;}.cls-21{fill:#793835;}.cls-22{fill:#5c312f;}.cls-23{fill:#d8c4b2;}.cls-24{fill:#dac6b3;}.cls-25{fill:#e1d2bf;}.cls-26{fill:#866053;}.cls-27{fill:#e6d5c3;}.cls-28{fill:#dbc5b1;}.cls-29{fill:#b34f4c;}.cls-30{fill:#6c3b35;}.cls-31{fill:#e7ccb7;}.cls-32{fill:#a28979;}.cls-33{fill:#e6d6be;}.cls-34{fill:#a17f6e;}.cls-35{fill:#e3cebb;}.cls-36{fill:#e7d1c0;}.cls-37{fill:#e0d0bc;}.cls-38{fill:#e3d2bf;}.cls-39{fill:#e5d5c2;}.cls-40{fill:#a14e4d;}.cls-41{fill:#f2c6b9;}.cls-42{fill:#924d46;}.cls-43{fill:#dac5b5;}.cls-44{fill:#642c2a;}.cls-45{fill:#d2c2b1;}.cls-46{fill:#a5423d;}.cls-47{fill:#af9180;}.cls-48{fill:#c49f8f;}.cls-49{fill:#e6d0bb;}.cls-50{fill:#b99c8c;}.cls-51{fill:#e6ceba;}.cls-52{fill:#c39988;}.cls-53{fill:#a74842;}.cls-54{fill:#a5433e;}.cls-55{fill:#b3a183;}.cls-56{fill:#827244;}.cls-57{fill:#ab4542;}.cls-58{fill:#e5c6b3;}.cls-59{fill:#b69281;}.cls-60{fill:#a29170;}.cls-61{fill:#b5a596;}.cls-62{fill:#8c7b6e;}.cls-63{fill:#e9c5b1;}.cls-64{fill:#e2ccb8;}</style></defs><g id="Layer_2" data-name="Layer 2"><g id="Layer_1-2" data-name="Layer 1"><path class="cls-1" d="M103.44,5c8.83-.81,9.21-.31,12.61,7.57,3.56,8.23,3.92,16.5,2.72,25.28-1.54,11.37-.2,22.79,2.07,34A14.4,14.4,0,0,1,119.4,82a3.38,3.38,0,0,1-1.23-.45,6.64,6.64,0,0,1-2.63-2.94A35,35,0,0,1,114.23,72c1-5-3.11-2.43-4.88-3.31a4.52,4.52,0,0,1-1.78-1.07c-2.06-.69.05-3.6-2.3-4.34-.3-.09.62-1.33,1.4-1.64,1.4-.55,3-.28,4.33-1.06,2.57-.88,1.39-2.05.1-2.92s-3.35-.25-4.12-2.16c.53-2.45,2.63-2.53,4.5-3,2.8.46,3.36-1.39,3.61-3.54.56-1.54-.36-3-.24-4.54.56-3.42,1.9-6.91-.79-10.08A5.21,5.21,0,0,1,112.3,30c.53-2.23,2.33-2.44,4.25-2.57A11.49,11.49,0,0,0,113.42,23c-1.06-1.13-1.83-2.4-1.29-4,1.62-4.92-1.08-8.06-4.48-10.91C106.34,6.87,103.47,7.86,103.44,5Z"/><path class="cls-2" d="M16.55,92C13,93.45,9.32,93,5.8,92.52c-2.14-.29-2.39.78-2.58,1.15V58.87c-.51-1-.64-1.87.75-2.22a3,3,0,0,1,1.81,2.73c.25,3.49,0,6.75,5.6,5.47,2.91-.66,4.08,2.91,2.71,7.18.68,5.79.15,6.73-3.77,6.7a7.54,7.54,0,0,0-2.27-1.91c-4.17-1.54-3-3.38-.38-5.33-1.32-.6-1.32-.6-2.31,1.54-1.42,4.19,3.06,3.37,4.41,5.21,2.85,2.58,3.77-.1,5-1.86,2.17,0,4.29.72,6.49.48.8.21,1.62.35,2.4.6s1.65.76,1.68,1.62c0,1.25-1.07,1.44-2.06,1.66s-2.06,0-2.34,2.08a46.34,46.34,0,0,1,3.91-2.63c4-2.71,7.3-2,9.4,2.43,1.59,3.34,1.27,3.83-3.62,3.84-5.1,0-10.2.44-15.29.25a2.85,2.85,0,0,0-3,1.82c-.25.84,1.59.6,2.32,1.22A3.47,3.47,0,0,1,16.55,92Z"/><path class="cls-3" d="M37.28,2.7c21.16,4,42.49,4.64,63.92,3.13-.45,3.85-4,3.06-6.3,4.1-1.58.74-3.54.23-5.26.75-.46.15-.93.27-1.4.38-2.11.37-4.21-.26-6.32,0-7.44-.55-14.77,1.14-22.19,1.13a7.17,7.17,0,0,1-1.38-.27,7.77,7.77,0,0,0-7.68-1.2,4.77,4.77,0,0,1-2.24-.33C41.55,6.75,34,6.5,26.46,5.81c-2.12-.2-4.27-.13-6.39-.37-3.7-.24-7.54.84-11-1.24-.86-.41-1.88-.85-1.7-2s1.12-.85,1.91-.66A56.84,56.84,0,0,0,22,1.92C27.07,3,32.24,1.59,37.28,2.7Z"/><path class="cls-4" d="M4,56.74l-.77,2.13c-1.78-6.66-.64-13.46-.92-20.19-.37-9-.66-17.92-1-26.88a1.34,1.34,0,0,1,1.3-.12C4.07,13.4,6.67,13.76,7.71,16a2.08,2.08,0,0,1-.4,1.29,21.75,21.75,0,0,0-2.12,2c3.41.38,7.05-.51,9.37,2.59,0,1.14-.73,1.67-1.64,2.09a29.2,29.2,0,0,1-4.28.37C5.72,24.74,4.2,26,5.42,29.18c.27,2.69,2.36,2.84,4.35,3.08,1.31.16,2.65-.12,3.94.3,3.07,1,5.22,3,5.64,6.25.49,3.82-2.81,4.28-5.42,5.22.8,1.33,2.11,1.23,3.05,1.8a4.7,4.7,0,0,1,2.5,5c-.34,2.34-1.94,3.36-4.15,3.45a5,5,0,0,0-3.66,1.19,4.26,4.26,0,0,1-1.14.84,3.72,3.72,0,0,1-1.37.18c-1.32,0-2.57-2-4-.12A2.29,2.29,0,0,1,4,56.74Z"/><path class="cls-5" d="M16.55,92l-2.27-1.29c1.38-1.88,3.46-1.86,5.43-1.86,6.64,0,13.31-.58,19.9.51A4.74,4.74,0,0,0,45,87a19.15,19.15,0,0,1,6-3.19c1.77-.13,3.39.11,4.38,1.84,0,3.25,1.26,4.79,4.78,4.28,5.6-.82,11.15-1.5,16.24-4.33,4.36-2.43,9.07-.44,13.58-.31,2.92.08,6.45-.29,8.49,2.92-.81,1.63-2.15,1-3.39.8-11.91-2.27-22.9,3-34.39,4.25-7.31.79-14.57,1-21.81-.4C31.49,91.36,24,92.18,16.55,92Z"/><path class="cls-6" d="M116.23,78.77l2.94,1.66c-1,2.5-.89,5.24-1.91,7.72-.22,3.73-3.63,1.19-5.05,2.56-.94-.88-2.24-.18-3.25-.74-2.25-1.65-4.47-3.33-5.08-6.3,1.76-3.37,4.61-4.23,7.79-2.59,2.58,1.32,3.12-.35,4-1.86C115.88,79.06,116.06,78.91,116.23,78.77Z"/><path class="cls-7" d="M2.23,11.89a6.84,6.84,0,0,0-.91-.09C-1.2,8.13.4,4.12,1.91,1.15c1.22-2.39,4.85-.46,7.35.41l-1,.67,1.1.6A5.28,5.28,0,0,1,9.73,9c-1.15,1.35-3,1.09-4.37,2A8.77,8.77,0,0,1,2.23,11.89Z"/><path class="cls-8" d="M88.32,9.76c4.26-1.41,9-1.11,12.88-3.93L103.44,5l4.91,1.82a3.13,3.13,0,0,1-2.43,3.78C100,11.49,94.06,12.6,88.32,9.76Z"/><path class="cls-9" d="M95.1,89c1.13-.29,2.58.12,3.15-1.42-3-3.14-.11-4.23,1.93-5.63a2.91,2.91,0,0,1,3.3,1,4.31,4.31,0,0,0,.25.94c2.74,4.28,2.74,4.28-2.63,4.92-.56.3-1.17.5-1.71.84C97.9,89.78,96.41,90,95.1,89Z"/><path class="cls-7" d="M37.28,2.7c-5.07-.41-10.21.45-15.24-.78C27.13,2,32.28.79,37.28,2.7Z"/><path class="cls-10" d="M99.39,89.59l1-1.2a11.31,11.31,0,0,1,8.75,1.2,4,4,0,0,1,3.08,1.12C107.85,91.33,103.64,90.21,99.39,89.59Z"/><path class="cls-11" d="M117.26,88.15c-.05-2.74-.24-5.51,1.91-7.71.07.51.15,1,.23,1.55A7.21,7.21,0,0,1,117.26,88.15Z"/><path class="cls-12" d="M88.32,9.76c4.39,0,8.79,0,13.18.07a7.89,7.89,0,0,0,6.85-3c2.57.84,7.93,9.86,7.2,12.1s-.68,2.23.94,3.93c2.21,2.33.67,5.26,1.12,8.28-1.32-1.56-2.08-4.49-4.47-1.62-.35.56-.73,1.27-1.36,1.37-6.46.92-12.92,2.52-19.4.13-1.79-1.92-2.81-4-1.07-6.47a5.1,5.1,0,0,1,1.46-.21c3.82,0,7.65,0,11.48,0h-12c-1,0-2.12.16-2.36-1.18s.78-2.09,1.9-2.51c2.22-.85,4.57-.61,6.88-.68a18.22,18.22,0,0,0,6-.67c-3-.73-6.09-1.06-9.12-1.63-2.22-.41-4.76-.42-5.57-3.29,2.73-2.35,5.84-.15,8.08-1h-7c-2.31,0-3.95-.56-2.8-3.41Z"/><path class="cls-13" d="M115.28,44.56c.8,1.31,2.42,2.47.82,4.25-1.38,2.58-3.55,3.09-6.24,2.49a48.85,48.85,0,0,0-8.26-1c-6-.11-11.78,1.57-17.74,1.61-2.43.06-4.89,0-7.1,1.27a7.77,7.77,0,0,1-3.25.24,27.14,27.14,0,0,0-9.29.55,9.35,9.35,0,0,1-4.4.1c-2-.39-3.3-1.55-3.36-3.65a3.59,3.59,0,0,1,3.13-3.82c2.07-.45,4.29-.28,6.08-1.68a103.37,103.37,0,0,1,22.51-3.71,14.76,14.76,0,0,0,4.45.27c2.85-.15,5.7-.61,8.55,0a28.6,28.6,0,0,0,9.35.79C112.53,42.14,114.59,42,115.28,44.56Z"/><path class="cls-14" d="M92.19,29.92c7,.89,14-.3,21-.45a5.58,5.58,0,0,0,2.49,4.39c.58,2.83,0,4.65-3.46,4.11-7.26-1.13-14.47-1.37-21.45,1.49a4.82,4.82,0,0,1-2.4-.73c-2.35-1.82-4.92-1.14-7.61-1C73.27,38,66.1,40.79,58.57,40a4.13,4.13,0,0,1-2.86-3.52c.51-2.81,1.87-4.81,5-5.09,2.75,1,5.49.45,8.24,0,6-1,12-2,18-3C88.92,28,90.9,27.8,92.19,29.92Z"/><path class="cls-15" d="M111.41,61.77c-1.14,1.85-3.29.57-4.87,1.48,1.58.73,3.43-.1,4.68,1.19.06,2.17-4.64-1.7-2.94,2.44-2.93,2.37-6.31,2-9.68,1.55-4.42-1.52-9-1.24-13.55-1.18-2.64,0-4.85-.53-6-3.15a3.27,3.27,0,0,1-.16-1.61,15,15,0,0,1,8.57-3.23c7.93-.74,15.89-1,23.56,1.88Z"/><path class="cls-16" d="M83.2,50.63c6.24-1.29,12.52-2.21,18.92-1.61.19,1.74-1.29.85-1.6,1.18,3.85.31,8.79-2.06,11.55,3.39l-5,1.93c-.6,1.29-1.82,1.53-3,1.77a38.07,38.07,0,0,1-12.69.06,36.46,36.46,0,0,0-4.76-1.21C83.55,55.64,81.78,54.05,83.2,50.63Z"/><path class="cls-17" d="M90.56,38.65c6.52-4.7,14-3.26,21-2.32,3.26.44,3.53-.28,4.12-2.47a2.72,2.72,0,0,1,.38-.28c1.88,2,1.42,8.77-.73,11-3.21-1.65-6.65-.36-10-.8-1.73-.23-3.58.3-5.19-.77,1.47-2.47,4-1.68,6.17-2.23-4.6.58-9.68-2.7-13.8,1.84a3,3,0,0,1-3.38,0C88,39.44,88.07,39.31,90.56,38.65Z"/><path class="cls-18" d="M98.49,66.67l9.79.21,1.14.85c1.9,1.56,1.16,2.86-.65,3.49-1.49.52-2.92,1.19-4.41,1.71a105.15,105.15,0,0,1-18.17-.83c-1.81-.54-3-1.61-2.48-3.62.4-1.74,1.82-2.27,3.43-2.2C90.92,66.43,94.73,65.8,98.49,66.67Z"/><path class="cls-19" d="M115.23,71.75c.63,2.29,2,4.48,1,7l0,0c-5.37,1.22-10.78,3.62-16-.51-.55-3.81.71-5.42,4.63-3.8a3.5,3.5,0,0,0,2.77.37A40,40,0,0,1,114,71.4,1.39,1.39,0,0,1,115.23,71.75Z"/><path class="cls-20" d="M112.07,53.59c-4.61-3.89-10.25-2.47-16.25-3,2.38-1.31,4.71-.1,6.3-1.55,4.65-1,9.37,3,14-.21,0,1,0,1.94.09,2.91C116.48,56,114.6,55.51,112.07,53.59Z"/><path class="cls-21" d="M104.25,55.8l2.86-.28c3.5,0,6.54.85,8.35,4.4-.83,1.57-2.43,1.73-4,1.85l-.15-.14c-1.33-.67-4.16-.42-4-1.08.62-3.17-2.58-1.57-3.2-3A1.49,1.49,0,0,1,104.25,55.8Z"/><path class="cls-22" d="M115.23,71.75l-.48-.09-.48.1c-2.74,1.24-5.51,2.2-8.5.75-.19-.23-.39-.46-.59-.68.27-1.61,1.14-2.1,2.76-1.76,2.33.5,1.77-1.06,1.48-2.34,2.06-.56,4.33-1.46,6.14,0C116.82,68.71,116.34,70.46,115.23,71.75Z"/><path class="cls-23" d="M46.24,86.71c.83,6.75-3.51,5.1-7.31,4.56-8.18-1.17-16.42-.62-24.65-.56-1.53-.22-3.39.71-4.51-.91-.59-.86.1-1.9.61-2.76,2.29,1.84,2.54-4.82,5.24-1.25,6.33-2.26,12.93-.56,19.5-1.44-2.37-.23-2.86-2.72-5-3.58C26.37,79.23,26.48,79.08,24,83c-1,1.59-3.2.56-4.86.66s-1-1.11-1.13-2c-.23-2.37,1.57-1.58,2.64-1.78a36,36,0,0,1,4-.26L20.3,77.74l-.44-.7a2,2,0,0,1,.9-2.13c7.55-.51,15.09-1.3,22.67-.62a4.07,4.07,0,0,1,3.17,3.36,10.7,10.7,0,0,1,0,2.19C46.44,82.12,48,84.51,46.24,86.71Z"/><path class="cls-24" d="M12.22,71.8a1.94,1.94,0,0,1-.62-2.59c.43-1,2.07.27,2.08-1.25-1.55,1.39-1.64-2.47-4-.8-3.2,2.27-5.25.58-5.31-3.52,0-2.3-.25-4.6-.38-6.9l.55,0a2.1,2.1,0,0,1,1.23-.59c.81.06,1.9,0,2.31.55,2.68,3.67.93-1.74,2.12-1h.4c.64-1,1.56-2.47,2.57-2,5.07,2.28,6.94-1.62,9.4-4.51a1.91,1.91,0,0,1,1.77-.68,3.08,3.08,0,0,1,.95,1.08A15.48,15.48,0,0,1,24.48,59c-3.92,5.14-3.87,5.79.74,8.49.52,3.8-1.84,5.89-4.6,7.72-2.4.6-3.13-1.89-4.83-2.6A14.63,14.63,0,0,1,12.22,71.8Z"/><path class="cls-25" d="M10.22,71.72c0,3-2.7,1.44-4.42,2.65,3.23,0,4.92,1.2,4.4,4.29h0c-5.2,1.2-6.51-1.4-5.79-6C6.24,69.05,7.2,68.88,10.22,71.72Z"/><path class="cls-26" d="M12.22,71.8c1.19-1.17,2.59-1,4-.64,1.35,1,1.22,2.75,1.79,4.15-.22,2.08-1.53,1.81-2.92,1.34-1.61,1.4-.6,3.74-1.94,5.45l-3-3.43h0C16.21,77.94,12.28,74.3,12.22,71.8Z"/><path class="cls-25" d="M5.86,84.61c-1.17-.07-2.5-.06-2.31-1.75s.77-3.23,3-3.08c1.33.09,2.74-.07,2.65,2C9.1,83.91,7.53,84.3,5.86,84.61Z"/><path class="cls-27" d="M10.22,71.72C8,70.33,6,70.59,4.38,72.72c.09-1.67-.78-3.9,2.12-4C8.57,68.61,10.66,68.66,10.22,71.72Z"/><path class="cls-24" d="M15.11,76.65c.27-1.39,1.76.15,2.16-.91,2.54-1.58,2.17,1.17,3.05,2.05l0-.05C18.34,78.45,16.43,79,15.11,76.65Z"/><path class="cls-28" d="M49.27,9.76l2,.13c2.56-.78,4,.49,3.8,2.83-.22,2.79,1.33,6.74-3.56,7.4a165.46,165.46,0,0,1-28.6-3c-1.47-.81-3.21-.69-4.71-1.32a4.83,4.83,0,0,1-3.13-5.09c.21-2.42,2.4-2.28,4.18-2.41,3.74-.27,7.54.44,11.24-.6C36.55,10.51,43.36,6,49.27,9.76Z"/><path class="cls-29" d="M49.27,9.76c-4.64.32-9.4-1.24-13.93,1.49-1.58.95-1.33-3.94-4.15-2.36-2.84-.08-5.69-.1-8.54-.13-3.47-.4-4-2.12-2.23-4.92,8.25-.06,16.44.37,24.29,3.28C46.36,7.74,48.34,7.87,49.27,9.76Z"/><path class="cls-30" d="M52.25,18.4a5.4,5.4,0,0,0-.94-8.51c2.8-3.41,4.85-.93,7,.9A5.06,5.06,0,0,0,57.81,15c-.52,1.06.33,1.59.92,2.22C61,19.58,60.18,23,61.82,25.6c-.39,3-4,3.95-4.41,7-.12.75-1.37.12-2-.46-1.11-3.43-4-5.1-6.77-6.92-.88-1.27-1-2.62.55-3.26C51,21.27,51.6,19.89,52.25,18.4Z"/><path class="cls-31" d="M59.3,11A115.6,115.6,0,0,1,82.36,9.7c1.8.75,3.22,1.65.58,3.11-1.3.72-2.89.36-4.31.76a10.84,10.84,0,0,1-2.48.12c-3-.23-5.86.84-8.84.69-2.23.58-4.47,1.25-6.78.71C57.9,14.47,57.19,13.12,59.3,11Z"/><path class="cls-28" d="M20.42,3.84c.2,1.84-.39,4.2,2.72,4.09C20.78,9.71,12,10.24,9.32,8.76c-.1-2-.71-3.95,0-5.93Z"/><path class="cls-32" d="M78.49,11.87C83,11.73,83,11.73,82.36,9.7c2-.87,4,.56,6,.19.23,2.73,2.25,2.94,4.31,3,2.76.05,5.53,0,9.12,0-4.28,1.92-8.51-.8-11.66,2.36-1,2.41-2.88,1.92-4.76,1.51C83.49,14.53,79.1,15.84,78.49,11.87Z"/><path class="cls-28" d="M59.3,11c-.44,1.68-.38,3,1.94,2.75,2.12-.25,4.23-.54,6.34-.82.86.49,2.24.39,2.2,1.92-2.57,2.63-8.55,3-12.71.88,0-1.75-4.51-4.61,1.22-4.94Z"/><path class="cls-33" d="M24.23,48.75c-.27,3.59-4,4.81-5.35,7.73-.92,1.91-4.14.27-4.25-.09-1-3.35-2.73-.54-4-.63-.84-3.44,1.72-2.78,3.57-2.94s3.94.56,4.06-2.3-1.46-3.79-4.06-3.77c-1.82,0-3.87.2-3.77-2.62.09-2.52,1.91-2.21,3.58-2.24s3.75.57,4.08-1.68c.37-2.49-1.11-4.42-3.27-5.64s-4.84-1-7.3-.79c-4.28.29-5.05-1.47-3.17-5l.4-.56c3.4-.71,6.92,0,10.33-.89,1.2-.32,1.89-.59.95-1.88-1.61-2.27-.79-3.57,1.68-4.19a5.69,5.69,0,0,1,3-.42c3.29.47,6.73-.13,9.85,1.43,5.24,2.14,10.93,1.88,16.34,3.08,5.15,1.15,8,3.52,8.4,7.13.82.93-1,2.78,1.13,3.24l1.85,3.13c1.86,1.23,1.86,1.23.1,2.6,8-1.81,15.9-3,23.69-4.52,2.37-.47,5-.63,7.28.75l1.22,1c-2,.76-.17,2.93-1.44,4-7.7.12-15,2.77-22.66,3.32-1.79,1.27-3.84.72-5.78.82-2.68.15-5.16.64-4.84,4.12s3.22,3.18,5.32,2.77c4.34-.85,8.75-1,13.07-1.92l2.94-.13c1.64-.53,3.3-.85,4.3,1,.88,1.63-.1,2.8-1.26,3.83C74.5,59.59,68,59,61.88,60.73c3.88,0,7.68,1.31,11.66.07a4.8,4.8,0,0,1,5.7,2v-.06c1,1.59.8,3-.79,4-6.61,3.38-14.07,3.46-21.08,5.31-4.55,1.2-8.93-2.25-8-8a15,15,0,0,0-2-10.43c-.24,1.63-.69,3.34-2.82,3.26A2.65,2.65,0,0,1,42,54.25c.12-3.17-5-3.32-3.78-7,2.09-3.12,1.63-6.4.79-10.43-2.23,2-1.41,4.72-2.79,6.37-2.42,2.24.68,6.05-2.29,8.13-2.38,1.61-4.23.19-4.48-1.78-.42-3.32-2.75-5.19-4.61-7.74C25.24,44.29,31.11,47.28,24.23,48.75Z"/><path class="cls-34" d="M9.32,8.76c4.59-.47,9.27.35,13.82-.83,2.73,0,5.52-.63,8.05,1C26.43,10.71,21.36,9,16.91,10c-1.13,5.84,3.8,4.4,6.56,5.68-.46,1.6-1.69,2.18-3.19,2.41-4.38.2-9,2.2-12.95-1.32-.06-.39-.11-.79-.17-1.18-1-1.89-2.43-3.61-2.79-5.83C5.82,8.42,7.64,9,9.32,8.76Z"/><path class="cls-35" d="M7.33,16.76c4.38.85,8.78-.93,13.17.08.95,1.05,1.95,2.1,2,3.63s-.45,2.13-2,1.41l-2.32.86c-1.13-1-2.66.07-3.83-.71-2.73.27-5.27-1.7-8.19-.35-1.22.56-3.44.78-3.87-1.61s.75-3.33,3-3.26C6,16.83,6.68,16.78,7.33,16.76Z"/><path class="cls-36" d="M4.32,28.78c-2.54-4.72-2-5.8,3-5.94,1.63-.05,3.27,0,4.91-.06,1.29,1.2,2.1,2.58,1.54,4.42-1.63,1.49-3.07,1.89-3.92-.74-.07-.21.09-.43,0-.64,0,4.38-4.06,1.31-5.54,3Z"/><path class="cls-37" d="M6.72,40.72c-1.75,0-3.36-.1-3.35-2.45,0-2.61,1.77-3.21,3.87-3.41,1.67-.17,2.91.24,3,2.25C10.31,39.56,9.13,40.73,6.72,40.72Z"/><path class="cls-38" d="M9.24,44.2c0,2.11-1.32,2.49-3,2.48s-3-.46-2.9-2.51,1.41-2.35,3.05-2.4S9.38,42.17,9.24,44.2Z"/><path class="cls-39" d="M4.37,9.75c4.85.07,2.49,3.58,2.79,5.83-2.44-.17-5.72.78-4.93-3.7A2.28,2.28,0,0,1,4.37,9.75Z"/><path class="cls-40" d="M13.18,27c-1.28-1.19-.72-2.8-1-4.22l2.2-.75c1.3.08,2.83-1,3.83.71L15.92,23l1.4,1.74C17.62,28.6,15.8,28.53,13.18,27Z"/><path class="cls-33" d="M9,49.13c-.25,1.55-.38,2.72-2.06,2.6-1.53-.11-3.15-.12-3.26-2.15C3.57,47.94,5,47.9,6.11,47.84S8.85,47.54,9,49.13Z"/><path class="cls-33" d="M5.39,56.79l-.43,0-.43,0C4,54.92,4.36,53.45,6.42,53c2.21-.49,1.76,2,2.89,2.77C8.61,58.42,6.88,57.15,5.39,56.79Z"/><path class="cls-2" d="M5.39,56.79c1.34-.2,2.91.44,3.92-1h.89c.38,2.39-.28,4.81.3,7.35C9.68,60.13,9.06,57.21,5.39,56.79Z"/><path class="cls-41" d="M12.45,40c-1.4-1.47-1.3-3-.34-5.21C13.69,36.77,13.05,38.41,12.45,40Z"/><path class="cls-42" d="M100.2,77.56c5.15,3.18,10.83-.88,16.06,1.17.93,2.76-1.09,4.15-2.71,5.66a3.57,3.57,0,0,1-1.73.39c-1.73-7-5.06-1.1-7.65-1-.35.27-.6.21-.74-.23-.94-1.1-2.16-.77-3.34-.67-3.51,2.06-7.42,1.62-11.15,1.42-8.87-.47-17.22,2.36-25.81,3.63a10.55,10.55,0,0,1-8.8-2.12c-.61-1.5-2.23-.17-3-1.09-4.19-2.51-4.19-2.63-.09-5.18a16.09,16.09,0,0,1,3.66-.33c9.68-.76,18.83-4.53,28.56-5,2.58,2.47,5.94,2.55,9.84.8C96.14,73.7,98.73,74.39,100.2,77.56Z"/><path class="cls-43" d="M54.33,85.83c7.86,1.73,15.26-1.37,22.85-2.27a109.72,109.72,0,0,1,22.91-.66c-.77,1.49-3.43,2.23-1.84,4.65C92.16,87.06,86.08,86.6,80,86c-.55-.06-1.07-.82-1.7-.18-5.84,5.9-13.58,5.17-20.86,5.79C54,92,50.79,91.34,55,87.08,55.07,87,54.56,86.26,54.33,85.83Z"/><path class="cls-44" d="M51.28,80.83c-3.69,1.3.78,2.61,0,3.91-1.44,1.27-2.85,2.61-5,2-1-1.93-.63-4.06-.89-6.1A5.53,5.53,0,0,1,49.26,79,2.18,2.18,0,0,1,51.28,80.83Z"/><path class="cls-45" d="M103.43,83.57l.75.23a11.32,11.32,0,0,1,4.95,5.79l-8.75-1.2c.53-3.43,2.85-.13,4.74-1.8C106.06,85.55,101.77,85.34,103.43,83.57Z"/><path class="cls-46" d="M85.14,15.72c1.66-.1,3.4.48,5-.49,5.53.69,11.07,1.44,16.62,2,1.58.17,2.5.68,2.59,2.31.11,2-1.62,1.33-2.51,1.53-4.56,1-9.23.54-13.86.69-.91,0-2.14-.3-2.33,1.12-.13,1,.83.81,1.39,1l.84.37-.86.32a1.06,1.06,0,0,0-.6.18c-2.14,4.09-2.48,4.23-4.79.68-1.15-1.78-2.3-1.82-4.09-1.58a54.49,54.49,0,0,0-11.46,2.53,11.39,11.39,0,0,1-9.79-.86c-1.84-1.32-4.51-2.23-2.31-5.39.16-.22-1.08-1.43-1.67-2.18C66.47,16.13,75.59,13.35,85.14,15.72Z"/><path class="cls-47" d="M61.26,25.58c7.66.67,14.68-2.44,22-3.72,4.79-.84,4.65,2.59,5.23,5.42,1.92,0,.42-3.39,2.89-2.47.27,1.71.54,3.41.8,5.11L87,29.62a9.24,9.24,0,0,0-8-1.85,31.57,31.57,0,0,1-9.43.71C65.83,28.1,63,30,60.15,32c-1.95.55-1.47,3.51-3.73,3.75-.42.61-.74,1.56-1.29,1.73-.75.22-.89-.77-.91-1.36,0-1.11.08-2.23.13-3.35.35-.93.87-1.5,1.95-1C58.08,29.8,58.85,27,61.26,25.58Z"/><path class="cls-47" d="M92,24.63a1,1,0,0,0,0-.69c5.73-.41,11.52.52,17.22-.89l.09,1.58Z"/><path class="cls-48" d="M74.23,51.73C68.59,53.34,62.94,55,57,54.72c-1.41,0-4.13.45-2.92-2.3.92-2.09-2.22-6.15,3-6.3,3.12-.09,6.22-.6,9.35-.18-1.07,3-3.68,1.4-5.58,1.83-1.66.38-3.62.48-3.34,2.74.24,2,2.18,2.51,3.84,2.22A67.5,67.5,0,0,1,74.23,51.73Z"/><path class="cls-49" d="M92.5,42.6c.29-4,1.92-5.28,6.18-4.12,3.77,1,7.89.74,12,1-2.43,5.07-7,2.58-10.58,3.47C97.6,42.55,95,43.71,92.5,42.6Z"/><path class="cls-50" d="M79.08,55.59c3.82-3.46.21-3.37-1.91-4,1.76-1.87,3.92-1.27,6-1,.28,5.58,5.52,3.2,8.12,5C87.2,60.6,82.75,60.56,79.08,55.59Z"/><path class="cls-51" d="M60.15,32c.37-3.17,1.88-5.26,5.32-5.11a82,82,0,0,0,16.72-1.24c3.64-.57,4.88.66,4.85,4C79,32,70.64,32.67,62.42,34.05,61,34.29,60.4,33.22,60.15,32Z"/><path class="cls-52" d="M89.34,37.68c-8.33,0-16.2,2.58-24.18,4.47-3.81.9-7.27-.55-10.88-.94L54.42,40c1.38.19,2.87.81,4.11.48,1.7-.44-.44-1-.26-1.63,7.31-.89,14.61-1.8,21.92-2.67C83.37,35.8,86.71,34.64,89.34,37.68Z"/><path class="cls-53" d="M79.08,55.59c4,2.84,8.14,2.18,12.24.09l12.93.12,7,5.83c-5.93-.3-11.86-.81-17.78-.81-3.73,0-7.85-1.15-10.86,2.61-1,1.2-1.76-2.83-3.39-.64-6,.06-12,.13-18,.15-1.44,0-3.59,1.45-3.94-1.3s1.85-2.64,3.66-3C67,57.68,73,56.63,79.08,55.59Z"/><path class="cls-42" d="M77.29,65.7c1.81-.23,1.68-1.72,1.94-3,1.62,2.67,4,3.33,7,3.29,4.07,0,8.23-1,12.22.65-3.65,0-7.29.06-10.94.15-1.39,0-2.8.44-2.92,2.08-.15,2,1.59,1.7,2.81,1.94-.21,2.52-2.14,3-4.09,3.34-2.9.19-5.79.33-8.51-1a4.05,4.05,0,0,1-1.33-3.34C74.05,67.8,76.24,67.28,77.29,65.7Z"/><path class="cls-24" d="M83.21,73.65c.57-2.21,3.18-1.33,4.23-2.81,6-.59,11.81.93,17.74,1l0,0c1.11,1.55,3.75,2,3.25,4.71-1.17.9-2.25.19-3.06-.45-2.46-1.91-4-.93-5.15,1.43a11.3,11.3,0,0,0-7-1.41,12.06,12.06,0,0,1,1.61.53c.63.31.48.86-.08.87-3.48.1-7,.25-10.44.06-1.39-.07.73-2.32-1.09-2.65A.85.85,0,0,1,83.21,73.65Z"/><path class="cls-1" d="M108.41,76.58a7.48,7.48,0,0,0-3.5-2.68c-2.07-1,.29-1.34.25-2l9.11-.11C113.94,75.33,109.2,73.56,108.41,76.58Z"/><path class="cls-54" d="M20.54,74.82c.6-3.06,2.91-4.92,4.94-7l.55-.44c3.85-.72,7.32.66,10.8,2,1.77,1.18,3.91.65,5.8,1.23,3.16,1,3.36,2.43.78,5-7.64,0-15.27,1.38-22.92.11q-.52-.33-.33-.63C20.29,74.92,20.41,74.82,20.54,74.82Z"/><path class="cls-44" d="M43.41,75.63c1.34-1.89,1.3-3.13-1.34-3.77-1.87-.47-4.16,1.09-5.65-1.14,1.55-2.12,3.84-1.23,5.86-1.44,2.23,0,4.45.08,6.13,1.89a9.77,9.77,0,0,1,1.23,4.55c-.74,1.85-1,4.32-4.11,3.06C44.78,77.76,45.32,75.87,43.41,75.63Z"/><path class="cls-42" d="M45.53,78.78c2.57.43,1.52-3.08,3.54-3.25l.76-.14c2.39.21,5.32-1.28,6.71,2.11a2.75,2.75,0,0,1-2.34,1.67c-1.58.56-3.28.22-4.88.63-1.11,1.34-2.59.84-4,.81Z"/><path class="cls-2" d="M20.54,74.82a1.61,1.61,0,0,0-.05.92c-.06.68-.11,1.37-.17,2.05-1-.68-1.5-2.16-3.05-2.05a7.53,7.53,0,0,1-1-4.59C19.1,70.71,18.06,74.83,20.54,74.82Z"/><path class="cls-55" d="M24.23,48.75c1.21-1.38,2.94-2.59.13-4.29-1.33-.81-1.3-2.61-1.12-4.13.12-1.07,1.21-.94,1.89-1.28,1.57-.79,1.15.65,1.14,1.21,0,3.27,2.22,4.13,4.78,4.73-2.19,2.32,0,4.09.82,6a7.24,7.24,0,0,0,1.33-.35,2.16,2.16,0,0,1,1.58,2.88c-3,2.58-2.75,6.76-4.16,10-1.31,3.06-3.18,3.28-5.23,4.29h.09c-2.46,0-5.58.33-5.79-3-.15-2.41-.06-5.65,3.68-6.19,2.33-2.69,2.49-5.64,1-8.77Z"/><path class="cls-56" d="M24.39,49.89c3.41,3.63,3.23,5.16-1,8.77Z"/><path class="cls-57" d="M20.57,21.88c0-1.68-.05-3.36-.07-5l3-1.17c9.61.7,19.09,2.78,28.78,2.73l2.08,3.54c-1.11,2.26-4.77-1.2-5,2.58-3.25,2.66-6.6.11-9.83-.05-3.07-.14-6.18-.58-9.28-.72C27.25,22,23.55,23.78,20.57,21.88Z"/><path class="cls-58" d="M85.14,15.72,57.27,18c-.12-.76-1.39-1.41-.2-2.28,3.39.51,6.73-1.34,10.18-.1,1,.37,1.75-.62,2-1.68,2.13-1,4.49-1.3,6.71-2l2.48,0C80.27,13.9,84.26,12.13,85.14,15.72Z"/><path class="cls-59" d="M30.25,23.75c5.5-3,10.82.48,16.24.48a27.9,27.9,0,0,1,2.87.29c3.33,1.43,7,2.55,6.94,7.24l-1.95,1c-1.23-4.15-4.77-5.07-8.33-6C40.82,25.48,35.27,26,30.25,23.75Z"/><path class="cls-32" d="M76,11.9a13.3,13.3,0,0,1-6.71,2l-1.71-1Z"/><path class="cls-60" d="M34.33,53.67c-.38-1-.76-2-1.13-3,1.13-1.27.82-2.53.3-4s-1.15-3.6,1.55-4.15c2.64.77,3.47,3,4.2,5.27,1.3,2.68,1.3,2.68,4.85,1.68-1.37,2.43-1.65,4.68.74,6.84,1.69-2.5,1.14-5.19.69-8,4.06,2.36,6.84,11.09,5.59,16.54-.91,4,1.85,6.77,6,5.75,6.72-1.63,13.77-1.88,20.17-4.84.47,2.44-1.41,3.14-3,4a4.68,4.68,0,0,1-2.85,1.86c-6.31,1.62-12.83,1.32-19.25,2a4.39,4.39,0,0,1-4-1.73l-5.08-1.32a8.2,8.2,0,0,0-2.31-.84c-1.28-.23-2.26-.87-1.91-2.31s1.58-1.35,2.77-1a2.33,2.33,0,0,0,3-1c-1.9,2.6-4.84,1-6,.21-2.77-1.81.82-4.71-.18-7.2-1.26,1.21-.51,4.67-3,4.12s-1.82-3.49-2-5.56A9.44,9.44,0,0,1,34.33,53.67Z"/><path class="cls-61" d="M39.25,47.75c-3.64,0-3-3.32-4.2-5.27.5-1.37,1.19-2.63.45-4.24C34.92,37,35,35.55,36.67,35a3.86,3.86,0,0,1,4.45,1.28c.72.81,1.25,1.83.55,2.67C39.49,41.54,44.16,46,39.25,47.75Z"/><path class="cls-4" d="M13.18,27c2,.4,3.76.35,4.14-2.24,1.71.34,2.06,1.52,1.71,3s-1.61,1.2-2.78,1.17c-2.53-.07-5.82-1.37-6.08,3.67-.39-4.38-3.23-3.93-5.89-3.78,1.12-1.92,4.11.12,5.21-2.78C10.06,24.5,11.07,29.67,13.18,27Z"/><path class="cls-62" d="M46.73,38c2.83.72,3.23,2.82,3.71,4.65a3,3,0,0,1-1.83,3.25,2.76,2.76,0,0,1-2.35,0c-2.26-1.4,1.68-1.12.83-2.79C46.4,41.83,48,39.8,46.73,38Z"/><path class="cls-63" d="M12.06,10c-.52.63-1,1.22-1.45,1.74-1,1.1,1.25,3.37-.9,3.66-2,.26-1.34-1.86-1.4-3C8.19,9.74,9.83,9.46,12.06,10Z"/><path class="cls-64" d="M53.33,77.84l2.6-.21c2.07-2.41,5.38-1.95,7.86-3.43,3.77-.9,7.29-3.67,11.47-1.6l7.95,1.05c0,.44,0,.88,0,1.31-3.07,2.81-7.38,2.43-10.86,3.09-5.58,1-11.26,2.51-17.06,2.48C54.15,80,52.65,79.67,53.33,77.84Z"/><path class="cls-23" d="M53.33,77.84l1.91,2.69-4,.3-2-1Z"/><path class="cls-18" d="M75.26,72.6l-11,3.15c-4.94.07-9.88,1-14.83.08l-.38-.3c-.49-1.17-1.81-2.14-.85-3.64,8.77.23,17.34-1.83,26.06-2.15C74.61,70.69,74.93,71.65,75.26,72.6Z"/><path class="cls-24" d="M34.33,53.67c2,2.27.11,5.23,1.81,8.38.13-2.17.26-3.64.3-5.12.05-1.74,1.09-2.27,2.61-2.25,1.81,0,2.38,1.2,2,2.66-.59,2.49-.55,5.18-2.11,7.6,1.23-1.51,5.2,4,4.74-2.08,0-.31,2.24,1.46,4.91,1.22-3.34,2.07-5,4.88-8.81,2.64.4,2.59,3,2.17,3.32,3.85l-6.72.15-11-2.87c-.54-.6-1.07-1.21-2.12-2.4l5.88.81c-.33-1.35-.65-2.57-.93-3.8-.17-.76-.64-1.53.59-2,2.18-.82,2.37-.91,2.11-3.33C30.63,54.36,31.22,52.9,34.33,53.67Z"/><path class="cls-23" d="M49.45,75.83c4.94-.17,9.88-1.78,14.83-.08a18.29,18.29,0,0,1-8.35,1.88C54.07,76,51.18,78,49.45,75.83Z"/></g></g></svg>